<?xml version="1.0" encoding="utf-8"?>
<!-- Generator: Adobe Illustrator 25.2.3, SVG Export Plug-In . SVG Version: 6.00 Build 0)  -->
<svg version="1.1" id="Layer_1" xmlns="http://www.w3.org/2000/svg" xmlns:xlink="http://www.w3.org/1999/xlink" x="0px" y="0px"
	 viewBox="0 0 600 600" style="enable-background:new 0 0 600 600;" xml:space="preserve">
<style type="text/css">
	.st0{opacity:0.1;fill:#00571E;}
	.st1{fill:#F29555;stroke:#000000;stroke-width:7;stroke-miterlimit:10;}
	.st2{fill:#08497E;stroke:#000000;stroke-width:7;stroke-miterlimit:10;}
	.st3{fill:#00571E;}
	.st4{fill:#002C0F;stroke:#000000;stroke-width:7;stroke-miterlimit:10;}
	.st5{fill:#00571E;stroke:#000000;stroke-width:7;stroke-miterlimit:10;}
	.st6{fill:#063358;}
	.st7{fill:#F7E3CD;}
	.st8{fill:none;stroke:#000000;stroke-width:7;stroke-miterlimit:10;}
	.st9{fill:#F29555;}
	.st10{fill:#F2C59E;}
	.st11{fill:#EAAACB;}
	.st12{fill:#002C0F;}
	.st13{fill:#FFFFFF;}
</style>
<circle class="st0" cx="306" cy="300" r="275"/>
<ellipse transform="matrix(0.9138 -0.4062 0.4062 0.9138 -80.5126 188.2537)" class="st1" cx="403.3" cy="283.8" rx="70.7" ry="76.2"/>
<path class="st2" d="M448.8,595.5H164.6c-11.1,0-20-9-20-20V360.3c0-11.1,9-20,20-20h284.2c11.1,0,20,9,20,20v215.2
	C468.8,586.5,459.8,595.5,448.8,595.5z"/>
<g>
	<path class="st3" d="M267.2,115"/>
	<path class="st3" d="M314.7,67.4"/>
	<path class="st3" d="M295.7,67.4"/>
</g>
<path class="st2" d="M473.5,380.7h-336c-11.1,0-20-9-20-20v-40.6c0-11.1,9-20,20-20h336c11.1,0,20,9,20,20v40.6
	C493.5,371.8,484.5,380.7,473.5,380.7z"/>
<g>
	<rect x="252.4" y="300.9" class="st4" width="121.8" height="77.3"/>
	<rect x="282.2" y="300.9" class="st5" width="62.1" height="77.3"/>
</g>
<rect x="148" y="384" class="st6" width="317" height="40"/>
<g>
	<rect x="273" y="386.5" class="st4" width="80.6" height="208.2"/>
	<rect x="292.7" y="386.5" class="st5" width="41.1" height="208.2"/>
</g>
<g>
	
		<ellipse transform="matrix(0.1183 -0.993 0.993 0.1183 -156.4357 511.2371)" class="st1" cx="209.7" cy="343.7" rx="130" ry="46.9"/>
	
		<ellipse transform="matrix(0.1183 -0.993 0.993 0.1183 -243.7903 569.3539)" class="st7" cx="198.7" cy="422" rx="51.8" ry="32.5"/>
	
		<ellipse transform="matrix(0.1183 -0.993 0.993 0.1183 -156.4357 511.2371)" class="st8" cx="209.7" cy="343.7" rx="130" ry="46.9"/>
</g>
<g>
	
		<ellipse transform="matrix(0.9781 -0.2081 0.2081 0.9781 -60.4254 89.8987)" class="st1" cx="397.1" cy="332.2" rx="46.9" ry="130"/>
	
		<ellipse transform="matrix(0.9781 -0.2081 0.2081 0.9781 -76.2178 94.7748)" class="st7" cx="412.4" cy="409.7" rx="33.7" ry="51.8"/>
	
		<ellipse transform="matrix(0.9781 -0.2081 0.2081 0.9781 -60.4254 89.8987)" class="st8" cx="397.1" cy="332.2" rx="46.9" ry="130"/>
</g>
<g>
	<g>
		<path class="st9" d="M397.3,100.3c3.7-32.2-3.2-64.3-8.5-82.8c-2.3-8-10.6-12.6-18.5-10.3c-0.7,0.2-1.5,0.5-2.2,0.8
			c-34.7,16-53.4,35.7-63.2,50.5c-13-0.6-26.1,0.3-38.9,2.7c-12.8,2.3-25.4,6-37.3,11.2c-14.5-10.3-38.9-22.2-77-24.9
			c-8.2-0.6-15.4,5.6-16,13.9c-0.1,0.8,0,1.5,0,2.3c1.6,19.2,6.4,51.6,21.3,80.4c-13.4,31-14.4,75.2-8.5,107.8
			c5.3,29.2,66.3,88.3,165.1,70.3s135-94.9,129.7-124C437.4,165.6,420.8,124.6,397.3,100.3L397.3,100.3z"/>
		<path class="st7" d="M369.2,188.8c-30.5,5.6-38.1,38.1-71.8,44.3c-33.7,6.1-52.3-21.6-82.8-16.1c-44.2,8.1-56.2,48.7-57.5,53.5
			c20.6,29.8,76.1,66.4,156.6,51.7c80.5-14.7,119.5-68.5,128.2-103.6C438.9,214.5,413.4,180.7,369.2,188.8z"/>
	</g>
	<path class="st10" d="M308.9,299.9c-66.7,12.2-118.7-5.9-151.8-29.8l-0.1,0.4c20.6,29.8,76.1,66.4,156.6,51.7
		c80.5-14.7,119.5-68.5,128.2-103.6c-0.2-0.3-0.4-0.6-0.8-1.1C418.7,251.9,376.3,287.6,308.9,299.9z"/>
	<g>
		<path class="st7" d="M191.2,93.9c-9.1-6.6-23-16.6-28.1-18.7c-20.2-8.6-25,8.3-25,8.3c2.8,17.4,8,38.8,17.8,58.6
			c15.5-22.3,45.1-44.9,45.1-44.9C197.5,97.1,194,96,191.2,93.9L191.2,93.9z"/>
		<path class="st7" d="M347.6,65.3c6.1-9.4,15.7-23.6,19.7-27.4c15.9-15.2,26.3-1.1,26.3-1.1c3.6,17.3,6.2,39.1,4,61.1
			c-22.4-15.4-58-26.1-58-26.1C342.8,70.6,345.7,68.3,347.6,65.3z"/>
		<path class="st7" d="M251.2,144.4c1.1,6.2-4.2,12.4-11.8,13.8s-15.2-4.9-16.4-11.1s4.6-10,12.3-11.4
			C242.9,134.3,250,138.2,251.2,144.4L251.2,144.4z"/>
		<path class="st7" d="M310.2,133.6c1.1,6.2,8.3,10.1,15.9,8.7c7.7-1.4,12.5-10,11.4-16.2c-1.1-6.2-7.8-7.7-15.5-6.3
			S309.1,127.4,310.2,133.6z"/>
	</g>
	<path d="M404.2,98c3.1-31.4-3.1-62.1-9-82.6C391.9,4.1,380.2-2.4,369,0.8c-1,0.3-2.1,0.7-3,1.1c-34.4,15.9-53.7,35.5-64,50
		c-24.9-0.5-49.6,4-72.7,13.3c-14.9-9.9-39.8-21.5-77.6-24.2C140,40.2,129.8,49,129,60.6c-0.1,1.1-0.1,2.2,0,3.2
		c1.7,21.2,6.8,52.1,20.7,80.5c-14,34.9-13.1,80.3-7.8,109.1c2.9,15.7,19.6,39.5,50.7,57.2c24.5,14,65.6,28.5,122.2,18.2
		s90-38.4,107.9-60.2c22.8-27.6,30.1-55.7,27.2-71.4C444.7,168.4,429.6,125.6,404.2,98L404.2,98z M371.1,13.1c2.3-1.1,5-1.1,7.4,0
		c2.4,1.1,4.1,3.1,4.9,5.7c0.5,1.7,1,3.7,1.6,5.8c-0.4-0.1-0.8-0.1-1.2-0.1c-6.9-0.6-13.8,2.3-20.4,8.7
		c-3.5,3.3-10.4,12.9-20.7,28.6c-2.4,3.7-6.8,5.5-11.1,4.7c-5.9-1.2-13.5-3.6-18.8-8.5C322.5,44.7,340.1,27.4,371.1,13.1z
		 M143.8,55.9c1.3-1.3,2.9-2.2,4.7-2.5c0.7-0.1,1.5-0.2,2.3-0.1c34.1,2.5,56.6,12.4,70.3,21.3c-3.2,6.5-9.5,11.4-14.6,14.6
		c-3.7,2.3-8.5,2.1-12-0.5c-15.1-11-25-17.6-29.4-19.5c-8.4-3.6-15.9-3.9-22.2-0.9c-0.4,0.2-0.7,0.4-1,0.5c-0.2-2.1-0.4-4.1-0.6-5.9
		C141.1,60.3,142,57.7,143.8,55.9z M413.3,260.9c-16.7,20.2-47.7,46.3-100.6,55.9c-53,9.7-91.2-3.8-113.9-16.8
		c-26.2-15-42.4-35.9-44.7-48.8c-5.5-30-5.1-73.8,8-104.4c3.4-5.8,7.3-11.3,11.8-16.3c2.3-2.5,2.2-6.4-0.3-8.7
		c-2.5-2.3-6.4-2.2-8.7,0.3c-2.7,2.9-5.2,6-7.5,9.3c-7-16.5-11.1-33.5-13.5-47.6c0.9-2,2.4-3.5,4.3-4.5c2.9-1.4,7-1,12,1.2
		c3.4,1.4,13.4,8.2,27,18.1c7.6,5.6,17.8,6,25.8,1c7.3-4.6,16.5-12.1,20.5-22.9c21.7-8.8,45.1-13,68.5-12.5
		c7.5,8.7,18.8,12.5,27.3,14.1c9.2,1.8,18.6-2.1,23.7-10c9.2-14.1,16.3-23.9,18.9-26.4c4-3.8,7.6-5.6,10.8-5.3
		c2.1,0.2,4.1,1.2,5.6,2.7c2.8,14,5,31.4,4.2,49.3c-3.3-2.2-6.8-4.2-10.3-6c-3-1.5-6.7-0.3-8.2,2.7c-1.5,3-0.3,6.7,2.7,8.2
		c6,3.1,11.6,6.8,16.8,11.1c23.1,24,38.9,64.9,44.4,94.9C440.2,212.3,432.5,237.5,413.3,260.9z"/>
	<path d="M348.1,245.5c-20.8,13.1-37.3,2.4-42-1.4l-0.2-0.9c5.7-2.3,10.7-6.2,14.4-11.2c4.8-6.5,7.1-14,6-20.1
		c-2.3-12.4-17.8-19.6-35.3-16.4c-17.5,3.2-29.5,15.4-27.2,27.8c2,10.9,15.2,21.8,30.1,22.1l0.2,0.9c-3.1,5.2-14.8,21.1-38.8,16.1
		c-3.3-0.7-6.6,1.4-7.3,4.6c-0.7,3.3,1.4,6.6,4.6,7.3c0.1,0,0.1,0,0.2,0c6.6,1.4,13.4,1.6,20.1,0.4c7.6-1.4,14.8-4.7,20.8-9.7
		c3.2-2.6,6-5.6,8.4-8.9c3.5,2.2,7.2,4,11.1,5.4c7.3,2.5,15.2,3.1,22.9,1.7c6.6-1.3,13-3.8,18.7-7.5c2.8-1.8,3.6-5.6,1.8-8.5
		C354.6,244.6,350.9,243.8,348.1,245.5z"/>
	<path d="M251.7,180.8c-0.4-2.4-2.2-4.3-4.6-4.9l-25.1-6c-3.3-0.9-6.6,1.1-7.5,4.3c-0.9,3.3,1.1,6.6,4.3,7.5c0.1,0,0.2,0.1,0.4,0.1
		l11.5,2.7l-9.8,6.6c-2.7,2-3.4,5.8-1.4,8.5c1.9,2.6,5.5,3.3,8.2,1.6l21.4-14.4C251.1,185.6,252.2,183.2,251.7,180.8z"/>
	<path d="M355.1,166.8l-11.5-2.7l9.8-6.6c2.7-2,3.4-5.8,1.4-8.5c-1.9-2.6-5.5-3.3-8.2-1.6l-21.4,14.4c-2.8,1.9-3.5,5.7-1.7,8.5
		c0.9,1.3,2.2,2.2,3.7,2.5l25.1,6c3.3,0.9,6.6-1.1,7.5-4.3c0.9-3.3-1.1-6.6-4.3-7.5C355.4,166.9,355.2,166.8,355.1,166.8z"/>
</g>
<g>
	<path class="st11" d="M287.6,113.2c-0.2,0.2-0.5,0.4-0.7,0.6C287.1,113.6,287.4,113.4,287.6,113.2
		C287.6,113.2,287.6,113.2,287.6,113.2z"/>
	<path class="st12" d="M283.2,47.4c-17.8-14.8-41.7-22.6-65.4-21.2C233.3,44.5,259.3,53,283.2,47.4z"/>
	<path class="st12" d="M392.2,26.1c-23.1-1-47,6.6-64.4,20.6C351.1,50.3,375.8,42.4,392.2,26.1z"/>
	<path class="st11" d="M323.5,114c0.3,0.2,0.6,0.4,0.9,0.6C324.1,114.4,323.8,114.1,323.5,114C323.5,113.9,323.5,113.9,323.5,114z"
		/>
	<path class="st11" d="M360.1,131.9c-7.3-2-14.3-4.6-20.9-8C345.1,126.9,352,129.8,360.1,131.9z"/>
	<path class="st3" d="M331.1,56.2c3.7,6,5.8,12.9,5.8,20.1c0,0.6,0,1.1,0,1.7l36.8,7.4c2.4,0.5,4,2.8,3.5,5.3
		c-0.4,2.1-2.3,3.6-4.4,3.6c-0.8,0,1.2,0.3-37.4-7.4c-1.8,6.4-5.3,12.2-10.2,16.9c10.9,9.5,24.5,16.5,39.6,20.1
		c11.2,2.7,22.8,3.4,33.9,2.1c16.1-29.6,16.7-65.5,1.9-95.6C383.1,49.2,356.7,58.7,331.1,56.2z"/>
	<path class="st3" d="M239.1,94.1c-2.4,0.5-4.8-1.1-5.3-3.5c-0.5-2.4,1.1-4.8,3.5-5.3l36.8-7.4c0-0.6,0-1.1,0-1.7
		c0-6.7,1.8-13.3,5.1-19c-11.5,1.7-23.4,0.7-34.6-2.9c-13.8-4.4-25.8-12.6-34.6-23.4c-14.5,30-13.8,65.6,2.2,95h0
		c25.8,3,53.3-5,73.1-22.6c-4.6-4.6-8-10.2-9.8-16.5L239.1,94.1z"/>
	<path class="st12" d="M293.6,98.7h23.8c6.9-5.7,10.5-14,10.5-22.4c0-8.6-3.9-16.9-10.5-22.4h-23.8C287,59.4,283,67.6,283,76.3
		C283,84.7,286.6,93,293.6,98.7z"/>
	<path d="M318.9,103.2H292c-0.1,1,0,3.3,0,6.8c2.5-1.8,4-2.8,4.4-2.3h17.9c1.3,0.7,2.8,1.7,4.5,3C318.9,106.4,319,103.8,318.9,103.2
		z"/>
	<path d="M247.3,128.3l-0.1-0.3c-12.3,3.1-25.3,3.8-37.8,2c-19.1-33.3-19.1-74.3,0-107.6c29.6-4.2,61.4,5.7,82.6,26.9h26.1
		c21.2-21.2,53.7-31.1,83.4-26.9c0,0,0,0,0.1,0c19.1,33.3,19.1,74.3,0,107.6c-12.4,1.8-25.3,1.1-37.7-1.9l-0.1,0.4
		c0.5,1.4,1,2.8,1.6,4.1c1.9,0.4,3.8,1.1,5.7,1.8c-0.1-0.1-0.1-0.2-0.2-0.3c10.8,1.7,21.3,1.8,31.2,0.4h0c0,0,0.1,0,0.1,0
		c1.3-0.2,2.5-0.9,3.2-2.2c0,0,0,0,0,0c9.7-17,14.9-36.4,14.9-56c0-19.6-5.1-39-14.9-56c-0.7-1.2-1.9-2-3.3-2.2c0,0,0,0,0,0
		c-30.2-4.3-63.5,5.5-85.8,26.9h-22.4c-21.9-21-54.2-31.3-85-26.9c-1.4,0.2-2.5,1-3.3,2.3c0,0,0,0,0,0c-9.7,17-14.8,36.4-14.8,56
		c0,19.6,5.1,39,14.9,56c0.7,1.2,1.9,2,3.3,2.2c10.2,1.5,20.8,1.3,31.3-0.4c1.9-0.3,3.7-0.7,5.4-1.1
		C246.2,131.5,246.8,129.9,247.3,128.3z"/>
	<path d="M292,103.2c-7-5.3-11.7-13.1-13-21.6c-0.3-1.7-0.4-3.5-0.4-5.3c0-10.6,5-20.6,13.5-26.9c-21.2-21.2-52.9-31.1-82.6-26.9
		c-19.1,33.3-19.1,74.3,0,107.6c12.6,1.8,25.5,1,37.8-2l0.1,0.3c-0.6,1.6-1.2,3.2-1.8,4.7c19-4.4,32.9-13.3,41.4-19.3
		c0.2-0.2,0.5-0.4,0.7-0.6c0,0,0,0,0,0c1.7-1.2,3.2-2.4,4.5-3.3C292,106.5,291.9,104.2,292,103.2z M283.2,47.4
		c-23.8,5.6-49.8-2.8-65.4-21.2C241.4,24.8,265.4,32.6,283.2,47.4z M212.3,125.9L212.3,125.9c-16-29.4-16.7-65-2.2-95
		c8.8,10.8,20.8,19,34.6,23.4c11.2,3.6,23,4.6,34.6,2.9c-3.3,5.7-5.1,12.3-5.1,19c0,0.6,0,1.1,0,1.7l-36.8,7.4
		c-2.4,0.5-4,2.8-3.5,5.3c0.5,2.4,2.9,4,5.3,3.5l36.5-7.3c1.8,6.3,5.1,11.9,9.8,16.5C265.6,120.9,238,129,212.3,125.9z"/>
	<path d="M332.4,76.3c0,1.8-0.1,3.6-0.4,5.3c-1.4,8.6-6,16.3-13,21.6c0.1,0.6,0,3.2,0,7.4c1.4,1,2.9,2.1,4.6,3.3c0,0,0,0,0,0
		c0.3,0.2,0.6,0.4,0.9,0.7c4,2.9,8.9,6.2,14.9,9.3c6.5,3.3,13.5,6,20.9,8c1.7,0.1,3.4,0.4,5.2,0.8c-0.6-1.3-1.1-2.7-1.6-4.1l0.1-0.4
		c12.4,3,25.3,3.7,37.7,1.9c19.1-33.3,19.1-74.3,0-107.6c0,0,0,0-0.1,0c-29.6-4.2-62.2,5.8-83.4,26.9h0.8
		C327.4,55.7,332.4,65.7,332.4,76.3z M400.6,30.3c14.8,30.1,14.2,66-1.9,95.6c-11,1.3-22.7,0.6-33.9-2.1
		c-15.1-3.6-28.7-10.6-39.6-20.1c4.8-4.6,8.3-10.4,10.2-16.9c38.6,7.7,36.5,7.4,37.4,7.4c2.1,0,4-1.5,4.4-3.6
		c0.5-2.4-1.1-4.8-3.5-5.3L336.8,78c0-0.6,0-1.1,0-1.7c0-7.2-2.1-14.1-5.8-20.1C356.7,58.7,383.1,49.2,400.6,30.3z M392.2,26.1
		c-16.4,16.3-41.1,24.2-64.4,20.6C345.3,32.7,369.1,25.1,392.2,26.1z"/>
	<path d="M278.6,76.3c0,1.8,0.1,3.6,0.4,5.3c1.4,8.6,6,16.3,13,21.6h26.9c7-5.3,11.7-13.1,13-21.6c0.3-1.7,0.4-3.5,0.4-5.3
		c0-10.6-5-20.6-13.5-26.9h-0.8H292C283.5,55.7,278.6,65.7,278.6,76.3z M293.6,53.9h23.8c6.6,5.5,10.5,13.8,10.5,22.4
		c0,8.4-3.6,16.7-10.5,22.4h-23.8c-6.9-5.7-10.5-14-10.5-22.4C283,67.6,287,59.4,293.6,53.9z"/>
	<path class="st13" d="M318.9,110.6c-1.7-1.2-3.2-2.2-4.5-3"/>
	<path class="st13" d="M323.5,114c-1.7-1.2-3.2-2.3-4.6-3.3"/>
	<path class="st13" d="M339.2,123.9c-5.9-3.1-10.8-6.4-14.9-9.3C329,118.1,334,121.2,339.2,123.9z"/>
</g>
</svg>
