<svg id="Artwork" xmlns="http://www.w3.org/2000/svg" viewBox="0 0 512 514.12"><defs><style>.cls-1{fill:#f29555;}.cls-2{fill:#f7e3cd;}.cls-3{fill:#f2c59e;}.cls-4{fill:#fff;}.cls-10,.cls-4,.cls-5,.cls-6,.cls-7,.cls-8{stroke:#000;stroke-miterlimit:10;}.cls-4,.cls-5,.cls-6,.cls-7,.cls-8{stroke-width:5px;}.cls-5{fill:#5f1614;}.cls-6{fill:#00571e;}.cls-7{fill:#88201c;}.cls-8{fill:#d3d3d3;}.cls-9{fill:#003d15;}.cls-10{stroke-width:6px;}</style></defs><path class="cls-1" d="M455.72,168.57c15.45-50.72,13.74-104.35,10.64-135.64A24.49,24.49,0,0,0,435.91,11.6c-60.48,15.59-96.33,41.81-116.55,62.69a278.48,278.48,0,0,0-63.36-7,278.48,278.48,0,0,0-63.36,7C172.42,53.41,136.57,27.19,76.09,11.6A24.47,24.47,0,0,0,45.64,32.93c-3.1,31.29-4.81,84.92,10.64,135.64C25.67,214.5,11,285.33,11,339.53,11,388,91.84,501,256,501S501,388,501,339.53c0-54.2-14.67-125-45.28-171Z" transform="translate(0 2.12)"/><path class="cls-2" d="M384.51,302.62c-50.67,0-72.55,50.13-128.51,50.13s-77.84-50.13-128.51-50.13C54,302.62,22.81,364.45,19.31,371.9,43.74,425.9,122.19,501,256,501s212.26-75.1,236.69-129.1C489.19,364.45,458,302.62,384.51,302.62Z" transform="translate(0 2.12)"/><path class="cls-3" d="M255,463.72c-110.89,0-189.16-44.23-235.4-92.42l-.29.6C43.74,425.9,122.19,501,256,501s212.26-75.1,236.69-129.1c-.21-.46-.54-1.13-1-2C445.65,418.65,366.94,463.72,255,463.72Z" transform="translate(0 2.12)"/><path class="cls-2" d="M126,97.69C113.36,84.37,93.82,64.31,86.28,59.34c-30-19.78-42.6,6-42.6,6-.65,28.85,1.51,64.71,11.51,99.49,31.5-31.26,85.73-59,85.73-59A27.7,27.7,0,0,1,126,97.69Z" transform="translate(0 2.12)"/><path class="cls-2" d="M386,97.69c12.64-13.32,32.18-33.38,39.72-38.35,30-19.78,42.6,6,42.6,6,.65,28.85-1.51,64.71-11.51,99.49-31.5-31.26-85.73-59-85.73-59A27.7,27.7,0,0,0,386,97.69Z" transform="translate(0 2.12)"/><path class="cls-2" d="M220.53,214.13c-4.56,9.25-17.53,12.18-28.95,6.55s-15.2-21.31-10.63-30.56,15.76-8.6,27.19-3,17,17.72,12.39,27Z" transform="translate(0 2.12)"/><path class="cls-2" d="M289.69,213.93c4.47,9.3,17.41,12.36,28.89,6.83s15.44-21.16,11-30.46-15.68-8.75-27.15-3.23S285.21,204.63,289.69,213.93Z" transform="translate(0 2.12)"/><circle cx="158.49" cy="253.74" r="26.22"/><path d="M355.05,225.4a26.22,26.22,0,1,0,26.22,26.22A26.22,26.22,0,0,0,355.05,225.4Z" transform="translate(0 2.12)"/><path d="M345.15,379.19a10,10,0,0,0-10,9.92,21.8,21.8,0,0,1-1.91,7.86c-1.81,3.71-4.36,5.23-8.81,5.23-8.78,0-25.93-3.65-48.31-10.27a70.85,70.85,0,0,0-9.32-2.08V371.58a55.42,55.42,0,0,0,26.41-13.79c9.7-9,15.49-20.39,15.49-30.59,0-20.62-22.8-36.77-51.9-36.77s-51.9,16.15-51.9,36.77c0,18.12,18,39.53,41.9,44.38v18.05a70.38,70.38,0,0,0-10.86,2.3c-22.38,6.62-39.53,10.27-48.31,10.27-4.45,0-7-1.52-8.81-5.23a21.38,21.38,0,0,1-1.9-7.78,10,10,0,0,0-20,0,41.19,41.19,0,0,0,3.51,15.57c5.07,11.19,14.73,17.36,27.2,17.36,11,0,29.12-3.73,54-11.09a50.75,50.75,0,0,1,15-2.08h.21A51.19,51.19,0,0,1,270.42,411c24.86,7.36,43,11.09,54,11.09,12.47,0,22.13-6.17,27.2-17.36a41.19,41.19,0,0,0,3.51-15.57A10,10,0,0,0,345.15,379.19Z" transform="translate(0 2.12)"/><path d="M467.44,166.76c14.16-49.66,13.17-100.87,9.74-135.53a34.62,34.62,0,0,0-37.85-31,34.16,34.16,0,0,0-5.22.92c-60,15.46-96.71,41.3-117.7,61.64a303,303,0,0,0-120.82,0c-21-20.34-57.7-46.18-117.7-61.64A34.6,34.6,0,0,0,34.82,31.23c-3.43,34.66-4.42,85.87,9.74,135.53C11.74,218.77,0,292.06,0,339.92,0,366,20,409.18,64.75,446.85,100.05,476.57,161.88,512,256,512s156-35.43,191.25-65.15C492,409.18,512,366,512,339.92c0-47.86-11.74-121.15-44.56-173.16ZM439.12,20.53A14.3,14.3,0,0,1,451,22.69a14.59,14.59,0,0,1,6.16,10.52c.29,2.94.57,6.2.83,9.71-.6-.2-1.19-.4-1.82-.57-10.93-3-22.83-.26-35.36,8-6.53,4.3-20.53,17.74-41.62,39.95A17.57,17.57,0,0,1,360,94.62c-9.18-3.61-20.71-9.73-27.74-19.25C351.68,57.11,385,34.47,439.12,20.53ZM61,22.69a14.32,14.32,0,0,1,8.24-2.63,14.74,14.74,0,0,1,3.68.47C127,34.47,160.32,57.11,179.75,75.37c-7,9.52-18.56,15.64-27.74,19.25a17.58,17.58,0,0,1-19.24-4.32C111.68,68.09,97.68,54.65,91.15,50.35c-12.53-8.26-24.43-11-35.36-8-.63.17-1.22.37-1.82.57.26-3.51.54-6.77.83-9.71A14.56,14.56,0,0,1,61,22.69ZM434.31,431.5c-32.73,27.57-90.24,60.43-178.31,60.43S110.42,459.07,77.69,431.5c-37.82-31.85-57.61-70.18-57.61-91.58,0-49.81,13.46-120.26,43.53-165.63a156.8,156.8,0,0,1,23.8-22.77,10,10,0,1,0-12-16.05A157.69,157.69,0,0,0,60.6,148.22c-6.49-28.53-8-57.12-7.69-80.53a15.54,15.54,0,0,1,8.28-6c5.12-1.32,11.49.5,19,5.42,5,3.27,19.2,17.1,38.12,37a37.54,37.54,0,0,0,41.14,9.18c13.16-5.18,30.17-14.62,39.71-30.75a281.35,281.35,0,0,1,113.86,0c9.54,16.13,26.55,25.57,39.71,30.75a37.54,37.54,0,0,0,41.14-9.18C412.79,84.2,427,70.37,432,67.11c7.47-4.92,13.85-6.74,19-5.42a15.6,15.6,0,0,1,8.28,6c.36,23.4-1.2,52-7.69,80.53a157.69,157.69,0,0,0-14.81-12.75,10,10,0,1,0-12,16.05,156.86,156.86,0,0,1,23.8,22.78c30.07,45.36,43.53,115.81,43.53,165.62C491.92,361.32,472.13,399.65,434.31,431.5Z" transform="translate(0 2.12)"/><g id="layer1"><path id="path11527" class="cls-4" d="M253.68,3.22C247.19,3.22,242,7.4,242,12.59v.55q5.67-.54,11.72-.55t11.72.55v-.55C265.4,7.4,260.17,3.22,253.68,3.22Z" transform="translate(0 2.12)"/><path id="path11957" class="cls-5" d="M183.37,62.25c0-27.26,26.37-49.66,70.31-49.66s70.16,22.35,70.16,49.61L324,96.94H183.37Z" transform="translate(0 2.12)"/><path id="path12077" class="cls-4" d="M203.88,96.94V61.79c0-27.25,23.43-49.2,49.8-49.2s49.8,22,49.8,49.2V96.94Z" transform="translate(0 2.12)"/><path id="circle12079" class="cls-6" d="M274.19,57.11c0,9.06-9.19,16.4-20.51,16.4s-20.51-7.34-20.51-16.4,9.18-16.4,20.51-16.4S274.19,48.05,274.19,57.11Z" transform="translate(0 2.12)"/><path id="path12081" class="cls-7" d="M177.51,129.74c-7.41,0-10.71-4.14-7.68-9.37l13.54-23.43s26.37-9.43,70.24-9.4,70.23,9.4,70.23,9.4l13.55,23.43c3,5.23-.27,9.37-7.69,9.37-14.65,0-29.15-9.4-76.09-9.4s-61.45,9.4-76.1,9.4Z" transform="translate(0 2.12)"/><path id="path12606-6" class="cls-8" d="M253.68,3.22a13.92,13.92,0,0,0-2.61.25c3.36,2.14,5.54,5.43,5.54,9.12v.07c3,.07,5.94.21,8.79.48v-.55c0-5.19-5.23-9.37-11.72-9.37Z" transform="translate(0 2.12)"/><path id="path13006-1" class="cls-5" d="M313.38,94a13,13,0,0,1,1.4,1.94l13.54,23.44c1.8,3.13,1.9,6.42-.13,8.91a8.14,8.14,0,0,1-1.42,1.32c1,.08,2,.12,2.93.12,7.42,0,10.71-4.14,7.69-9.37L323.84,96.94s-3.66-1.3-10.46-2.93Z" transform="translate(0 2.12)"/><path id="path13996-1" class="cls-9" d="M253.68,40.71l-.41,0c7.21,3.19,12.12,9.33,12.12,16.38s-4.9,13.19-12.12,16.38l.41,0c11.32,0,20.51-7.34,20.51-16.4s-9.19-16.4-20.51-16.4Z" transform="translate(0 2.12)"/><path id="path2254-9-23" class="cls-10" d="M326.85,96.42l-.07-34.23c0-25.27-22-46.6-58.58-51.06C267.29,5.37,261.13.88,253.69.88s-13.63,4.49-14.53,10.26C202.57,15.61,180.45,37,180.45,62.25V96.42l-13.28,23c-1.81,3.12-1.89,6.42.13,8.91s5.81,3.79,10.2,3.79c16.22,0,29.65-9.4,76.1-9.4s59.89,9.4,76.1,9.4c4.39,0,8.18-1.3,10.21-3.79s1.93-5.78.14-8.91ZM253.69,5.57c4,0,7.29,2.07,8.37,5q-4.08-.29-8.37-.28c-2.87,0-5.66.09-8.39.28C246.39,7.64,249.67,5.57,253.69,5.57Zm0,9.37c23.64,0,45.89,19.5,46.81,44.61.12,3.12,6,3,5.87-.14-.63-17-10.24-31.9-24.07-40.72,24.85,7.19,38.62,24,38.62,43.5L321,93.55c-3.12-.9-7.94-2.16-14.57-3.47V80.55c0-1.33-1.32-2.42-3-2.39a2.66,2.66,0,0,0-2.88,2.39V89a291.71,291.71,0,0,0-93.74,0V61.8c0-26.19,22.55-46.86,46.88-46.86Zm-28.38,3.69c-14.49,9.22-24.37,25.14-24.37,43.17V90.05c-6.64,1.31-11.48,2.57-14.63,3.47V62.25C186.31,42.67,200.25,25.8,225.31,18.63Zm28.38,19.73c-12.91,0-23.44,8.42-23.44,18.75s10.53,18.75,23.44,18.75,23.42-8.43,23.42-18.75S266.6,38.36,253.69,38.36Zm0,4.69c9.74,0,17.56,6.27,17.56,14.06s-7.82,14.06-17.56,14.06-17.58-6.27-17.58-14.06S244,43.05,253.69,43.05Zm49.74,23.4a2.66,2.66,0,0,0-2.88,2.37v2.35c0,3.13,5.86,3.13,5.86,0V68.82c0-1.32-1.33-2.4-3-2.37ZM335,125.74c-.72.88-2.27,1.66-5.3,1.66-13.08,0-28.66-9.39-76.1-9.39s-63,9.39-76.09,9.39c-3,0-4.58-.78-5.3-1.66s-.94-2.29.28-4.4l13-22.55c2.46-.84,26.94-8.94,68.07-8.91,41.3,0,65.87,8.14,68.17,8.93l13,22.53c1.23,2.11,1,3.51.27,4.4Z" transform="translate(0 2.12)"/></g><path d="M130.78,284.43a2.72,2.72,0,0,0-3.36,1.14L110.3,325.21l-15.5-26.5A2.74,2.74,0,0,0,90.2,300L76.52,360.17a2.74,2.74,0,0,0,5,2l17.12-39.64,15.5,26.5a2.74,2.74,0,0,0,4.6-1.33l13.68-60.13a2.73,2.73,0,0,0-1.66-3.14Z" transform="translate(0 2.12)"/><path d="M370.58,284.43a2.74,2.74,0,0,0-1.66,3.14L382.6,347.7a2.74,2.74,0,0,0,4.6,1.33l15.5-26.5,17.12,39.64a2.74,2.74,0,0,0,5-2L411.16,300a2.74,2.74,0,0,0-4.6-1.33l-15.5,26.5L374,285.57a2.74,2.74,0,0,0-3.37-1.14Z" transform="translate(0 2.12)"/></svg>