<svg id="Artwork" xmlns="http://www.w3.org/2000/svg" viewBox="0 0 512.83 512"><defs><style>.cls-1{fill:#f29555;}.cls-2{fill:#f7e3cd;}.cls-3{fill:#f2c59e;}.cls-4{fill:#f25c58;}.cls-5{fill:#995f47;}</style></defs><path class="cls-1" d="M256,67.29a278.48,278.48,0,0,0-63.36,7C172.42,53.41,136.57,27.19,76.09,11.6A24.47,24.47,0,0,0,45.64,32.93c-3.1,31.29-4.81,84.92,10.64,135.64C25.67,214.5,11,285.34,11,339.53,11,388,91.84,501,256,501S501,388,501,339.53c0-54.19-14.67-125-45.28-171h0" transform="translate(0 0)"/><path class="cls-2" d="M384.51,302.62c-50.67,0-72.55,50.13-128.51,50.13s-77.84-50.13-128.51-50.13C54,302.62,22.81,364.45,19.31,371.9,43.74,425.9,122.19,501,256,501s212.26-75.1,236.69-129.1C489.19,364.45,458,302.62,384.51,302.62Z" transform="translate(0 0)"/><path class="cls-3" d="M255,463.72c-110.89,0-189.16-44.23-235.41-92.42-.1.23-.2.43-.28.6C43.74,425.9,122.19,501,256,501s212.26-75.1,236.69-129.1c-.21-.46-.54-1.13-1-2C445.65,418.65,366.94,463.72,255,463.72Z" transform="translate(0 0)"/><path class="cls-2" d="M126,97.69C113.36,84.37,93.82,64.31,86.28,59.34c-30-19.78-42.6,6-42.6,6-.65,28.85,1.51,64.71,11.51,99.49,31.5-31.26,85.73-59,85.73-59A27.7,27.7,0,0,1,126,97.69Z" transform="translate(0 0)"/><path class="cls-2" d="M456.81,164.83" transform="translate(0 0)"/><path class="cls-2" d="M207.7,196.6c0,10.32-10.33,18.69-23.06,18.69s-23.07-12.37-23.07-22.69,10.33-14.69,23.07-14.69,23.06,8.37,23.06,18.69Z" transform="translate(0 0)"/><path class="cls-2" d="M305.84,196.6c0,10.32,10.33,18.69,23.07,18.69S352,202.92,352,192.6s-10.33-14.69-23.06-14.69S305.84,186.28,305.84,196.6Z" transform="translate(0 0)"/><path d="M195.59,62.74c-21-20.34-57.7-46.18-117.7-61.64A34.6,34.6,0,0,0,34.82,31.23c-3.43,34.66-4.42,85.87,9.74,135.53C11.74,218.77,0,292.06,0,339.92,0,366,20,409.18,64.75,446.85,100.05,476.57,161.88,512,256,512s156-35.43,191.25-65.15C492,409.18,512,366,512,339.92c0-47.86-11.74-121.15-44.56-173.16h0M61,22.69a14.32,14.32,0,0,1,8.24-2.63,14.74,14.74,0,0,1,3.68.47C127,34.47,160.32,57.11,179.75,75.37c-7,9.52-18.56,15.64-27.74,19.25a17.58,17.58,0,0,1-19.24-4.32C111.68,68.09,97.68,54.65,91.15,50.35c-12.53-8.26-24.43-11-35.36-8-.63.17-1.22.37-1.82.57.26-3.51.54-6.77.83-9.71A14.56,14.56,0,0,1,61,22.69ZM451.58,148.22a157.69,157.69,0,0,0-14.81-12.75,10,10,0,1,0-12,16.05,156.86,156.86,0,0,1,23.8,22.78c30.07,45.36,43.53,115.81,43.53,165.62-.13,21.4-19.92,59.73-57.74,91.58-32.73,27.57-90.24,60.43-178.31,60.43S110.42,459.07,77.69,431.5c-37.82-31.85-57.61-70.18-57.61-91.58,0-49.81,13.46-120.26,43.53-165.63a156.8,156.8,0,0,1,23.8-22.77,10,10,0,1,0-12-16.05A157.69,157.69,0,0,0,60.6,148.22c-6.49-28.53-8-57.12-7.69-80.53a15.54,15.54,0,0,1,8.28-6c5.12-1.32,11.49.5,19,5.42,5,3.27,19.2,17.1,38.12,37a37.54,37.54,0,0,0,41.14,9.18c13.16-5.18,30.17-14.62,39.71-30.75m153.57,30.75" transform="translate(0 0)"/><path d="M193.65,242.73a10,10,0,0,0-20,0,16.88,16.88,0,1,1-33.76,0h0a10,10,0,0,0-20,0,36.88,36.88,0,0,0,73.76,0Z" transform="translate(0 0)"/><path d="M383.65,232.73a10,10,0,0,0-10,10,16.88,16.88,0,1,1-33.76,0,10,10,0,0,0-20,0,36.88,36.88,0,1,0,73.76,0A10,10,0,0,0,383.65,232.73Z" transform="translate(0 0)"/><path d="M332.6,389.27H266.77V371.58a55.42,55.42,0,0,0,26.41-13.79c9.7-9,15.49-20.39,15.49-30.59,0-20.62-22.79-36.77-51.9-36.77s-51.9,16.15-51.9,36.77c0,18.12,18,39.53,41.9,44.38v17.69H180.68a10,10,0,0,0,0,20H332.6a10,10,0,0,0,0-20Z" transform="translate(0 0)"/><path class="cls-4" d="M501.87,169.7c-17.54-47-69.62-108.65-134.24-142C343,15,312,5.77,284.27,6.89c-73.87,3-101.08,63.75-78.83,99.61l119,52.32,131,66.37c20.56,6.89,40.72,1.94,48.22-19.1C507.89,194.32,506.24,181.4,501.87,169.7Z" transform="translate(0 0)"/><path class="cls-5" d="M205.44,106.5a20.41,20.41,0,0,1,21.51-15c82.93,7.3,170.11,45.14,231.58,101.27A20.4,20.4,0,1,1,431,222.87c-54.93-50.13-133.59-84.24-207.67-90.77A20.42,20.42,0,0,1,205.44,106.5Z" transform="translate(0 0)"/><path class="cls-5" d="M478.27,81.14a27.18,27.18,0,0,1-21.55,17.28,325.5,325.5,0,0,0-30.83-30.75,27.69,27.69,0,0,1,1.5-5.82,27.21,27.21,0,1,1,50.88,19.29Z" transform="translate(0 0)"/><path d="M328.32,31.55a6.8,6.8,0,1,0,3.95,8.77A6.8,6.8,0,0,0,328.32,31.55Z" transform="translate(0 0)"/><path d="M468.43,101.71A34,34,0,1,0,422.58,56a296.68,296.68,0,0,0-51.84-34.28C342.05,6.9,310.44-1,284,.1,241.38,1.82,212.63,22,199.38,46.94c-10.58,19.94-10.93,42.94-1.11,60.74a27.23,27.23,0,0,0,24.49,31.2c72.48,6.38,150.52,40.49,203.68,89a27.22,27.22,0,0,0,29.7,4.63c42.56,12.3,67.52-23.92,52.1-65.2C500.57,146.78,486.58,123.76,468.43,101.71Zm-8.36-49.3a20.4,20.4,0,0,1-.95,38.48,332.61,332.61,0,0,0-25.71-25.64c.11-.33.22-.67.34-1A20.44,20.44,0,0,1,460.07,52.41ZM435.62,217.85C378.89,166.07,298.51,131.9,224,125.33a13.6,13.6,0,1,1,2.39-27.1c82.2,7.24,167.29,44.45,227.6,99.52a13.6,13.6,0,0,1-18.33,20.1Zm32.91,3.22a27.18,27.18,0,0,0-5.41-33.36c-62.44-57-150.51-95.53-235.57-103A27.13,27.13,0,0,0,206.46,92c-3.38-12.13-1.73-26.1,4.94-38.69C224,29.5,250.69,15.06,284.55,13.69c24.15-1,53.3,6.35,80,20.09,63.58,32.78,114.22,93.39,131,138.29C505.21,198.08,495.83,223.66,468.53,221.07Z" transform="translate(0 0)"/><path d="M299.52,27.62c-28.58-2.47-58.38,4.55-73.81,29A6.8,6.8,0,0,0,227.84,66a7.31,7.31,0,0,0,1.22.61,6.8,6.8,0,0,0,8.16-2.74C249.78,44,275.09,39.16,298.34,41.17a6.8,6.8,0,1,0,1.18-13.55Z" transform="translate(0 0)"/></svg>