<?xml version="1.0" encoding="utf-8"?>
<!-- Generator: Adobe Illustrator 25.2.3, SVG Export Plug-In . SVG Version: 6.00 Build 0)  -->
<svg version="1.1" id="Artwork" xmlns="http://www.w3.org/2000/svg" xmlns:xlink="http://www.w3.org/1999/xlink" x="0px" y="0px"
	 viewBox="0 0 512 512" style="enable-background:new 0 0 512 512;" xml:space="preserve">
<style type="text/css">
	.st0{fill:#F29555;}
	.st1{fill:#F7E3CD;}
	.st2{fill:#F2C59E;}
	.st3{fill:#F25C58;}
	.st4{fill:#995F47;}
</style>
<g>
	<path class="st0" d="M256,67.3c-21.3-0.1-42.6,2.2-63.4,7c-20.2-20.9-56.1-47.1-116.6-62.7C63,8.2,49.7,16.1,46.3,29.2
		c-0.3,1.2-0.5,2.5-0.7,3.7c-3.1,31.3-4.8,84.9,10.6,135.6C25.7,214.5,11,285.3,11,339.5C11,388,91.8,501,256,501s245-113,245-161.5
		c0-54.2-14.7-125-45.3-171v0"/>
	<path class="st1" d="M384.5,302.6c-50.7,0-72.5,50.1-128.5,50.1s-77.8-50.1-128.5-50.1c-73.5,0-104.7,61.8-108.2,69.3
		C43.7,425.9,122.2,501,256,501s212.3-75.1,236.7-129.1C489.2,364.4,458,302.6,384.5,302.6z"/>
	<path class="st2" d="M255,463.7c-110.9,0-189.2-44.2-235.4-92.4c-0.1,0.2-0.2,0.4-0.3,0.6C43.7,425.9,122.2,501,256,501
		s212.3-75.1,236.7-129.1c-0.2-0.5-0.5-1.1-1-2C445.6,418.6,366.9,463.7,255,463.7z"/>
	<g>
		<path class="st1" d="M126,97.7c-12.6-13.3-32.2-33.4-39.7-38.3c-30-19.8-42.6,6-42.6,6c-0.7,28.8,1.5,64.7,11.5,99.5
			c31.5-31.3,85.7-59,85.7-59C135.2,104.7,130,101.9,126,97.7L126,97.7z"/>
		<path class="st1" d="M456.8,164.8"/>
		<path class="st1" d="M207.7,196.6c0,10.3-10.3,18.7-23.1,18.7s-23.1-12.4-23.1-22.7s10.3-14.7,23.1-14.7S207.7,186.3,207.7,196.6
			L207.7,196.6z"/>
		<path class="st1" d="M305.8,196.6c0,10.3,10.3,18.7,23.1,18.7s23.1-12.4,23.1-22.7s-10.3-14.7-23.1-14.7S305.8,186.3,305.8,196.6z
			"/>
	</g>
	<path d="M195.6,62.7c-21-20.3-57.7-46.2-117.7-61.6C59.4-3.7,40.5,7.5,35.7,26c-0.4,1.7-0.7,3.5-0.9,5.2
		c-3.4,34.7-4.4,85.9,9.7,135.5C11.7,218.8,0,292.1,0,339.9c0,26.1,20,69.3,64.8,106.9C100,476.6,161.9,512,256,512
		s156-35.4,191.2-65.1C492,409.2,512,366,512,339.9c0-47.9-11.7-121.1-44.6-173.2l0,0 M61,22.7c2.4-1.7,5.3-2.6,8.2-2.6
		c1.2,0,2.5,0.2,3.7,0.5c54.1,13.9,87.4,36.6,106.8,54.8c-7,9.5-18.6,15.6-27.7,19.2c-6.7,2.6-14.3,0.9-19.2-4.3
		c-21.1-22.2-35.1-35.7-41.6-40c-12.5-8.3-24.4-11-35.4-8c-0.6,0.2-1.2,0.4-1.8,0.6c0.3-3.5,0.5-6.8,0.8-9.7
		C55.2,29,57.5,25.1,61,22.7z M451.6,148.2c-4.7-4.6-9.6-8.8-14.8-12.8c-4.4-3.3-10.7-2.4-14,2c-3.3,4.4-2.4,10.7,2,14.1
		c8.7,6.7,16.7,14.4,23.8,22.8c30.1,45.4,43.5,115.8,43.5,165.6c-0.1,21.4-19.9,59.7-57.7,91.6c-32.7,27.6-90.2,60.4-178.3,60.4
		s-145.6-32.9-178.3-60.4c-37.8-31.9-57.6-70.2-57.6-91.6c0-49.8,13.5-120.3,43.5-165.6c7.1-8.4,15.1-16,23.8-22.8
		c4.4-3.3,5.3-9.6,2-14c-3.3-4.4-9.6-5.3-14-2c-5.2,3.9-10.1,8.2-14.8,12.8c-6.5-28.5-8-57.1-7.7-80.5c2-2.9,4.9-5,8.3-6
		c5.1-1.3,11.5,0.5,19,5.4c5,3.3,19.2,17.1,38.1,37c10.5,11.2,26.8,14.8,41.1,9.2c13.2-5.2,30.2-14.6,39.7-30.8 M352.7,113.3"/>
	<path d="M193.6,242.7c0-5.5-4.5-10-10-10s-10,4.5-10,10c0,9.3-7.6,16.9-16.9,16.9c-9.3,0-16.9-7.6-16.9-16.9c0,0,0,0,0,0
		c0-5.5-4.5-10-10-10c-5.5,0-10,4.5-10,10c0,20.4,16.5,36.9,36.9,36.9S193.6,263.1,193.6,242.7C193.6,242.8,193.6,242.7,193.6,242.7
		z"/>
	<path d="M383.6,232.7c-5.5,0-10,4.5-10,10c0,9.3-7.6,16.9-16.9,16.9s-16.9-7.6-16.9-16.9c0-5.5-4.5-10-10-10s-10,4.5-10,10
		c0,20.4,16.5,36.9,36.9,36.9s36.9-16.5,36.9-36.9C393.6,237.2,389.2,232.7,383.6,232.7z"/>
	<path d="M332.6,389.3h-65.8v-17.7c9.9-2.1,19-6.9,26.4-13.8c9.7-9,15.5-20.4,15.5-30.6c0-20.6-22.8-36.8-51.9-36.8
		s-51.9,16.1-51.9,36.8c0,18.1,18,39.5,41.9,44.4v17.7h-66.1c-5.5,0-10,4.5-10,10s4.5,10,10,10h151.9c5.5,0,10-4.5,10-10
		S338.1,389.3,332.6,389.3L332.6,389.3z"/>
</g>
<g>
	<path class="st3" d="M501.9,169.7c-17.5-47-69.6-108.6-134.2-142C343,15,312,5.8,284.3,6.9c-73.9,3-101.1,63.7-78.8,99.6l119,52.3
		l131,66.4c20.6,6.9,40.7,1.9,48.2-19.1C507.9,194.3,506.2,181.4,501.9,169.7z"/>
	<path class="st4" d="M205.4,106.5c2.5-9.4,11.5-15.9,21.5-15c82.9,7.3,170.1,45.1,231.6,101.3c8.3,7.6,8.9,20.5,1.3,28.8
		c-7.6,8.3-20.5,8.9-28.8,1.3c-54.9-50.1-133.6-84.2-207.7-90.8C210.9,131,202.2,118.9,205.4,106.5z"/>
	<path class="st4" d="M478.3,81.1c-3.6,9.6-12.1,15.9-21.5,17.3c-9.2-10.5-19.6-20.9-30.8-30.7c0.3-2,0.8-3.9,1.5-5.8
		c5.3-14,21-21.1,35.1-15.8C476.5,51.4,483.6,67.1,478.3,81.1z"/>
	<path d="M328.3,31.5c-3.5-1.3-7.4,0.4-8.8,3.9c-1.3,3.5,0.4,7.4,3.9,8.8c3.5,1.3,7.4-0.4,8.8-3.9C333.6,36.8,331.8,32.9,328.3,31.5
		z"/>
	<path d="M468.4,101.7c7.3-3.8,13.2-10.2,16.2-18.2c6.6-17.5-2.2-37.2-19.7-43.9c-16.3-6.2-34.5,1.1-42.3,16.3
		c-16.5-13.5-33.9-25.1-51.8-34.3C342.1,6.9,310.4-1,284,0.1c-42.6,1.7-71.4,21.8-84.6,46.8c-10.6,19.9-10.9,42.9-1.1,60.7
		c-2.4,15.6,9,29.8,24.5,31.2c72.5,6.4,150.5,40.5,203.7,89c8.3,7.5,20,9.1,29.7,4.6c42.6,12.3,67.5-23.9,52.1-65.2
		C500.6,146.8,486.6,123.8,468.4,101.7z M460.1,52.4c10.5,4,15.8,15.8,11.8,26.3c-2.2,5.8-7,10.3-12.8,12.2
		c-8.1-9-16.7-17.6-25.7-25.6c0.1-0.3,0.2-0.7,0.3-1C437.7,53.7,449.5,48.4,460.1,52.4z M435.6,217.8
		c-56.7-51.8-137.1-86-211.7-92.5c-8.3-0.7-14.1-8.7-11.9-17.1c1.7-6.4,7.7-10.6,14.3-10c82.2,7.2,167.3,44.4,227.6,99.5
		c5.5,5,6,13.6,0.9,19.2C449.8,222.5,441.1,222.9,435.6,217.8z M468.5,221.1c6-10.6,4.2-24.6-5.4-33.4
		c-62.4-57-150.5-95.5-235.6-103c-8-0.7-15.6,2.1-21.1,7.3c-3.4-12.1-1.7-26.1,4.9-38.7c12.6-23.8,39.3-38.3,73.1-39.6
		c24.2-1,53.3,6.3,80,20.1c63.6,32.8,114.2,93.4,131,138.3C505.2,198.1,495.8,223.7,468.5,221.1z"/>
	<path d="M299.5,27.6c-28.6-2.5-58.4,4.6-73.8,29c-2,3.2-1,7.4,2.1,9.4c0.4,0.2,0.8,0.4,1.2,0.6c3,1.1,6.4,0,8.2-2.7
		c12.6-19.9,37.9-24.7,61.1-22.7c3.7,0.3,7-2.4,7.4-6.2C306,31.2,303.3,27.9,299.5,27.6z"/>
</g>
</svg>
