<svg id="Artwork" viewBox="0 0 512 512" xmlns="http://www.w3.org/2000/svg"><path d="m455.72 168.57c15.45-50.72 13.74-104.35 10.64-135.64a24.48 24.48 0 0 0 -30.45-21.33c-60.48 15.59-96.33 41.81-116.55 62.69a278.2 278.2 0 0 0 -63.36-7 278.2 278.2 0 0 0 -63.36 7c-20.22-20.88-56.07-47.1-116.55-62.69a24.48 24.48 0 0 0 -30.45 21.33c-3.1 31.29-4.81 84.92 10.64 135.64-30.61 45.93-45.28 116.76-45.28 170.96 0 48.47 80.84 161.47 245 161.47s245-113 245-161.47c0-54.2-14.67-125.03-45.28-170.96z" fill="#f29555"/><path d="m384.51 302.62c-50.67 0-72.55 50.13-128.51 50.13s-77.84-50.13-128.51-50.13c-73.49 0-104.68 61.83-108.18 69.28 24.43 54 102.88 129.1 236.69 129.1s212.26-75.1 236.69-129.1c-3.5-7.45-34.69-69.28-108.18-69.28z" fill="#f7e3cd"/><path d="m255 463.72c-110.89 0-189.16-44.23-235.4-92.42l-.29.6c24.43 54 102.88 129.1 236.69 129.1s212.26-75.1 236.69-129.1c-.21-.46-.54-1.13-1-2-46.04 48.75-124.75 93.82-236.69 93.82z" fill="#f2c59e"/><g fill="#f7e3cd"><path d="m126 97.69c-12.64-13.32-32.18-33.38-39.72-38.35-30-19.78-42.6 6-42.6 6-.65 28.85 1.51 64.71 11.51 99.49 31.5-31.26 85.73-59 85.73-59a27.69 27.69 0 0 1 -14.92-8.14z"/><path d="m386 97.69c12.64-13.32 32.18-33.38 39.72-38.35 30-19.78 42.6 6 42.6 6 .65 28.85-1.51 64.71-11.51 99.49-31.5-31.26-85.73-59-85.73-59a27.69 27.69 0 0 0 14.92-8.14z"/><path d="m207.7 196.6c0 10.32-10.33 18.69-23.06 18.69s-23.07-12.37-23.07-22.69 10.33-14.69 23.07-14.69 23.06 8.37 23.06 18.69z"/><path d="m305.84 196.6c0 10.32 10.33 18.69 23.07 18.69s23.09-12.37 23.09-22.69-10.33-14.69-23.06-14.69-23.1 8.37-23.1 18.69z"/></g><path d="m467.44 166.76c14.16-49.66 13.17-100.87 9.74-135.53a34.62 34.62 0 0 0 -43.07-30.13c-60 15.46-96.71 41.3-117.7 61.64a303.15 303.15 0 0 0 -120.82 0c-21-20.34-57.7-46.18-117.7-61.64a34.62 34.62 0 0 0 -43.07 30.13c-3.43 34.66-4.42 85.87 9.74 135.53-32.82 52.01-44.56 125.3-44.56 173.16 0 26.08 20 69.26 64.75 106.93 35.3 29.72 97.13 65.15 191.25 65.15s156-35.43 191.25-65.15c44.75-37.67 64.75-80.85 64.75-106.93 0-47.86-11.74-121.15-44.56-173.16zm-28.32-146.23a14.31 14.31 0 0 1 11.88 2.16 14.57 14.57 0 0 1 6.16 10.52c.29 2.94.57 6.2.83 9.71-.6-.2-1.19-.4-1.82-.57-10.93-3-22.83-.26-35.36 8-6.53 4.3-20.53 17.74-41.62 39.95a17.56 17.56 0 0 1 -19.19 4.32c-9.18-3.61-20.71-9.73-27.74-19.25 19.42-18.26 52.74-40.9 106.86-54.84zm-378.12 2.16a14.3 14.3 0 0 1 8.24-2.63 15 15 0 0 1 3.68.47c54.08 13.94 87.4 36.58 106.83 54.84-7 9.52-18.56 15.64-27.74 19.25a17.58 17.58 0 0 1 -19.24-4.32c-21.09-22.21-35.09-35.65-41.62-39.95-12.53-8.26-24.43-11-35.36-8-.63.17-1.22.37-1.82.57.26-3.51.54-6.77.83-9.71a14.57 14.57 0 0 1 6.2-10.52zm373.31 408.81c-32.73 27.57-90.24 60.43-178.31 60.43s-145.58-32.86-178.31-60.43c-37.82-31.85-57.61-70.18-57.61-91.58 0-49.81 13.46-120.26 43.53-165.63a156.77 156.77 0 0 1 23.8-22.77 10 10 0 1 0 -12-16.05 157 157 0 0 0 -14.81 12.75c-6.49-28.53-8-57.12-7.69-80.53a15.56 15.56 0 0 1 8.28-6c5.12-1.32 11.49.5 19 5.42 5 3.27 19.2 17.1 38.12 37a37.54 37.54 0 0 0 41.14 9.18c13.16-5.18 30.17-14.62 39.71-30.75a281.35 281.35 0 0 1 113.86 0c9.54 16.13 26.55 25.57 39.71 30.75a37.54 37.54 0 0 0 41.14-9.18c18.92-19.91 33.17-33.74 38.12-37 7.47-4.92 13.85-6.74 19-5.42a15.58 15.58 0 0 1 8.28 6c.36 23.4-1.2 52-7.69 80.53a157 157 0 0 0 -14.81-12.75 10 10 0 1 0 -12.05 16.05 156.64 156.64 0 0 1 23.8 22.78c30.07 45.36 43.53 115.81 43.53 165.62-.13 21.4-19.92 59.73-57.74 91.58z"/><path d="m338.57 375c-11.38 0-22 7-29.09 19.23-3.43 5.89-7.74 9.28-11.81 9.28s-8.37-3.39-11.8-9.28c-5-8.54-11.65-14.52-19.1-17.36v-5.31a55.39 55.39 0 0 0 26.41-13.79c9.7-9 15.49-20.39 15.49-30.59 0-20.62-22.79-36.77-51.9-36.77s-51.9 16.15-51.9 36.77c0 18.12 18 39.53 41.9 44.38v5.31c-7.45 2.84-14.13 8.82-19.09 17.36-3.43 5.89-7.74 9.28-11.81 9.28s-8.38-3.39-11.81-9.28c-7.06-12.23-17.71-19.23-29.06-19.23s-22 7-29.1 19.23a10 10 0 0 0 17.29 10.05c3.43-5.9 7.74-9.28 11.81-9.28s8.37 3.38 11.8 9.28c7.11 12.22 17.72 19.23 29.1 19.23s22-7 29.09-19.23c3.43-5.89 7.73-9.28 11.8-9.28 4.07 0 8.37 3.39 11.8 9.28 7.1 12.22 17.71 19.23 29.09 19.23s22-7 29.1-19.23c3.43-5.9 7.73-9.28 11.8-9.28s8.38 3.38 11.81 9.28a10 10 0 1 0 17.29-10.05c-7.12-12.23-17.68-19.23-29.11-19.23z"/><path d="m153.26 281.47 38.63-16.94a10 10 0 0 0 0-18.32l-38.63-16.94a10 10 0 1 0 -8 18.32l17.74 7.78-17.75 7.78a10 10 0 0 0 8 18.32z"/><path d="m368.32 263.15-17.75-7.78 17.75-7.78a10 10 0 0 0 -8-18.32l-38.64 16.94a10 10 0 0 0 0 18.32l38.63 16.94a10 10 0 1 0 8-18.32z"/></svg>