<svg id="Artwork" viewBox="0 0 512 512" width="512" xmlns="http://www.w3.org/2000/svg"><g><path d="m455.72 168.57c15.45-50.72 13.74-104.35 10.64-135.64-1.315-13.456-13.289-23.298-26.745-21.983-1.25.122-2.488.34-3.705.653-60.48 15.59-96.33 41.81-116.55 62.69-20.782-4.753-42.042-7.102-63.36-7-21.318-.102-42.578 2.247-63.36 7-20.22-20.88-56.07-47.1-116.55-62.69-13.095-3.361-26.436 4.53-29.797 17.625-.312 1.216-.53 2.455-.653 3.705-3.1 31.29-4.81 84.92 10.64 135.64-30.61 45.93-45.28 116.76-45.28 170.96 0 48.47 80.84 161.47 245 161.47s245-113 245-161.47c0-54.2-14.67-125.03-45.28-170.96z" fill="#f29555"/><path d="m384.51 302.62c-50.67 0-72.55 50.13-128.51 50.13s-77.84-50.13-128.51-50.13c-73.49 0-104.68 61.83-108.18 69.28 24.43 54 102.88 129.1 236.69 129.1s212.26-75.1 236.69-129.1c-3.5-7.45-34.69-69.28-108.18-69.28z" fill="#f7e3cd"/><path d="m255 463.72c-110.89 0-189.16-44.23-235.41-92.42-.1.23-.2.43-.28.6 24.43 54 102.88 129.1 236.69 129.1s212.26-75.1 236.69-129.1c-.21-.46-.54-1.13-1-2-46.04 48.75-124.75 93.82-236.69 93.82z" fill="#f2c59e"/><g fill="#f7e3cd"><path d="m126 97.69c-12.64-13.32-32.18-33.38-39.72-38.35-30-19.78-42.6 6-42.6 6-.65 28.85 1.51 64.71 11.51 99.49 31.5-31.26 85.73-59 85.73-59-5.704-1.082-10.923-3.93-14.92-8.14z"/><path d="m386 97.69c12.64-13.32 32.18-33.38 39.72-38.35 30-19.78 42.6 6 42.6 6 .65 28.85-1.51 64.71-11.51 99.49-31.5-31.26-85.73-59-85.73-59 5.704-1.082 10.923-3.93 14.92-8.14z"/><path d="m207.7 157.91c0 10.33-10.33 18.69-23.06 18.69s-23.07-12.36-23.07-22.69 10.33-14.69 23.07-14.69 23.06 8.37 23.06 18.69z"/><path d="m305.84 143.81c0 10.32 10.33 18.69 23.07 18.69s23.09-12.37 23.09-22.69-10.33-14.69-23.06-14.69-23.1 8.36-23.1 18.69z"/></g><circle cx="154.52" cy="229.84" fill="#fff" r="37.24"/><circle cx="352.75" cy="229.84" fill="#fff" r="47.76"/><path d="m338.57 375c-11.38 0-22 7-29.09 19.23-3.43 5.89-7.74 9.28-11.81 9.28s-8.37-3.39-11.8-9.28c-5-8.54-11.65-14.52-19.1-17.36v-5.31c9.898-2.098 19.031-6.868 26.41-13.79 9.7-9 15.49-20.39 15.49-30.59 0-20.62-22.79-36.77-51.9-36.77s-51.9 16.15-51.9 36.77c0 18.12 18 39.53 41.9 44.38v5.31c-7.45 2.84-14.13 8.82-19.1 17.36-3.43 5.89-7.73 9.28-11.8 9.28s-8.38-3.39-11.81-9.28c-7.06-12.23-17.71-19.23-29.06-19.23s-22 7-29.1 19.23c-2.72 4.807-1.029 10.908 3.778 13.628 4.728 2.676 10.728 1.087 13.512-3.578 3.43-5.9 7.74-9.28 11.81-9.28s8.37 3.38 11.8 9.28c7.11 12.22 17.71 19.23 29.1 19.23s22-7 29.09-19.23c3.43-5.89 7.73-9.27 11.8-9.28 4.07 0 8.37 3.39 11.8 9.28 7.1 12.22 17.71 19.23 29.09 19.23s22-7 29.1-19.23c3.43-5.9 7.73-9.28 11.8-9.28s8.38 3.38 11.81 9.28c2.72 4.807 8.822 6.498 13.628 3.778 4.807-2.72 6.498-8.822 3.778-13.628-.038-.067-.077-.134-.116-.2-7.12-12.23-17.68-19.23-29.11-19.23z"/><path d="m201.75 229.84c0-26.09-21.15-47.24-47.24-47.24s-47.24 21.15-47.24 47.24 21.15 47.24 47.24 47.24h.01c26.075-.033 47.202-21.165 47.23-47.24zm-74.47 0c0-15.044 12.196-27.24 27.24-27.24s27.24 12.196 27.24 27.24-12.196 27.24-27.24 27.24c-15.037-.017-27.223-12.203-27.24-27.24z"/><path d="m163.69 229.84c-.006-9.615-7.805-17.406-17.42-17.4s-17.406 7.805-17.4 17.42c.006 9.611 7.799 17.4 17.41 17.4 9.615-.011 17.404-7.805 17.41-17.42z"/><path d="m352.75 172.08c-31.905-.006-57.774 25.855-57.78 57.76s25.855 57.774 57.76 57.78 57.774-25.855 57.78-57.76c0-.007 0-.013 0-.02-.044-31.882-25.878-57.716-57.76-57.76zm0 95.53c-20.86.006-37.774-16.9-37.78-37.76-.005-20.86 16.9-37.774 37.76-37.78s37.774 16.9 37.78 37.76v.01c-.022 20.847-16.913 37.742-37.76 37.77z"/><path d="m340.41 225.3c-.022 12.89 10.41 23.358 23.3 23.38s23.358-10.41 23.38-23.3-10.41-23.358-23.3-23.38c-.013 0-.027 0-.04 0-12.868.016-23.301 10.432-23.34 23.3z"/><path d="m467.44 166.76c14.16-49.66 13.17-100.87 9.74-135.53-1.878-19.028-18.825-32.93-37.853-31.052-1.76.174-3.504.482-5.217.922-60 15.46-96.71 41.3-117.7 61.64-39.865-8.107-80.955-8.107-120.82 0-21-20.34-57.7-46.18-117.7-61.64-18.518-4.759-37.389 6.395-42.148 24.913-.44 1.713-.749 3.457-.922 5.217-3.43 34.66-4.42 85.87 9.74 135.53-32.82 52.01-44.56 125.3-44.56 173.16 0 26.08 20 69.26 64.75 106.93 35.3 29.72 97.13 65.15 191.25 65.15s156-35.43 191.25-65.15c44.75-37.67 64.75-80.85 64.75-106.93 0-47.86-11.74-121.15-44.56-173.16zm-28.32-146.23c4.085-1.068 8.433-.277 11.88 2.16 3.492 2.438 5.743 6.282 6.16 10.52.29 2.94.57 6.2.83 9.71-.6-.2-1.19-.4-1.82-.57-10.93-3-22.83-.26-35.36 8-6.53 4.3-20.53 17.74-41.62 39.95-4.914 5.224-12.511 6.934-19.19 4.32-9.18-3.61-20.71-9.73-27.74-19.25 19.42-18.26 52.74-40.9 106.86-54.84zm-378.12 2.16c2.409-1.706 5.288-2.625 8.24-2.63 1.241.004 2.478.162 3.68.47 54.08 13.94 87.4 36.58 106.83 54.84-7 9.52-18.56 15.64-27.74 19.25-6.693 2.631-14.314.92-19.24-4.32-21.09-22.21-35.09-35.65-41.62-39.95-12.53-8.26-24.43-11-35.36-8-.63.17-1.22.37-1.82.57.26-3.51.54-6.77.83-9.71.427-4.245 2.693-8.09 6.2-10.52zm373.31 408.81c-32.73 27.57-90.24 60.43-178.31 60.43s-145.58-32.86-178.31-60.43c-37.82-31.85-57.61-70.18-57.61-91.58 0-49.81 13.46-120.26 43.53-165.63 7.112-8.405 15.089-16.037 23.8-22.77 4.432-3.314 5.339-9.593 2.025-14.025s-9.593-5.339-14.025-2.025c-5.197 3.938-10.143 8.197-14.81 12.75-6.49-28.53-8-57.12-7.69-80.53 2.005-2.876 4.923-4.99 8.28-6 5.12-1.32 11.49.5 19 5.42 5 3.27 19.2 17.1 38.12 37 10.539 11.197 26.841 14.834 41.14 9.18 13.16-5.18 30.17-14.62 39.71-30.75 37.557-7.76 76.303-7.76 113.86 0 9.54 16.13 26.55 25.57 39.71 30.75 14.299 5.654 30.601 2.017 41.14-9.18 18.92-19.91 33.17-33.74 38.12-37 7.47-4.92 13.85-6.74 19-5.42 3.356 1.012 6.274 3.125 8.28 6 .36 23.4-1.2 52-7.69 80.53-4.667-4.553-9.613-8.812-14.81-12.75-4.432-3.328-10.722-2.432-14.05 2s-2.432 10.722 2 14.05c8.712 6.736 16.689 14.371 23.8 22.78 30.07 45.36 43.53 115.81 43.53 165.62-.13 21.4-19.92 59.73-57.74 91.58z"/></g></svg>