<svg id="Capa_1" enable-background="new 0 0 512.006 512.006" height="512" viewBox="0 0 512.006 512.006" width="512" xmlns="http://www.w3.org/2000/svg"><path d="m392.503 452c0 16.199-6.219 31.261-17.51 42.41-11.528 11.384-27.456 17.777-43.743 17.588-16.177-.205-30.612-6.362-41.748-17.806l-90.999-93.515-90.999 93.515c-11.057 11.363-25.458 17.519-41.649 17.804-.354.006-.711.009-1.065.009-15.968 0-31.518-6.31-42.813-17.407-11.268-11.071-17.474-26.076-17.474-42.25v-372.348c0-44.112 35.888-80 80-80h228c44.112 0 80 35.888 80 80 0 11.046-8.954 20-20 20s-20-8.954-20-20c0-22.056-17.944-40-40-40h-228c-22.056 0-40 17.944-40 40v372.349c0 5.512 1.854 10.127 5.508 13.718 3.883 3.815 9.513 6.035 15.14 5.936 5.568-.098 10.045-1.964 13.686-5.706l105.333-108.246c3.766-3.869 8.936-6.052 14.334-6.052s10.568 2.183 14.334 6.052l105.332 108.246c3.667 3.77 8.111 5.635 13.586 5.705 5.605.083 11.223-2.192 15.133-6.054 3.726-3.679 5.614-8.371 5.614-13.947 0-11.046 8.954-20 20-20s20 8.953 20 19.999zm115-188c0 74.439-60.561 135-135 135s-135-60.561-135-135 60.561-135 135-135 135 60.561 135 135zm-40 0c0-52.383-42.617-95-95-95s-95 42.617-95 95 42.617 95 95 95 95-42.617 95-95zm-55-20h-20v-20c0-11.046-8.954-20-20-20s-20 8.954-20 20v20h-20c-11.046 0-20 8.954-20 20s8.954 20 20 20h20v20c0 11.046 8.954 20 20 20s20-8.954 20-20v-20h20c11.046 0 20-8.954 20-20s-8.954-20-20-20z"/></svg>