<?xml version="1.0" encoding="iso-8859-1"?>
<!-- Generator: Adobe Illustrator 19.0.0, SVG Export Plug-In . SVG Version: 6.00 Build 0)  -->
<svg version="1.1" id="Capa_1" xmlns="http://www.w3.org/2000/svg" xmlns:xlink="http://www.w3.org/1999/xlink" x="0px" y="0px"
	 viewBox="0 0 409.6 409.6" style="enable-background:new 0 0 409.6 409.6;" xml:space="preserve">
<g>
	<g>
		<path d="M204.8,136.535C204.8,61.133,170.383,0,128,0C85.601,0,51.2,61.133,51.2,136.535c0,32.814,20.685,60.616,49.633,71.598
			l-6.968,167.332c0,18.852,15.283,34.135,34.135,34.135c18.852,0,34.135-15.283,34.135-34.135l-6.968-167.317
			C184.136,197.151,204.8,169.349,204.8,136.535z"/>
	</g>
</g>
<g>
	<g>
		<path d="M358.4,123.735L354.135,0H332.8l-4.265,123.735h-17.07L307.2,0h-25.6l-4.265,123.735h-17.07L256,0h-21.335L230.4,123.735
			c0,26.03,15.601,48.328,37.934,58.332l-8.069,193.398c0,18.852,15.283,34.135,34.135,34.135c18.852,0,34.135-15.283,34.135-34.135
			l-8.069-193.398C342.799,172.063,358.4,149.765,358.4,123.735z"/>
	</g>
</g>
<g>
</g>
<g>
</g>
<g>
</g>
<g>
</g>
<g>
</g>
<g>
</g>
<g>
</g>
<g>
</g>
<g>
</g>
<g>
</g>
<g>
</g>
<g>
</g>
<g>
</g>
<g>
</g>
<g>
</g>
</svg>
