<svg id="Icons" height="512" viewBox="0 0 24 24" width="512" xmlns="http://www.w3.org/2000/svg"><path d="m19 3a1 1 0 0 0 0 2h3a1 1 0 0 0 0-2z"/><path d="m2 5h8.184a3 3 0 1 0 0-2h-8.184a1 1 0 0 0 0 2zm11-2a1 1 0 1 1 -1 1 1 1 0 0 1 1-1z"/><path d="m2 13h4.184a3 3 0 1 0 0-2h-4.184a1 1 0 0 0 0 2zm7-2a1 1 0 1 1 -1 1 1 1 0 0 1 1-1z"/><path d="m22 11h-7a1 1 0 0 0 0 2h7a1 1 0 0 0 0-2z"/><path d="m22 19h-5a1 1 0 0 0 0 2h5a1 1 0 0 0 0-2z"/><path d="m2 21h6.184a3 3 0 1 0 0-2h-6.184a1 1 0 0 0 0 2zm9-2a1 1 0 1 1 -1 1 1 1 0 0 1 1-1z"/></svg>