<svg height="512pt" viewBox="0 0 512 512" width="512pt" xmlns="http://www.w3.org/2000/svg"><path d="m256 60c8.289062 0 15-6.710938 15-15v-30c0-8.289062-6.710938-15-15-15s-15 6.710938-15 15v30c0 8.289062 6.710938 15 15 15zm0 0"/><path d="m326.605469 85.605469 30-30c5.859375-5.859375 5.859375-15.351563 0-21.210938s-15.351563-5.859375-21.210938 0l-30 30c-5.859375 5.859375-5.859375 15.351563 0 21.210938s15.351563 5.859375 21.210938 0zm0 0"/><path d="m185.394531 85.605469c5.859375 5.859375 15.351563 5.859375 21.210938 0s5.859375-15.351563 0-21.210938l-30-30c-5.859375-5.859375-15.351563-5.859375-21.210938 0s-5.859375 15.351563 0 21.210938zm0 0"/><path d="m135 212c0-33.089844-26.910156-60-60-60s-60 26.910156-60 60 26.910156 60 60 60 60-26.910156 60-60zm0 0"/><path d="m256 121c-24.8125 0-45 20.1875-45 45 0 57.890625-48.109375 106-106 106h-30c-41.351562 0-75 33.648438-75 75v150c0 8.289062 6.710938 15 15 15h120c8.277344 0 14.800781-6.710938 14.800781-14.984375l.085938-140.273437c87.597656-20.640626 151.113281-99.511719 151.113281-190.742188 0-24.8125-20.1875-45-45-45zm0 0"/><path d="m497 212c0-33.089844-26.910156-60-60-60s-60 26.910156-60 60 26.910156 60 60 60 60-26.910156 60-60zm0 0"/><path d="m437 272h-30c-34.492188 0-65.890625-17.941406-85.042969-43.707031-8.777343 30.96875-24.066406 59.074219-44.484375 83.140625 23.917969 21.113281 53.472656 37.871094 84.636719 45.292968l.089844 140.289063c0 8.273437 6.523437 14.984375 14.800781 14.984375h120c8.289062 0 15-6.710938 15-15v-150c0-41.351562-33.648438-75-75-75zm0 0"/></svg>