<svg height="458pt" viewBox="-16 0 458 458.61577" width="458pt" xmlns="http://www.w3.org/2000/svg"><path d="m362.972656 458.617188h-320c-23.5625 0-42.664062-19.105469-42.664062-42.667969v-320c0-23.5625 19.101562-42.667969 42.664062-42.667969h191.335938v21.335938h-191.335938c-11.78125 0-21.332031 9.550781-21.332031 21.332031v320c0 11.78125 9.550781 21.332031 21.332031 21.332031h320c11.785156 0 21.335938-9.550781 21.335938-21.332031v-247.601563h21.332031v247.601563c0 23.5625-19.101563 42.667969-42.667969 42.667969zm0 0"/><path d="m174.042969 284.890625 15.085937-15.085937 170.667969 170.667968-15.085937 15.082032zm0 0"/><path d="m12.777344 430.941406 242.492187-242.488281 15.082031 15.082031-242.488281 242.492188zm0 0"/><path d="m320.308594 149.28125c-23.566406 0-42.667969-19.101562-42.667969-42.664062 0-23.566407 19.101563-42.667969 42.667969-42.667969 23.5625 0 42.664062 19.101562 42.664062 42.667969 0 23.5625-19.101562 42.664062-42.664062 42.664062zm0-64c-11.78125 0-21.335938 9.550781-21.335938 21.335938 0 11.78125 9.554688 21.332031 21.335938 21.332031s21.332031-9.550781 21.332031-21.332031c0-11.785157-9.550781-21.335938-21.332031-21.335938zm0 0"/><path d="m122.972656 245.28125c-33.664062-.003906-62.457031-24.191406-68.277344-57.351562-5.816406-33.15625 13.027344-65.703126 44.679688-77.167969 31.652344-11.464844 66.964844 1.460937 83.734375 30.652343l-18.535156 10.667969c-11.28125-19.539062-34.644531-28.582031-56.140625-21.734375-21.496094 6.851563-35.320313 27.746094-33.21875 50.210938 2.105468 22.464844 19.566406 40.429687 41.960937 43.167968 22.394531 2.742188 43.675781-10.484374 51.132813-31.777343h-50.667969v-21.332031h75.46875l-1.066406 11.597656c-3.058594 35.816406-33.125 63.265625-69.070313 63.066406zm0 0"/><path d="m320.308594 348.082031-10.132813-32c-9.703125-30.875-23.183593-60.429687-40.132812-88l-40.402344-65.332031c-27.640625-44.71875-18.578125-102.910156 21.355469-137.105469 39.933594-34.191406 98.824218-34.191406 138.757812 0 39.929688 34.195313 48.996094 92.386719 21.355469 137.105469l-40.402344 65.332031c-16.949219 27.570313-30.429687 57.125-40.132812 88zm0-326.800781c-30.957032.003906-59.484375 16.773438-74.542969 43.820312-15.0625 27.046876-14.292969 60.128907 2.007813 86.449219l40.402343 65.332031c12.589844 20.382813 23.34375 41.84375 32.132813 64.132813 8.78125-22.332031 19.535156-43.839844 32.132812-64.265625l40.398438-65.335938c16.230468-26.308593 16.960937-59.339843 1.910156-86.34375-15.050781-27.003906-43.527344-43.753906-74.441406-43.789062zm0 0"/></svg>