<svg version="1.1" id="Layer_1" xmlns="http://www.w3.org/2000/svg" xmlns:xlink="http://www.w3.org/1999/xlink" x="0px" y="0px"
	 viewBox="0 0 512 512" style="enable-background:new 0 0 512 512;" xml:space="preserve">
<path d="M407,0v30h75v75h30V0L407,0z"/>
<path d="M30,30h75V0H0v105h30V30z"/>
<path d="M482,482h-75v30h105V407h-30L482,482z"/>
<path d="M30,407H0v105h105v-30H30V407z"/>
<g>
	<path d="M202.4,54.4H55.8V201h146.6L202.4,54.4L202.4,54.4z M172.4,171H85.8V84.4h86.6L172.4,171L172.4,171z"/>
	<path d="M105.4,104h47.4v47.4h-47.4L105.4,104z"/>
	<g>
		<path d="M294,435.8h1.2V297.6h73.6V173.2h-24.5v-48.7h-27.8V85.3h-21.8v39.2h-27.8v48.7h-24.5v262.6h-14.8V221.9h-95.1v213.9H54.7
			v21.8H447v-21.8h-27.7 M319,200.1h21.8v21.8H319V200.1z M319,248.9h21.8v21.8H319V248.9z M190.4,427.2h-21.8v-21.8h21.8V427.2z
			 M190.4,375h-21.8v-21.8h21.8V375z M190.4,322.9h-21.8V301h21.8V322.9z M190.4,270.7h-21.8v-21.8h21.8V270.7z M292.1,270.7h-21.8
			v-21.8h21.8V270.7z M292.1,221.9h-21.8v-21.8h21.8V221.9z M294.7,151.4h21.8v21.8h-21.8V151.4z M343.1,435.8h-21.8 M392.1,435.8
			h-21.8"/>
	</g>
	<path d="M457.3,311H310.6v146.6h146.6L457.3,311L457.3,311z M427.3,427.6h-86.6V341h86.6L427.3,427.6L427.3,427.6z"/>
	<path d="M360.2,360.6h47.4V408h-47.4L360.2,360.6z"/>
</g>
</svg>
