<svg id="Capa_1" enable-background="new 0 0 512 512" height="512" viewBox="0 0 512 512" width="512" xmlns="http://www.w3.org/2000/svg"><g><path d="m497 241h-16.504c-3.561-54.453-26.456-105.157-65.398-144.099s-89.645-61.837-144.098-65.397v-16.504c0-8.284-6.716-15-15-15s-15 6.716-15 15v16.504c-54.453 3.56-105.158 26.456-144.099 65.397-38.941 38.942-61.836 89.646-65.397 144.099h-16.504c-8.284 0-15 6.716-15 15s6.716 15 15 15h16.504c3.561 54.453 26.456 105.157 65.397 144.099 38.942 38.942 89.646 61.837 144.099 65.398v16.503c0 8.284 6.716 15 15 15s15-6.716 15-15v-16.504c54.453-3.561 105.157-26.456 144.099-65.398s61.837-89.645 65.397-144.098h16.504c8.284 0 15-6.716 15-15s-6.716-15-15-15zm-62 30h15.429c-7.306 95.591-83.838 172.123-179.429 179.429v-15.429c0-8.284-6.716-15-15-15s-15 6.716-15 15v15.429c-95.591-7.306-172.123-83.838-179.429-179.429h15.429c8.284 0 15-6.716 15-15s-6.716-15-15-15h-15.429c7.306-95.591 83.838-172.123 179.429-179.429v15.429c0 8.284 6.716 15 15 15s15-6.716 15-15v-15.429c95.591 7.306 172.123 83.838 179.429 179.429h-15.429c-8.284 0-15 6.716-15 15s6.716 15 15 15z"/><path d="m256.061 121c-39.943-.023-75.883 22.15-93.782 57.854-17.89 35.686-14.167 77.724 9.715 109.71l71.987 96.411c5.999 8.034 18.04 8.034 24.038 0l71.987-96.411c23.897-32.006 27.61-74.076 9.683-109.775-17.719-35.283-54.146-57.767-93.628-57.789zm59.906 149.614-59.967 80.315-59.968-80.314c-17.307-23.179-19.899-52.456-6.935-78.315 12.965-25.862 37.975-41.3 66.903-41.3s53.938 15.438 66.903 41.299c12.964 25.86 10.371 55.137-6.936 78.315z"/><path d="m256 181c-24.813 0-45 20.187-45 45s20.187 45 45 45 45-20.187 45-45-20.187-45-45-45zm0 60c-8.271 0-15-6.729-15-15s6.729-15 15-15 15 6.729 15 15-6.729 15-15 15z"/></g></svg>