<?xml version="1.0" encoding="utf-8"?>
<!-- Generator: Adobe Illustrator 25.2.3, SVG Export Plug-In . SVG Version: 6.00 Build 0)  -->
<svg version="1.1" id="Layer_1" xmlns="http://www.w3.org/2000/svg" xmlns:xlink="http://www.w3.org/1999/xlink" x="0px" y="0px"
	 viewBox="0 0 332 340" style="enable-background:new 0 0 332 340;" xml:space="preserve">
<style type="text/css">
	.st0{opacity:0.15;}
	.st1{fill:#08497E;}
	.st2{opacity:0.5;fill:#CEDBE5;}
	.st3{opacity:0.5;fill:#84A4BF;}
	.st4{opacity:0.5;fill:#396D98;}
	.st5{opacity:0.5;fill:#5280A5;}
	.st6{opacity:0.5;fill:#215B8B;}
	.st7{opacity:0.5;fill:#08497E;}
	.st8{opacity:0.5;fill:#D93131;}
	.st9{opacity:0.5;fill:#6B92B2;}
	.st10{opacity:0.5;fill:#E6EDF2;}
	.st11{opacity:0.5;fill:#83AFE4;}
	.st12{opacity:0.5;fill:#5290D9;}
	.st13{opacity:0.5;fill:#ECECF1;}
	.st14{opacity:0.5;fill:#D3D3D8;}
	.st15{fill:none;}
	.st16{fill:#005623;}
	.st17{fill:#00451C;}
	.st18{fill:#FFBC85;}
	.st19{fill:#F5A96C;}
	.st20{fill:#E8EAE8;}
	.st21{fill:#606060;}
	.st22{fill:#F3F3F3;}
	.st23{fill:#33784F;}
	.st24{fill:#425A6B;}
	.st25{fill:#344A5E;}
	.st26{fill:#CB8252;}
	.st27{fill:#A56A43;}
	.st28{fill:none;stroke:#A56A43;stroke-width:0;stroke-linecap:round;stroke-linejoin:round;}
	.st29{fill:none;stroke:#344A5E;stroke-width:0;stroke-linecap:round;stroke-linejoin:round;}
	.st30{fill:#003415;}
	.st31{fill:none;stroke:#F5B54C;stroke-width:0;stroke-linecap:round;stroke-linejoin:round;}
	.st32{fill:#F5B54C;}
	.st33{fill:#86231D;}
	.st34{fill:#9E4F4A;}
</style>
<g>
	<g>
		<g class="st0">
			<circle class="st1" cx="166" cy="174" r="166"/>
		</g>
		<g>
			<path class="st2" d="M83.2,85.5c0-2.2-1.8-4-4-4c-2.2,0-4,1.8-4,4V101h7.9V85.5z"/>
			<path class="st3" d="M89.4,103.7c0-1.5-1.2-2.7-2.7-2.7h-3.4h-7.9H57.5c-1.5,0-2.7,1.2-2.7,2.7v22.5h34.6V103.7z"/>
			<path class="st4" d="M89.4,103.7v22.5h7.2c0,0,0,0,0,0h2.4v-22.5c0-1.5-1.2-2.7-2.7-2.7h0h-9.5C88.2,101,89.4,102.2,89.4,103.7z"
				/>
			<path class="st2" d="M99.3,129c0-1.5-1.2-2.7-2.7-2.7h-7.2H54.8h-7.1c-1.5,0-2.7,1.2-2.7,2.7v22.4h54.3V129z"/>
			<path class="st3" d="M96.5,126.3C96.6,126.3,96.6,126.3,96.5,126.3c1.5,0,2.7,1.2,2.7,2.7v22.5h3h6.5V129v0
				c0-1.5-1.2-2.7-2.7-2.7h-7.1H96.5z"/>
			<path class="st5" d="M214.9,79.6l3.4-3.7c0.4-0.4,0.9-0.7,1.4-0.8c-0.5,0.1-1,0.4-1.4,0.8l-27.5,29.7h47.3L214.9,79.6z"/>
			<rect x="238.1" y="105.6" class="st5" width="11.4" height="0"/>
			<path class="st3" d="M57.3,293.5c-2.2,0-4-1.8-4-4c0-2.2,1.8-4,4-4h15.9v-11.5H57.3c-2.2,0-4-1.8-4-4c0-2.2,1.8-4,4-4h15.9V254
				H57.3c-2.2,0-4-1.8-4-4c0-2.2,1.8-4,4-4h15.9V234H57.3c-2.2,0-4-1.8-4-4c0-2.2,1.8-4,4-4h16.3c0.7-1.4,2.3-2.3,4-2L105,229v-17.9
				c-0.7,1-1.9,1.6-3.2,1.6h-6c-2.2,0-4-1.8-4-4c0-2.2,1.8-4,4-4h6c1.3,0,2.5,0.7,3.2,1.6v-15.4c-0.7,1-1.9,1.6-3.2,1.6h-6
				c-2.2,0-4-1.8-4-4c0-2.2,1.8-4,4-4h6c1.3,0,2.5,0.7,3.2,1.6V171c-0.7,1-1.9,1.6-3.2,1.6h-6c-2.2,0-4-1.8-4-4c0-2.2,1.8-4,4-4h6
				c1.3,0,2.5,0.7,3.2,1.6v-12.3c0-1.5-1.2-2.7-2.7-2.7h-3H44.9h-5.7c-1.5,0-2.7,1.2-2.7,2.7v123.7c10.5,13,22.8,24.4,36.7,33.8
				v-18.2H57.3z M80.5,212.8H57.3c-2.2,0-4-1.8-4-4c0-2.2,1.8-4,4-4h23.2c2.2,0,4,1.8,4,4C84.4,211,82.7,212.8,80.5,212.8z
				 M80.5,192.7H57.3c-2.2,0-4-1.8-4-4c0-2.2,1.8-4,4-4h23.2c2.2,0,4,1.8,4,4C84.4,190.9,82.7,192.7,80.5,192.7z M80.5,172.7H57.3
				c-2.2,0-4-1.8-4-4c0-2.2,1.8-4,4-4h23.2c2.2,0,4,1.8,4,4C84.4,170.9,82.7,172.7,80.5,172.7z"/>
			<path class="st2" d="M80.5,164.8H57.3c-2.2,0-4,1.8-4,4c0,2.2,1.8,4,4,4h23.2c2.2,0,4-1.8,4-4C84.4,166.5,82.7,164.8,80.5,164.8z
				"/>
			<path class="st2" d="M80.5,184.8H57.3c-2.2,0-4,1.8-4,4c0,2.2,1.8,4,4,4h23.2c2.2,0,4-1.8,4-4C84.4,186.6,82.7,184.8,80.5,184.8z
				"/>
			<path class="st2" d="M80.5,204.8H57.3c-2.2,0-4,1.8-4,4c0,2.2,1.8,4,4,4h23.2c2.2,0,4-1.8,4-4C84.4,206.6,82.7,204.8,80.5,204.8z
				"/>
			<path class="st2" d="M53.3,230c0,2.2,1.8,4,4,4h15.9v-6.3c0-0.6,0.1-1.1,0.4-1.6H57.3C55.1,226.1,53.3,227.8,53.3,230z"/>
			<path class="st2" d="M53.3,250.1c0,2.2,1.8,4,4,4h15.9v-7.9H57.3C55.1,246.1,53.3,247.9,53.3,250.1z"/>
			<path class="st2" d="M53.3,270.1c0,2.2,1.8,4,4,4h15.9v-7.9H57.3C55.1,266.1,53.3,267.9,53.3,270.1z"/>
			<path class="st2" d="M53.3,289.5c0,2.2,1.8,4,4,4h15.9v-7.9H57.3C55.1,285.6,53.3,287.4,53.3,289.5z"/>
			<path class="st4" d="M105,154.1v12.3c0.5,0.6,0.8,1.4,0.8,2.3s-0.3,1.7-0.8,2.3v15.4c0.5,0.6,0.8,1.4,0.8,2.3s-0.3,1.7-0.8,2.3
				v15.4c0.5,0.6,0.8,1.4,0.8,2.3s-0.3,1.7-0.8,2.3V229l12.2,2.2v-77.1c0-1.5-1.2-2.7-2.7-2.7h0h-5.7h-6.5
				C103.7,151.4,105,152.6,105,154.1z"/>
			<path class="st6" d="M249.8,120.1v80.1h5.1c1.5,0,2.7,1.2,2.7,2.7v0v109.4c7.3-4.8,14.2-10.2,20.6-16.1h-2.9
				c-2.2,0-4.1-1.8-4.1-4.1c0-2.2,1.8-4.1,4.1-4.1h11.2c2.9-3,5.7-6.2,8.3-9.5V120.1H249.8z M275.3,132.3h11.4
				c2.2,0,4.1,1.8,4.1,4.1c0,2.2-1.8,4.1-4.1,4.1h-11.4c-2.2,0-4.1-1.8-4.1-4.1C271.2,134.1,273.1,132.3,275.3,132.3z M286.7,270.3
				h-11.4c-2.2,0-4.1-1.8-4.1-4.1c0-2.2,1.8-4.1,4.1-4.1h11.4c2.2,0,4.1,1.8,4.1,4.1C290.8,268.5,288.9,270.3,286.7,270.3z
				 M286.7,244.3h-11.4c-2.2,0-4.1-1.8-4.1-4.1c0-2.2,1.8-4.1,4.1-4.1h11.4c2.2,0,4.1,1.8,4.1,4.1
				C290.8,242.5,288.9,244.3,286.7,244.3z M286.7,218.4h-11.4c-2.2,0-4.1-1.8-4.1-4.1c0-2.2,1.8-4.1,4.1-4.1h11.4
				c2.2,0,4.1,1.8,4.1,4.1C290.8,216.5,288.9,218.4,286.7,218.4z M286.7,192.4h-11.4c-2.2,0-4.1-1.8-4.1-4.1c0-2.2,1.8-4.1,4.1-4.1
				h11.4c2.2,0,4.1,1.8,4.1,4.1C290.8,190.6,288.9,192.4,286.7,192.4z M286.7,166.4h-11.4c-2.2,0-4.1-1.8-4.1-4.1
				c0-2.2,1.8-4.1,4.1-4.1h11.4c2.2,0,4.1,1.8,4.1,4.1C290.8,164.6,288.9,166.4,286.7,166.4z"/>
			<path class="st7" d="M302.4,120.1h-7.6v158.6c4.3-5.3,8.3-10.9,11.9-16.7V124.5C306.7,122.1,304.8,120.1,302.4,120.1z"/>
			<path class="st8" d="M255,200.2c1.5,0,2.7,1.2,2.7,2.7v0C257.7,201.5,256.5,200.2,255,200.2l-5.1,0v0H255z"/>
			<path class="st3" d="M238.1,181c-0.7,1.1-1.9,1.7-3.3,1.7c-2.2,0-4-1.8-4-4v-6.7c0-2.2,1.8-4,4-4c1.4,0,2.6,0.7,3.3,1.7v-11.5
				c-0.7,1.1-1.9,1.7-3.3,1.7c-2.2,0-4-1.8-4-4v-6.7c0-2.2,1.8-4,4-4c1.4,0,2.6,0.7,3.3,1.7v-11.4c-0.7,1.1-1.9,1.7-3.3,1.7
				c-2.2,0-4-1.8-4-4V127c0-2.2,1.8-4,4-4c1.4,0,2.6,0.7,3.3,1.7v-19.2h0h-47.3v8v86.7h47.3V181z M207,178.8c0,2.2-1.8,4-4,4
				c-2.2,0-4-1.8-4-4v-6.7c0-2.2,1.8-4,4-4c2.2,0,4,1.8,4,4V178.8z M207,156.3c0,2.2-1.8,4-4,4c-2.2,0-4-1.8-4-4v-6.7
				c0-2.2,1.8-4,4-4c2.2,0,4,1.8,4,4V156.3z M207,133.7c0,2.2-1.8,4-4,4c-2.2,0-4-1.8-4-4V127c0-2.2,1.8-4,4-4c2.2,0,4,1.8,4,4
				V133.7z M222.9,178.8c0,2.2-1.8,4-4,4c-2.2,0-4-1.8-4-4v-6.7c0-2.2,1.8-4,4-4c2.2,0,4,1.8,4,4V178.8z M222.9,156.3
				c0,2.2-1.8,4-4,4c-2.2,0-4-1.8-4-4v-6.7c0-2.2,1.8-4,4-4c2.2,0,4,1.8,4,4V156.3z M222.9,133.7c0,2.2-1.8,4-4,4c-2.2,0-4-1.8-4-4
				V127c0-2.2,1.8-4,4-4c2.2,0,4,1.8,4,4V133.7z"/>
			<polygon class="st3" points="249.8,200.2 249.8,200.2 249.8,200.2 249.8,120.1 249.8,105.6 249.8,105.6 			"/>
			<path class="st9" d="M238.1,124.8c0.4,0.6,0.7,1.4,0.7,2.2v6.7c0,0.8-0.2,1.6-0.7,2.2v11.4c0.4,0.6,0.7,1.4,0.7,2.2v6.7
				c0,0.8-0.2,1.6-0.7,2.2v11.5c0.4,0.6,0.7,1.4,0.7,2.2v6.7c0,0.8-0.2,1.6-0.7,2.2v19.2h11.7v-94.7h-0.2h-11.4V124.8z"/>
			<path class="st4" d="M214.9,79.6l23.2,26l11.4,0h0l-27.2-29.7c-0.7-0.7-1.7-1-2.6-0.8c-0.5,0.1-1,0.4-1.4,0.8L214.9,79.6z"/>
			<path class="st3" d="M275.3,140.4h11.4c2.2,0,4.1-1.8,4.1-4.1c0-2.2-1.8-4.1-4.1-4.1h-11.4c-2.2,0-4.1,1.8-4.1,4.1
				C271.2,138.6,273.1,140.4,275.3,140.4z"/>
			<path class="st3" d="M286.7,158.3h-11.4c-2.2,0-4.1,1.8-4.1,4.1c0,2.2,1.8,4.1,4.1,4.1h11.4c2.2,0,4.1-1.8,4.1-4.1
				C290.8,160.1,288.9,158.3,286.7,158.3z"/>
			<path class="st3" d="M286.7,184.3h-11.4c-2.2,0-4.1,1.8-4.1,4.1c0,2.2,1.8,4.1,4.1,4.1h11.4c2.2,0,4.1-1.8,4.1-4.1
				C290.8,186.1,288.9,184.3,286.7,184.3z"/>
			<path class="st3" d="M286.7,210.2h-11.4c-2.2,0-4.1,1.8-4.1,4.1c0,2.2,1.8,4.1,4.1,4.1h11.4c2.2,0,4.1-1.8,4.1-4.1
				C290.8,212.1,288.9,210.2,286.7,210.2z"/>
			<path class="st3" d="M286.7,236.2h-11.4c-2.2,0-4.1,1.8-4.1,4.1c0,2.2,1.8,4.1,4.1,4.1h11.4c2.2,0,4.1-1.8,4.1-4.1
				C290.8,238,288.9,236.2,286.7,236.2z"/>
			<path class="st3" d="M286.7,262.2h-11.4c-2.2,0-4.1,1.8-4.1,4.1c0,2.2,1.8,4.1,4.1,4.1h11.4c2.2,0,4.1-1.8,4.1-4.1
				C290.8,264,288.9,262.2,286.7,262.2z"/>
			<path class="st3" d="M271.2,292.2c0,2.2,1.8,4.1,4.1,4.1h2.9c2.8-2.6,5.6-5.3,8.3-8.1h-11.2C273.1,288.2,271.2,290,271.2,292.2z"
				/>
			<path class="st6" d="M151.4,237.4l6.7,1.2c1.7,0.3,3,1.8,3,3.6v0c0-1.8-1.3-3.3-3-3.6l-41-7.4L105,229L77.5,224
				c-1.7-0.3-3.3,0.6-4,2c-0.2,0.5-0.4,1-0.4,1.6v6.3v12.1v7.9v12.1v7.9v11.5v7.9v18.2c7.3,4.9,15,9.3,23,13v-21.3
				c0-10,7.4-18.3,17-19.7c0,0,0,0-0.1,0c0.2,0,0.4-0.1,0.7-0.1c0.2,0,0.4,0,0.5-0.1c0.6-0.1,1.2-0.1,1.8-0.1h2h0
				c2,0,3.9,0.3,5.6,0.8c8.3,2.4,14.3,10.1,14.3,19.1v34.3c4.6,0.8,9.3,1.4,14.1,1.8v-99.7C152.2,238.8,151.9,238,151.4,237.4z
				 M104.2,271.1c0,2.2-1.8,4-4,4c-2.2,0-4-1.8-4-4v-5.6c0-2.2,1.8-4,4-4c2.2,0,4,1.8,4,4V271.1z M104.2,249.8c0,2.2-1.8,4-4,4
				c-2.2,0-4-1.8-4-4v-5.6c0-2.2,1.8-4,4-4c2.2,0,4,1.8,4,4V249.8z M122.7,271.1c0,2.2-1.8,4-4,4c-2.2,0-4-1.8-4-4v-5.6
				c0-2.2,1.8-4,4-4c2.2,0,4,1.8,4,4V271.1z M122.7,249.8c0,2.2-1.8,4-4,4c-2.2,0-4-1.8-4-4v-5.6c0-2.2,1.8-4,4-4c2.2,0,4,1.8,4,4
				V249.8z M141.2,271.1c0,2.2-1.8,4-4,4c-2.2,0-4-1.8-4-4v-5.6c0-2.2,1.8-4,4-4c2.2,0,4,1.8,4,4V271.1z M141.2,249.8
				c0,2.2-1.8,4-4,4c-2.2,0-4-1.8-4-4v-5.6c0-2.2,1.8-4,4-4c2.2,0,4,1.8,4,4V249.8z"/>
			<path class="st7" d="M158.1,238.6l-6.7-1.2c0.5,0.6,0.8,1.4,0.8,2.3v99.7c3,0.2,5.9,0.4,8.9,0.5v-97.7
				C161.2,240.4,159.9,238.9,158.1,238.6z"/>
			<path class="st10" d="M123.8,284.2c8.3,2.4,14.3,10.1,14.3,19.1v34.3c0,0,0,0,0,0v-34.3C138.1,294.3,132.1,286.7,123.8,284.2z"/>
			<path class="st10" d="M113.2,283.7c-9.6,1.4-17,9.7-17,19.7v21.3c10.7,5,22,8.8,33.8,11.4v-32.7
				C130,293.4,122.7,285.2,113.2,283.7z"/>
			<path class="st10" d="M113.8,283.6c0.2,0,0.4,0,0.5-0.1C114.2,283.5,114,283.6,113.8,283.6z"/>
			<path class="st2" d="M123.8,284.2c-1.8-0.5-3.7-0.8-5.6-0.8h0h-2c-0.6,0-1.2,0-1.8,0.1c-0.2,0-0.4,0-0.5,0.1
				c-0.2,0-0.5,0-0.7,0.1c0,0,0,0,0.1,0c9.5,1.5,16.8,9.7,16.8,19.7v32.7c2.7,0.6,5.4,1.1,8.1,1.6v-34.3
				C138.1,294.3,132.1,286.7,123.8,284.2z"/>
			<path class="st11" d="M128.9,80.5c0.1-0.1,0.2-0.2,0.3-0.3C129.1,80.3,129,80.4,128.9,80.5z"/>
			<path class="st11" d="M158.3,108c0.8,0,1.6-0.1,2.4-0.3c0.1-0.5,0.2-1.1,0.2-1.6c0-3.5-2.3-6.8-5.7-7.9c-1.8-0.6-3.2,0-4.3-1.7
				c-0.8-1.2-0.6-3-1.1-4.3c-0.8-2-2-3.8-3.5-5.4c-3-3.1-7.2-4.8-11.5-4.8c-3.2,0-6.1,0.9-8.6,2.5c-1.1,2.2-1.8,4.7-1.8,7.4
				c0,1,0.1,2,0.3,3c-1.5-2.1-3.9-3.4-6.7-3.4c-4.6,0-8.3,3.7-8.3,8.3c0,4.6,3.7,8.3,8.3,8.3L158.3,108L158.3,108z"/>
			<path class="st11" d="M126.2,84.3c0.1-0.2,0.2-0.4,0.3-0.6C126.4,83.9,126.3,84.1,126.2,84.3z"/>
			<path class="st11" d="M126.9,83.1c0.1-0.2,0.2-0.3,0.3-0.5C127.1,82.8,127,82.9,126.9,83.1z"/>
			<path class="st11" d="M128,81.6c0.1-0.1,0.2-0.2,0.3-0.3C128.2,81.4,128.1,81.5,128,81.6z"/>
			<path class="st11" d="M132.7,77.6c0.1,0,0.1-0.1,0.2-0.1C132.8,77.6,132.7,77.6,132.7,77.6z"/>
			<path class="st11" d="M131.3,78.5c0.1-0.1,0.2-0.1,0.3-0.2C131.5,78.3,131.4,78.4,131.3,78.5z"/>
			<path class="st11" d="M137.2,75.9c0.1,0,0.1,0,0.2,0C137.3,75.9,137.3,75.9,137.2,75.9z"/>
			<path class="st11" d="M161.8,107.2c-0.1,0.1-0.2,0.1-0.3,0.1C161.5,107.3,161.6,107.3,161.8,107.2z"/>
			<path class="st11" d="M134.1,76.9c0.1,0,0.2-0.1,0.3-0.1C134.3,76.8,134.2,76.9,134.1,76.9z"/>
			<path class="st11" d="M161.1,107.5c-0.1,0-0.2,0.1-0.4,0.1C160.8,107.6,161,107.6,161.1,107.5z"/>
			<path class="st11" d="M135.5,76.4c0.1,0,0.2-0.1,0.3-0.1C135.7,76.3,135.6,76.4,135.5,76.4z"/>
			<path class="st11" d="M157.1,91.5c-0.1,0-0.3,0-0.4,0.1c0-2.3-0.6-4.6-1.5-6.6c0.9,2,1.5,4.2,1.5,6.6
				C156.9,91.5,157,91.5,157.1,91.5z"/>
			<path class="st11" d="M130.2,79.3c0,0,0.1-0.1,0.1-0.1C130.3,79.3,130.3,79.3,130.2,79.3z"/>
			<path class="st11" d="M164.8,104.9c-0.1,0.1-0.1,0.1-0.2,0.2C164.7,105,164.8,104.9,164.8,104.9z"/>
			<path class="st11" d="M164.3,105.4c-0.1,0.1-0.1,0.1-0.2,0.2C164.2,105.5,164.3,105.5,164.3,105.4z"/>
			<path class="st11" d="M163.7,106c0,0-0.1,0.1-0.1,0.1C163.6,106.1,163.7,106,163.7,106z"/>
			<path class="st11" d="M165.6,103.6C165.6,103.7,165.6,103.7,165.6,103.6C165.6,103.7,165.6,103.7,165.6,103.6z"/>
			<path class="st11" d="M165.3,104.3c0,0.1-0.1,0.1-0.1,0.2C165.2,104.4,165.2,104.3,165.3,104.3z"/>
			<path class="st11" d="M138.7,75.7c0.1,0,0.2,0,0.3,0C138.9,75.7,138.8,75.7,138.7,75.7z"/>
			<path class="st11" d="M166,102.8c0,0,0,0.1-0.1,0.1C166,102.9,166,102.8,166,102.8z"/>
			<path class="st11" d="M166.5,101.2c0,0.1,0,0.2-0.1,0.3C166.5,101.4,166.5,101.3,166.5,101.2z"/>
			<path class="st11" d="M166.6,100.5c0,0.1,0,0.2,0,0.2C166.6,100.6,166.6,100.5,166.6,100.5z"/>
			<path class="st11" d="M166.3,102c0,0.1,0,0.2-0.1,0.2C166.3,102.2,166.3,102.1,166.3,102z"/>
			<path class="st11" d="M166.6,99.7c0-0.9-0.2-1.8-0.4-2.6C166.5,97.9,166.6,98.8,166.6,99.7C166.6,99.7,166.6,99.7,166.6,99.7z"/>
			<path class="st11" d="M162.4,106.9c-0.1,0.1-0.2,0.1-0.3,0.2C162.2,107,162.3,107,162.4,106.9z"/>
			<path class="st11" d="M163,106.5c-0.1,0.1-0.2,0.1-0.2,0.2C162.9,106.6,162.9,106.6,163,106.5z"/>
			<path class="st12" d="M146.2,86.7c1.5,1.5,2.7,3.4,3.5,5.4c0.5,1.3,0.3,3.1,1.1,4.3c1.1,1.7,2.5,1.1,4.3,1.7
				c3.4,1.1,5.7,4.4,5.7,7.9c0,0.6-0.1,1.1-0.2,1.6c0,0,0,0,0,0c0,0,0,0,0,0c0.1,0,0.2-0.1,0.4-0.1c0.1,0,0.2-0.1,0.3-0.1
				c0.1,0,0.2-0.1,0.3-0.1c0.1-0.1,0.2-0.1,0.4-0.2c0.1-0.1,0.2-0.1,0.3-0.2c0.1-0.1,0.3-0.2,0.4-0.2c0.1-0.1,0.2-0.1,0.2-0.2
				c0.2-0.1,0.4-0.3,0.6-0.4c0,0,0.1-0.1,0.1-0.1c0.2-0.1,0.3-0.3,0.4-0.4c0.1-0.1,0.1-0.1,0.2-0.2c0.1-0.1,0.2-0.2,0.3-0.4
				c0.1-0.1,0.1-0.1,0.2-0.2c0.1-0.1,0.2-0.3,0.3-0.4c0-0.1,0.1-0.1,0.1-0.2c0.1-0.2,0.2-0.4,0.3-0.5c0,0,0-0.1,0.1-0.1
				c0.1-0.2,0.2-0.5,0.3-0.7c0,0,0-0.1,0.1-0.1c0.1-0.2,0.1-0.4,0.2-0.6c0-0.1,0-0.2,0.1-0.2c0-0.2,0.1-0.3,0.1-0.5
				c0-0.1,0-0.2,0.1-0.3c0-0.2,0.1-0.4,0.1-0.5c0-0.1,0-0.2,0-0.2c0-0.3,0-0.5,0-0.8c0,0,0,0,0,0c0-0.9-0.2-1.8-0.4-2.6
				c-1.1-3.3-4.2-5.7-7.9-5.7c-0.4,0-0.8,0-1.2,0.1c-0.1,0-0.3,0-0.4,0.1c0-2.3-0.6-4.6-1.5-6.6c-2.6-5.5-8.2-9.4-14.7-9.4
				c-0.5,0-1,0-1.5,0.1c-0.1,0-0.2,0-0.3,0c-0.4,0-0.9,0.1-1.3,0.2c-0.1,0-0.1,0-0.2,0c-0.5,0.1-1,0.2-1.4,0.4
				c-0.1,0-0.2,0.1-0.3,0.1c-0.4,0.1-0.8,0.3-1.1,0.4c-0.1,0-0.2,0.1-0.3,0.1c-0.4,0.2-0.9,0.4-1.3,0.6c-0.1,0-0.1,0.1-0.2,0.1
				c-0.4,0.2-0.7,0.4-1,0.6c-0.1,0.1-0.2,0.1-0.3,0.2c-0.3,0.2-0.7,0.5-1,0.7c0,0-0.1,0.1-0.1,0.1c-0.3,0.3-0.7,0.6-1,0.9
				c-0.1,0.1-0.2,0.2-0.3,0.3c-0.2,0.2-0.4,0.5-0.7,0.7c-0.1,0.1-0.2,0.2-0.3,0.3c-0.3,0.3-0.5,0.7-0.8,1c-0.1,0.2-0.2,0.3-0.3,0.5
				c-0.1,0.2-0.3,0.4-0.4,0.7c-0.1,0.2-0.2,0.4-0.3,0.6c0,0,0,0.1-0.1,0.1c0,0,0,0,0,0c2.5-1.6,5.4-2.5,8.6-2.5
				C139,81.9,143.2,83.7,146.2,86.7z"/>
			<path class="st11" d="M165.3,179.5c0.2,0,0.3-0.1,0.5-0.1C165.6,179.4,165.5,179.4,165.3,179.5z"/>
			<path class="st11" d="M164.6,179.7c0.1-0.1,0.3-0.1,0.5-0.2C164.9,179.6,164.7,179.7,164.6,179.7z"/>
			<path class="st11" d="M141.3,173.3c0-0.1,0.1-0.1,0.1-0.2C141.4,173.1,141.3,173.2,141.3,173.3z"/>
			<path class="st11" d="M140.6,174.4c0.1-0.1,0.1-0.3,0.2-0.4C140.8,174.1,140.7,174.3,140.6,174.4z"/>
			<path class="st11" d="M142.8,171.4c0.1-0.1,0.1-0.1,0.2-0.1C142.9,171.3,142.9,171.4,142.8,171.4z"/>
			<path class="st11" d="M162.1,181.7c0.1-0.2,0.3-0.4,0.5-0.6C162.4,181.3,162.2,181.5,162.1,181.7z"/>
			<path class="st11" d="M162.2,178.2c0,0.1,0,0.3,0,0.4C162.2,178.5,162.2,178.3,162.2,178.2z"/>
			<path class="st11" d="M162.3,180.4c0,0.1,0,0.2,0,0.3C162.2,180.6,162.2,180.5,162.3,180.4z"/>
			<path class="st11" d="M162.3,179.6c0-0.1,0-0.2,0-0.3c0,0.2,0,0.4,0,0.6C162.3,179.7,162.3,179.7,162.3,179.6z"/>
			<path class="st11" d="M153,168.3c0.1,0,0.1,0,0.2,0C153.2,168.4,153.1,168.4,153,168.3z"/>
			<path class="st11" d="M162,177.2c0,0.1,0,0.2,0.1,0.3C162.1,177.3,162,177.3,162,177.2z"/>
			<path class="st11" d="M163.3,180.5c0.1-0.1,0.3-0.2,0.4-0.3C163.6,180.3,163.4,180.4,163.3,180.5z"/>
			<path class="st11" d="M143.6,170.7c0.1-0.1,0.2-0.1,0.3-0.2C143.8,170.6,143.7,170.7,143.6,170.7z"/>
			<path class="st11" d="M166,179.3c0.2,0,0.5,0,0.7-0.1C166.5,179.3,166.3,179.3,166,179.3z"/>
			<path class="st11" d="M162.7,181c0.1-0.1,0.3-0.2,0.4-0.4C163,180.7,162.8,180.9,162.7,181z"/>
			<path class="st11" d="M145.4,169.5c0.1-0.1,0.2-0.1,0.4-0.2C145.6,169.4,145.5,169.5,145.4,169.5z"/>
			<path class="st11" d="M147.3,168.7c0.1,0,0.3-0.1,0.4-0.1C147.6,168.6,147.5,168.6,147.3,168.7z"/>
			<path class="st11" d="M146.3,169.1c0.1-0.1,0.3-0.1,0.4-0.2C146.6,169,146.5,169,146.3,169.1z"/>
			<path class="st11" d="M151.8,168.2c0.2,0,0.3,0,0.5,0C152.1,168.2,151.9,168.2,151.8,168.2z"/>
			<path class="st11" d="M144.4,170.1c0.1-0.1,0.2-0.1,0.3-0.2C144.7,170,144.5,170,144.4,170.1z"/>
			<path class="st11" d="M169.5,179.9c0.3,0.1,0.5,0.3,0.8,0.5C170,180.2,169.8,180.1,169.5,179.9z"/>
			<path class="st11" d="M150.8,168.1c-0.1,0-0.2,0-0.2,0c0.2,0,0.3,0,0.5,0C151,168.1,150.9,168.1,150.8,168.1z"/>
			<path class="st11" d="M149.5,168.2c0.2,0,0.3,0,0.5,0C149.8,168.2,149.6,168.2,149.5,168.2z"/>
			<path class="st11" d="M148.4,168.4c0.2,0,0.3-0.1,0.5-0.1C148.7,168.3,148.5,168.4,148.4,168.4z"/>
			<path class="st11" d="M172.7,185.4c0,0.2,0,0.5-0.1,0.7C172.6,185.9,172.7,185.7,172.7,185.4z"/>
			<path class="st11" d="M171.2,189.1c0.7-0.8,1.2-1.8,1.4-2.9C172.4,187.2,171.9,188.2,171.2,189.1z"/>
			<path class="st11" d="M172.1,182.7c0.1,0.3,0.2,0.5,0.3,0.8C172.4,183.2,172.3,182.9,172.1,182.7z"/>
			<path class="st11" d="M172.5,183.6c0.1,0.3,0.1,0.5,0.2,0.8C172.6,184.2,172.6,183.9,172.5,183.6z"/>
			<path class="st11" d="M172.1,182.6c-0.4-0.8-1-1.6-1.8-2.1C171.1,181,171.7,181.7,172.1,182.6z"/>
			<path class="st11" d="M172.7,185.2c0-0.2,0-0.4,0-0.6c0,0.3,0,0.5,0,0.7C172.7,185.2,172.7,185.2,172.7,185.2z"/>
			<path class="st11" d="M169.2,187.7c-0.5-0.7-1.3-1.2-2-1.6c-1.3-0.6-2.5-0.5-3.9-0.2c-0.8,0.2-1.6,0.3-2.4,0.2
				c-1.3-0.1-2.6-0.7-3.3-1.8c-1.4-2.2-0.1-5.2-1.6-7.5c-1.3-1.9-3.9-3.1-6.1-3.5c-4-0.6-7.6,0.8-10.1,3.4c-0.2,0.8-0.3,1.6-0.3,2.5
				c-0.4-0.1-0.7-0.1-1.1-0.1c-3.2,0-5.9,2.6-5.9,5.9c0,3.2,2.6,5.9,5.9,5.9h28.6c1.2,0,2.2-0.3,3.1-0.9
				C170.4,189.8,169.4,188,169.2,187.7z"/>
			<path class="st11" d="M171.2,189.1c-0.2,0.2-0.4,0.4-0.6,0.6C170.8,189.5,171,189.3,171.2,189.1z"/>
			<path class="st11" d="M166.8,179.3C166.8,179.3,166.8,179.3,166.8,179.3c0.2,0,0.5,0,0.7,0.1
				C167.3,179.3,167.1,179.3,166.8,179.3z"/>
			<path class="st11" d="M140.2,175.5c0.1-0.2,0.1-0.4,0.2-0.6C140.3,175.1,140.2,175.3,140.2,175.5z"/>
			<path class="st11" d="M167.7,179.4c0.3,0,0.6,0.1,0.9,0.2C168.3,179.5,168,179.4,167.7,179.4z"/>
			<path class="st11" d="M139.8,176.6c0.1-0.2,0.1-0.4,0.2-0.7C139.9,176.1,139.9,176.4,139.8,176.6z"/>
			<path class="st11" d="M170.6,189.6c-0.2,0.2-0.4,0.3-0.6,0.4C170.2,190,170.4,189.8,170.6,189.6z"/>
			<path class="st11" d="M168.6,179.6c0.3,0.1,0.5,0.2,0.8,0.3C169.2,179.8,168.9,179.7,168.6,179.6z"/>
			<path class="st11" d="M163.9,180.1c0.1-0.1,0.3-0.2,0.4-0.2C164.2,179.9,164.1,180,163.9,180.1z"/>
			<path class="st12" d="M172.6,186.1c0-0.2,0.1-0.5,0.1-0.7c0,0,0-0.1,0-0.1c0-0.2,0-0.5,0-0.7c0,0,0,0,0,0c0,0,0-0.1,0-0.1
				c0-0.3-0.1-0.5-0.2-0.8c0,0,0-0.1,0-0.1c-0.1-0.3-0.2-0.5-0.3-0.8c0,0,0-0.1,0-0.1c-0.4-0.8-1-1.6-1.8-2.1c0,0,0,0,0,0
				c-0.2-0.2-0.5-0.3-0.8-0.5c0,0-0.1,0-0.1,0c-0.3-0.1-0.5-0.2-0.8-0.3c0,0,0,0,0,0c-0.3-0.1-0.6-0.1-0.9-0.2c0,0-0.1,0-0.1,0
				c0,0,0,0-0.1,0c-0.3,0-0.5-0.1-0.8,0c0,0,0,0-0.1,0c-0.2,0-0.5,0-0.7,0.1c-0.1,0-0.2,0-0.2,0c-0.2,0-0.3,0.1-0.5,0.1
				c-0.1,0-0.2,0.1-0.3,0.1c-0.2,0-0.3,0.1-0.5,0.2c-0.1,0-0.2,0.1-0.2,0.1c-0.1,0.1-0.3,0.1-0.4,0.2c-0.1,0-0.2,0.1-0.2,0.1
				c-0.1,0.1-0.3,0.2-0.4,0.3c-0.1,0-0.1,0.1-0.2,0.1c-0.1,0.1-0.3,0.2-0.4,0.4c0,0-0.1,0.1-0.1,0.1c-0.2,0.2-0.3,0.4-0.5,0.6
				c0.1-0.3,0.1-0.6,0.1-0.9c0-0.1,0-0.2,0-0.3c0-0.1,0-0.3,0-0.4c0-0.1,0-0.1,0-0.2c0-0.2,0-0.4,0-0.6c0-0.2,0-0.4,0-0.6
				c0-0.2,0-0.3,0-0.4c0-0.3-0.1-0.5-0.1-0.7c0-0.1,0-0.2-0.1-0.3c-0.9-4.4-4.3-7.8-8.8-8.8c-0.1,0-0.1,0-0.2,0
				c-0.1,0-0.3-0.1-0.4-0.1c-0.1,0-0.2,0-0.4,0c-0.2,0-0.3,0-0.5,0c-0.2,0-0.4,0-0.7,0c-0.2,0-0.3,0-0.5,0c-0.2,0-0.4,0-0.6,0
				c-0.2,0-0.3,0-0.5,0c-0.2,0-0.4,0.1-0.6,0.1c-0.2,0-0.3,0.1-0.5,0.1c-0.2,0-0.4,0.1-0.6,0.2c-0.1,0-0.3,0.1-0.4,0.1
				c-0.2,0.1-0.4,0.1-0.6,0.2c-0.1,0.1-0.3,0.1-0.4,0.2c-0.2,0.1-0.4,0.2-0.6,0.3c-0.1,0.1-0.2,0.1-0.4,0.2
				c-0.2,0.1-0.4,0.2-0.6,0.4c-0.1,0.1-0.2,0.1-0.3,0.2c-0.2,0.1-0.4,0.3-0.6,0.4c-0.1,0.1-0.2,0.1-0.3,0.2
				c-0.2,0.2-0.4,0.4-0.6,0.6c-0.1,0.1-0.1,0.1-0.2,0.1c-0.5,0.5-1,1.1-1.4,1.6c0,0.1-0.1,0.1-0.1,0.2c-0.2,0.2-0.3,0.5-0.4,0.7
				c-0.1,0.1-0.1,0.3-0.2,0.4c-0.1,0.2-0.2,0.3-0.3,0.5c-0.1,0.2-0.1,0.4-0.2,0.6c-0.1,0.1-0.1,0.3-0.2,0.4
				c-0.1,0.2-0.1,0.4-0.2,0.7c0,0.1-0.1,0.2-0.1,0.3c0,0,0,0,0,0c2.5-2.6,6.1-4,10.1-3.4c2.2,0.3,4.8,1.5,6.1,3.5
				c1.5,2.2,0.2,5.2,1.6,7.5c0.7,1.1,2,1.7,3.3,1.8c0.8,0.1,1.6-0.1,2.4-0.2c1.4-0.3,2.6-0.4,3.9,0.2c0.8,0.4,1.5,0.9,2,1.6
				c0.2,0.3,1.2,2.1,0.7,2.4c0,0,0,0,0,0c0,0,0,0,0.1,0c0.2-0.1,0.4-0.3,0.6-0.4c0,0,0,0,0,0c0.2-0.2,0.4-0.4,0.6-0.6c0,0,0,0,0,0
				C171.9,188.2,172.4,187.2,172.6,186.1C172.6,186.2,172.6,186.1,172.6,186.1z"/>
			<path class="st4" d="M255,200.2h-5.1h0h-11.7h-47.3h-5.1c-1.5,0-2.7,1.2-2.7,2.7v136.2c8.5-0.9,16.8-2.4,24.9-4.5V315
				c0-1.5,1.2-2.7,2.7-2.7h12.2h9.7h0c1.5,0,2.7,1.2,2.7,2.7v9.9c7.8-3.6,15.3-7.8,22.4-12.5V203C257.7,201.5,256.4,200.2,255,200.2
				z M207.1,296.1c0,2.2-1.8,4-4,4c-2.2,0-4-1.8-4-4v-8.9c0-2.2,1.8-4,4-4c2.2,0,4,1.8,4,4V296.1z M207.1,271.5c0,2.2-1.8,4-4,4
				c-2.2,0-4-1.8-4-4v-8.9c0-2.2,1.8-4,4-4c2.2,0,4,1.8,4,4V271.5z M207.1,247.3c0,2.2-1.8,4-4,4c-2.2,0-4-1.8-4-4v-8.9
				c0-2.2,1.8-4,4-4c2.2,0,4,1.8,4,4V247.3z M207.1,222.6c0,2.2-1.8,4-4,4c-2.2,0-4-1.8-4-4v-8.9c0-2.2,1.8-4,4-4c2.2,0,4,1.8,4,4
				V222.6z M222.8,296.1c0,2.2-1.8,4-4,4c-2.2,0-4-1.8-4-4v-8.9c0-2.2,1.8-4,4-4c2.2,0,4,1.8,4,4V296.1z M222.8,271.5
				c0,2.2-1.8,4-4,4c-2.2,0-4-1.8-4-4v-8.9c0-2.2,1.8-4,4-4c2.2,0,4,1.8,4,4V271.5z M222.8,247.3c0,2.2-1.8,4-4,4c-2.2,0-4-1.8-4-4
				v-8.9c0-2.2,1.8-4,4-4c2.2,0,4,1.8,4,4V247.3z M222.8,222.6c0,2.2-1.8,4-4,4c-2.2,0-4-1.8-4-4v-8.9c0-2.2,1.8-4,4-4
				c2.2,0,4,1.8,4,4V222.6z M238.7,296.1c0,2.2-1.8,4-4,4s-4-1.8-4-4v-8.9c0-2.2,1.8-4,4-4s4,1.8,4,4V296.1z M238.7,271.5
				c0,2.2-1.8,4-4,4s-4-1.8-4-4v-8.9c0-2.2,1.8-4,4-4s4,1.8,4,4V271.5z M238.7,247.3c0,2.2-1.8,4-4,4s-4-1.8-4-4v-8.9
				c0-2.2,1.8-4,4-4s4,1.8,4,4V247.3z M238.7,222.6c0,2.2-1.8,4-4,4s-4-1.8-4-4v-8.9c0-2.2,1.8-4,4-4s4,1.8,4,4V222.6z"/>
			<path class="st13" d="M222.9,312.3h-12.2c-1.5,0-2.7,1.2-2.7,2.7v19.7c6-1.6,11.9-3.5,17.6-5.7v-14
				C225.6,313.5,224.4,312.3,222.9,312.3z"/>
			<path class="st14" d="M232.6,312.3L232.6,312.3h-9.7c1.5,0,2.7,1.2,2.7,2.7v14c3.3-1.3,6.5-2.6,9.7-4.1V315
				C235.3,313.5,234.1,312.3,232.6,312.3z"/>
			<path class="st4" d="M238.8,127c0-0.8-0.2-1.6-0.7-2.2c-0.7-1.1-1.9-1.7-3.3-1.7c-2.2,0-4,1.8-4,4v6.7c0,2.2,1.8,4,4,4
				c1.4,0,2.6-0.7,3.3-1.7c0.4-0.6,0.7-1.4,0.7-2.2V127z"/>
			<path class="st4" d="M238.8,149.6c0-0.8-0.2-1.6-0.7-2.2c-0.7-1.1-1.9-1.7-3.3-1.7c-2.2,0-4,1.8-4,4v6.7c0,2.2,1.8,4,4,4
				c1.4,0,2.6-0.7,3.3-1.7c0.4-0.6,0.7-1.4,0.7-2.2V149.6z"/>
			<path class="st4" d="M238.8,172.1c0-0.8-0.2-1.6-0.7-2.2c-0.7-1.1-1.9-1.7-3.3-1.7c-2.2,0-4,1.8-4,4v6.7c0,2.2,1.8,4,4,4
				c1.4,0,2.6-0.7,3.3-1.7c0.4-0.6,0.7-1.4,0.7-2.2V172.1z"/>
			<path class="st4" d="M219,123c-2.2,0-4,1.8-4,4v6.7c0,2.2,1.8,4,4,4c2.2,0,4-1.8,4-4V127C222.9,124.8,221.2,123,219,123z"/>
			<path class="st4" d="M219,145.6c-2.2,0-4,1.8-4,4v6.7c0,2.2,1.8,4,4,4c2.2,0,4-1.8,4-4v-6.7C222.9,147.4,221.2,145.6,219,145.6z"
				/>
			<path class="st4" d="M219,168.2c-2.2,0-4,1.8-4,4v6.7c0,2.2,1.8,4,4,4c2.2,0,4-1.8,4-4v-6.7C222.9,169.9,221.2,168.2,219,168.2z"
				/>
			<path class="st4" d="M203.1,123c-2.2,0-4,1.8-4,4v6.7c0,2.2,1.8,4,4,4c2.2,0,4-1.8,4-4V127C207,124.8,205.3,123,203.1,123z"/>
			<path class="st4" d="M203.1,145.6c-2.2,0-4,1.8-4,4v6.7c0,2.2,1.8,4,4,4c2.2,0,4-1.8,4-4v-6.7C207,147.4,205.3,145.6,203.1,145.6
				z"/>
			<path class="st4" d="M203.1,168.2c-2.2,0-4,1.8-4,4v6.7c0,2.2,1.8,4,4,4c2.2,0,4-1.8,4-4v-6.7C207,169.9,205.3,168.2,203.1,168.2
				z"/>
			<path class="st3" d="M234.8,209.8c-2.2,0-4,1.8-4,4v8.9c0,2.2,1.8,4,4,4s4-1.8,4-4v-8.9C238.7,211.6,237,209.8,234.8,209.8z"/>
			<path class="st3" d="M234.8,234.5c-2.2,0-4,1.8-4,4v8.9c0,2.2,1.8,4,4,4s4-1.8,4-4v-8.9C238.7,236.3,237,234.5,234.8,234.5z"/>
			<path class="st3" d="M234.8,258.7c-2.2,0-4,1.8-4,4v8.9c0,2.2,1.8,4,4,4s4-1.8,4-4v-8.9C238.7,260.5,237,258.7,234.8,258.7z"/>
			<path class="st3" d="M234.8,283.3c-2.2,0-4,1.8-4,4v8.9c0,2.2,1.8,4,4,4s4-1.8,4-4v-8.9C238.7,285.1,237,283.3,234.8,283.3z"/>
			<path class="st3" d="M218.9,209.8c-2.2,0-4,1.8-4,4v8.9c0,2.2,1.8,4,4,4c2.2,0,4-1.8,4-4v-8.9
				C222.8,211.6,221.1,209.8,218.9,209.8z"/>
			<path class="st3" d="M218.9,234.5c-2.2,0-4,1.8-4,4v8.9c0,2.2,1.8,4,4,4c2.2,0,4-1.8,4-4v-8.9
				C222.8,236.3,221.1,234.5,218.9,234.5z"/>
			<path class="st3" d="M218.9,258.7c-2.2,0-4,1.8-4,4v8.9c0,2.2,1.8,4,4,4c2.2,0,4-1.8,4-4v-8.9
				C222.8,260.5,221.1,258.7,218.9,258.7z"/>
			<path class="st3" d="M218.9,283.3c-2.2,0-4,1.8-4,4v8.9c0,2.2,1.8,4,4,4c2.2,0,4-1.8,4-4v-8.9
				C222.8,285.1,221.1,283.3,218.9,283.3z"/>
			<path class="st3" d="M203.2,209.8c-2.2,0-4,1.8-4,4v8.9c0,2.2,1.8,4,4,4c2.2,0,4-1.8,4-4v-8.9
				C207.1,211.6,205.3,209.8,203.2,209.8z"/>
			<path class="st3" d="M203.2,234.5c-2.2,0-4,1.8-4,4v8.9c0,2.2,1.8,4,4,4c2.2,0,4-1.8,4-4v-8.9
				C207.1,236.3,205.3,234.5,203.2,234.5z"/>
			<path class="st3" d="M203.2,258.7c-2.2,0-4,1.8-4,4v8.9c0,2.2,1.8,4,4,4c2.2,0,4-1.8,4-4v-8.9
				C207.1,260.5,205.3,258.7,203.2,258.7z"/>
			<path class="st3" d="M203.2,283.3c-2.2,0-4,1.8-4,4v8.9c0,2.2,1.8,4,4,4c2.2,0,4-1.8,4-4v-8.9
				C207.1,285.1,205.3,283.3,203.2,283.3z"/>
			<path class="st2" d="M100.2,240.3c-2.2,0-4,1.8-4,4v5.6c0,2.2,1.8,4,4,4c2.2,0,4-1.8,4-4v-5.6C104.2,242,102.4,240.3,100.2,240.3
				z"/>
			<path class="st2" d="M118.7,240.3c-2.2,0-4,1.8-4,4v5.6c0,2.2,1.8,4,4,4c2.2,0,4-1.8,4-4v-5.6C122.7,242,120.9,240.3,118.7,240.3
				z"/>
			<path class="st2" d="M137.2,240.3c-2.2,0-4,1.8-4,4v5.6c0,2.2,1.8,4,4,4c2.2,0,4-1.8,4-4v-5.6C141.2,242,139.4,240.3,137.2,240.3
				z"/>
			<path class="st2" d="M100.2,261.6c-2.2,0-4,1.8-4,4v5.6c0,2.2,1.8,4,4,4c2.2,0,4-1.8,4-4v-5.6
				C104.2,263.4,102.4,261.6,100.2,261.6z"/>
			<path class="st2" d="M118.7,261.6c-2.2,0-4,1.8-4,4v5.6c0,2.2,1.8,4,4,4c2.2,0,4-1.8,4-4v-5.6
				C122.7,263.4,120.9,261.6,118.7,261.6z"/>
			<path class="st2" d="M137.2,261.6c-2.2,0-4,1.8-4,4v5.6c0,2.2,1.8,4,4,4c2.2,0,4-1.8,4-4v-5.6
				C141.2,263.4,139.4,261.6,137.2,261.6z"/>
			<path class="st2" d="M105,166.4c-0.7-1-1.9-1.6-3.2-1.6h-6c-2.2,0-4,1.8-4,4c0,2.2,1.8,4,4,4h6c1.3,0,2.5-0.7,3.2-1.6
				c0.5-0.6,0.8-1.4,0.8-2.3S105.4,167.1,105,166.4z"/>
			<path class="st2" d="M105,186.5c-0.7-1-1.9-1.6-3.2-1.6h-6c-2.2,0-4,1.8-4,4c0,2.2,1.8,4,4,4h6c1.3,0,2.5-0.7,3.2-1.6
				c0.5-0.6,0.8-1.4,0.8-2.3S105.4,187.1,105,186.5z"/>
			<path class="st2" d="M105,206.5c-0.7-1-1.9-1.6-3.2-1.6h-6c-2.2,0-4,1.8-4,4c0,2.2,1.8,4,4,4h6c1.3,0,2.5-0.7,3.2-1.6
				c0.5-0.6,0.8-1.4,0.8-2.3S105.4,207.1,105,206.5z"/>
		</g>
	</g>
	<g>
		<path class="st15" d="M142.6,164.8l0.5-8.8c-0.2,0.2-0.4,0.3-0.6,0.5l-0.4,7.7L142.6,164.8z"/>
		<path class="st15" d="M63.7,273.9c-3.6-0.4-6.3-0.6-7.2-0.6c-4.7,0-10.7-0.6-15.4-4.2c-4.7-4.2-6.5-13.1-5.9-19
			c0.6-5.9,4.7-26.1,5.3-28.5s4.7-20.2,4.7-20.2S41,171.8,57,161.2c0.5-0.3,1-0.6,1.5-0.9c9.2-5.5,24.8-10.3,27.7-11
			c1.3-0.5,3.9-1.8,6.4-3c0.1-1.7,2-3.7,3-5.2c0.5-0.6,4-4.9,6.5-6.6c0.5-0.6,1-1.2,1.5-1.6c-3.2-1.1-6.6-4.6-8.1-8.5
			c-1.3-2.6-1.5-5-0.9-6.6c-4.4-11.7-3.8-25.4,0.3-31.2c4.8-5.9,16.6-17.2,32.6-12.5c16.6,5.3,23.7,18.4,25.5,23.1s-2.9,6.5-2.9,6.5
			s-0.2,0.3-0.5,0.9c0.1,2.7,0.4,6,1.1,7.4c1.2,2.4,2.4,5.3,2.4,5.9c0,0.6-1.8,2.9-1.8,4.7s0.6,10.1-0.6,13.6
			c-1.2,4.2-2.4,10.1-2.4,13.6c0,0,0,0.1,0,0.1c0-0.1,0.1-0.1,0.1-0.2l-1.2,5.8c4.2,1,14.3,4.1,14.8,12.1c0.6,8.7,3.1,43.4,3.5,49.5
			c2.8,11.5,6.6,28.4,6.6,35.7c0.4,8-0.1,24.4-3.1,38.6c1.8,6.5,8.3,31,7.6,48.1c9.9-0.6,19.6-2.1,29-4.4c-1.5-5.4-3.1-11.8-4.1-18
			c-1.7-2.7-3.2-6.6-3.2-7.8c0-1.8,2.4-41.5,4.2-47.4c0.1-0.6,0.2-1.8,0.1-3.4c-6,3-16.2-3.9-18.5-8.5c-2.4-4.7,0.6-12.5,1.2-17.8
			c0.1-0.9,0.4-3,0.7-5.9c-1.4-1-2.4-1.8-2.6-2.4c-0.6-1.2,0-1.8,0-1.8c-0.5-0.8-0.2-1.3,0.2-1.7l-3.1-16.6c0-1.8,0.6-2.9,1.8-2.9
			l3.4-0.7c0-2.4-0.1-4.8-0.5-7.1c-0.6-2.9-1.2-5.9-1.8-8.9s0-6.5,1.2-8.9c0.6-1.2,1.8-1.8,2.4-2.9c1.7-2.9,1.8-6.9,1.2-10.4
			c-0.3-0.7-0.5-1.6-0.6-2.7c-0.7-1.7-0.8-8.1,0.1-13.6c1.2-7.7,1.8-8.3,1.2-12.5c-0.6-4-5.6-23.5-5.9-30.2
			c-0.1,0.3-0.2,0.7-0.2,1.1c0,1.2,0,2.4,0,2.9s0,1.2,0,1.8s0,1.2,0,1.8c0,1.2,0,2.4,0,2.9c0,1.8,0.6,3.6,0.6,5.3
			c0.6,1.8,0.6,2.9,0.6,3.6c0.6,0.6,0.6,1.2,0.6,1.2s-0.6,0-0.6-1.2s-0.6-2.4-1.2-3.6c-0.6-1.8-0.6-3.6-1.2-5.3
			c0-1.2-0.6-1.8-0.6-2.9c0-0.6,0-1.2,0-1.8s0-1.2,0-1.8c0-1.2,0-2.4,0-3.6s0-2.4,0.6-2.9c0-1.2,0.6-1.8,0.6-2.9
			c0-0.6,0-1.2,0.6-1.2c0-0.6,0-0.6,0.6-1.2c0.1,0.1,0.2,0.2,0.3,0.2c1.1-3.8,3.1-7.9,6.8-12.7c6.5-8.3,21.9-19.6,35-17.8
			c13.1,2.4,21.3,21.3,21.3,21.3s-0.1,0-0.2,0c1.6,2.5,7.7,12.7,10.3,21.9c3,10.7,7.7,16,5.9,24.9c-0.4,2.2-0.9,4-1.4,5.7
			c5.9,0.8,17.2,2.4,22.2,4.3c6.5,2.9,8.9,3.6,8.9,3.6s-11.8-2.4-17.8,31.4c-0.2,0.9-0.3,2-0.3,3.2c0.1-0.3,0.2-0.5,0.3-0.8
			c5.9-33.8,17.8-31.4,17.8-31.4c15.4,4.1,15.4,39.7,11.2,55.1c-1.8,7.7-7.1,44.5-8.3,48.6c-0.6,1.7-1.6,3.3-2.7,5.5
			c1.7,3.9,3.8,9.3,6,15.1c20.9-27.8,33.2-62.2,33.2-99.6C332,82.3,257.7,8,166,8S0,82.3,0,174c0,53.2,25,100.5,63.9,130.9
			C64,291.6,63.8,279.4,63.7,273.9z"/>
		<path class="st15" d="M105.2,134.5v-1.2c-0.4,0-0.8-0.1-1.2-0.3c0.1,0.3,0.3,0.8,0.6,1.5c0,0,0,0,0,0H105.2z"/>
		<path class="st16" d="M169.1,291.5c-1,5-2.4,9.7-4.1,13.7c0,0,0-3.3,0-8.3c-4,6.6-11,16.4-19,19.1c-9.5,3.2-19.1,3.2-26.2,2.3
			c-2.1,5-4.3,9.4-6.4,13.2c16.5,5.5,34.2,8.5,52.6,8.5c3.6,0,7.1-0.1,10.6-0.3C177.4,322.5,170.9,298,169.1,291.5z"/>
		<path class="st17" d="M149.6,162.8c1.2,0.6,2.4,1.2,2.4,2.4c1.2,4.2,4.7,13.6,5.9,17.8c1.8,5.3,3.6,19,4.7,22.5
			c0.2,1,1.4,5.6,2.9,11.7c-0.4-6.1-2.9-40.8-3.5-49.5c-0.5-8-10.6-11.1-14.8-12.1l-1.2,6L149.6,162.8z"/>
		<path class="st17" d="M82.5,210.6c-0.5,1.8-6.1,20.1-9.5,22.4c0,0-3.6,5.3-5.3,7.7c-1.8,2.4-1.8,4.2,1.2,4.7
			c0.7,0.2,1.7,0.2,2.9,0.3c3.7-11.3,7.6-22.8,9-25.9C81.6,217.9,82.2,214.6,82.5,210.6z"/>
		<path class="st18" d="M135.3,164.8C135.4,164.8,135.4,164.7,135.3,164.8C135.4,164.7,135.3,164.7,135.3,164.8L135.3,164.8z"/>
		<path class="st18" d="M143.1,110.2c-4.7,1.8-14.8-4.2-23.1-3.6c-8.3,0.6-2.9,12.5-2.9,12.5s0,0-2.4,2.9s0,10.7,0,10.7l-4.2,1.2
			c0,0,0-1.9-1.2-4.7c-0.1,2.4-1.4,4.1-3.6,4.1c-0.2,0-0.3,0-0.5,0v1.2h-0.6c0,0,0,0,0,0c1,2.5,3.2,7.3,6.6,12.4
			c12.8,10.7,24.2,11.9,24.2,11.9c1.8,0.1,4.7-1.2,7.1-2.9l0,0.7c0.2-0.1,0.4-0.3,0.6-0.5l0-0.3c2.3-1.7,4.6-4,5.3-5.8
			c0,0,0-0.1,0-0.1c0-3.6,1.2-9.5,2.4-13.6c1.2-3.6,0.6-11.8,0.6-13.6s1.8-4.1,1.8-4.7c0-0.6-1.2-3.6-2.4-5.9
			c-0.6-1.3-0.9-4.7-1.1-7.4C148.7,106,146.5,108.9,143.1,110.2z"/>
		<path class="st19" d="M131.8,174.2c0,0,2.1-5.5,3.6-9.4v-0.1v-5.9c0,0-11.4-1.1-24.2-11.9c3,4.6,6.9,9.4,11.8,13.1l0,0
			C122.9,160,131.8,170.7,131.8,174.2z"/>
		<path class="st20" d="M133.5,236.1v-10.7v-4.1c0-3.1,2.6-5.7,5.7-5.7h19.4c-0.7-7.2-1.7-13.7-3.7-17.7
			c-5.3-10.7-12.5-30.9-12.5-30.9l0.1-2.2l-0.6-0.6l-0.2,2.9c-0.6-2.9-6.2-2.4-6.5-2.4c0,0,0,0.1,0,0.1c-1.5,3.9-3.6,9.4-3.6,9.4
			c0-3.6-8.9-14.2-8.9-14.2l0,0l0,0c0,0-5.9-1.4-11,3.5c0.7,2.2,1.4,4.6,2.1,7.3c4.2,17.2,10.7,44.5,12.5,55.2
			c0.3,3.1,0.8,8,1.2,13.3c1.2-1.1,2.7-2.1,4.7-2.7C132.8,236.4,133.1,236.3,133.5,236.1z"/>
		<path class="st20" d="M163.8,261.3c-1,0.9-2.3,1.4-3.7,1.4h-19c-0.6,0.3-1.1,0.6-1.4,0.9c0,0-4.2,3-10.1,4.5c0,0.2,0,0.2,0,0.2
			c0,20.2-4.4,36.9-9.7,49.8c7.1,1,16.7,0.9,26.2-2.3c8-2.7,15-12.4,19-19.1C165,287.8,164.8,272.9,163.8,261.3z"/>
		<path class="st17" d="M107.7,249.1C107.7,249.1,107.7,249.2,107.7,249.1C107.7,249.2,107.7,249.2,107.7,249.1L107.7,249.1z"/>
		<path class="st17" d="M92,183.1c-0.5,13.1-9.4,27.3-9.4,27.3s0,0.1,0,0.2c-0.3,4-0.9,7.4-1.7,9.2c-1.4,3.1-5.3,14.6-9,25.9
			c3,0.2,7,0.2,7.8,1.5c0,0,5.9,0,9.5,1.8c3.5,2.4,14.7-1.1,18.9,0l0.7-0.6c0,0,0.1,0.3,0.3,0.9c3.5,0.2,8.5,0.2,11-0.9
			c2.1-0.9,3.3-3.3,4.9-5.7c-1.1-4.8-2.2-9.1-3.1-11.4c-2.9-7.7-16.6-36.7-18.4-42.7c-1.8-5.9-8.3-23.1-8.3-23.1l5.9-1.8l-5.9-4.7
			c0,0-1.8-10.1-2.4-11.8c-0.1-0.2-0.1-0.5-0.1-0.7c-2.5,1.2-5.1,2.4-6.4,3c-2.9,0.6-18.5,5.5-27.7,11
			C74.2,151.7,92.6,169.9,92,183.1z"/>
		<path class="st17" d="M129.5,268.5c0,0,0-0.1,0-0.2c-1.5,0.4-3.1,0.7-4.8,0.8c-3.7,0.3-8.9,0.3-13.5,0.3c-0.5,3.4-1.6,6.5-3.8,8.7
			c-0.9,0.8-1.7,1.1-2.5,1.1c0,0,0,0,0,0c0,0-27.6-3.7-41.3-5.2c0.1,5.5,0.3,17.7,0.2,31c14.7,11.5,31.4,20.6,49.5,26.6
			c2.2-3.8,4.4-8.3,6.4-13.2C125.1,305.3,129.5,288.6,129.5,268.5z"/>
		<path class="st21" d="M105,279c0.8,0,1.6-0.3,2.5-1.1c2.2-2.2,3.3-5.3,3.8-8.7c-3.8,0-7.3-0.1-9.2-0.2
			C102.6,272,103.5,275.3,105,279z"/>
		<path class="st21" d="M108.9,249.2c-0.2-0.6-0.3-0.9-0.3-0.9l-0.7,0.6c0,0,0.1,0,0.1,0c0,0-0.1,0.1-0.3,0.2l0,0
			C108.1,249.2,108.5,249.2,108.9,249.2z"/>
		<path class="st22" d="M135.4,164.7c0.3,0,5.9-0.5,6.5,2.4l0.2-2.9l0.4-7.7l0-0.7c-2.4,1.8-5.3,3-7.1,2.9L135.4,164.7
			C135.3,164.7,135.4,164.7,135.4,164.7z"/>
		<path class="st23" d="M196.8,224.1c1,0.2,2.1,0.4,3,0.6c0-0.2,0-0.4-0.1-0.6H196.8z"/>
		<path class="st23" d="M194.6,232.3c-2-1.6-6-3.9-8.7-5.9c-0.4,2.9-0.6,5-0.7,5.9c-0.6,5.3-3.6,13.1-1.2,17.8
			c2.3,4.6,12.6,11.5,18.5,8.5c-0.1-5-0.8-13.9-1.7-23.1C199,235,196.4,234.1,194.6,232.3z"/>
		<path class="st23" d="M198.2,184.3c0,0,0.6-0.6,1.2-0.6c0.1-0.1,0.3-0.2,0.4-0.3c0.1-0.4,0.1-0.8,0.2-1.2
			c-1.1-1.5-2.2-3.3-3.1-5.2c0.2,2.2,0.5,5.1,0.7,7.9L198.2,184.3z"/>
		<path class="st23" d="M198.8,184.3c-0.6,0-0.6,0.6-0.6,0.6l-0.6,0.6c0,0,0,0,0,0.1c0,1.8,0,2.9,0,4.7c0,1.8,0,2.9-0.6,4.2
			c0,1.2-0.6,2.4-0.6,2.9c0,0.6,0,0.6-0.6,0.6v-0.6c0-0.6,0.6-1.8,0.6-2.9s0-2.4,0-4.2c0-0.7-0.2-1.5-0.4-2.5
			c-0.3,0.4-0.4,0.9-0.8,1.3c0,0.6-0.6,1.2-0.6,1.8c0,0.4,0,0.8,0,1.2c0,0.2,0,0.4,0,0.6c0,0.6,0,1.2,0,1.2v0.6v0.6v0.6
			c0,0,0,0,0,0.6c0-0.6,0-0.6,0-0.6V195v-0.6v-0.6c0,0,0-0.6,0-1.2c0-0.2,0-0.4,0-0.6c0-0.4,0-0.8,0-1.2c0-0.2,0-0.4,0-0.6
			c0-0.6,0-1.2,0.6-1.8c0-0.4,0.3-0.9,0.7-1.3c-0.1-0.5-0.1-1.1-0.1-1.7c-0.3-1.4-0.5-2.8-0.8-4.1c-0.5,3.2-1.1,6.3-2.2,9.5
			c-0.8,2.8-1.5,5.7-2.3,8.5l7-1.4c0.5-3.7,1.3-8.8,2.2-14.2C199.4,183.9,199.1,184,198.8,184.3z"/>
		<path class="st24" d="M255.6,306.8c0.1,0.5,0.2,0.8,0.2,0.8s-0.1-0.3-0.3-0.8c-11.8,0.1-27.7-0.3-34.1-2.8c-6.1-2.4-10.4-5.1-13-7
			c-0.7,7.9-1.8,19.7-3,22.4c-0.8,1.7-2.4,0.1-3.9-2.3c1.1,6.2,2.6,12.6,4.1,18c19.7-4.8,38-13.1,54.2-24.3l-2.8-4.2
			C256.5,306.8,256.1,306.8,255.6,306.8z"/>
		<path class="st25" d="M190.5,199.3c0.8-2.8,1.6-5.6,2.3-8.5c1.1-3.2,1.6-6.3,2.2-9.5c-0.9-4.7-1.6-8.3-1.6-8.3l1.9-0.4
			c0-0.1-0.1-0.2-0.1-0.3c-1.5-7-5.6-6.4-7.1-10.4c0.6,3.5,0.5,7.5-1.2,10.4c-0.6,1.2-1.8,1.8-2.4,2.9c-1.2,2.4-1.8,5.9-1.2,8.9
			s1.2,5.9,1.8,8.9c0.4,2.3,0.5,4.7,0.5,7.1L190.5,199.3z"/>
		<path class="st25" d="M221.4,142.8c0.1,0.2,0.1,0.3,0.2,0.5c0.2-0.4,0.3-0.6,0.3-0.6S221.8,142.8,221.4,142.8z"/>
		<path class="st25" d="M201.7,128.5c-5.3-3.6-4.7-7.7-4.7-10.1c-0.6-2.4-3.6-2.4-5.3-7.7c-1.1-3.4-1.5-8.7-1.7-12.1
			c-0.7,1.4-1.1,2.9-1.3,4.5c0,1.8,0,1.8,0,1.8s7.1,16.6,7.7,21.3c0.4,3.5,0.2,4.7-1.3,8.2l10.7,10.7l8.9,2.4l6.5-4.6
			c-0.7,0.1-2.2,0.4-5.4,1.1C210.6,145.1,207.1,132.7,201.7,128.5z"/>
		<path class="st25" d="M236.6,124.4c0.1-1.4,0.1-2.7,0.1-4C236.7,121.7,236.6,123.1,236.6,124.4z"/>
		<path class="st26" d="M231.4,177.8c0,4.4-1.2,7.9-2.6,10.4c0.8-0.3,1.5-0.6,2.3-0.9C231.9,182.3,231.4,177.8,231.4,177.8z"/>
		<path class="st26" d="M227.7,188.5c2.4-6.2-0.6-11.5,1.3-17.3c1.8-7.1,3.6-17.2,2.9-23.1c0-5.9,1.2-8.9,3.6-17.2
			c0.6-2.2,1-4.4,1.1-6.6c0-1.3,0.1-2.6,0.1-4c0-3.7-0.5-6.6-0.6-7.5c-0.4,0.2-0.8,0.3-1.2,0.3c-1.6,0-3-1.4-3.9-3.5l-2.7,0.6
			c-1.8-10.7-10.1-14.8-18.4-16.6c-2.4-1.2-5.3-1.2-7.1-1.8c-5.5-0.9-10.7,2.1-13,6.8c0.1,3.4,0.6,8.7,1.7,12.1
			c1.8,5.3,4.7,5.3,5.3,7.7c0,2.4-0.6,6.5,4.7,10.1c5.3,4.2,8.9,16.6,14.2,15.4c3.2-0.7,4.7-1,5.4-1.1l0,0c0,0,0,0,0,0
			c0.4-0.1,0.5-0.1,0.5-0.1s-0.1,0.2-0.3,0.6c4.5,11.1,5.7,23.4,4,35c-0.6,3.8-1.5,7-1.7,10.7C225.1,189.1,226.5,188.9,227.7,188.5z
			"/>
		<path class="st26" d="M220.7,185.5c0,0-0.4,1.2-0.7,3.2c0.2,0.1,0.5,0.1,0.7,0.1C220.6,187.6,220.6,186.5,220.7,185.5z"/>
		<path class="st20" d="M235.8,225.6c-0.2-5.6-0.1-10.5,0.4-13.5c0.7-3.4,2.4-8.9,4.4-15.2c-0.5,0.7-1.1,1.5-1.5,2.2
			c-1.2,1.2-2.4,1.8-3.6,2.4c-0.4,0.2-0.9,0.5-1.3,0.7c-0.5,0.4-1,0.8-1.6,1.1c-0.9,0.5-1.5,1.3-2,2c-0.1,0.2-0.2,0.3-0.4,0.4
			c-0.3,0.3-0.6,0.8-0.9,1.2c-0.3,0.4-0.6,0.9-0.9,1.2c-0.6,0.6-0.6,1.2-1.2,1.8c0,0.6-0.6,1.2-0.6,1.2c0,0.6,0,0.6,0,0.6s0,0,0-0.6
			s0-0.6,0.6-1.2c0-0.6,0.6-1.2,1.2-1.8c0.3-0.3,0.6-0.8,0.9-1.2c0.3-0.4,0.6-0.9,0.9-1.2c0.1-0.1,0.2-0.3,0.4-0.4
			c0.5-0.6,1-1.5,2-2c0.3-0.4,0.9-0.7,1.6-1.1c0.4-0.3,0.8-0.8,1.3-1.3c1.2-0.6,2.4-1.2,2.9-2.4c1.2-1.2,1.8-2.4,2.4-3.6
			c0.3-0.6,0.7-1.3,1-2c0.1-0.3,0.2-0.5,0.3-0.8c-3.1,4.3-6.3,7.7-8.4,8.2c-4.8,1.2-11.3,7.1-11.3,7.1c0-2.2,0.5-3.7,2-6.3
			c-2.1-3.7-3.5-8.2-3.7-12.5c-0.2,0-0.5-0.1-0.7-0.1c-0.9,4.8-1.9,14.1,1.9,22.9c0,0-8.3-14.8-8.3-22.5c0,0-3.1,2.8-5.6,8
			c0.2,0.3,0.3,0.7,0.3,1l2.4,13h0.6c2.4,0,6.5,1.2,6.5,1.2s2.4,1.2,4.7,4.2c2.4,2.9,2.9,5.9,2.9,5.9l7.1,4.2l2.2,1.7
			c0-1.2-0.1-2.2-0.4-2.9C234.4,225.3,234.9,225.4,235.8,225.6z"/>
		<path class="st20" d="M205.2,225c0.3-0.2,0.5-0.5,0.7-0.9h-0.8C205.1,224.4,205.1,224.7,205.2,225z"/>
		<path class="st20" d="M212.3,218.8c1.2,0,1.8-1.2,1.8-1.2c0,0,0,0-0.1-0.1c-0.4,0-0.7,0-1,0c0.6,0,0.6,0,0.6,0c0.1,0,0.3,0,0.4,0
			c-0.4-0.3-1.4-0.4-2.2-0.5l0.3,1.7C212.2,218.8,212.3,218.8,212.3,218.8z"/>
		<path class="st20" d="M231,187.3c-0.7,0.4-1.5,0.7-2.3,0.9c-1.8,3.3-3.9,5-3.9,5c1.4-1.6,2.3-3.2,2.9-4.7c-1.3,0.3-2.6,0.5-4,0.5
			c0,0.4,0,0.8,0,1.2c-0.5,3.7-0.1,7.4,0.8,10.7c0.9-1.5,2.1-3.4,3.8-5.9C229.8,192.6,230.6,189.9,231,187.3z"/>
		<path class="st20" d="M240.4,269.1c-0.7-2.6-1.6-8-2.4-14.6c-6.8-1.4-11.4-2.5-11.4-2.5s3.6-1.2,4.2-5.3c0.2-0.8,0.6-2,1-3.4
			c-3.3-2.2-7.1-4.6-8.1-4.9c-1.8-0.6-9.5-1.8-11.3-1.8c-1.2,0-3.7-0.2-5.8-0.3c0.6,5.2,1,9.8,1,12.8c0,5.7,0.2,17,0.3,26.4
			l0.9,14.5c0,0-0.2,3-0.6,7.2c2.6,1.9,7,4.7,13,7c6.4,2.5,22.3,2.9,34.1,2.8C253.4,302.1,242.5,276.6,240.4,269.1z"/>
		<path class="st20" d="M255.6,306.8c0.5,0,0.9,0,1.4,0l-0.6-1c0,0-2.5-7.6-5.4-17.2c0.2,1.1,0.5,2.1,0.7,2.9
			C253.9,300,255.2,305,255.6,306.8z"/>
		<path class="st20" d="M212.5,186.1c0,0-3,1.5-6.2,3.9c-0.4,2.3-0.9,4.3-1.5,5.6c-0.1,0.4-0.2,0.7-0.3,1l1.6-0.3
			c0.2-0.1,0.4-0.1,0.5-0.1C208.5,191.5,212.5,186.1,212.5,186.1z"/>
		<path class="st16" d="M199.7,224.1c0,0.2,0,0.4,0.1,0.6c0.5,0.1,1,0.2,1.5,0.2c-0.1-0.3-0.1-0.5-0.2-0.8H199.7z"/>
		<path class="st16" d="M205.3,319.5c1.2-2.7,2.3-14.6,3-22.4c0.4-4.2,0.6-7.2,0.6-7.2l-0.9-14.5c0.1,8.3,0.3,15.2,0.3,15.2
			s-1.8-32.6-1.8-39.8c0-2.5-1.1-8.1-2.6-14.8c-0.6,0-1-0.1-1-0.1s-0.8-0.1-2-0.4c0.9,9.2,1.6,18.2,1.7,23.1c0,1.6,0,2.8-0.1,3.4
			c-1.8,5.9-4.2,45.6-4.2,47.4c0,1.3,1.5,5.1,3.2,7.8C202.9,319.6,204.5,321.1,205.3,319.5z"/>
		<path class="st23" d="M200.5,182.9c-0.2-0.2-0.4-0.5-0.6-0.8c-0.1,0.4-0.1,0.8-0.2,1.2C200,183.2,200.2,183.1,200.5,182.9z"/>
		<path class="st23" d="M201.1,224.1c0.1,0.3,0.1,0.5,0.2,0.8c1.8,0.2,3.1,0.3,3.4,0.3c0.2,0,0.4-0.1,0.5-0.2c0-0.3-0.1-0.6-0.1-0.9
			H201.1z"/>
		<path class="st23" d="M206.3,190c-2.7,2-5.5,4.7-6.7,7.6l4.8-1c0.1-0.3,0.2-0.6,0.3-1C205.3,194.3,205.8,192.3,206.3,190z"/>
		<path class="st23" d="M206.6,236.2c-1.1-0.1-2.1-0.2-2.8-0.2c1.5,6.6,2.6,12.3,2.6,14.8c0,7.1,1.8,39.8,1.8,39.8
			s-0.1-6.8-0.3-15.2c-0.2-9.4-0.3-20.7-0.3-26.4C207.7,245.9,207.2,241.3,206.6,236.2z"/>
		<path class="st23" d="M204.1,187.2c0,0-1.6-1.6-3.5-4.1c0,0-0.1,0-0.1,0c-0.3,0.3-0.6,0.5-0.9,0.6c-0.9,5.4-1.7,10.5-2.2,14.2
			l2-0.4C199.9,195.9,201.5,189.3,204.1,187.2z"/>
		<path class="st16" d="M262.8,148.7l-1.2,3.6c0,0-16,54-17.2,68.8c-0.2,1.9-0.2,4.4-0.1,7.3c0.2,0.1,0.5,0.2,0.7,0.4
			c0.6,0.6,1.8,0.6,2.9,1.2c2.9,0.6,7.1,1.2,9.5,1.8c2.9,0,13.1,2.9,13.1,2.9s0-0.2,0.1-0.5c-0.6-0.3-1.2-0.5-1.8-0.8v-1.2
			c0.7,0.2,1.3,0.4,2,0.6c0.3-3,0.8-9.3,0.4-13.7c-0.6-5.7,0-29.7,3.2-37.8c0.1-1.2,0.2-2.3,0.3-3.2c5.9-33.8,17.8-31.4,17.8-31.4
			s-2.4-0.6-8.9-3.6c-5-2-16.2-3.5-22.2-4.3c-0.2,0.6-0.3,1.1-0.5,1.6C262.8,142.9,263.6,145.9,262.8,148.7z"/>
		<path class="st16" d="M292.5,259.1c-1.8,2.9-4.7,5.9-7.1,5.3s-22-4.7-38-8.3c-0.3-0.2-0.7-0.3-1.1-0.4c1.4,13.1,3.2,26,4.6,33
			c2.9,9.6,5.4,17.2,5.4,17.2l0.6,1l2.8,4.2c14.9-10.3,28.1-22.9,39-37.3c-2.2-5.7-4.3-11.2-6-15.1
			C292.7,258.7,292.6,258.9,292.5,259.1z"/>
		<path class="st23" d="M242.6,191.5c-0.2,0.2-0.3,0.5-0.5,0.7c-0.1,0.3-0.2,0.5-0.3,0.8C242.1,192.5,242.3,192,242.6,191.5z"/>
		<path class="st23" d="M243.3,191.4c-0.6,1.2-1.2,2.4-1.8,4.2c-0.2,0.5-0.6,0.9-0.9,1.4c-2,6.3-3.7,11.8-4.4,15.2
			c-0.5,3-0.6,7.8-0.4,13.5c1.7,0.4,4.5,1.2,6.8,2c0.7,0.4,1.3,0.5,1.7,0.7c-0.1-2.9,0-5.4,0.1-7.3c1.2-14.8,17.2-68.8,17.2-68.8
			l1.2-3.6c0.8-2.8,0-5.8-1.9-8.1c-1.4,4.4-3,7.5-4.6,11.1c-2.4,5.9-4.2,15.5-5.9,23.7c-0.5,3.2-2.6,7.8-5.3,12.2c0,0.1,0,0.1,0,0.2
			C244.4,189,243.9,190.2,243.3,191.4z"/>
		<path class="st23" d="M238,254.5c0.8,6.6,1.6,12,2.4,14.6c2.1,7.5,13,33.1,15.1,37.8c0.2,0.5,0.3,0.8,0.3,0.8s-0.1-0.3-0.2-0.8
			c-0.4-1.8-1.7-6.9-4-15.3c-0.2-0.8-0.4-1.8-0.7-2.9c-1.5-6.9-3.3-19.9-4.6-33c-1-0.2-2.2-0.2-3-0.2
			C241.4,255.2,239.6,254.8,238,254.5z"/>
		<path class="st25" d="M195.2,172.4c0,0.1,0.1,0.2,0.1,0.3l1.1-0.2c0,0,0.2,1.8,0.4,4.5c0.9,1.9,2,3.7,3.1,5.2
			c0.2,0.3,0.4,0.5,0.6,0.8c0.2-0.1,0.4-0.2,0.6-0.4l0.6-0.6c0,0,0,0,0.6,0c0,0,0,0,0.6,0c0.6-0.6,1.2-0.6,1.2-1.2
			c0.6-0.6,1.2-1.2,1.2-1.8c0,0,0,0,0-0.6l1.2-0.6c0,0.6,0,0.6,0,0.6s0,0,0,0.6s-0.6,0.6-0.6,1.2c-0.6,0.6-0.6,0.6-1.2,1.2
			c-0.6,0.6-1.2,0.6-1.8,1.2c0,0,0,0-0.6,0c0,0,0,0-0.6,0c0,0-0.6,0.6-1.1,0.6c1.9,2.5,3.5,4.1,3.5,4.1c-2.6,2.1-4.3,8.7-4.6,10.3
			l0.1,0c1.2-2.9,4-5.5,6.7-7.6c3.2-2.4,6.2-3.9,6.2-3.9s-3.9,5.4-6,10c0.6-0.1,1.2,0.3,1.5,0.9c2.5-5.2,5.6-8,5.6-8
			c0,7.7,8.3,22.5,8.3,22.5c-3.8-8.8-2.8-18.2-1.9-22.9c0.4-2,0.7-3.2,0.7-3.2c-0.1,1.1-0.1,2.2,0,3.3c0.2,4.2,1.6,8.8,3.7,12.5
			c0-0.1,0.1-0.2,0.2-0.3c-0.9-3.3-1.4-7-0.8-10.7c0-0.4,0-0.8,0-1.2c0.2-3.6,1.2-6.9,1.7-10.7c1.8-11.7,0.6-23.9-4-35
			c-0.1-0.2-0.1-0.3-0.2-0.5c0,0,0,0,0,0l0,0l-6.5,4.6l-8.9-2.4l-10.7-10.7c-0.6,1.3-1.3,2.8-2.3,4.9c-3.6,7.7-4.2,19-4.2,19.6
			c-0.5,1.2-0.9,1.2-1.2,0.5c0.1,1.1,0.3,1.9,0.6,2.7C189.7,166,193.7,165.4,195.2,172.4z"/>
		<path class="st25" d="M181,206.9c0-1.2,0.6-2.4,1.8-2.4l23.1-4.2c1.2,0,2.4,0.6,2.4,1.8l1.5,9h1l-2.4-13c0-0.4-0.1-0.7-0.3-1
			c-0.3-0.6-0.9-0.9-1.5-0.9c-0.2,0-0.3,0.1-0.5,0.1l-1.6,0.3l-4.8,1l-0.1,0l-2,0.4l-7,1.4l-4.9,1l-3.4,0.7c-1.2,0-1.8,1.2-1.8,2.9
			l3.1,16.6c0.1-0.1,0.2-0.1,0.2-0.2L181,206.9z"/>
		<path class="st25" d="M212.1,218.8l-0.3-1.7c-0.5,0-0.9,0-1.1,0l0.3,1.7C211.4,218.7,211.8,218.7,212.1,218.8z"/>
		<path class="st25" d="M196.5,224c0.1,0,0.2,0,0.3,0.1h3h1.4h3.9h0.8c0,0,0,0,0-0.1H196.5z"/>
		<path class="st24" d="M205.9,200.3l-23.1,4.2c-1.2,0-1.8,1.2-1.8,2.4l2.8,13.5c0.6-0.4,1.3-0.5,1.3-0.5s0,0,0.6,0
			c1.2,0.6,3.6,1.2,6.5,2.9c1.3,0.5,2.8,0.9,4.3,1.2h9.4c0.3-0.7,0.3-1.5,0-1.8c-0.6-0.6-7.7-7.1-7.7-7.1c-1.2-3.6,2.9-2.9,2.9-2.9
			s4.2,2.4,6.5,4.2c1.2,0.6,1.8,1.2,2.4,1.8c0.3,0.3,0.6,0.4,1,0.5l-0.3-1.7c-0.1,0-0.1,0-0.1,0h-0.5l-1.2-5.9h0.8l-1.5-9
			C208.3,200.9,207.1,200.3,205.9,200.3z"/>
		<path class="st25" d="M234.4,92.9c-0.7,1.2-1.3,2.9-1.7,4.7c0.7-0.7,1.5-1.1,2.3-1.1c2.6,0,4.7,3.7,4.7,8.3c0,3.8-1.5,7.1-3.5,8
			c0.1,0.9,0.6,3.8,0.6,7.5c0,1.3,0,2.6-0.1,4c-0.2,2.2-0.5,4.5-1.1,6.6c-2.4,8.3-3.6,11.3-3.6,17.2c0.6,5.9-1.2,16-2.9,23.1
			c-1.9,5.7,1.1,11.1-1.3,17.3c-0.6,1.5-1.5,3.1-2.9,4.7c0,0,2.1-1.7,3.9-5c1.4-2.5,2.6-6,2.6-10.4c0,0,0.5,4.4-0.3,9.5
			c-0.4,2.6-1.2,5.3-2.6,7.7c-1.7,2.6-2.9,4.4-3.8,5.9c-0.1,0.1-0.1,0.2-0.2,0.3c-1.5,2.5-2,4.1-2,6.3c0,0,6.5-5.9,11.3-7.1
			c2.1-0.5,5.3-3.9,8.4-8.2c0.2-0.2,0.3-0.5,0.5-0.7c0,0,0-0.1,0-0.1c0.6-1.2,1.2-2.4,1.2-3.6c0.6-2.4,1.8-4.7,2.4-7.1
			c0.6-1.8,1.2-3.6,1.2-4.7c0-0.6,0-1.2,0.6-1.2c0-0.6,0-0.6,0-0.6h1.8c0,0.6-0.6,1.2-0.6,1.8c-0.6,1.2-0.6,2.9-1.8,4.7
			c-0.6,1.7-1.7,4.1-2.4,7c2.7-4.4,4.8-9,5.3-12.2c1.8-8.3,3.6-17.8,5.9-23.7c1.6-3.6,3.2-6.7,4.6-11.1c0.2-0.5,0.3-1.1,0.5-1.6
			c0.5-1.7,1-3.6,1.4-5.7c1.8-8.9-2.9-14.2-5.9-24.9c-2.6-9.3-8.7-19.4-10.3-21.9C245.1,86.8,236.5,88.6,234.4,92.9z"/>
		<path class="st25" d="M188.7,158.8c0-0.6,0.6-11.8,4.2-19.6c1-2.1,1.7-3.6,2.3-4.9c1.5-3.4,1.7-4.7,1.3-8.2
			c-0.6-4.8-7.7-21.3-7.7-21.3s0,0,0-1.8c0.1-1.6,0.6-3.1,1.3-4.5c2.3-4.7,7.5-7.7,13-6.8c1.8,0.6,4.7,0.6,7.1,1.8
			c8.3,1.8,16.6,5.9,18.4,16.6l2.7-0.6c-0.5-1.4-0.9-3-0.9-4.8c0-3.1,1-5.8,2.4-7.2c0.4-1.8,1-3.5,1.7-4.7
			c2.2-4.3,10.7-6.2,12.2-6.5c0.1,0,0.2,0,0.2,0s-8.3-19-21.3-21.3c-13.1-1.8-28.5,9.5-35,17.8c-3.7,4.8-5.8,8.9-6.8,12.7
			c0.5,0.1,0.8-0.3,0.8-0.8c0,0,0-0.6,0.6-0.6c0-0.6,0.6-0.6,0.6-0.6s0-0.6,0.6-0.6c0,0,0,0,0-0.6c0,0,0,0,0-0.6v-0.6l1.8,1.3
			c-0.6,0.6-0.6,0.6-0.6,0.6s0,0.6-0.6,0.6c0,0,0,0.6-0.6,0.6l-0.6,0.6c0,0.6-0.6,0.6-0.6,1.2s-0.6,0.6-0.6,1.2s-0.6,0.6-0.6,1.2
			s-0.6,1.8-0.6,2.9c0,0.7-0.2,1.3-0.4,1.8c0.3,6.7,5.3,26.2,5.9,30.2c0.6,4.2,0,4.7-1.2,12.5c-0.8,5.5-0.8,11.9-0.1,13.6
			C187.8,160.1,188.2,160,188.7,158.8z"/>
		<path class="st26" d="M235,113.1c0.4,0,0.8-0.1,1.2-0.3c2-0.9,3.5-4.2,3.5-8c0-4.6-2.1-8.3-4.7-8.3c-0.8,0-1.6,0.4-2.3,1.1
			c-1.4,1.4-2.4,4.1-2.4,7.2c0,1.8,0.3,3.4,0.9,4.8C232,111.7,233.4,113.1,235,113.1z"/>
		<path class="st26" d="M200.9,235.5c1.2,0.3,2,0.4,2,0.4s0.4,0,1,0.1c0.7,0.1,1.7,0.1,2.8,0.2c2.1,0.2,4.5,0.3,5.8,0.3
			c1.8,0,9.5,1.2,11.3,1.8c1,0.3,4.8,2.8,8.1,4.9c1.3-4.4,3-10.8,3-15l-2.2-1.7l-7.1-4.2c0,0-0.6-3-2.9-5.9c-2.3-3-4.7-4.2-4.7-4.2
			s-4.1-1.2-6.5-1.2h-0.6h-1h-0.8l1.2,5.9h0.5c0,0,0,0,0.1,0c0.2,0,0.6,0,1.1,0c0.8,0.1,1.8,0.2,2.2,0.5c1.4-0.2,1.4-1.1,1.4-1.1
			c0-0.1,0-0.2,0-0.3c-0.4-0.1-0.8-0.3-1.1-0.4c0.5,0,1,0,1.1,0.4c1.9,0.6,4.6,1.5,6.6,2c-2.1-0.5-5.4-0.6-7.9-0.6
			c0,0,0.1,0,0.1,0.1c0,0-0.6,1.2-1.8,1.2c-0.1,0-0.2,0-0.2,0c-0.3,0-0.7,0-1.1-0.1c-0.4-0.1-0.8-0.2-1-0.5
			c-0.6-0.6-1.2-1.2-2.4-1.8c-2.3-1.8-6.5-4.2-6.5-4.2s-4.1-0.6-2.9,2.9c0,0,7.1,6.5,7.7,7.1c0.3,0.3,0.3,1.1,0,1.8c0,0,0,0,0,0.1
			c-0.2,0.4-0.4,0.7-0.7,0.9c-0.2,0.1-0.3,0.2-0.5,0.2c-0.2,0-1.6-0.1-3.4-0.3c-0.5-0.1-1-0.1-1.5-0.2c-1-0.1-2-0.3-3-0.6
			c-0.1,0-0.2,0-0.3-0.1c-1.5-0.3-3-0.7-4.3-1.2c-2.9-1.8-5.3-2.3-6.5-2.9c-0.6,0-0.6,0-0.6,0s-0.7,0.2-1.3,0.5
			c-0.1,0.1-0.2,0.1-0.2,0.2c-0.5,0.4-0.7,0.9-0.2,1.7c0,0-0.6,0.6,0,1.8c0.2,0.6,1.2,1.5,2.6,2.4c2.7,1.9,6.8,4.3,8.7,5.9
			C196.4,234.1,199,235,200.9,235.5z M192.8,228.8c-0.6-0.6-1.2-0.6-1.8-1.2c-0.6-0.6-1.2-0.6-1.8-1.2c-1.2-0.6-1.8-1.2-2.9-1.8
			c-0.6-0.6-0.6-0.6-1.2-1.2l-0.6-0.6c-0.6-1.3-0.6-1.3-0.6-1.8l0.6,0.6c0.6,0.6,1.2,1.2,1.8,1.8s1.8,1.2,2.9,1.8
			c0.6,0.6,1.2,0.6,1.8,1.2c0.6,0.6,1.2,0.6,1.8,1.2c0.6,0.6,1.2,0.6,1.8,1.2c0.6,0.6,1.2,0.6,1.8,0.6s1.2,0.6,1.8,0.6
			s1.2,0.6,1.2,0.6c0.6,0,0.6,0,1.2,0.6h0.6h0h0.6h0.6h-0.6h-0.6h0h-0.6h0c-0.6,0-0.6,0-1.2,0h-0.6h-0.6c-0.6,0-1.2-0.6-1.8-0.6
			s-1.2-0.6-1.8-0.6C194,229.4,193.4,229.4,192.8,228.8z"/>
		<path class="st23" d="M271.2,219.3c0.4,4.3-0.1,10.6-0.4,13.7c3.3,1.2,6.2,2.8,8.7,5.3c5.3,4.7,8.3,11.8,7.7,19.6
			c0,1.2,0,1.8-0.6,2.9c-0.6,2.4-1.2,0-1.2-1.8c0-2.1-0.3-4.5-0.5-6.7c-0.1,3-1.2,5.8-3.1,8.5c2.4-5.9,1.8-12.5-1.2-17.8
			c-2-4.2-5.9-6.9-10-8.8c0,0.3-0.1,0.5-0.1,0.5s-10.1-2.9-13.1-2.9c-2.4-0.6-6.6-1.2-9.5-1.8c-1.2-0.6-2.3-0.6-2.9-1.2
			c-0.2-0.2-0.4-0.3-0.7-0.4c-0.4-0.2-1-0.3-1.7-0.7c-2.3-0.8-5.2-1.6-6.8-2c-0.9-0.2-1.4-0.4-1.4-0.4c0.3,0.7,0.4,1.7,0.4,2.9
			c0,4.2-1.7,10.7-3,15c-0.4,1.4-0.7,2.6-1,3.4c-0.6,4.2-4.2,5.3-4.2,5.3s4.6,1.2,11.4,2.5c1.6,0.3,3.4,0.7,5.3,1c0.9,0,2,0,3,0.2
			c0.4,0.1,0.8,0.2,1.1,0.4c16,3.6,35.6,7.7,38,8.3s5.3-2.4,7.1-5.3c0.1-0.2,0.2-0.3,0.2-0.5c1.1-2.1,2.1-3.8,2.7-5.5
			c1.2-4.2,6.5-40.9,8.3-48.6c4.2-15.4,4.2-51-11.2-55.1c0,0-11.8-2.4-17.8,31.4c-0.1,0.2-0.2,0.5-0.3,0.8
			C271.1,189.6,270.6,213.6,271.2,219.3z"/>
		<path class="st16" d="M280.6,243c2.9,5.3,3.6,11.8,1.2,17.8c1.8-2.7,2.9-5.5,3.1-8.5c0.2,2.2,0.5,4.6,0.5,6.7
			c0,1.8,0.6,4.2,1.2,1.8c0.6-1.2,0.6-1.8,0.6-2.9c0.6-7.7-2.3-14.8-7.7-19.6c-2.5-2.5-5.4-4.1-8.7-5.3c-0.6-0.2-1.3-0.4-2-0.6v1.2
			c0.6,0.2,1.2,0.5,1.8,0.8C274.7,236.1,278.6,238.8,280.6,243z"/>
		<path class="st27" d="M213,217.5c0.3,0,0.7,0,1,0c2.4,0,5.8,0.1,7.9,0.6c-1.9-0.5-4.6-1.4-6.6-2c0,0.1,0,0.2,0,0.3
			c0,0,0,1-1.4,1.1c-0.1,0-0.2,0-0.4,0C213.6,217.5,213.6,217.5,213,217.5z"/>
		<path class="st27" d="M214.2,215.8c0.3,0.1,0.7,0.2,1.1,0.4C215.2,215.8,214.7,215.8,214.2,215.8z"/>
		<polyline class="st28" points="202.4,231.2 201.8,231.2 201.2,231.2 201.2,231.2 200.6,231.2 		"/>
		<path class="st27" d="M198.2,231.2h0.6h0.6c0.6,0,0.6,0,1.2,0h0c-0.6-0.6-0.6-0.6-1.2-0.6c0,0-0.6-0.6-1.2-0.6s-1.2-0.6-1.8-0.6
			s-1.2,0-1.8-0.6c-0.6-0.6-1.2-0.6-1.8-1.2c-0.6-0.6-1.2-0.6-1.8-1.2c-0.6-0.6-1.2-0.6-1.8-1.2c-1.2-0.6-2.3-1.2-2.9-1.8
			s-1.2-1.2-1.8-1.8l-0.6-0.6c0,0.6,0,0.6,0.6,1.8l0.6,0.6c0.6,0.6,0.6,0.6,1.2,1.2c1.2,0.6,1.8,1.2,2.9,1.8
			c0.6,0.6,1.2,0.6,1.8,1.2c0.6,0.6,1.2,0.6,1.8,1.2c0.6,0.6,1.2,0.6,1.8,1.2c0.6,0,1.2,0.6,1.8,0.6S197.6,231.2,198.2,231.2z"/>
		<path class="st29" d="M194.6,196.2c0-0.6,0-0.6,0-0.6V195v-0.6v-0.6c0,0,0-0.6,0-1.2c0-0.2,0-0.4,0-0.6c0-0.4,0-0.8,0-1.2"/>
		<path class="st25" d="M199.3,183.7c-0.6,0-1.2,0.6-1.2,0.6l-0.6,0.6c0,0.2,0,0.4,0,0.6l0.6-0.6c0,0,0-0.6,0.6-0.6
			c0.3-0.3,0.6-0.4,0.9-0.6c0.3-0.1,0.6-0.3,0.9-0.6c0,0,0.1,0,0.1,0c0.5-0.1,1.1-0.6,1.1-0.6c0.6,0,0.6,0,0.6,0c0.6,0,0.6,0,0.6,0
			c0.6-0.6,1.2-0.6,1.8-1.2c0.6-0.6,0.6-0.6,1.2-1.2c0-0.6,0.6-0.6,0.6-1.2s0-0.6,0-0.6s0,0,0-0.6l-1.2,0.6c0,0.6,0,0.6,0,0.6
			c0,0.6-0.6,1.2-1.2,1.8c0,0.6-0.6,0.6-1.2,1.2c-0.6,0-0.6,0-0.6,0c-0.6,0-0.6,0-0.6,0l-0.6,0.6c-0.2,0.2-0.4,0.3-0.6,0.4
			c-0.3,0.1-0.5,0.2-0.8,0.4C199.6,183.4,199.5,183.5,199.3,183.7z"/>
		<path class="st25" d="M195.2,188.5c-0.6,0.6-0.6,1.2-0.6,1.8c0,0.2,0,0.4,0,0.6c0-0.6,0.6-1.2,0.6-1.8c0.4-0.5,0.5-0.9,0.8-1.3
			c0-0.2-0.1-0.4-0.1-0.6C195.5,187.6,195.2,188,195.2,188.5z"/>
		<path class="st25" d="M195.9,187.2c0,0.2,0.1,0.4,0.1,0.6c0.2,1,0.4,1.8,0.4,2.5c0,1.8,0,3,0,4.2s-0.6,2.3-0.6,2.9v0.6
			c0.6,0,0.6,0,0.6-0.6c0-0.6,0.6-1.8,0.6-2.9c0.6-1.2,0.6-2.4,0.6-4.2c0-1.8,0-2.9,0-4.7c0,0,0,0,0-0.1c0-0.2,0-0.4,0-0.6
			c-0.2-2.9-0.5-5.7-0.7-7.9c-0.2-2.7-0.4-4.5-0.4-4.5l-1.1,0.2l-1.9,0.4c0,0,0.7,3.6,1.6,8.3c0.2,1.3,0.5,2.7,0.8,4.1
			C195.8,186.1,195.8,186.6,195.9,187.2z"/>
		<path class="st29" d="M229.3,206.9c-0.3,0.4-0.6,0.9-0.9,1.2"/>
		<path class="st29" d="M226.6,211c0,0.6,0,0.6,0,0.6"/>
		<path class="st25" d="M234.2,202.2c-0.7,0.4-1.3,0.7-1.6,1.1C233.2,203,233.7,202.6,234.2,202.2z"/>
		<path class="st25" d="M228.4,208.1c-0.6,0.6-1.2,1.2-1.2,1.8C227.8,209.2,227.8,208.7,228.4,208.1z"/>
		<path class="st25" d="M230.6,205.3c-0.1,0.2-0.2,0.3-0.4,0.4C230.3,205.6,230.4,205.4,230.6,205.3z"/>
		<path class="st25" d="M230.2,205.7c-0.3,0.3-0.6,0.8-0.9,1.2C229.6,206.4,229.9,206,230.2,205.7z"/>
		<path class="st25" d="M226.6,211c0,0,0.6-0.6,0.6-1.2C226.6,210.4,226.6,210.4,226.6,211z"/>
		<path class="st25" d="M230.6,205.3c0.5-0.6,1.1-1.5,2-2C231.6,203.8,231,204.6,230.6,205.3z"/>
		<path class="st25" d="M240.9,195c-0.6,1.2-1.2,2.4-2.4,3.6c-0.6,1.2-1.8,1.8-2.9,2.4c-0.5,0.5-0.9,1-1.3,1.3
			c0.4-0.2,0.9-0.5,1.3-0.7c1.2-0.6,2.4-1.2,3.6-2.4c0.4-0.7,1-1.5,1.5-2.2c0.3-0.5,0.7-0.9,0.9-1.4c0.6-1.8,1.2-3,1.8-4.2
			s1.2-2.4,1.8-3.6c0-0.1,0-0.1,0-0.2c0.6-2.9,1.8-5.2,2.4-7c1.2-1.8,1.2-3.6,1.8-4.7c0-0.6,0.6-1.2,0.6-1.8H248c0,0,0,0,0,0.6
			c-0.6,0-0.6,0.6-0.6,1.2c0,1.2-0.6,2.9-1.2,4.7c-0.6,2.4-1.8,4.7-2.4,7.1c0,1.2-0.6,2.4-1.2,3.6c0,0,0,0.1,0,0.1
			c-0.3,0.5-0.5,1-0.7,1.5C241.5,193.6,241.2,194.3,240.9,195z"/>
		<path class="st25" d="M184.4,123.7c0,0,0-0.6-0.6-1.2C183.8,123.7,184.4,123.7,184.4,123.7z"/>
		<path class="st25" d="M183.8,98.3c0-0.6,0.6-0.6,0.6-1.2s0.6-0.6,0.6-1.2s0.6-0.6,0.6-1.2l0.6-0.6c0.6,0,0.6-0.6,0.6-0.6
			c0.6,0,0.6-0.6,0.6-0.6s0,0,0.6-0.6l-1.8-1.3v0.6c0,0.6,0,0.6,0,0.6c0,0.6,0,0.6,0,0.6c-0.6,0-0.6,0.6-0.6,0.6s-0.6,0-0.6,0.6
			c-0.6,0-0.6,0.6-0.6,0.6c0,0.5-0.4,1-0.8,0.8c-0.1,0-0.2-0.1-0.3-0.2c-0.6,0.6-0.6,0.6-0.6,1.2c-0.6,0-0.6,0.6-0.6,1.2
			c0,1.2-0.6,1.8-0.6,2.9c-0.6,0.6-0.6,1.8-0.6,2.9s0,2.4,0,3.6c0,0.6,0,1.2,0,1.8s0,1.2,0,1.8c0,1.2,0.6,1.8,0.6,2.9
			c0.6,1.8,0.6,3.6,1.2,5.3c0.6,1.2,1.2,2.4,1.2,3.6c0-0.6,0-1.8-0.6-3.6c0-1.8-0.6-3.6-0.6-5.3c0-0.6,0-1.8,0-2.9
			c0-0.6,0-1.2,0-1.8s0-1.2,0-1.8s0-1.8,0-2.9c0-0.4,0.1-0.8,0.2-1.1c0.2-0.6,0.4-1.1,0.4-1.8C183.2,100.1,183.8,98.9,183.8,98.3z"
			/>
		<path class="st25" d="M98,115.5c3.6,0,7.7,4.2,10.1,8.9c0.9,1.7,1.3,3.4,1.2,4.8c1.2,2.8,1.2,4.7,1.2,4.7l4.2-1.2
			c0,0-2.4-7.7,0-10.7s2.4-2.9,2.4-2.9s-5.3-11.8,2.9-12.5c8.3-0.6,18.4,5.3,23.1,3.6c3.5-1.3,5.7-4.2,6.6-5.6
			c0.3-0.5,0.5-0.9,0.5-0.9s4.7-1.8,2.9-6.5s-8.9-17.8-25.5-23.1c-16-4.7-27.9,6.5-32.6,12.5c-4.1,5.8-4.7,19.6-0.3,31.2
			C95.2,116.4,96.4,115.5,98,115.5z"/>
		<path class="st18" d="M103.9,133c0.4,0.1,0.8,0.2,1.2,0.3c0.2,0,0.3,0,0.5,0c2.3,0,3.6-1.7,3.6-4.1c0-1.4-0.4-3.1-1.2-4.8
			c-2.3-4.7-6.5-8.9-10.1-8.9c-1.6,0-2.8,0.9-3.3,2.3c-0.6,1.7-0.4,4.1,0.9,6.6c1.5,3.9,4.9,7.4,8.1,8.5c0.1-0.1,0.2-0.1,0.2-0.2
			C103.9,132.8,103.9,132.9,103.9,133z"/>
		<path class="st22" d="M102.1,141.6c1,4.5,5.8,9.9,9.8,21.8c5.1-4.8,11-3.5,11-3.5l0,0c-4.8-3.7-8.8-8.5-11.8-13.1
			c-3.4-5.1-5.6-9.9-6.6-12.4c-0.3-0.7-0.5-1.2-0.6-1.5c0-0.1-0.1-0.2-0.1-0.3c-0.1,0-0.2,0.1-0.2,0.2c-0.6,0.4-1.1,0.9-1.5,1.6
			c0.4-0.3,0.9-0.5,1.2-0.6C103.3,133.9,100.9,136.3,102.1,141.6z"/>
		<path class="st30" d="M143.1,155.8l0,0.3l-0.5,8.8l-0.1,2.2c0,0,7.1,20.2,12.5,30.9c2,4.1,3,10.5,3.7,17.7h1.4
			c3.1,0,5.7,2.6,5.7,5.7v4.1v19.1c0,0.3,0,0.6,0,0.9v11.6c0,1.7-0.8,3.2-1.9,4.3c1,11.5,1.2,26.4,1.3,35.6c0,5.1,0,8.3,0,8.3
			c1.7-4,3-8.7,4.1-13.7c3-14.2,3.5-30.6,3.1-38.6c0-7.4-3.8-24.2-6.6-35.7c-1.5-6.1-2.7-10.7-2.9-11.7c-1.2-3.6-2.9-17.2-4.7-22.5
			c-1.2-4.2-4.8-13.6-5.9-17.8c0-1.2-1.2-1.8-2.4-2.4l-3.6-1.2l1.2-6l1.2-5.8c0,0.1-0.1,0.1-0.1,0.2
			C147.6,151.7,145.4,154,143.1,155.8z"/>
		<path class="st30" d="M92.6,147c0.6,1.8,2.4,11.8,2.4,11.8l5.9,4.7l-5.9,1.8c0,0,6.5,17.2,8.3,23.1c1.8,5.9,15.5,35,18.4,42.7
			c0.9,2.3,2,6.6,3.1,11.4c0.8-1.2,1.7-2.4,2.9-3.5c-0.5-5.3-0.9-10.2-1.2-13.3c-1.8-10.7-8.3-38-12.5-55.2
			c-0.6-2.7-1.3-5.1-2.1-7.3c-4-12-8.8-17.3-9.8-21.8c-1.2-5.3,1.2-7.7,1.2-7.7c-0.4,0.1-0.8,0.3-1.2,0.6c-2.5,1.6-6,6-6.5,6.6
			c-1,1.5-2.9,3.5-3,5.2C92.5,146.6,92.6,146.8,92.6,147z"/>
		<path class="st25" d="M133.5,221.3v4.1c0-3.1,2.6-5.7,5.7-5.7H160c3.1,0,5.7,2.6,5.7,5.7v-4.1c0-3.1-2.6-5.7-5.7-5.7h-1.4h-19.4
			C136.1,215.6,133.5,218.2,133.5,221.3z"/>
		<path class="st24" d="M160,219.8h-20.8c-3.1,0-5.7,2.6-5.7,5.7v10.7c3.2-0.9,6.3-1.5,8.4-2c2.4-0.6,4.7-0.6,7.1,0l9.5,1.8
			c1.8,0.6,3.6,1.8,3.6,3.6c0,1.2-0.6,1.8-1.8,1.8c0,0,5.3,0.6,5.3,2.9c0,0.1,0,0.2,0.1,0.4v-19.1
			C165.7,222.3,163.1,219.8,160,219.8z"/>
		<path class="st24" d="M159.7,247.1c-3.6-0.6-10.7,0-10.7,0l-8.9,1.8h2.4c0,0,5.9-1.2,10.7-0.6c4.7,0.6,7.7,0.6,7.1,3.6
			c-0.6,2.4-1.8,2.4-4.7,2.4c-1.7,0-4.6,0.6-6.7,0.9c2.1-0.1,5.2-0.1,5.6,1.4c0.6,2.4-3.6,4.2-5.9,4.2c-1.9,0.5-5.3,0.9-7.5,2h19
			c1.4,0,2.7-0.5,3.7-1.4c1.2-1,1.9-2.6,1.9-4.3v-11.6C165.4,247.3,163.2,247.6,159.7,247.1z"/>
		<path class="st18" d="M141,262.7c2.2-1.1,5.6-1.5,7.5-2c2.4,0,6.6-1.8,5.9-4.2c-0.4-1.5-3.4-1.6-5.6-1.4c2.2-0.3,5-0.9,6.7-0.9
			c2.9,0,4.1,0,4.7-2.4c0.6-2.9-2.4-2.9-7.1-3.6c-4.7-0.6-10.7,0.6-10.7,0.6h-2.4l8.9-1.8c0,0,7.1-0.6,10.7,0c3.5,0.5,5.7,0.2,6-1.7
			c0-0.3,0-0.6,0-0.9c0-0.1,0-0.2-0.1-0.4c0-2.3-5.3-2.9-5.3-2.9c1.2,0,1.8-0.6,1.8-1.8c0-1.8-1.8-2.9-3.6-3.6l-9.5-1.8
			c-2.4-0.6-4.7-0.6-7.1,0c-2.1,0.5-5.2,1.1-8.4,2c-0.4,0.1-0.7,0.2-1.1,0.3c-2,0.6-3.5,1.6-4.7,2.7c-1.2,1.1-2.1,2.3-2.9,3.5
			c-1.6,2.4-2.8,4.8-4.9,5.7c-2.5,1.1-7.5,1.1-11,0.9c-0.4,0-0.9,0-1.2-0.1c0,0,0,0,0,0c-1.6,1-8.2,6.2-5.6,19.9
			c1.9,0.1,5.4,0.2,9.2,0.2c4.6,0,9.8,0,13.5-0.3c1.7-0.1,3.3-0.4,4.8-0.8c5.9-1.5,10.1-4.5,10.1-4.5
			C139.9,263.3,140.4,263,141,262.7z M141.3,255.4c0.6,0,0.6,0,1.2,0h0.6h0.6c0.6,0,0.6,0,1.2,0c1.8,0,1.8,0,1.8,0s-0.6,0-1.2,0.6
			c-0.6,0-0.6,0-1.2,0c-0.6,0-0.6,0-1.2,0h-0.6h-0.6c-0.6,0-0.6,0-1.2,0c-0.6,0-0.6,0-0.6,0h-0.6h0.6
			C140.7,256.1,140.7,256.1,141.3,255.4z M136.5,242.4c0.6-0.6,1.2-0.6,2.4-0.6s2.4-0.6,3.6-0.6c1.2-0.6,1.8-0.6,2.4-0.6
			c1.2,0,1.8,0,2.4,0c1.2,0,1.8,0,2.4,0c1.2,0,1.8,0,2.4,0c1.2,0,2.4,0.6,3.6,0.6c0.6,0,1.8,0,2.4,0c0.2,0,0.5,0,0.7,0
			c0.4-0.3,0.5,0,0.5,0s-0.2,0-0.5,0c-0.2,0.1-0.4,0.3-0.7,0.6c-0.6,0-1.2-0.6-2.4-0.6s-2.4,0-3.6-0.6c-0.6,0-1.2,0-2.4,0
			c-0.6,0-1.2,0-2.4,0c-0.6,0-1.2,0-2.4,0c-1.2,0.6-1.8,0.6-2.4,0.6c-1.2,0-2.4,0.6-3.6,0.6C138.2,241.8,137.1,242.4,136.5,242.4
			s-1.2,0-1.2,0S135.8,242.4,136.5,242.4z"/>
		<path class="st30" d="M105,279c-1.5-3.7-2.4-7-3-10c-2.5-13.7,4-18.9,5.6-19.9c0,0,0,0,0,0c0.2-0.1,0.3-0.2,0.3-0.2
			c0,0-0.1,0-0.1,0c-4.2-1.1-15.3,2.4-18.9,0c-3.6-1.8-9.5-1.8-9.5-1.8c-0.8-1.3-4.8-1.3-7.8-1.5c-1.2-0.1-2.2-0.1-2.9-0.3
			c-2.9-0.6-2.9-2.3-1.2-4.7c1.8-2.4,5.3-7.7,5.3-7.7c3.4-2.2,8.9-20.5,9.5-22.4c0-0.1,0-0.2,0-0.2s8.9-14.2,9.4-27.3
			c0.6-13.2-17.7-31.4-33.4-22.9c-0.5,0.3-1,0.6-1.5,0.9c-16,10.7-11.8,40.3-11.8,40.3s-4.1,17.8-4.7,20.2s-4.8,22.6-5.3,28.5
			c-0.6,5.9,1.2,14.8,5.9,19c4.7,3.6,10.7,4.2,15.4,4.2c1,0,3.6,0.3,7.2,0.6C77.5,275.4,105,279.1,105,279
			C105,279.1,105,279,105,279z"/>
		<line class="st31" x1="140.1" y1="256.1" x2="139.5" y2="256.1"/>
		<path class="st32" d="M140.7,256.1c0.6,0,0.6,0,1.2,0h0.6h0.6c0.6,0,0.6,0,1.2,0c0.6,0,0.6,0,1.2,0c0.6-0.6,1.2-0.6,1.2-0.6
			s0,0-1.8,0c-0.6,0-0.6,0-1.2,0h-0.6h-0.6c-0.6,0-0.6,0-1.2,0c-0.6,0.6-0.6,0.6-1.2,0.6C140.1,256.1,140.1,256.1,140.7,256.1z"/>
		<path class="st31" d="M135.3,242.4c0,0,0.6,0,1.2,0"/>
		<path class="st31" d="M142.4,241.2c-1.2,0-2.4,0.6-3.6,0.6"/>
		<path class="st31" d="M152,240.6c-0.6,0-1.2,0-2.4,0c-0.6,0-1.2,0-2.4,0c-0.6,0-1.2,0-2.4,0"/>
		<path class="st32" d="M136.5,242.4c0.6,0,1.8-0.6,2.4-0.6C137.7,241.8,137.1,241.8,136.5,242.4z"/>
		<path class="st32" d="M158.6,241.2c0.3,0,0.5,0,0.5,0S159.1,240.9,158.6,241.2z"/>
		<path class="st32" d="M152,240.6c1.2,0.6,2.4,0.6,3.6,0.6C154.4,241.2,153.2,240.6,152,240.6z"/>
		<path class="st32" d="M142.4,241.2c0.6,0,1.2,0,2.4-0.6C144.2,240.6,143.6,240.6,142.4,241.2z"/>
		<path class="st32" d="M158.6,241.2c-0.2,0-0.5,0-0.7,0c-0.6,0-1.8,0-2.4,0c1.2,0,1.8,0.6,2.4,0.6
			C158.2,241.5,158.5,241.3,158.6,241.2z"/>
	</g>
	<g id="surface1">
		<path class="st33" d="M163.8,76.7l-1.7,5.1l-5.1-1.7c-1-0.3-2,0.2-2.4,1.2c-0.3,1,0.2,2,1.2,2.4l5.1,1.7l-1.7,5.1
			c-0.3,1,0.2,2,1.2,2.4l5.7-17.2C165.2,75.1,164.2,75.7,163.8,76.7z"/>
		<path class="st34" d="M170.8,84.5l-5.1-1.7l1.7-5.1c0.3-1-0.2-2-1.2-2.4l-5.7,17.2c1,0.3,2-0.2,2.4-1.2l1.7-5.1l5.1,1.7
			c1,0.3,2-0.2,2.4-1.2S171.8,84.9,170.8,84.5z"/>
	</g>
	<g id="surface1_1_">
		<path class="st33" d="M177,41.6l1.1,8.7l-8.7,1.1c-1.7,0.2-2.9,1.8-2.7,3.5c0.2,1.7,1.8,2.9,3.5,2.7l8.7-1.1l1.1,8.7
			c0.2,1.7,1.8,2.9,3.5,2.7l-3.7-29.7C178,38.3,176.8,39.9,177,41.6z"/>
		<path class="st34" d="M193,48.4l-8.7,1.1l-1.1-8.7c-0.2-1.7-1.8-2.9-3.5-2.7l3.7,29.7c1.7-0.2,2.9-1.8,2.7-3.5l-1.1-8.7l8.7-1.1
			c1.7-0.2,2.9-1.8,2.7-3.5C196.2,49.4,194.7,48.2,193,48.4z"/>
	</g>
	<g id="surface1_2_">
		<path class="st33" d="M162,3.8v10.7h-10.7c-2.1,0-3.8,1.7-3.8,3.8s1.7,3.8,3.8,3.8H162v10.7c0,2.1,1.7,3.8,3.8,3.8V0
			C163.7,0,162,1.7,162,3.8z"/>
		<path class="st34" d="M180.2,14.5h-10.7V3.8c0-2.1-1.7-3.8-3.8-3.8v36.4c2.1,0,3.8-1.7,3.8-3.8V22h10.7c2.1,0,3.8-1.7,3.8-3.8
			S182.3,14.5,180.2,14.5z"/>
	</g>
</g>
</svg>
