<?xml version="1.0" encoding="utf-8"?>
<!-- Generator: Adobe Illustrator 25.2.3, SVG Export Plug-In . SVG Version: 6.00 Build 0)  -->
<svg version="1.1" id="Layer_1" xmlns="http://www.w3.org/2000/svg" xmlns:xlink="http://www.w3.org/1999/xlink" x="0px" y="0px"
	 viewBox="0 0 338.9 332" style="enable-background:new 0 0 338.9 332;" xml:space="preserve">
<style type="text/css">
	.st0{opacity:0.15;}
	.st1{fill:#08497E;}
	.st2{opacity:0.5;fill:#CEDBE5;}
	.st3{opacity:0.5;fill:#84A4BF;}
	.st4{opacity:0.5;fill:#396D98;}
	.st5{opacity:0.5;fill:#5280A5;}
	.st6{opacity:0.5;fill:#215B8B;}
	.st7{opacity:0.5;fill:#08497E;}
	.st8{opacity:0.5;fill:#D93131;}
	.st9{opacity:0.5;fill:#6B92B2;}
	.st10{opacity:0.5;fill:#E6EDF2;}
	.st11{opacity:0.5;fill:#83AFE4;}
	.st12{opacity:0.5;fill:#5290D9;}
	.st13{opacity:0.5;fill:#ECECF1;}
	.st14{opacity:0.5;fill:#D3D3D8;}
	.st15{fill:none;}
	.st16{fill:#005623;}
	.st17{fill:#FED1A3;}
	.st18{fill:#F5A96C;}
	.st19{fill:#E6EEE9;}
	.st20{fill:#FEFEFE;}
	.st21{fill:#33784F;}
	.st22{fill:#344A5E;}
	.st23{fill:#7A3109;}
	.st24{fill:#425A6B;}
	.st25{fill:none;stroke:#F5A96C;stroke-width:0;stroke-linecap:round;stroke-linejoin:round;}
	.st26{fill:#E8EAE8;}
	.st27{fill:#8AD6F7;}
	.st28{fill:#FFFFFF;}
	.st29{fill:#86231D;}
	.st30{fill:#9E4F4A;}
</style>
<g>
	<g class="st0">
		<circle class="st1" cx="172.9" cy="166" r="166"/>
	</g>
	<g>
		<path class="st2" d="M90.1,77.5c0-2.2-1.8-4-4-4c-2.2,0-4,1.8-4,4V93h7.9V77.5z"/>
		<path class="st3" d="M96.2,95.7c0-1.5-1.2-2.7-2.7-2.7h-3.4h-7.9H64.4c-1.5,0-2.7,1.2-2.7,2.7v22.5h34.6V95.7z"/>
		<path class="st4" d="M96.2,95.7v22.5h7.2c0,0,0,0,0,0h2.4V95.7c0-1.5-1.2-2.7-2.7-2.7h0h-9.5C95,93,96.2,94.2,96.2,95.7z"/>
		<path class="st2" d="M106.1,121c0-1.5-1.2-2.7-2.7-2.7h-7.2H61.7h-7.1c-1.5,0-2.7,1.2-2.7,2.7v22.4h54.3V121z"/>
		<path class="st3" d="M103.4,118.3C103.4,118.3,103.4,118.3,103.4,118.3c1.5,0,2.7,1.2,2.7,2.7v22.5h3h6.5V121v0
			c0-1.5-1.2-2.7-2.7-2.7h-7.1H103.4z"/>
		<path class="st5" d="M221.8,71.6l3.4-3.7c0.4-0.4,0.9-0.7,1.4-0.8c-0.5,0.1-1,0.4-1.4,0.8l-27.5,29.7H245L221.8,71.6z"/>
		<rect x="245" y="97.6" class="st5" width="11.4" height="0"/>
		<path class="st3" d="M64.1,285.5c-2.2,0-4-1.8-4-4c0-2.2,1.8-4,4-4h15.9v-11.5H64.1c-2.2,0-4-1.8-4-4c0-2.2,1.8-4,4-4h15.9V246
			H64.1c-2.2,0-4-1.8-4-4c0-2.2,1.8-4,4-4h15.9V226H64.1c-2.2,0-4-1.8-4-4c0-2.2,1.8-4,4-4h16.3c0.7-1.4,2.3-2.3,4-2l27.4,4.9v-17.9
			c-0.7,1-1.9,1.6-3.2,1.6h-6c-2.2,0-4-1.8-4-4c0-2.2,1.8-4,4-4h6c1.3,0,2.5,0.7,3.2,1.6v-15.4c-0.7,1-1.9,1.6-3.2,1.6h-6
			c-2.2,0-4-1.8-4-4c0-2.2,1.8-4,4-4h6c1.3,0,2.5,0.7,3.2,1.6V163c-0.7,1-1.9,1.6-3.2,1.6h-6c-2.2,0-4-1.8-4-4c0-2.2,1.8-4,4-4h6
			c1.3,0,2.5,0.7,3.2,1.6v-12.3c0-1.5-1.2-2.7-2.7-2.7h-3H51.8h-5.7c-1.5,0-2.7,1.2-2.7,2.7v123.7c10.5,13,22.8,24.4,36.7,33.8
			v-18.2H64.1z M87.3,204.8H64.1c-2.2,0-4-1.8-4-4c0-2.2,1.8-4,4-4h23.2c2.2,0,4,1.8,4,4C91.3,203,89.5,204.8,87.3,204.8z
			 M87.3,184.7H64.1c-2.2,0-4-1.8-4-4c0-2.2,1.8-4,4-4h23.2c2.2,0,4,1.8,4,4C91.3,182.9,89.5,184.7,87.3,184.7z M87.3,164.7H64.1
			c-2.2,0-4-1.8-4-4c0-2.2,1.8-4,4-4h23.2c2.2,0,4,1.8,4,4C91.3,162.9,89.5,164.7,87.3,164.7z"/>
		<path class="st2" d="M87.3,156.8H64.1c-2.2,0-4,1.8-4,4c0,2.2,1.8,4,4,4h23.2c2.2,0,4-1.8,4-4C91.3,158.5,89.5,156.8,87.3,156.8z"
			/>
		<path class="st2" d="M87.3,176.8H64.1c-2.2,0-4,1.8-4,4c0,2.2,1.8,4,4,4h23.2c2.2,0,4-1.8,4-4C91.3,178.6,89.5,176.8,87.3,176.8z"
			/>
		<path class="st2" d="M87.3,196.8H64.1c-2.2,0-4,1.8-4,4c0,2.2,1.8,4,4,4h23.2c2.2,0,4-1.8,4-4C91.3,198.6,89.5,196.8,87.3,196.8z"
			/>
		<path class="st2" d="M60.2,222c0,2.2,1.8,4,4,4h15.9v-6.3c0-0.6,0.1-1.1,0.4-1.6H64.1C62,218.1,60.2,219.8,60.2,222z"/>
		<path class="st2" d="M60.2,242.1c0,2.2,1.8,4,4,4h15.9v-7.9H64.1C62,238.1,60.2,239.9,60.2,242.1z"/>
		<path class="st2" d="M60.2,262.1c0,2.2,1.8,4,4,4h15.9v-7.9H64.1C62,258.1,60.2,259.9,60.2,262.1z"/>
		<path class="st2" d="M60.2,281.5c0,2.2,1.8,4,4,4h15.9v-7.9H64.1C62,277.6,60.2,279.4,60.2,281.5z"/>
		<path class="st4" d="M111.8,146.1v12.3c0.5,0.6,0.8,1.4,0.8,2.3s-0.3,1.7-0.8,2.3v15.4c0.5,0.6,0.8,1.4,0.8,2.3s-0.3,1.7-0.8,2.3
			v15.4c0.5,0.6,0.8,1.4,0.8,2.3s-0.3,1.7-0.8,2.3V221l12.2,2.2v-77.1c0-1.5-1.2-2.7-2.7-2.7h0h-5.7h-6.5
			C110.6,143.4,111.8,144.6,111.8,146.1z"/>
		<path class="st6" d="M256.7,112.1v80.1h5.1c1.5,0,2.7,1.2,2.7,2.7v0v109.4c7.3-4.8,14.2-10.2,20.6-16.1h-2.9
			c-2.2,0-4.1-1.8-4.1-4.1c0-2.2,1.8-4.1,4.1-4.1h11.2c2.9-3,5.7-6.2,8.3-9.5V112.1H256.7z M282.2,124.3h11.4c2.2,0,4.1,1.8,4.1,4.1
			c0,2.2-1.8,4.1-4.1,4.1h-11.4c-2.2,0-4.1-1.8-4.1-4.1C278.1,126.1,279.9,124.3,282.2,124.3z M293.6,262.3h-11.4
			c-2.2,0-4.1-1.8-4.1-4.1c0-2.2,1.8-4.1,4.1-4.1h11.4c2.2,0,4.1,1.8,4.1,4.1C297.6,260.5,295.8,262.3,293.6,262.3z M293.6,236.3
			h-11.4c-2.2,0-4.1-1.8-4.1-4.1c0-2.2,1.8-4.1,4.1-4.1h11.4c2.2,0,4.1,1.8,4.1,4.1C297.6,234.5,295.8,236.3,293.6,236.3z
			 M293.6,210.4h-11.4c-2.2,0-4.1-1.8-4.1-4.1c0-2.2,1.8-4.1,4.1-4.1h11.4c2.2,0,4.1,1.8,4.1,4.1
			C297.6,208.5,295.8,210.4,293.6,210.4z M293.6,184.4h-11.4c-2.2,0-4.1-1.8-4.1-4.1c0-2.2,1.8-4.1,4.1-4.1h11.4
			c2.2,0,4.1,1.8,4.1,4.1C297.6,182.6,295.8,184.4,293.6,184.4z M293.6,158.4h-11.4c-2.2,0-4.1-1.8-4.1-4.1c0-2.2,1.8-4.1,4.1-4.1
			h11.4c2.2,0,4.1,1.8,4.1,4.1C297.6,156.6,295.8,158.4,293.6,158.4z"/>
		<path class="st7" d="M309.3,112.1h-7.6v158.6c4.3-5.3,8.3-10.9,11.9-16.7V116.5C313.6,114.1,311.7,112.1,309.3,112.1z"/>
		<path class="st8" d="M261.8,192.2c1.5,0,2.7,1.2,2.7,2.7v0C264.5,193.5,263.3,192.2,261.8,192.2l-5.1,0v0H261.8z"/>
		<path class="st3" d="M245,173c-0.7,1.1-1.9,1.7-3.3,1.7c-2.2,0-4-1.8-4-4v-6.7c0-2.2,1.8-4,4-4c1.4,0,2.6,0.7,3.3,1.7v-11.5
			c-0.7,1.1-1.9,1.7-3.3,1.7c-2.2,0-4-1.8-4-4v-6.7c0-2.2,1.8-4,4-4c1.4,0,2.6,0.7,3.3,1.7v-11.4c-0.7,1.1-1.9,1.7-3.3,1.7
			c-2.2,0-4-1.8-4-4V119c0-2.2,1.8-4,4-4c1.4,0,2.6,0.7,3.3,1.7V97.6h0h-47.3v8v86.7H245V173z M213.9,170.8c0,2.2-1.8,4-4,4
			c-2.2,0-4-1.8-4-4v-6.7c0-2.2,1.8-4,4-4c2.2,0,4,1.8,4,4V170.8z M213.9,148.3c0,2.2-1.8,4-4,4c-2.2,0-4-1.8-4-4v-6.7
			c0-2.2,1.8-4,4-4c2.2,0,4,1.8,4,4V148.3z M213.9,125.7c0,2.2-1.8,4-4,4c-2.2,0-4-1.8-4-4V119c0-2.2,1.8-4,4-4c2.2,0,4,1.8,4,4
			V125.7z M229.8,170.8c0,2.2-1.8,4-4,4c-2.2,0-4-1.8-4-4v-6.7c0-2.2,1.8-4,4-4c2.2,0,4,1.8,4,4V170.8z M229.8,148.3
			c0,2.2-1.8,4-4,4c-2.2,0-4-1.8-4-4v-6.7c0-2.2,1.8-4,4-4c2.2,0,4,1.8,4,4V148.3z M229.8,125.7c0,2.2-1.8,4-4,4c-2.2,0-4-1.8-4-4
			V119c0-2.2,1.8-4,4-4c2.2,0,4,1.8,4,4V125.7z"/>
		<polygon class="st3" points="256.7,192.2 256.7,192.2 256.7,192.2 256.7,112.1 256.7,97.6 256.7,97.6 		"/>
		<path class="st9" d="M245,116.8c0.4,0.6,0.7,1.4,0.7,2.2v6.7c0,0.8-0.2,1.6-0.7,2.2v11.4c0.4,0.6,0.7,1.4,0.7,2.2v6.7
			c0,0.8-0.2,1.6-0.7,2.2v11.5c0.4,0.6,0.7,1.4,0.7,2.2v6.7c0,0.8-0.2,1.6-0.7,2.2v19.2h11.7V97.6h-0.2H245V116.8z"/>
		<path class="st4" d="M221.8,71.6l23.2,26l11.4,0h0l-27.2-29.7c-0.7-0.7-1.7-1-2.6-0.8c-0.5,0.1-1,0.4-1.4,0.8L221.8,71.6z"/>
		<path class="st3" d="M282.2,132.4h11.4c2.2,0,4.1-1.8,4.1-4.1c0-2.2-1.8-4.1-4.1-4.1h-11.4c-2.2,0-4.1,1.8-4.1,4.1
			C278.1,130.6,279.9,132.4,282.2,132.4z"/>
		<path class="st3" d="M293.6,150.3h-11.4c-2.2,0-4.1,1.8-4.1,4.1c0,2.2,1.8,4.1,4.1,4.1h11.4c2.2,0,4.1-1.8,4.1-4.1
			C297.6,152.1,295.8,150.3,293.6,150.3z"/>
		<path class="st3" d="M293.6,176.3h-11.4c-2.2,0-4.1,1.8-4.1,4.1c0,2.2,1.8,4.1,4.1,4.1h11.4c2.2,0,4.1-1.8,4.1-4.1
			C297.6,178.1,295.8,176.3,293.6,176.3z"/>
		<path class="st3" d="M293.6,202.2h-11.4c-2.2,0-4.1,1.8-4.1,4.1c0,2.2,1.8,4.1,4.1,4.1h11.4c2.2,0,4.1-1.8,4.1-4.1
			C297.6,204.1,295.8,202.2,293.6,202.2z"/>
		<path class="st3" d="M293.6,228.2h-11.4c-2.2,0-4.1,1.8-4.1,4.1c0,2.2,1.8,4.1,4.1,4.1h11.4c2.2,0,4.1-1.8,4.1-4.1
			C297.6,230,295.8,228.2,293.6,228.2z"/>
		<path class="st3" d="M293.6,254.2h-11.4c-2.2,0-4.1,1.8-4.1,4.1c0,2.2,1.8,4.1,4.1,4.1h11.4c2.2,0,4.1-1.8,4.1-4.1
			C297.6,256,295.8,254.2,293.6,254.2z"/>
		<path class="st3" d="M278.1,284.2c0,2.2,1.8,4.1,4.1,4.1h2.9c2.8-2.6,5.6-5.3,8.3-8.1h-11.2C279.9,280.2,278.1,282,278.1,284.2z"
			/>
		<path class="st6" d="M158.3,229.4l6.7,1.2c1.7,0.3,3,1.8,3,3.6v0c0-1.8-1.3-3.3-3-3.6l-41-7.4l-12.2-2.2L84.4,216
			c-1.7-0.3-3.3,0.6-4,2c-0.2,0.5-0.4,1-0.4,1.6v6.3v12.1v7.9v12.1v7.9v11.5v7.9v18.2c7.3,4.9,15,9.3,23,13v-21.3
			c0-10,7.4-18.3,17-19.7c0,0,0,0-0.1,0c0.2,0,0.4-0.1,0.7-0.1c0.2,0,0.4,0,0.5-0.1c0.6-0.1,1.2-0.1,1.8-0.1h2h0
			c2,0,3.9,0.3,5.6,0.8c8.3,2.4,14.3,10.1,14.3,19.1v34.3c4.6,0.8,9.3,1.4,14.1,1.8v-99.7C159.1,230.8,158.8,230,158.3,229.4z
			 M111,263.1c0,2.2-1.8,4-4,4c-2.2,0-4-1.8-4-4v-5.6c0-2.2,1.8-4,4-4c2.2,0,4,1.8,4,4V263.1z M111,241.8c0,2.2-1.8,4-4,4
			c-2.2,0-4-1.8-4-4v-5.6c0-2.2,1.8-4,4-4c2.2,0,4,1.8,4,4V241.8z M129.5,263.1c0,2.2-1.8,4-4,4c-2.2,0-4-1.8-4-4v-5.6
			c0-2.2,1.8-4,4-4c2.2,0,4,1.8,4,4V263.1z M129.5,241.8c0,2.2-1.8,4-4,4c-2.2,0-4-1.8-4-4v-5.6c0-2.2,1.8-4,4-4c2.2,0,4,1.8,4,4
			V241.8z M148,263.1c0,2.2-1.8,4-4,4c-2.2,0-4-1.8-4-4v-5.6c0-2.2,1.8-4,4-4c2.2,0,4,1.8,4,4V263.1z M148,241.8c0,2.2-1.8,4-4,4
			c-2.2,0-4-1.8-4-4v-5.6c0-2.2,1.8-4,4-4c2.2,0,4,1.8,4,4V241.8z"/>
		<path class="st7" d="M165,230.6l-6.7-1.2c0.5,0.6,0.8,1.4,0.8,2.3v99.7c3,0.2,5.9,0.4,8.9,0.5v-97.7
			C168,232.4,166.8,230.9,165,230.6z"/>
		<path class="st10" d="M130.7,276.2c8.3,2.4,14.3,10.1,14.3,19.1v34.3c0,0,0,0,0,0v-34.3C145,286.3,139,278.7,130.7,276.2z"/>
		<path class="st10" d="M120.1,275.7c-9.6,1.4-17,9.7-17,19.7v21.3c10.7,5,22,8.8,33.8,11.4v-32.7
			C136.9,285.4,129.6,277.2,120.1,275.7z"/>
		<path class="st10" d="M120.7,275.6c0.2,0,0.4,0,0.5-0.1C121,275.5,120.8,275.6,120.7,275.6z"/>
		<path class="st2" d="M130.7,276.2c-1.8-0.5-3.7-0.8-5.6-0.8h0h-2c-0.6,0-1.2,0-1.8,0.1c-0.2,0-0.4,0-0.5,0.1c-0.2,0-0.5,0-0.7,0.1
			c0,0,0,0,0.1,0c9.5,1.5,16.8,9.7,16.8,19.7v32.7c2.7,0.6,5.4,1.1,8.1,1.6v-34.3C145,286.3,139,278.7,130.7,276.2z"/>
		<path class="st11" d="M135.8,72.5c0.1-0.1,0.2-0.2,0.3-0.3C136,72.3,135.9,72.4,135.8,72.5z"/>
		<path class="st11" d="M165.2,100c0.8,0,1.6-0.1,2.4-0.3c0.1-0.5,0.2-1.1,0.2-1.6c0-3.5-2.3-6.8-5.7-7.9c-1.8-0.6-3.2,0-4.3-1.7
			c-0.8-1.2-0.6-3-1.1-4.3c-0.8-2-2-3.8-3.5-5.4c-3-3.1-7.2-4.8-11.5-4.8c-3.2,0-6.1,0.9-8.6,2.5c-1.1,2.2-1.8,4.7-1.8,7.4
			c0,1,0.1,2,0.3,3c-1.5-2.1-3.9-3.4-6.7-3.4c-4.6,0-8.3,3.7-8.3,8.3c0,4.6,3.7,8.3,8.3,8.3L165.2,100L165.2,100z"/>
		<path class="st11" d="M133.1,76.3c0.1-0.2,0.2-0.4,0.3-0.6C133.3,75.9,133.2,76.1,133.1,76.3z"/>
		<path class="st11" d="M133.8,75.1c0.1-0.2,0.2-0.3,0.3-0.5C134,74.8,133.9,74.9,133.8,75.1z"/>
		<path class="st11" d="M134.8,73.6c0.1-0.1,0.2-0.2,0.3-0.3C135,73.4,134.9,73.5,134.8,73.6z"/>
		<path class="st11" d="M139.6,69.6c0.1,0,0.1-0.1,0.2-0.1C139.7,69.6,139.6,69.6,139.6,69.6z"/>
		<path class="st11" d="M138.2,70.5c0.1-0.1,0.2-0.1,0.3-0.2C138.4,70.3,138.3,70.4,138.2,70.5z"/>
		<path class="st11" d="M144.1,67.9c0.1,0,0.1,0,0.2,0C144.2,67.9,144.2,67.9,144.1,67.9z"/>
		<path class="st11" d="M168.6,99.2c-0.1,0.1-0.2,0.1-0.3,0.1C168.4,99.3,168.5,99.3,168.6,99.2z"/>
		<path class="st11" d="M141,68.9c0.1,0,0.2-0.1,0.3-0.1C141.2,68.8,141.1,68.9,141,68.9z"/>
		<path class="st11" d="M167.9,99.5c-0.1,0-0.2,0.1-0.4,0.1C167.7,99.6,167.8,99.6,167.9,99.5z"/>
		<path class="st11" d="M142.4,68.4c0.1,0,0.2-0.1,0.3-0.1C142.6,68.3,142.5,68.4,142.4,68.4z"/>
		<path class="st11" d="M164,83.5c-0.1,0-0.3,0-0.4,0.1c0-2.3-0.6-4.6-1.5-6.6c0.9,2,1.5,4.2,1.5,6.6
			C163.7,83.5,163.9,83.5,164,83.5z"/>
		<path class="st11" d="M137.1,71.3c0,0,0.1-0.1,0.1-0.1C137.2,71.3,137.1,71.3,137.1,71.3z"/>
		<path class="st11" d="M171.7,96.9c-0.1,0.1-0.1,0.1-0.2,0.2C171.6,97,171.6,96.9,171.7,96.9z"/>
		<path class="st11" d="M171.2,97.4c-0.1,0.1-0.1,0.1-0.2,0.2C171.1,97.5,171.1,97.5,171.2,97.4z"/>
		<path class="st11" d="M170.6,98c0,0-0.1,0.1-0.1,0.1C170.5,98.1,170.5,98,170.6,98z"/>
		<path class="st11" d="M172.5,95.6C172.5,95.7,172.5,95.7,172.5,95.6C172.5,95.7,172.5,95.7,172.5,95.6z"/>
		<path class="st11" d="M172.1,96.3c0,0.1-0.1,0.1-0.1,0.2C172,96.4,172.1,96.3,172.1,96.3z"/>
		<path class="st11" d="M145.6,67.7c0.1,0,0.2,0,0.3,0C145.8,67.7,145.7,67.7,145.6,67.7z"/>
		<path class="st11" d="M172.9,94.8c0,0,0,0.1-0.1,0.1C172.9,94.9,172.9,94.8,172.9,94.8z"/>
		<path class="st11" d="M173.4,93.2c0,0.1,0,0.2-0.1,0.3C173.3,93.4,173.3,93.3,173.4,93.2z"/>
		<path class="st11" d="M173.5,92.5c0,0.1,0,0.2,0,0.2C173.5,92.6,173.5,92.5,173.5,92.5z"/>
		<path class="st11" d="M173.2,94c0,0.1,0,0.2-0.1,0.2C173.1,94.2,173.2,94.1,173.2,94z"/>
		<path class="st11" d="M173.5,91.7c0-0.9-0.2-1.8-0.4-2.6C173.4,89.9,173.5,90.8,173.5,91.7C173.5,91.7,173.5,91.7,173.5,91.7z"/>
		<path class="st11" d="M169.3,98.9c-0.1,0.1-0.2,0.1-0.3,0.2C169.1,99,169.2,99,169.3,98.9z"/>
		<path class="st11" d="M169.9,98.5c-0.1,0.1-0.2,0.1-0.2,0.2C169.7,98.6,169.8,98.6,169.9,98.5z"/>
		<path class="st12" d="M153.1,78.7c1.5,1.5,2.7,3.4,3.5,5.4c0.5,1.3,0.3,3.1,1.1,4.3c1.1,1.7,2.5,1.1,4.3,1.7
			c3.4,1.1,5.7,4.4,5.7,7.9c0,0.6-0.1,1.1-0.2,1.6c0,0,0,0,0,0c0,0,0,0,0,0c0.1,0,0.2-0.1,0.4-0.1c0.1,0,0.2-0.1,0.3-0.1
			c0.1,0,0.2-0.1,0.3-0.1c0.1-0.1,0.2-0.1,0.4-0.2c0.1-0.1,0.2-0.1,0.3-0.2c0.1-0.1,0.3-0.2,0.4-0.2c0.1-0.1,0.2-0.1,0.2-0.2
			c0.2-0.1,0.4-0.3,0.6-0.4c0,0,0.1-0.1,0.1-0.1c0.2-0.1,0.3-0.3,0.4-0.4c0.1-0.1,0.1-0.1,0.2-0.2c0.1-0.1,0.2-0.2,0.3-0.4
			c0.1-0.1,0.1-0.1,0.2-0.2c0.1-0.1,0.2-0.3,0.3-0.4c0-0.1,0.1-0.1,0.1-0.2c0.1-0.2,0.2-0.4,0.3-0.5c0,0,0-0.1,0.1-0.1
			c0.1-0.2,0.2-0.5,0.3-0.7c0,0,0-0.1,0.1-0.1c0.1-0.2,0.1-0.4,0.2-0.6c0-0.1,0-0.2,0.1-0.2c0-0.2,0.1-0.3,0.1-0.5
			c0-0.1,0-0.2,0.1-0.3c0-0.2,0.1-0.4,0.1-0.5c0-0.1,0-0.2,0-0.2c0-0.3,0-0.5,0-0.8c0,0,0,0,0,0c0-0.9-0.2-1.8-0.4-2.6
			c-1.1-3.3-4.2-5.7-7.9-5.7c-0.4,0-0.8,0-1.2,0.1c-0.1,0-0.3,0-0.4,0.1c0-2.3-0.6-4.6-1.5-6.6c-2.6-5.5-8.2-9.4-14.7-9.4
			c-0.5,0-1,0-1.5,0.1c-0.1,0-0.2,0-0.3,0c-0.4,0-0.9,0.1-1.3,0.2c-0.1,0-0.1,0-0.2,0c-0.5,0.1-1,0.2-1.4,0.4
			c-0.1,0-0.2,0.1-0.3,0.1c-0.4,0.1-0.8,0.3-1.1,0.4c-0.1,0-0.2,0.1-0.3,0.1c-0.4,0.2-0.9,0.4-1.3,0.6c-0.1,0-0.1,0.1-0.2,0.1
			c-0.4,0.2-0.7,0.4-1,0.6c-0.1,0.1-0.2,0.1-0.3,0.2c-0.3,0.2-0.7,0.5-1,0.7c0,0-0.1,0.1-0.1,0.1c-0.3,0.3-0.7,0.6-1,0.9
			c-0.1,0.1-0.2,0.2-0.3,0.3c-0.2,0.2-0.4,0.5-0.7,0.7c-0.1,0.1-0.2,0.2-0.3,0.3c-0.3,0.3-0.5,0.7-0.8,1c-0.1,0.2-0.2,0.3-0.3,0.5
			c-0.1,0.2-0.3,0.4-0.4,0.7c-0.1,0.2-0.2,0.4-0.3,0.6c0,0,0,0.1-0.1,0.1c0,0,0,0,0,0c2.5-1.6,5.4-2.5,8.6-2.5
			C145.9,73.9,150.1,75.7,153.1,78.7z"/>
		<path class="st11" d="M172.2,171.5c0.2,0,0.3-0.1,0.5-0.1C172.5,171.4,172.3,171.4,172.2,171.5z"/>
		<path class="st11" d="M171.5,171.7c0.1-0.1,0.3-0.1,0.5-0.2C171.8,171.6,171.6,171.7,171.5,171.7z"/>
		<path class="st11" d="M148.2,165.3c0-0.1,0.1-0.1,0.1-0.2C148.3,165.1,148.2,165.2,148.2,165.3z"/>
		<path class="st11" d="M147.5,166.4c0.1-0.1,0.1-0.3,0.2-0.4C147.7,166.1,147.6,166.3,147.5,166.4z"/>
		<path class="st11" d="M149.7,163.4c0.1-0.1,0.1-0.1,0.2-0.1C149.8,163.3,149.7,163.4,149.7,163.4z"/>
		<path class="st11" d="M169,173.7c0.1-0.2,0.3-0.4,0.5-0.6C169.3,173.3,169.1,173.5,169,173.7z"/>
		<path class="st11" d="M169.1,170.2c0,0.1,0,0.3,0,0.4C169.1,170.5,169.1,170.3,169.1,170.2z"/>
		<path class="st11" d="M169.1,172.4c0,0.1,0,0.2,0,0.3C169.1,172.6,169.1,172.5,169.1,172.4z"/>
		<path class="st11" d="M169.2,171.6c0-0.1,0-0.2,0-0.3c0,0.2,0,0.4,0,0.6C169.2,171.7,169.2,171.7,169.2,171.6z"/>
		<path class="st11" d="M159.9,160.3c0.1,0,0.1,0,0.2,0C160,160.4,160,160.4,159.9,160.3z"/>
		<path class="st11" d="M168.9,169.2c0,0.1,0,0.2,0.1,0.3C168.9,169.3,168.9,169.3,168.9,169.2z"/>
		<path class="st11" d="M170.2,172.5c0.1-0.1,0.3-0.2,0.4-0.3C170.4,172.3,170.3,172.4,170.2,172.5z"/>
		<path class="st11" d="M150.5,162.7c0.1-0.1,0.2-0.1,0.3-0.2C150.6,162.6,150.5,162.7,150.5,162.7z"/>
		<path class="st11" d="M172.9,171.3c0.2,0,0.5,0,0.7-0.1C173.4,171.3,173.1,171.3,172.9,171.3z"/>
		<path class="st11" d="M169.6,173c0.1-0.1,0.3-0.2,0.4-0.4C169.8,172.7,169.7,172.9,169.6,173z"/>
		<path class="st11" d="M152.2,161.5c0.1-0.1,0.2-0.1,0.4-0.2C152.5,161.4,152.3,161.5,152.2,161.5z"/>
		<path class="st11" d="M154.2,160.7c0.1,0,0.3-0.1,0.4-0.1C154.5,160.6,154.4,160.6,154.2,160.7z"/>
		<path class="st11" d="M153.2,161.1c0.1-0.1,0.3-0.1,0.4-0.2C153.5,161,153.3,161,153.2,161.1z"/>
		<path class="st11" d="M158.7,160.2c0.2,0,0.3,0,0.5,0C159,160.2,158.8,160.2,158.7,160.2z"/>
		<path class="st11" d="M151.3,162.1c0.1-0.1,0.2-0.1,0.3-0.2C151.5,162,151.4,162,151.3,162.1z"/>
		<path class="st11" d="M176.4,171.9c0.3,0.1,0.5,0.3,0.8,0.5C176.9,172.2,176.7,172.1,176.4,171.9z"/>
		<path class="st11" d="M157.7,160.1c-0.1,0-0.2,0-0.2,0c0.2,0,0.3,0,0.5,0C157.9,160.1,157.8,160.1,157.7,160.1z"/>
		<path class="st11" d="M156.4,160.2c0.2,0,0.3,0,0.5,0C156.7,160.2,156.5,160.2,156.4,160.2z"/>
		<path class="st11" d="M155.3,160.4c0.2,0,0.3-0.1,0.5-0.1C155.6,160.3,155.4,160.4,155.3,160.4z"/>
		<path class="st11" d="M179.6,177.4c0,0.2,0,0.5-0.1,0.7C179.5,177.9,179.5,177.7,179.6,177.4z"/>
		<path class="st11" d="M178.1,181.1c0.7-0.8,1.2-1.8,1.4-2.9C179.3,179.2,178.8,180.2,178.1,181.1z"/>
		<path class="st11" d="M179,174.7c0.1,0.3,0.2,0.5,0.3,0.8C179.2,175.2,179.1,174.9,179,174.7z"/>
		<path class="st11" d="M179.4,175.6c0.1,0.3,0.1,0.5,0.2,0.8C179.5,176.2,179.4,175.9,179.4,175.6z"/>
		<path class="st11" d="M179,174.6c-0.4-0.8-1-1.6-1.8-2.1C177.9,173,178.6,173.7,179,174.6z"/>
		<path class="st11" d="M179.6,177.2c0-0.2,0-0.4,0-0.6c0,0.3,0,0.5,0,0.7C179.6,177.2,179.6,177.2,179.6,177.2z"/>
		<path class="st11" d="M176.1,179.7c-0.5-0.7-1.3-1.2-2-1.6c-1.3-0.6-2.5-0.5-3.9-0.2c-0.8,0.2-1.6,0.3-2.4,0.2
			c-1.3-0.1-2.6-0.7-3.3-1.8c-1.4-2.2-0.1-5.2-1.6-7.5c-1.3-1.9-3.9-3.1-6.1-3.5c-4-0.6-7.6,0.8-10.1,3.4c-0.2,0.8-0.3,1.6-0.3,2.5
			c-0.4-0.1-0.7-0.1-1.1-0.1c-3.2,0-5.9,2.6-5.9,5.9c0,3.2,2.6,5.9,5.9,5.9h28.6c1.2,0,2.2-0.3,3.1-0.9
			C177.3,181.8,176.3,180,176.1,179.7z"/>
		<path class="st11" d="M178.1,181.1c-0.2,0.2-0.4,0.4-0.6,0.6C177.7,181.5,177.9,181.3,178.1,181.1z"/>
		<path class="st11" d="M173.7,171.3C173.7,171.3,173.7,171.3,173.7,171.3c0.2,0,0.5,0,0.7,0.1C174.2,171.3,173.9,171.3,173.7,171.3
			z"/>
		<path class="st11" d="M147,167.5c0.1-0.2,0.1-0.4,0.2-0.6C147.2,167.1,147.1,167.3,147,167.5z"/>
		<path class="st11" d="M174.6,171.4c0.3,0,0.6,0.1,0.9,0.2C175.2,171.5,174.9,171.4,174.6,171.4z"/>
		<path class="st11" d="M146.7,168.6c0.1-0.2,0.1-0.4,0.2-0.7C146.8,168.1,146.7,168.4,146.7,168.6z"/>
		<path class="st11" d="M177.5,181.6c-0.2,0.2-0.4,0.3-0.6,0.4C177.1,182,177.3,181.8,177.5,181.6z"/>
		<path class="st11" d="M175.5,171.6c0.3,0.1,0.5,0.2,0.8,0.3C176,171.8,175.8,171.7,175.5,171.6z"/>
		<path class="st11" d="M170.8,172.1c0.1-0.1,0.3-0.2,0.4-0.2C171.1,171.9,170.9,172,170.8,172.1z"/>
		<path class="st12" d="M179.5,178.1c0-0.2,0.1-0.5,0.1-0.7c0,0,0-0.1,0-0.1c0-0.2,0-0.5,0-0.7c0,0,0,0,0,0c0,0,0-0.1,0-0.1
			c0-0.3-0.1-0.5-0.2-0.8c0,0,0-0.1,0-0.1c-0.1-0.3-0.2-0.5-0.3-0.8c0,0,0-0.1,0-0.1c-0.4-0.8-1-1.6-1.8-2.1c0,0,0,0,0,0
			c-0.2-0.2-0.5-0.3-0.8-0.5c0,0-0.1,0-0.1,0c-0.3-0.1-0.5-0.2-0.8-0.3c0,0,0,0,0,0c-0.3-0.1-0.6-0.1-0.9-0.2c0,0-0.1,0-0.1,0
			c0,0,0,0-0.1,0c-0.3,0-0.5-0.1-0.8,0c0,0,0,0-0.1,0c-0.2,0-0.5,0-0.7,0.1c-0.1,0-0.2,0-0.2,0c-0.2,0-0.3,0.1-0.5,0.1
			c-0.1,0-0.2,0.1-0.3,0.1c-0.2,0-0.3,0.1-0.5,0.2c-0.1,0-0.2,0.1-0.2,0.1c-0.1,0.1-0.3,0.1-0.4,0.2c-0.1,0-0.2,0.1-0.2,0.1
			c-0.1,0.1-0.3,0.2-0.4,0.3c-0.1,0-0.1,0.1-0.2,0.1c-0.1,0.1-0.3,0.2-0.4,0.4c0,0-0.1,0.1-0.1,0.1c-0.2,0.2-0.3,0.4-0.5,0.6
			c0.1-0.3,0.1-0.6,0.1-0.9c0-0.1,0-0.2,0-0.3c0-0.1,0-0.3,0-0.4c0-0.1,0-0.1,0-0.2c0-0.2,0-0.4,0-0.6c0-0.2,0-0.4,0-0.6
			c0-0.2,0-0.3,0-0.4c0-0.3-0.1-0.5-0.1-0.7c0-0.1,0-0.2-0.1-0.3c-0.9-4.4-4.3-7.8-8.8-8.8c-0.1,0-0.1,0-0.2,0
			c-0.1,0-0.3-0.1-0.4-0.1c-0.1,0-0.2,0-0.4,0c-0.2,0-0.3,0-0.5,0c-0.2,0-0.4,0-0.7,0c-0.2,0-0.3,0-0.5,0c-0.2,0-0.4,0-0.6,0
			c-0.2,0-0.3,0-0.5,0c-0.2,0-0.4,0.1-0.6,0.1c-0.2,0-0.3,0.1-0.5,0.1c-0.2,0-0.4,0.1-0.6,0.2c-0.1,0-0.3,0.1-0.4,0.1
			c-0.2,0.1-0.4,0.1-0.6,0.2c-0.1,0.1-0.3,0.1-0.4,0.2c-0.2,0.1-0.4,0.2-0.6,0.3c-0.1,0.1-0.2,0.1-0.4,0.2c-0.2,0.1-0.4,0.2-0.6,0.4
			c-0.1,0.1-0.2,0.1-0.3,0.2c-0.2,0.1-0.4,0.3-0.6,0.4c-0.1,0.1-0.2,0.1-0.3,0.2c-0.2,0.2-0.4,0.4-0.6,0.6c-0.1,0.1-0.1,0.1-0.2,0.1
			c-0.5,0.5-1,1.1-1.4,1.6c0,0.1-0.1,0.1-0.1,0.2c-0.2,0.2-0.3,0.5-0.4,0.7c-0.1,0.1-0.1,0.3-0.2,0.4c-0.1,0.2-0.2,0.3-0.3,0.5
			c-0.1,0.2-0.1,0.4-0.2,0.6c-0.1,0.1-0.1,0.3-0.2,0.4c-0.1,0.2-0.1,0.4-0.2,0.7c0,0.1-0.1,0.2-0.1,0.3c0,0,0,0,0,0
			c2.5-2.6,6.1-4,10.1-3.4c2.2,0.3,4.8,1.5,6.1,3.5c1.5,2.2,0.2,5.2,1.6,7.5c0.7,1.1,2,1.7,3.3,1.8c0.8,0.1,1.6-0.1,2.4-0.2
			c1.4-0.3,2.6-0.4,3.9,0.2c0.8,0.4,1.5,0.9,2,1.6c0.2,0.3,1.2,2.1,0.7,2.4c0,0,0,0,0,0c0,0,0,0,0.1,0c0.2-0.1,0.4-0.3,0.6-0.4
			c0,0,0,0,0,0c0.2-0.2,0.4-0.4,0.6-0.6c0,0,0,0,0,0C178.8,180.2,179.3,179.2,179.5,178.1C179.5,178.2,179.5,178.1,179.5,178.1z"/>
		<path class="st4" d="M261.8,192.2h-5.1h0H245h-47.3h-5.1c-1.5,0-2.7,1.2-2.7,2.7v136.2c8.5-0.9,16.8-2.4,24.9-4.5V307
			c0-1.5,1.2-2.7,2.7-2.7h12.2h9.7h0c1.5,0,2.7,1.2,2.7,2.7v9.9c7.8-3.6,15.3-7.8,22.4-12.5V195
			C264.5,193.5,263.3,192.2,261.8,192.2z M214,288.1c0,2.2-1.8,4-4,4c-2.2,0-4-1.8-4-4v-8.9c0-2.2,1.8-4,4-4c2.2,0,4,1.8,4,4V288.1z
			 M214,263.5c0,2.2-1.8,4-4,4c-2.2,0-4-1.8-4-4v-8.9c0-2.2,1.8-4,4-4c2.2,0,4,1.8,4,4V263.5z M214,239.3c0,2.2-1.8,4-4,4
			c-2.2,0-4-1.8-4-4v-8.9c0-2.2,1.8-4,4-4c2.2,0,4,1.8,4,4V239.3z M214,214.6c0,2.2-1.8,4-4,4c-2.2,0-4-1.8-4-4v-8.9
			c0-2.2,1.8-4,4-4c2.2,0,4,1.8,4,4V214.6z M229.7,288.1c0,2.2-1.8,4-4,4c-2.2,0-4-1.8-4-4v-8.9c0-2.2,1.8-4,4-4c2.2,0,4,1.8,4,4
			V288.1z M229.7,263.5c0,2.2-1.8,4-4,4c-2.2,0-4-1.8-4-4v-8.9c0-2.2,1.8-4,4-4c2.2,0,4,1.8,4,4V263.5z M229.7,239.3
			c0,2.2-1.8,4-4,4c-2.2,0-4-1.8-4-4v-8.9c0-2.2,1.8-4,4-4c2.2,0,4,1.8,4,4V239.3z M229.7,214.6c0,2.2-1.8,4-4,4c-2.2,0-4-1.8-4-4
			v-8.9c0-2.2,1.8-4,4-4c2.2,0,4,1.8,4,4V214.6z M245.6,288.1c0,2.2-1.8,4-4,4s-4-1.8-4-4v-8.9c0-2.2,1.8-4,4-4s4,1.8,4,4V288.1z
			 M245.6,263.5c0,2.2-1.8,4-4,4s-4-1.8-4-4v-8.9c0-2.2,1.8-4,4-4s4,1.8,4,4V263.5z M245.6,239.3c0,2.2-1.8,4-4,4s-4-1.8-4-4v-8.9
			c0-2.2,1.8-4,4-4s4,1.8,4,4V239.3z M245.6,214.6c0,2.2-1.8,4-4,4s-4-1.8-4-4v-8.9c0-2.2,1.8-4,4-4s4,1.8,4,4V214.6z"/>
		<path class="st13" d="M229.7,304.3h-12.2c-1.5,0-2.7,1.2-2.7,2.7v19.7c6-1.6,11.9-3.5,17.6-5.7v-14
			C232.4,305.5,231.2,304.3,229.7,304.3z"/>
		<path class="st14" d="M239.5,304.3L239.5,304.3h-9.7c1.5,0,2.7,1.2,2.7,2.7v14c3.3-1.3,6.5-2.6,9.7-4.1V307
			C242.2,305.5,241,304.3,239.5,304.3z"/>
		<path class="st4" d="M245.7,119c0-0.8-0.2-1.6-0.7-2.2c-0.7-1.1-1.9-1.7-3.3-1.7c-2.2,0-4,1.8-4,4v6.7c0,2.2,1.8,4,4,4
			c1.4,0,2.6-0.7,3.3-1.7c0.4-0.6,0.7-1.4,0.7-2.2V119z"/>
		<path class="st4" d="M245.7,141.6c0-0.8-0.2-1.6-0.7-2.2c-0.7-1.1-1.9-1.7-3.3-1.7c-2.2,0-4,1.8-4,4v6.7c0,2.2,1.8,4,4,4
			c1.4,0,2.6-0.7,3.3-1.7c0.4-0.6,0.7-1.4,0.7-2.2V141.6z"/>
		<path class="st4" d="M245.7,164.1c0-0.8-0.2-1.6-0.7-2.2c-0.7-1.1-1.9-1.7-3.3-1.7c-2.2,0-4,1.8-4,4v6.7c0,2.2,1.8,4,4,4
			c1.4,0,2.6-0.7,3.3-1.7c0.4-0.6,0.7-1.4,0.7-2.2V164.1z"/>
		<path class="st4" d="M225.8,115c-2.2,0-4,1.8-4,4v6.7c0,2.2,1.8,4,4,4c2.2,0,4-1.8,4-4V119C229.8,116.8,228,115,225.8,115z"/>
		<path class="st4" d="M225.8,137.6c-2.2,0-4,1.8-4,4v6.7c0,2.2,1.8,4,4,4c2.2,0,4-1.8,4-4v-6.7C229.8,139.4,228,137.6,225.8,137.6z
			"/>
		<path class="st4" d="M225.8,160.2c-2.2,0-4,1.8-4,4v6.7c0,2.2,1.8,4,4,4c2.2,0,4-1.8,4-4v-6.7C229.8,161.9,228,160.2,225.8,160.2z
			"/>
		<path class="st4" d="M209.9,115c-2.2,0-4,1.8-4,4v6.7c0,2.2,1.8,4,4,4c2.2,0,4-1.8,4-4V119C213.9,116.8,212.1,115,209.9,115z"/>
		<path class="st4" d="M209.9,137.6c-2.2,0-4,1.8-4,4v6.7c0,2.2,1.8,4,4,4c2.2,0,4-1.8,4-4v-6.7
			C213.9,139.4,212.1,137.6,209.9,137.6z"/>
		<path class="st4" d="M209.9,160.2c-2.2,0-4,1.8-4,4v6.7c0,2.2,1.8,4,4,4c2.2,0,4-1.8,4-4v-6.7
			C213.9,161.9,212.1,160.2,209.9,160.2z"/>
		<path class="st3" d="M241.7,201.8c-2.2,0-4,1.8-4,4v8.9c0,2.2,1.8,4,4,4s4-1.8,4-4v-8.9C245.6,203.6,243.8,201.8,241.7,201.8z"/>
		<path class="st3" d="M241.7,226.5c-2.2,0-4,1.8-4,4v8.9c0,2.2,1.8,4,4,4s4-1.8,4-4v-8.9C245.6,228.3,243.8,226.5,241.7,226.5z"/>
		<path class="st3" d="M241.7,250.7c-2.2,0-4,1.8-4,4v8.9c0,2.2,1.8,4,4,4s4-1.8,4-4v-8.9C245.6,252.5,243.8,250.7,241.7,250.7z"/>
		<path class="st3" d="M241.7,275.3c-2.2,0-4,1.8-4,4v8.9c0,2.2,1.8,4,4,4s4-1.8,4-4v-8.9C245.6,277.1,243.8,275.3,241.7,275.3z"/>
		<path class="st3" d="M225.8,201.8c-2.2,0-4,1.8-4,4v8.9c0,2.2,1.8,4,4,4c2.2,0,4-1.8,4-4v-8.9
			C229.7,203.6,227.9,201.8,225.8,201.8z"/>
		<path class="st3" d="M225.8,226.5c-2.2,0-4,1.8-4,4v8.9c0,2.2,1.8,4,4,4c2.2,0,4-1.8,4-4v-8.9
			C229.7,228.3,227.9,226.5,225.8,226.5z"/>
		<path class="st3" d="M225.8,250.7c-2.2,0-4,1.8-4,4v8.9c0,2.2,1.8,4,4,4c2.2,0,4-1.8,4-4v-8.9
			C229.7,252.5,227.9,250.7,225.8,250.7z"/>
		<path class="st3" d="M225.8,275.3c-2.2,0-4,1.8-4,4v8.9c0,2.2,1.8,4,4,4c2.2,0,4-1.8,4-4v-8.9
			C229.7,277.1,227.9,275.3,225.8,275.3z"/>
		<path class="st3" d="M210,201.8c-2.2,0-4,1.8-4,4v8.9c0,2.2,1.8,4,4,4c2.2,0,4-1.8,4-4v-8.9C214,203.6,212.2,201.8,210,201.8z"/>
		<path class="st3" d="M210,226.5c-2.2,0-4,1.8-4,4v8.9c0,2.2,1.8,4,4,4c2.2,0,4-1.8,4-4v-8.9C214,228.3,212.2,226.5,210,226.5z"/>
		<path class="st3" d="M210,250.7c-2.2,0-4,1.8-4,4v8.9c0,2.2,1.8,4,4,4c2.2,0,4-1.8,4-4v-8.9C214,252.5,212.2,250.7,210,250.7z"/>
		<path class="st3" d="M210,275.3c-2.2,0-4,1.8-4,4v8.9c0,2.2,1.8,4,4,4c2.2,0,4-1.8,4-4v-8.9C214,277.1,212.2,275.3,210,275.3z"/>
		<path class="st2" d="M107.1,232.3c-2.2,0-4,1.8-4,4v5.6c0,2.2,1.8,4,4,4c2.2,0,4-1.8,4-4v-5.6C111,234,109.3,232.3,107.1,232.3z"
			/>
		<path class="st2" d="M125.6,232.3c-2.2,0-4,1.8-4,4v5.6c0,2.2,1.8,4,4,4c2.2,0,4-1.8,4-4v-5.6C129.5,234,127.8,232.3,125.6,232.3z
			"/>
		<path class="st2" d="M144.1,232.3c-2.2,0-4,1.8-4,4v5.6c0,2.2,1.8,4,4,4c2.2,0,4-1.8,4-4v-5.6C148,234,146.3,232.3,144.1,232.3z"
			/>
		<path class="st2" d="M107.1,253.6c-2.2,0-4,1.8-4,4v5.6c0,2.2,1.8,4,4,4c2.2,0,4-1.8,4-4v-5.6C111,255.4,109.3,253.6,107.1,253.6z
			"/>
		<path class="st2" d="M125.6,253.6c-2.2,0-4,1.8-4,4v5.6c0,2.2,1.8,4,4,4c2.2,0,4-1.8,4-4v-5.6
			C129.5,255.4,127.8,253.6,125.6,253.6z"/>
		<path class="st2" d="M144.1,253.6c-2.2,0-4,1.8-4,4v5.6c0,2.2,1.8,4,4,4c2.2,0,4-1.8,4-4v-5.6C148,255.4,146.3,253.6,144.1,253.6z
			"/>
		<path class="st2" d="M111.8,158.4c-0.7-1-1.9-1.6-3.2-1.6h-6c-2.2,0-4,1.8-4,4c0,2.2,1.8,4,4,4h6c1.3,0,2.5-0.7,3.2-1.6
			c0.5-0.6,0.8-1.4,0.8-2.3S112.3,159.1,111.8,158.4z"/>
		<path class="st2" d="M111.8,178.5c-0.7-1-1.9-1.6-3.2-1.6h-6c-2.2,0-4,1.8-4,4c0,2.2,1.8,4,4,4h6c1.3,0,2.5-0.7,3.2-1.6
			c0.5-0.6,0.8-1.4,0.8-2.3S112.3,179.1,111.8,178.5z"/>
		<path class="st2" d="M111.8,198.5c-0.7-1-1.9-1.6-3.2-1.6h-6c-2.2,0-4,1.8-4,4c0,2.2,1.8,4,4,4h6c1.3,0,2.5-0.7,3.2-1.6
			c0.5-0.6,0.8-1.4,0.8-2.3S112.3,199.1,111.8,198.5z"/>
	</g>
	<g>
		<g>
			<path class="st15" d="M262.5,264.7l1.5-9.9c-0.7,2.9-1.3,6-2.2,9.2L262.5,264.7z"/>
			<path class="st15" d="M324.4,226.2c-3.2-1.3-3.8-5.1-7.6-6.3c-3.1-1.5-8.2-2.7-10-3c-1.2,3-2,4.3-2,4.3s-2.5,10.1-1.3,14.5
				c0.6,2,2.6,13.2,5.2,25.7c6-8.6,11.3-17.7,15.6-27.4C324,229.8,327.5,228,324.4,226.2z"/>
			<path class="st15" d="M238.1,132.5c0,0,0.8,0.5,1.8,1.7c-0.7-1.6-1.3-2.6-1.6-2.9L238.1,132.5z"/>
			<path class="st15" d="M199.4,305.1c-4.4-17.1-22.1-58.1-22.1-58.1s-0.4-1.3-1.2-3.6c-3.3,6.8-9.8,25.9-11.5,27
				c-1.3,1.3-1.9,2.5-3.8,8.8c-1.3,6.3-6.3,11.4-10.7,17.1c-4.4,5.7-18.3,12-24,11.4c-5.7-0.6-27.2-6.9-34.1-12.6
				c-3.5-2.9-5.4-5.6-6.5-7.6c-0.8-0.7-1.4-1.5-1.8-2.5c-0.6-2.9,0.8-11.9,5.4-20.6l-2.3-4c0,0-4.4-5.1-4.4-7.6c0,0-2.8-2.5-5.3-5.7
				c-0.1,0-0.2,0-0.2,0c0,0-0.1,0-0.1,0c0,0,0.1,0,0.1,0c0.1,0,0.2,0,0.2,0c-0.2-0.2-0.4-0.4-0.5-0.7c-0.2,0-0.3,0.1-0.5,0.1
				c-1.9-1.9-3.2-3.8-3.8-5.7c-1.9-5.1-8.8-12-8.2-17.1c0,0-4.4-4.4-3.8-8.2c0.6-3.8,4.4-4.4,4.4-4.4s-0.6-4.4,1.3-6.9
				c0.4-0.5,0.7-1,1-1.6l-7.5-26.6c-1.6-5.5,1.7-11.3,7.2-12.9l18.7-5.3c5.5-1.6,11.3,1.7,12.9,7.2l13.9,48.9
				c1.6,5.5-1.7,11.3-7.2,12.9l-0.6,0.2c-0.5,3.7-1.7,6.3-1.7,6.3v1.9l6.7,11.6c1.3-0.4,2.6-0.6,4-0.8l7.6,5.7c0,0,2.5-7.6,5.7-13.3
				c2.5-5.7,8.8-11.4,8.8-13.3c0-1.9,0.6-5.7,2.5-10.1c2.5-4.4,3.8-6.9,4.4-13.3c0.6-6.9,3.8-20.2,3.8-20.2s1.3-3.2,4.4-0.6
				c0,0,7.3-8.7,15.1-15.2l-0.3-0.3l2-1.2c3.4-2.6,6.7-4.7,9.6-5.5l5.6-3.2c-3.1-5.5-5.8-11.5-7.5-15.8c-1.9-3.8-3.2-8.2-3.8-12.6
				c0-1.3,0-2.5,0-2.5c0-3.2-1.9-11.4-1.9-13.3c0-1.4-0.3-10.4-0.5-15c-2.5,4.3-0.1,9.9-0.1,9.9c-11.4-1.9-17.7-8.8-21.5-12.6
				c-1.3-1.9-0.6-4.4,1.3-5.7c2.5-1.3,5.1-2.5,5.1-2.5c6.1-2.9,13-4.6,21.9-5.8l6.4-22.1c0,0,0.6-6.9,11.4-8.8
				c10.7-1.9,30.3-3.8,52.4,12.6c0,0,3.8,3.2,3.2,12v15.6c3,2,5.4,3.7,7.1,4.7c6.3,3.8,13.9,18.9,7.6,27.8
				c-6.3,8.8-21.5,8.2-21.5,8.2c0.1-0.3,0.2-0.6,0.3-0.9c-0.5,0.2-1.1,0.3-1.6,0.3c-0.8,0-1.6-0.2-2.3-0.6l-0.4,2.8
				c1.7,0.3,3.4,1.9,4.9,4.1l37.8,8.3l0-0.1c0,0,5.3,0.9,11.5,2.6l0,0l0,0c8.5,2.3,18.8,6.2,19.9,11.3c0.5,2.2,0.8,5.7,0.9,9.9
				c0.7,0.8,1.8,2.1,3.5,4c2,2.4,13,8.2,21,13.3c0.7-6.1,1-12.3,1-18.5c0-91.7-74.3-166-166-166S6.9,74.3,6.9,166s74.3,166,166,166
				c9.5,0,18.8-0.8,27.9-2.3C201.5,323.8,201.9,314.9,199.4,305.1z"/>
			<path class="st16" d="M113.5,245.7c-1.4,0.2-2.7,0.5-4,0.8l5.3,9.1C114.5,250,113.5,245.7,113.5,245.7z"/>
			<path class="st16" d="M100.3,283.8l-11.1-19.5c-4.6,8.7-6.1,17.8-5.4,20.6c0.3,1,1,1.8,1.8,2.5c-1-1.9-1.1-3.1-1.1-3.1
				C87.9,288.8,92.6,288.9,100.3,283.8z"/>
			<path class="st17" d="M76.6,246.3c0.2,0.2,0.4,0.5,0.5,0.7c0.3-0.1,0.6-0.3,1.4-1.1C77.9,246.1,77.3,246.2,76.6,246.3z"/>
			<path class="st17" d="M90.7,235c0,0,0,0.1-0.1,0.1c0.1,0,0.2,0,0.3-0.1C90.9,235.1,90.8,235,90.7,235z"/>
			<path class="st17" d="M84.4,242.9c-0.1,0.1-0.2,0.2-0.3,0.3C84.2,243.1,84.3,243,84.4,242.9z"/>
			<path class="st17" d="M85.7,242l0.6-0.6l0.6-0.6l0.6-0.6c0.4-0.4,0.5-0.7,0.7-1.1c-0.9,1.2-2.1,2.5-3.6,3.7
				c0.1,0,0.2-0.1,0.3-0.1c0,0,0,0,0,0l0,0L85.7,242z"/>
			<path class="st17" d="M107.1,278.6c6.8-5.7,7.9-15.5,7.6-22.9l-5.3-9.1l-6.7-11.6v-1.9c0,0,1.3-2.6,1.7-6.3l-4.3,1.2
				c0,0.5,0,1,0,1.3c0,0.6,0,0.6,0,1.3v0.6v0.6v0.6c0,0,0,0,0,0.6c0,0,0,0,0,0.6c0,0,0,0-0.6,0c0,0,0,0-0.6,0c0,0,0,0,0,0
				c-0.3,0.6-0.7,1-1.2,1.3c0,0-2.3,1.7-3.6,0.2l-0.8,0.4h-0.2c-0.4,0.2-0.8,0.5-1.1,0.6c1.9,0,3.2,0,5.1,0
				c-1.3,1.3-2.5,0.6-3.8,1.3c-0.6,0-1.3,1.3-1.3,1.9c-0.3,0.3-0.3,0.8-0.2,1.2c0.2,0.4,0.2,0.9,0.2,1.3c0-0.3-0.2-0.8-0.2-1.3
				c-0.3-0.8-0.8-1.4-1.7-1.8c0,0,0,0,0,0l-0.6,0.6l-0.6,0.6l-0.6,0.6l-0.6,0.6c-0.6,0-0.6,0.6-1.3,0.6c-0.6,0-0.6,0.6-1.3,0.6
				l-0.6,0.6l-0.6,0.6l-0.6,0.6c-0.6,0-0.6,0.6-1.3,0.6s-0.6,0.6-1.3,0.6c-0.6,0-0.6,0.6-1.3,0.6h-0.6h-0.6
				c-0.5,0.5-0.6,0.6-0.9,0.6c2.5,3.1,5.3,5.7,5.3,5.7c0,2.5,4.4,7.6,4.4,7.6l2.3,4l11.1,19.5C102.4,282.4,104.6,280.7,107.1,278.6z
				"/>
			<path class="st17" d="M235.8,133c-0.4,9.8-2.1,19.9-7.4,26.8c-2.7,3.6-5.1,7.2-7.2,9.9l10.3-1.6c0.9-1.2,4.8-6.3,8.6-16.8
				c1.9-5.2,1.8-9.7,1.1-13.1l-0.5-1.8c-0.3-0.8-0.5-1.6-0.8-2.2c-1-1.2-1.8-1.7-1.8-1.7l0.2-1.2c-0.1-0.1-0.1-0.1-0.1-0.1
				c0,0,0.1,0,0.1,0l0.4-2.8c-0.3-0.2-0.7-0.4-1-0.6C237.1,129.5,236.5,131.3,235.8,133z"/>
			<path class="st18" d="M235.8,133c-2.6,7.3-5,13.6-6.2,15.4c-2.4,3.2-10.7,12-19.4,17.3c3,1.2,6.4,2.5,10.2,3.9
				c0,0-0.1,0.1-0.3,0.3l1-0.2c2.2-2.7,4.5-6.3,7.2-9.9C233.8,153,235.4,142.8,235.8,133z"/>
			<path class="st19" d="M206.3,199.6l55.6,64.3c0.9-3.2,1.4-6.3,2.2-9.2l17-111.2l-37.8-8.3c2.3,3.4,3.9,8,3.9,11.1
				c0,5.1,10.1,31.6,10.1,31.6s-8.8-1.3-13.3-6.9c-4.4-5.1-12.6-2.5-12.6-2.5s0.1-0.1,0.2-0.3l-10.3,1.6l-1,0.2
				c-1.3,1.2-6,5.9-6,9.2c0,4.4,1.9,13.3,0,19.6l-25.3-29.1l1.3-3.9c-2.6-2.6-5.2-6.4-7.4-10.3l-5.6,3.2c0,0,0,0,0,0L206.3,199.6z"
				/>
			<path class="st19" d="M165.6,165.2l0.3,0.3c0.6-0.5,1.2-1,1.8-1.4L165.6,165.2z"/>
			<path class="st19" d="M292.5,146L292.5,146C292.5,146,292.5,146,292.5,146L292.5,146z"/>
			<path class="st19" d="M241.2,138.2c-0.1-0.7-0.3-1.3-0.5-1.8L241.2,138.2z"/>
			<path class="st20" d="M238.3,131.3c0.2,0.3,0.9,1.3,1.6,2.9c0.3,0.6,0.6,1.4,0.8,2.2c0.2,0.6,0.3,1.2,0.5,1.8
				c0.7,3.4,0.8,7.9-1.1,13.1c-3.9,10.5-7.7,15.6-8.6,16.8c-0.1,0.2-0.2,0.3-0.2,0.3s8.2-2.5,12.6,2.5c4.4,5.7,13.3,6.9,13.3,6.9
				S247,151.4,247,146.3c0-3.1-1.6-7.7-3.9-11.1C241.7,133.1,240,131.5,238.3,131.3c0-0.1-0.1-0.1-0.1-0.1
				C238.2,131.1,238.2,131.2,238.3,131.3z"/>
			<path class="st20" d="M210.3,165.8c-5.2,3.1-10.5,5-14.7,3.6c-1.8-0.6-3.6-1.8-5.3-3.6l-1.3,3.9l25.3,29.1c1.9-6.3,0-15.2,0-19.6
				c0-3.3,4.8-8,6-9.2c0.2-0.2,0.3-0.3,0.3-0.3C216.7,168.3,213.3,167,210.3,165.8z"/>
			<path class="st21" d="M146.3,181.3c0,0-3.2,13.3-3.8,20.2c-0.6,6.3-1.9,8.8-4.4,13.3c-1.9,4.4-2.5,8.2-2.5,10.1
				c0,1.9-6.3,7.6-8.8,13.3c-3.2,5.7-5.7,13.3-5.7,13.3l-7.6-5.7c0,0,1.1,4.3,1.3,9.9c0.3,7.4-0.8,17.2-7.6,22.9
				c-2.5,2.1-4.7,3.8-6.8,5.2c-7.7,5.1-12.4,5-15.9,0.5c0,0,0.2,1.2,1.1,3.1c1,2,2.9,4.7,6.5,7.6c6.9,5.7,28.4,12,34.1,12.6
				c5.7,0.6,19.6-5.7,24-11.4c4.4-5.7,9.5-10.7,10.7-17.1c1.9-6.3,2.5-7.6,3.8-8.8c1.7-1.1,8.2-20.2,11.5-27
				c-3.8-11.7-16.2-48.4-25.4-62.7C147.6,178.2,146.3,181.3,146.3,181.3z M139.9,282.5c-0.2-3.8-0.9-9.4-3.1-14.7
				c-3.2-7.6-13.9-15.8-13.9-15.8s0-1.3,0.6-2.5c2.5,1.9,10.7,8.8,13.9,16.4C139.9,271.7,140,278.5,139.9,282.5
				c0.1,1.6,0.1,2.9,0.1,3.6C139.8,286.2,139.9,284.8,139.9,282.5z M145.7,291.8c0,0-3-19.5-8.9-28.2c-0.4-0.5-0.6-0.8-0.6-0.8
				c0.2,0.3,0.4,0.6,0.6,0.8C139.3,266.7,148.4,277.6,145.7,291.8z"/>
			<path class="st21" d="M316.8,171.2c-1.6-2-2.8-3.3-3.5-4c0.5,12.4-0.5,30.7-2.8,38.8c-1.4,4.9-2.7,8.4-3.7,10.9
				c1.9,0.4,7,1.5,10,3c3.8,1.3,4.4,5.1,7.6,6.3c3.1,1.8-0.4,3.7,0,7.8c6.9-15.4,11.5-32,13.5-49.4
				C329.8,179.4,318.8,173.6,316.8,171.2z"/>
			<path class="st16" d="M304.8,221.1c0,0,0.8-1.3,2-4.3c1-2.4,2.3-6,3.7-10.9c2.4-8,3.3-26.4,2.8-38.8c-0.2-4.2-0.5-7.6-0.9-9.9
				c-1.1-5.1-11.4-8.9-19.9-11.3c0,0,0,0,0,0c-6.2-1.7-11.5-2.6-11.5-2.6l0,0.1l-17,111.2l-1.5,9.9l-0.6-0.8l-55.6-64.3l-29.1-41.1
				c0,0,0,0,0,0c-2.9,0.7-6.2,2.8-9.6,5.5c-0.6,0.5-1.2,0.9-1.8,1.4c-7.8,6.5-15.1,15.2-15.1,15.2c9.1,14.3,21.5,51,25.4,62.7
				c0.8,2.3,1.2,3.6,1.2,3.6s17.7,41.1,22.1,58.1c2.5,9.8,2.2,18.7,1.4,24.5c44.6-7.5,83.1-32.8,108-68.3
				c-2.6-12.6-4.6-23.7-5.2-25.7C302.3,231.2,304.8,221.1,304.8,221.1z"/>
			<path class="st17" d="M244.8,111.8l-2,0.9c-1.4,4.2-3.2,9.6-5.1,15c0.3,0.2,0.6,0.5,1,0.6c0.7,0.4,1.5,0.6,2.3,0.6
				c0.5,0,1.1-0.1,1.6-0.3C245.1,122,245.7,116.5,244.8,111.8z"/>
			<path class="st22" d="M249.1,88.8V73.2c0.6-8.8-3.2-12-3.2-12c-22.1-16.4-41.7-14.5-52.4-12.6c-10.7,1.9-11.4,8.8-11.4,8.8
				l-6.4,22.1c8.6-1.1,19-1.8,32.4-2.4C228,76.7,241,83.5,249.1,88.8z"/>
			<path class="st17" d="M190.2,165.8c1.7,1.7,3.5,3,5.3,3.6c4.2,1.4,9.6-0.4,14.7-3.6c8.7-5.3,17-14.1,19.4-17.3
				c1.2-1.8,3.6-8.2,6.2-15.4c0.6-1.7,1.3-3.5,1.9-5.3c1.9-5.4,3.7-10.8,5.1-15l-8.8,4.2h-3.8c0,0-0.6-8.2-3.2-12.6
				c-3.2-4.4-14.5,0-14.5-5.1c0-2.6-2.6-5.9-5-8.5c-10.1-0.6-20.9-0.1-29.1,0.9c-5.3,0.4-8,2.3-9.4,4.6c0.2,4.6,0.5,13.6,0.5,15
				c0,1.9,1.9,10.1,1.9,13.3c0,0,0,1.3,0,2.5c0.6,4.4,1.9,8.8,3.8,12.6c1.7,4.3,4.3,10.3,7.5,15.8
				C185.1,159.4,187.6,163.1,190.2,165.8z"/>
			<path class="st23" d="M229.7,94.8c-5.3-2.3-13.4-3.6-22.1-4.1c2.5,2.6,5,5.9,5,8.5c0,5.1,11.4,0.6,14.5,5.1
				c2.5,4.4,3.2,12.6,3.2,12.6h3.8l8.8-4.2l2-0.9C243.3,103.4,237.2,98,229.7,94.8z"/>
			<path class="st24" d="M178.5,91.6c8.1-1,19-1.5,29.1-0.9c8.7,0.5,16.8,1.7,22.1,4.1c7.6,3.2,13.6,8.6,15.2,17
				c0.9,4.7,0.3,10.3-2.2,16.9c-0.1,0.3-0.2,0.6-0.3,0.9c0,0,15.2,0.6,21.5-8.2c6.3-8.8-1.3-24-7.6-27.8c-1.7-1-4.1-2.8-7.1-4.7
				c-8.1-5.3-21.2-12.1-40.9-11.7c-13.3,0.6-23.8,1.2-32.4,2.4c-8.9,1.2-15.8,2.9-21.9,5.8c0,0-2.5,1.3-5.1,2.5
				c-1.9,1.3-2.5,3.8-1.3,5.7c3.8,3.8,10.1,10.7,21.5,12.6c0,0-2.4-5.6,0.1-9.9C170.5,94,173.2,92.1,178.5,91.6z"/>
			<path class="st22" d="M67.7,174.6c-0.1,0-0.2,0-0.3,0C67.5,174.6,67.6,174.6,67.7,174.6z"/>
			<path class="st22" d="M67.2,174.6c-0.2,0-0.3,0-0.4,0C67,174.6,67.1,174.6,67.2,174.6z"/>
			<path class="st22" d="M64.6,171.9c0-1.5,1.2-2.8,2.8-2.8c1.5,0,2.7,1.2,2.8,2.7c0-0.3,0-0.5-0.1-0.8c-0.4-1.5-2-2.4-3.5-1.9
				c-1.5,0.4-2.4,2-1.9,3.5c0.3,1.1,1.2,1.8,2.2,2C65.5,174.3,64.6,173.2,64.6,171.9z"/>
			<path class="st22" d="M68.7,174.3C68.7,174.3,68.6,174.3,68.7,174.3C68.6,174.3,68.7,174.3,68.7,174.3z"/>
			<path class="st22" d="M68.1,174.5C68.1,174.5,68.2,174.5,68.1,174.5C68.2,174.5,68.1,174.5,68.1,174.5
				C68.1,174.6,68.1,174.6,68.1,174.5z"/>
			<path class="st22" d="M69.1,174C69.1,174,69.1,174,69.1,174C69.1,174,69.1,174,69.1,174z"/>
			<path class="st22" d="M70.1,172.2c0-0.1,0-0.1,0-0.2C70.1,172.1,70.1,172.2,70.1,172.2z"/>
			<path class="st22" d="M77.5,191.5C77.5,191.5,77.5,191.4,77.5,191.5C77.5,191.4,77.5,191.4,77.5,191.5c0.2,0,0.4,0,0.6,0
				c0,0,8.8,2.5,11.4,5.7c2,2.5,2.4,6.6,2.5,8.2l0,0c0,0.3,0,0.5,0,0.6c2.5,1.3,2.6,1.3,3.2,1.9c0.6,0.6,0.6,0.6,1.3,1.3
				c0,0.6,0.6,0.6,0.6,1.3c0,0,0,0.6,0.6,0.6c0,0,0,0.6,0.6,0.6c0,0,0,0.6,0.6,0.6v0.6v0.6v0.6v0.6v0.6v0.6c0,0.6,0,0.6,0.6,1.3
				c0,0.6,0,0.6,0.6,1.3v0.6v0.6v0.6v0.6v0.6v0.6v0.6v0.6v0.6v0.6v0.6c0,0.6,0,0.6,0,1.3c0,0.3,0,0.8,0,1.2l4.3-1.2l0.6-0.2
				c5.5-1.6,8.8-7.4,7.2-12.9l-13.9-48.9c-1.6-5.5-7.4-8.8-12.9-7.2L66.8,163c-5.5,1.6-8.8,7.4-7.2,12.9l7.5,26.6
				c1.3-2.3,2.3-5.1,2.8-6.6C70.5,194.1,74.9,191.8,77.5,191.5z M74.2,168.1l7.7-2.2c0.8-0.2,1.6,0.2,1.8,1c0.2,0.8-0.2,1.6-1,1.8
				l-7.7,2.2c-0.8,0.2-1.6-0.2-1.8-1C73,169.1,73.4,168.3,74.2,168.1z M63.3,172.9c-0.5-2.2,0.6-4.5,2.9-5.1
				c2.2-0.5,4.5,0.7,5.1,2.9c0.5,2.2-0.6,4.5-2.9,5.1C66.2,176.4,63.9,175.2,63.3,172.9z"/>
			<path class="st18" d="M91.7,240.6c0.1,0.5,0.2,1,0.2,1.3C92,241.5,91.9,241.1,91.7,240.6z"/>
			<path class="st18" d="M91.4,235.6H92c0,0,0,0,0.3,0c0.1-0.1,0.2-0.2,0.3-0.4c-0.5,0-1.1,0-1.6-0.2c-0.1,0-0.2,0-0.3,0.1
				c0,0.1-0.1,0.2-0.1,0.3l0.2,0.2C90.7,235.6,90.7,235.6,91.4,235.6z"/>
			<path class="st18" d="M92.3,235.6c-0.2,0.2-0.3,0.3-0.3,0.6c-0.6,0.6-0.6,1.3-1.3,1.9l-0.6,0.6l0,0c0,0,0,0,0,0
				c0.8,0.4,1.4,1.1,1.7,1.8c-0.1-0.5-0.1-0.9,0.2-1.2c0-0.6,0.6-1.9,1.3-1.9c1.3-0.6,2.5,0,3.8-1.3c-1.9,0-3.2,0-5.1,0
				c0.3-0.2,0.7-0.4,1.1-0.6h-0.5C92.5,235.6,92.4,235.6,92.3,235.6z"/>
			<path class="st18" d="M76.9,247c0,0-0.1,0-0.1,0C76.9,247,76.9,247,76.9,247z"/>
			<path class="st18" d="M78.7,246.4h0.6c0.6,0,0.6-0.6,1.3-0.6c0.6,0,0.6-0.6,1.3-0.6s0.6-0.6,1.3-0.6l0.6-0.6l0.6-0.6l0.6-0.6
				c0,0,0,0,0,0c-0.1,0-0.2,0-0.3,0.1c-0.1,0.1-0.2,0.2-0.3,0.2c-0.1,0.1-0.2,0.2-0.3,0.3c-1.5,1.2-3.4,2.1-5.5,2.7
				c-0.8,0.8-1.1,1-1.4,1.1c-0.1,0-0.2,0-0.2,0c0.1,0,0.2,0,0.2,0c0.3,0,0.4-0.1,0.9-0.6H78.7z"/>
			<path class="st18" d="M77.5,191.5C77.5,191.5,77.6,191.5,77.5,191.5C77.5,191.4,77.5,191.4,77.5,191.5
				C77.5,191.4,77.5,191.5,77.5,191.5z"/>
			<path class="st18" d="M100.2,225.5v-0.6v-0.6v-0.6V223v-0.6v-0.6v-0.6v-0.6v-0.6v-0.6v-0.6c-0.6-0.6-0.6-0.6-0.6-1.3
				c-0.6-0.6-0.6-0.6-0.6-1.3v-0.6v-0.6v-0.6v-0.6v-0.6v-0.6c-0.6,0-0.6-0.6-0.6-0.6c-0.6,0-0.6-0.6-0.6-0.6c-0.6,0-0.6-0.6-0.6-0.6
				c0-0.6-0.6-0.6-0.6-1.3c-0.6-0.6-0.6-0.6-1.3-1.3c-0.6-0.6-0.6-0.6-3.2-1.9c0,0,0,0,0,0c0,0,7.6,5.1,5.7,10.7c0,0,0,0,0,0
				s0,0,0,0c0,0,0,0,0,0c0,0,3.2,5.7,1.3,8.8c0,0,1.3,5.5,0,8.2c0,0,0,0,0,0c0.6,0,0.6,0,0.6,0c0.6,0,0.6,0,0.6,0c0-0.6,0-0.6,0-0.6
				c0-0.6,0-0.6,0-0.6v-0.6v-0.6v-0.6c0-0.6,0-0.6,0-1.3c0-0.3,0-0.8,0-1.3c0-0.5,0-0.9,0-1.2C100.2,226.2,100.2,226.2,100.2,225.5z
				"/>
			<path class="st18" d="M90.7,238.2c0.6-0.6,0.6-1.3,1.3-1.9c0-0.3,0.2-0.5,0.3-0.6c-0.3,0-0.3,0-0.3,0h-0.6c-0.6,0-0.6,0-0.6,0
				l-0.2-0.2c-0.3,0.7-1.1,2-2.3,3.6c-0.2,0.4-0.3,0.7-0.7,1.1l-0.6,0.6l-0.6,0.6l-0.6,0.6l-0.6,0.6l0,0c0.6,0,0.6-0.6,1.3-0.6
				c0.6,0,0.6-0.6,1.3-0.6l0.6-0.6l0.6-0.6l0.6-0.6l0.6-0.6l0,0L90.7,238.2z"/>
			<path class="st18" d="M93.9,235c0,0-0.6,0.2-1.3,0.3c-0.1,0.2-0.2,0.3-0.3,0.4c0.1,0,0.2,0,0.3,0h0.5h0.2l0.8-0.4
				C94,235.2,93.9,235.1,93.9,235z"/>
			<path class="st17" d="M84.1,243.1c0.1-0.1,0.2-0.2,0.3-0.3c0.1-0.1,0.2-0.2,0.3-0.2c1.5-1.2,2.6-2.5,3.6-3.7
				c1.2-1.5,1.9-2.9,2.3-3.6c0.1-0.1,0.1-0.2,0.1-0.3c0-0.1,0.1-0.1,0.1-0.1c0.1,0,0.2,0.1,0.3,0.1c0.5,0.2,1.1,0.2,1.6,0.2
				c0.7-0.1,1.3-0.3,1.3-0.3c0.1,0.1,0.1,0.2,0.2,0.2c1.3,1.5,3.6-0.2,3.6-0.2c0.6-0.2,1-0.7,1.2-1.3c1.3-2.7,0-8.2,0-8.2
				c1.9-3.2-1.3-8.8-1.3-8.8c0,0,0,0,0,0c0,0,0,0-0.6-0.6c-0.6-0.6-1.3-1.3-1.9-1.9c-0.6,0-0.6-0.6-1.3-0.6c-0.6,0-1.3-0.6-1.9-0.6
				s-0.6,0-1.3,0c-0.6,0-0.6,0-1.3,0s-1.3,0-1.9,0.6c-0.6,0-1.3,0-1.9,0.6c-0.6,0-1.3,0-1.9,0.6c-0.6,0-1.3,0-1.9,0.6
				c-0.4,0-0.8,0-1.3,0c-0.2,0-0.4,0-0.6,0c-0.2,0-0.4,0-0.6,0c-0.4,0-0.6,0-0.6,0c-0.3,0-0.5,0-0.6,0c-0.2,0-0.3,0-0.6,0
				c-0.6,0-0.6,0-0.6,0s0,0,0.6,0c0.3,0,0.5,0,0.6,0c0.2,0,0.3,0,0.6,0c0,0,0.3,0,0.6,0c0.2,0,0.4,0,0.6,0c0.2,0,0.4,0,0.6,0
				c0.6,0,1.3,0,1.9-0.6c0.6,0,1.3,0,1.9-0.6c0.6,0,1.3-0.6,1.9-0.6s1.3-0.6,1.9-0.6s1.3,0,1.9-0.6c0.6,0,0.6,0,1.3,0
				c0.6,0,0.6,0,1.3,0c0.6,0,0.6,0,1.3,0s0.6,0,0.6,0.6c0.6,0.6,1.3,0.6,1.3,1.3c0.6,0.6,1.3,1.3,1.9,1.9c0,0.5,0,0.6,0,0.6
				C99.6,211,92,206,92,206c0,0.1,0,0.2,0,0.4c0,0.1,0,0.2,0,0.3c0,0,0,0-0.6-0.6l-0.6-0.6c-0.6,0-0.6-0.6-1.3-0.6
				c-0.6,0-0.6-0.6-1.3-0.6c-0.6-0.6-1.3-0.6-1.9-0.6s-0.6,0-0.6,0H85c-0.6,0-1.3,0-1.9,0s-1.3,0-1.9,0.6c-0.6,0-1.3,0-1.9,0.6
				c-0.6,0-1.3,0-1.9,0.6c-0.6,0-1.3,0-1.3,0.6c0,0,0,0-0.6,0h-0.6c-0.6,0-0.6,0-1.3,0.6c-0.6,0.6-0.6,0.6-0.6,0.6s0-0.6,0.6-0.6
				l0.6-0.6c0.6,0,0.6-0.6,1.3-0.6c0.6,0,1.3-0.6,1.3-0.6c0.6,0,1.3-0.6,1.9-0.6c0.6-0.6,1.3-0.6,1.9-0.6s1.3,0,1.9-0.6
				c0.6,0,1.3,0,1.9,0s0.6,0,1.3,0c0.6,0,0.6,0,1.3,0s1.3,0,1.9,0.6c0.6,0,1.3,0.6,1.3,0.6c0.6,0,0.6,0.6,1.3,0.6l0.6,0.6
				c-0.1-1.6-0.5-5.7-2.5-8.2c-2.5-3.2-11.4-5.7-11.4-5.7c-0.2,0-0.3,0-0.5,0c0,0,0,0-0.1,0c-2.6,0.3-7.1,2.6-7.6,4.4
				c-0.5,1.5-1.4,4.3-2.8,6.6c-0.3,0.6-0.7,1.1-1,1.6c-1.9,2.5-1.3,6.9-1.3,6.9s-3.8,0.6-4.4,4.4c-0.6,3.8,3.8,8.2,3.8,8.2
				c-0.6,5.1,6.3,12,8.2,17.1c0.6,1.9,1.9,3.8,3.8,5.7c0.2,0,0.3,0,0.5-0.1c0.7-0.1,1.3-0.2,1.9-0.4
				C80.7,245.3,82.5,244.3,84.1,243.1z M83.8,224.9c0.6,0,1.9-0.6,3.2-0.6c0.6,0,1.3,0,1.9-0.6c0.6,0,1.3,0,1.9-0.6
				c0.6,0,1.3,0,1.9,0h0.6h0.6h0.6c0,0,0,0,0.6,0s1.3,0.6,1.3,0.6c0.4,0,0.6,0.3,0.6,0.6c0,0,0,0,0,0l0.6,0.6l0.6,0.6
				c0.6,0,0.6,0,0.6,0.6c-0.6-0.6-0.6-0.6-1.3-0.6c0,0-0.6,0-0.6-0.6c0-0.2,0-0.4,0-0.6c-0.6,0-0.6-0.6-1.2-0.6c0,0,0,0-0.6,0h-0.6
				c-0.6,0-1.3,0-1.9,0s-1.3,0-1.9,0.6c-0.6,0-1.3,0-1.9,0.6c-0.6,0-1.3,0-1.9,0s-1.3,0-1.9,0S83.8,224.9,83.8,224.9
				c-1.9,0-3.2,0.6-3.2,0.6S81.9,224.9,83.8,224.9z"/>
			<path class="st25" d="M83.8,224.9c-1.9,0-3.2,0.6-3.2,0.6"/>
			<path class="st18" d="M86.9,224.9c0.6,0,1.3,0,1.9,0c0.6-0.6,1.3-0.6,1.9-0.6c0.6-0.6,1.3-0.6,1.9-0.6s1.3,0,1.9,0h0.6
				c0.6,0,0.6,0,0.6,0c0.6,0,0.6,0.6,1.2,0.6c-0.1-0.4-0.2-0.6-0.6-0.6c0,0-0.6-0.6-1.3-0.6s-0.6,0-0.6,0h-0.6h-0.6h-0.6
				c-0.6,0-1.3,0-1.9,0c-0.6,0.6-1.3,0.6-1.9,0.6c-0.6,0.6-1.3,0.6-1.9,0.6c-1.3,0-2.5,0.6-3.2,0.6c0,0,0.6,0,1.3,0
				S86.3,224.9,86.9,224.9z"/>
			<path class="st18" d="M97.7,225.5c0.6,0,0.6,0,1.3,0.6c0-0.6,0-0.6-0.6-0.6l-0.6-0.6l-0.6-0.6c0,0,0,0,0,0c0,0.2,0,0.4,0,0.6
				C97,225.5,97.7,225.5,97.7,225.5z"/>
			<path class="st25" d="M80.6,215.4c-0.2,0-0.4,0-0.6,0c-0.2,0-0.4,0-0.6,0c-0.4,0-0.6,0-0.6,0c-0.3,0-0.5,0-0.6,0
				c-0.2,0-0.3,0-0.6,0c-0.6,0-0.6,0-0.6,0"/>
			<path class="st18" d="M97.7,216.7c0,0,0-0.1,0-0.6c-0.6-0.6-1.3-1.3-1.9-1.9c0-0.6-0.6-0.6-1.3-1.3c0-0.6,0-0.6-0.6-0.6
				s-0.6,0-1.3,0c-0.6,0-0.6,0-1.3,0c-0.6,0-0.6,0-1.3,0c-0.6,0.6-1.3,0.6-1.9,0.6s-1.3,0.6-1.9,0.6s-1.3,0.6-1.9,0.6
				c-0.6,0.6-1.3,0.6-1.9,0.6c-0.6,0.6-1.3,0.6-1.9,0.6c0.4,0,0.8,0,1.3,0c0.6-0.6,1.3-0.6,1.9-0.6c0.6-0.6,1.3-0.6,1.9-0.6
				c0.6-0.6,1.3-0.6,1.9-0.6c0.6-0.6,1.3-0.6,1.9-0.6s0.6,0,1.3,0c0.6,0,0.6,0,1.3,0s1.3,0.6,1.9,0.6c0.6,0,0.6,0.6,1.3,0.6
				c0.6,0.6,1.3,1.3,1.9,1.9C97.6,216.7,97.7,216.7,97.7,216.7C97.7,216.7,97.7,216.7,97.7,216.7C97.7,216.7,97.7,216.7,97.7,216.7z
				"/>
			<path class="st18" d="M92,205.3L92,205.3l-0.6-0.6c-0.6,0-0.6-0.6-1.3-0.6c0,0-0.6-0.6-1.3-0.6c-0.6-0.6-1.3-0.6-1.9-0.6
				s-0.6,0-1.3,0c-0.6,0-0.6,0-1.3,0s-1.3,0-1.9,0c-0.6,0.6-1.3,0.6-1.9,0.6s-1.3,0-1.9,0.6c-0.6,0-1.3,0.6-1.9,0.6
				c0,0-0.6,0.6-1.3,0.6c-0.6,0-0.6,0.6-1.3,0.6l-0.6,0.6c0.6-0.6,0.6-0.6,1.3-0.6h0.6c0.6,0,0.6,0,0.6,0c0-0.6,0.6-0.6,1.3-0.6
				c0.6-0.6,1.3-0.6,1.9-0.6c0.6-0.6,1.3-0.6,1.9-0.6c0.6-0.6,1.3-0.6,1.9-0.6s1.3,0,1.9,0h0.6c0,0,0,0,0.6,0s1.3,0,1.9,0.6
				c0.6,0,0.6,0.6,1.3,0.6c0.6,0,0.6,0.6,1.3,0.6l0.6,0.6c0.6,0.6,0.6,0.6,0.6,0.6c0-0.1,0-0.2,0-0.3c0-0.1,0-0.3,0-0.4c0,0,0,0,0,0
				C92,205.8,92,205.6,92,205.3z"/>
			<path class="st18" d="M73,207.2c0,0,0,0,0.6-0.6C73,206.6,73,207.2,73,207.2z"/>
			<path class="st26" d="M71.3,170.7c-0.6-2.1-2.9-3.4-5.1-2.9c-2.2,0.6-3.4,2.9-2.9,5.1c0.6,2.2,2.9,3.4,5.1,2.9
				C70.7,175.2,71.9,172.9,71.3,170.7z M69.1,174C69.1,174,69.1,174,69.1,174c-0.1,0.1-0.3,0.2-0.4,0.3c0,0-0.1,0-0.1,0
				c-0.1,0.1-0.3,0.1-0.4,0.2c0,0-0.1,0-0.1,0c0,0,0,0-0.1,0c-0.1,0-0.2,0-0.3,0.1c-0.1,0-0.2,0-0.3,0c0,0-0.1,0-0.1,0
				c0,0-0.1,0-0.1,0c-0.1,0-0.3,0-0.4,0c0,0,0,0,0,0c-1-0.2-1.9-0.9-2.2-2c-0.4-1.5,0.4-3.1,1.9-3.5c1.5-0.4,3.1,0.4,3.5,1.9
				c0.1,0.3,0.1,0.5,0.1,0.8c0,0,0,0.1,0,0.1c0,0,0,0.1,0,0.1c0,0.1,0,0.1,0,0.2C70,173,69.6,173.6,69.1,174z"/>
			<path class="st27" d="M70.1,171.9C70.1,171.8,70.1,171.8,70.1,171.9c-0.1-1.6-1.3-2.8-2.8-2.8c-1.5,0-2.8,1.2-2.8,2.8
				c0,1.3,1,2.5,2.2,2.7c0,0,0,0,0,0c0.1,0,0.3,0,0.4,0c0,0,0.1,0,0.1,0c0,0,0.1,0,0.1,0c0.1,0,0.2,0,0.3,0c0.1,0,0.2,0,0.3-0.1
				c0.1,0,0.1,0,0.1,0c0.1,0,0.3-0.1,0.4-0.2c0,0,0.1,0,0.1,0c0.1-0.1,0.3-0.2,0.4-0.3c0,0,0,0,0,0c0.5-0.4,0.9-1.1,1-1.8
				c0-0.1,0-0.1,0-0.2C70.1,172,70.1,171.9,70.1,171.9z M67.9,170.1c0.1-0.3,0.5-0.3,0.9,0c0.4,0.3,0.6,0.7,0.5,1.1
				c-0.1,0.3-0.4,0.3-0.9,0C68,170.8,67.8,170.4,67.9,170.1z"/>
			<path class="st28" d="M69.3,171.1c0.1-0.3-0.1-0.7-0.5-1.1c-0.3-0.3-0.7-0.3-0.9,0c-0.1,0.3,0.1,0.7,0.5,1.1
				C68.9,171.4,69.2,171.4,69.3,171.1z"/>
			<path class="st26" d="M75,170.9l7.7-2.2c0.8-0.2,1.2-1,1-1.8c-0.2-0.8-1-1.2-1.8-1l-7.7,2.2c-0.8,0.2-1.2,1-1,1.8
				C73.4,170.7,74.2,171.1,75,170.9z"/>
			<path class="st16" d="M140,286.2c0-0.8,0-2-0.1-3.6C139.9,284.8,139.8,286.2,140,286.2z"/>
			<path class="st16" d="M137.5,266c-3.2-7.6-11.4-14.5-13.9-16.4c-0.6,1.3-0.6,2.5-0.6,2.5s10.7,8.2,13.9,15.8
				c2.2,5.3,2.9,10.9,3.1,14.7C140,278.5,139.9,271.7,137.5,266z"/>
			<path class="st16" d="M145.7,291.8c2.7-14.2-6.4-25.1-8.9-28.2C142.7,272.3,145.7,291.8,145.7,291.8z"/>
			<path class="st16" d="M136.8,263.6c-0.2-0.3-0.4-0.6-0.6-0.8C136.2,262.9,136.4,263.2,136.8,263.6z"/>
		</g>
		<g id="XMLID_77_">
			<path id="XMLID_3442_" class="st29" d="M3.8,113.2l6.9-2.3l-1-2.9L0,111.3l3.3,9.7l2.9-1L3.8,113.2z"/>
			<path id="XMLID_3447_" class="st29" d="M56,139.3l-9.8-29l-7.9,2.7l1,2.9l5.1-1.7l1.3,3.9l-3.6,1.2l1,2.9l3.6-1.2l1.4,4.1
				l-8.2,2.8l-1.5-4.4l-2.9,1l1.5,4.4l0,0l-5.8,2l-3.9-11.7l2.9-1l-1-2.9l-2.9,1l-1.8-5.3l-15.4,5.2l5.2,15.4l12.5-4.2l3.5,10.5
				l-4.6,1.5l2.2,6.5l-6.4,2.2l1,2.9l13.9-4.7l-1-2.9l-4.6,1.5l-1.2-3.6l4.6-1.5l-2-6l4.4-1.5l4.2,12.5L56,139.3L56,139.3z
				 M52.2,137.4l-9.6,3.3l-3.3-9.6l9.6-3.3L52.2,137.4z M12.9,117.8l9.6-3.3l3.3,9.6l-9.6,3.3L12.9,117.8z"/>
			<path id="XMLID_523_" class="st30" d="M38.3,112.9l1,2.9l5.1-1.7l1.3,3.9l-3.6,1.2l1,2.9l3.6-1.2l1.4,4.1l-8.2,2.8l-1.5-4.4
				l-2.9,1l1.5,4.4l0,0l-2.9,1l1,2.9l1.4-0.5l4.2,12.5l15.4-5.2l-9.8-29L38.3,112.9z M52.2,137.4l-9.6,3.3l-3.3-9.6l9.6-3.3
				L52.2,137.4z"/>
			<path id="XMLID_3450_" class="st30" d="M36.3,106.7l7.9-2.7l1,2.9l-7.9,2.7L36.3,106.7z"/>
			<path id="XMLID_3451_" class="st29" d="M17.3,119.8l3-1l1,2.9l-3,1L17.3,119.8z"/>
			<path id="XMLID_3452_" class="st30" d="M43.6,133.3l3-1l1,2.9l-3,1L43.6,133.3z"/>
			<path id="XMLID_3454_" class="st30" d="M29.7,109l3-1l1,2.9l-3,1L29.7,109z"/>
			<path id="XMLID_3455_" class="st30" d="M33.5,118.5l3-1l1,2.9l-3,1L33.5,118.5z"/>
			<g>
				<path id="XMLID_3456_" class="st29" d="M19.2,141.3l3-1l1,2.9l-3,1L19.2,141.3z"/>
				<path id="XMLID_3457_" class="st29" d="M16.6,135.5l8.3-2.8l1,2.9l-8.3,2.8L16.6,135.5z"/>
				<path id="XMLID_3459_" class="st29" d="M16,149.3l-2.9,1l3.3,9.7l9.7-3.3l-1-2.9l-6.9,2.3L16,149.3z"/>
			</g>
			<path id="XMLID_3460_" class="st30" d="M38.9,98.2l1,2.9l6.9-2.3l2.3,6.9l2.9-1l-3.3-9.7L38.9,98.2z"/>
			<path id="XMLID_3461_" class="st30" d="M61.3,141.7l-6.9,2.3l1,2.9l9.7-3.3l-3.3-9.7l-2.9,1L61.3,141.7z"/>
		</g>
		<g id="XMLID_156_">
			<path id="XMLID_169_" class="st29" d="M90.5,135.7l-1.5-0.4l-1.4,5.2l5.2,1.4l0.4-1.5l-3.7-1L90.5,135.7z"/>
			<path id="XMLID_168_" class="st29" d="M116.2,124.2l-8.2-2.3l-1.9,6.7l-2.3-0.6l0.9-3.2l-2.5-0.7l0.5-1.9l2.5,0.7l0.4-1.5
				l-7.4-2.1l-0.4,1.5l3.5,1l-1,3.5l2.5,0.7l-1.6,5.6l-6.7-1.9l-2.3,8.2l8.2,2.3l0.8-2.8l1.6,0.4l0.4-1.5l-1.6-0.4l1.7-6.3l3.1,0.9
				l0,0l-0.7,2.3l1.5,0.4l0.7-2.3l4.4,1.2l-0.6,2.2l-1.9-0.5l-0.4,1.5l1.9,0.5l-0.6,2.1l-2.7-0.8l-0.4,1.5l4.2,1.2L116.2,124.2
				L116.2,124.2z M112.8,130.4l-5.2-1.4l1.4-5.2l5.2,1.4L112.8,130.4z M95.6,131.5l5.2,1.4l-1.4,5.2l-5.2-1.4L95.6,131.5z"/>
			<path id="XMLID_167_" class="st30" d="M111.9,139.7l4.3-15.6l-8.2-2.3l-1.9,6.7l-0.8-0.2l-0.4,1.5l1.5,0.4l0,0l-0.7,2.3l1.5,0.4
				l0.7-2.3l4.4,1.2l-0.6,2.2l-1.9-0.5l-0.4,1.5l1.9,0.5l-0.6,2.1l-2.7-0.8l-0.4,1.5L111.9,139.7z M112.8,130.4l-5.2-1.4l1.4-5.2
				l5.2,1.4L112.8,130.4z"/>
			<path id="XMLID_166_" class="st30" d="M107.2,140.3l4.2,1.2L111,143l-4.2-1.2L107.2,140.3z"/>
			<path id="XMLID_165_" class="st29" d="M96.8,134l1.6,0.4l-0.4,1.5l-1.6-0.4L96.8,134z"/>
			<path id="XMLID_164_" class="st30" d="M110.3,126.1l1.6,0.4l-0.4,1.5l-1.6-0.4L110.3,126.1z"/>
			<path id="XMLID_163_" class="st30" d="M103.7,139.3l1.6,0.4l-0.4,1.5l-1.6-0.4L103.7,139.3z"/>
			<path id="XMLID_162_" class="st30" d="M105.4,134.2l1.6,0.4l-0.4,1.5l-1.6-0.4L105.4,134.2z"/>
			<g>
				<path id="XMLID_161_" class="st29" d="M97.2,122.6l1.6,0.4l-0.4,1.5l-1.6-0.4L97.2,122.6z"/>
				<path id="XMLID_160_" class="st29" d="M96,125.8l4.4,1.2l-0.4,1.5l-4.4-1.2L96,125.8z"/>
				<path id="XMLID_159_" class="st29" d="M95.9,116.3l3.7,1l0.4-1.5l-5.2-1.4l-1.4,5.2l1.5,0.4L95.9,116.3z"/>
			</g>
			<path id="XMLID_158_" class="st30" d="M113.6,147.7l1.4-5.2l-1.5-0.4l-1,3.7l-3.7-1l-0.4,1.5L113.6,147.7z"/>
			<path id="XMLID_157_" class="st30" d="M117.9,126.4l1.5,0.4l1.4-5.2l-5.2-1.4l-0.4,1.5l3.7,1L117.9,126.4z"/>
		</g>
		<g id="XMLID_1_">
			<path id="XMLID_14_" class="st29" d="M54.5,69.8l-3.6,0.1L51,82.2L63.4,82l-0.1-3.6l-8.7,0.2L54.5,69.8z"/>
			<path id="XMLID_13_" class="st29" d="M103.4,27.6L83.8,28l0.3,15.9L78.5,44l-0.1-7.7l-5.8,0.1l-0.1-4.6l5.8-0.1l-0.1-3.6
				l-17.7,0.3l0.1,3.6l8.2-0.1l0.1,8.2l5.8-0.1l0.2,13.4l-15.9,0.3l0.3,19.6L79,72.9l-0.1-6.7l3.7-0.1l-0.1-3.6l-3.7,0.1l-0.3-14.9
				l7.4-0.1l0.1,0l0.1,5.6l3.6-0.1l-0.1-5.6l10.4-0.2l0.1,5.2l-4.6,0.1l0.1,3.6l4.6-0.1l0.1,4.9l-6.4,0.1l0.1,3.6l10.1-0.2
				L103.4,27.6L103.4,27.6z M100,43.6l-12.3,0.2l-0.2-12.3l12.3-0.2L100,43.6z M62.8,57.3L75.1,57l0.2,12.3L63,69.6L62.8,57.3z"/>
			<path id="XMLID_12_" class="st30" d="M104.1,64.6l-0.6-37L83.8,28l0.3,15.9l-1.8,0l0.1,3.6l3.6-0.1l0.1,0l0.1,5.6l3.6-0.1
				l-0.1-5.6l10.4-0.2l0.1,5.2l-4.6,0.1l0.1,3.6l4.6-0.1l0.1,4.9l-6.4,0.1l0.1,3.6L104.1,64.6z M100,43.6l-12.3,0.2l-0.2-12.3
				l12.3-0.2L100,43.6z"/>
			<path id="XMLID_11_" class="st30" d="M94.1,69l10-0.2l0.1,3.6l-10,0.2L94.1,69z"/>
			<path id="XMLID_10_" class="st29" d="M67.2,61.8l3.8-0.1l0.1,3.6l-3.8,0.1L67.2,61.8z"/>
			<path id="XMLID_9_" class="st30" d="M91.6,35.8l3.8-0.1l0.1,3.6l-3.8,0.1L91.6,35.8z"/>
			<path id="XMLID_8_" class="st30" d="M85.7,69.2l3.8-0.1l0.1,3.6l-3.8,0.1L85.7,69.2z"/>
			<path id="XMLID_7_" class="st30" d="M86.1,56.7l3.8-0.1l0.1,3.6l-3.8,0.1L86.1,56.7z"/>
			<g>
				<path id="XMLID_6_" class="st29" d="M60.6,36.6l3.8-0.1l0.1,3.6l-3.8,0.1L60.6,36.6z"/>
				<path id="XMLID_5_" class="st29" d="M60,44.4l10.6-0.2l0.1,3.6L60.1,48L60,44.4z"/>
				<path id="XMLID_4_" class="st29" d="M53.6,23.7l8.7-0.2l-0.1-3.6l-12.4,0.2l0.2,12.4l3.6-0.1L53.6,23.7z"/>
			</g>
			<path id="XMLID_3_" class="st30" d="M113,81.1l-0.2-12.4l-3.6,0.1l0.2,8.7l-8.7,0.2l0.1,3.6L113,81.1z"/>
			<path id="XMLID_2_" class="st30" d="M108.5,31.4l3.6-0.1L111.9,19l-12.4,0.2l0.1,3.6l8.7-0.2L108.5,31.4z"/>
		</g>
	</g>
</g>
</svg>
