<?xml version="1.0" encoding="utf-8"?>
<!-- Generator: Adobe Illustrator 25.2.3, SVG Export Plug-In . SVG Version: 6.00 Build 0)  -->
<svg version="1.1" id="Layer_1" xmlns="http://www.w3.org/2000/svg" xmlns:xlink="http://www.w3.org/1999/xlink" x="0px" y="0px"
	 viewBox="0 0 332 332" style="enable-background:new 0 0 332 332;" xml:space="preserve">
<style type="text/css">
	.st0{opacity:0.15;}
	.st1{fill:#08497E;}
	.st2{opacity:0.5;fill:#CEDBE5;}
	.st3{opacity:0.5;fill:#84A4BF;}
	.st4{opacity:0.5;fill:#396D98;}
	.st5{opacity:0.5;fill:#5280A5;}
	.st6{opacity:0.5;fill:#215B8B;}
	.st7{opacity:0.5;fill:#08497E;}
	.st8{opacity:0.5;fill:#D93131;}
	.st9{opacity:0.5;fill:#6B92B2;}
	.st10{opacity:0.5;fill:#E6EDF2;}
	.st11{opacity:0.5;fill:#83AFE4;}
	.st12{opacity:0.5;fill:#5290D9;}
	.st13{opacity:0.5;fill:#ECECF1;}
	.st14{opacity:0.5;fill:#D3D3D8;}
	.st15{fill:none;}
	.st16{fill:#344A5E;}
	.st17{fill:#E8EAE8;}
	.st18{fill:#FED1A3;}
	.st19{fill:#F5A96C;}
	.st20{fill:#005623;}
	.st21{fill:#CED6E0;}
	.st22{fill:#425A6B;}
	.st23{fill:none;stroke:#F5A96C;stroke-width:0;stroke-linecap:round;stroke-linejoin:round;}
	.st24{fill:#9D5E5E;}
	.st25{fill:none;stroke:#CED6E0;stroke-width:0;stroke-linecap:round;stroke-linejoin:round;}
	.st26{fill:none;stroke:#9D5E5E;stroke-width:0;stroke-linecap:round;stroke-linejoin:round;}
	.st27{fill:#9E4F4A;}
	.st28{fill:#86231D;}
</style>
<g>
	<g>
		<g>
			<g class="st0">
				<circle class="st1" cx="166" cy="166" r="166"/>
			</g>
			<g>
				<path class="st2" d="M248.8,77.5c0-2.2,1.8-4,4-4c2.2,0,4,1.8,4,4V93h-7.9V77.5z"/>
				<path class="st3" d="M242.6,95.7c0-1.5,1.2-2.7,2.7-2.7h3.4h7.9h17.8c1.5,0,2.7,1.2,2.7,2.7v22.5h-34.6V95.7z"/>
				<path class="st4" d="M242.6,95.7v22.5h-7.2c0,0,0,0,0,0h-2.4V95.7c0-1.5,1.2-2.7,2.7-2.7h0h9.5C243.8,93,242.6,94.2,242.6,95.7z
					"/>
				<path class="st2" d="M232.7,121c0-1.5,1.2-2.7,2.7-2.7h7.2h34.6h7.1c1.5,0,2.7,1.2,2.7,2.7v22.4h-54.3V121z"/>
				<path class="st3" d="M235.5,118.3C235.4,118.3,235.4,118.3,235.5,118.3c-1.5,0-2.7,1.2-2.7,2.7v22.5h-3h-6.5V121v0
					c0-1.5,1.2-2.7,2.7-2.7h7.1H235.5z"/>
				<path class="st5" d="M117.1,71.6l-3.4-3.7c-0.4-0.4-0.9-0.7-1.4-0.8c0.5,0.1,1,0.4,1.4,0.8l27.5,29.7H93.9L117.1,71.6z"/>
				<rect x="82.4" y="97.6" class="st5" width="11.4" height="0"/>
				<path class="st3" d="M258.8,285.5v18.2c13.9-9.4,26.2-20.8,36.7-33.8V146.1c0-1.5-1.2-2.7-2.7-2.7h-5.7h-54.3h-3
					c-1.5,0-2.7,1.2-2.7,2.7v12.3c0.7-1,1.9-1.6,3.2-1.6h6c2.2,0,4,1.8,4,4c0,2.2-1.8,4-4,4h-6c-1.3,0-2.5-0.7-3.2-1.6v15.4
					c0.7-1,1.9-1.6,3.2-1.6h6c2.2,0,4,1.8,4,4c0,2.2-1.8,4-4,4h-6c-1.3,0-2.5-0.7-3.2-1.6v15.4c0.7-1,1.9-1.6,3.2-1.6h6
					c2.2,0,4,1.8,4,4c0,2.2-1.8,4-4,4h-6c-1.3,0-2.5-0.7-3.2-1.6V221l27.4-4.9c1.7-0.3,3.3,0.6,4,2h16.3c2.2,0,4,1.8,4,4
					c0,2.2-1.8,4-4,4h-15.9v12.1h15.9c2.2,0,4,1.8,4,4c0,2.2-1.8,4-4,4h-15.9v12.1h15.9c2.2,0,4,1.8,4,4c0,2.2-1.8,4-4,4h-15.9v11.5
					h15.9c2.2,0,4,1.8,4,4c0,2.2-1.8,4-4,4H258.8z M247.6,200.8c0-2.2,1.8-4,4-4h23.2c2.2,0,4,1.8,4,4c0,2.2-1.8,4-4,4h-23.2
					C249.3,204.8,247.6,203,247.6,200.8z M247.6,180.8c0-2.2,1.8-4,4-4h23.2c2.2,0,4,1.8,4,4c0,2.2-1.8,4-4,4h-23.2
					C249.3,184.7,247.6,182.9,247.6,180.8z M247.6,160.7c0-2.2,1.8-4,4-4h23.2c2.2,0,4,1.8,4,4c0,2.2-1.8,4-4,4h-23.2
					C249.3,164.7,247.6,162.9,247.6,160.7z"/>
				<path class="st2" d="M251.5,156.8h23.2c2.2,0,4,1.8,4,4c0,2.2-1.8,4-4,4h-23.2c-2.2,0-4-1.8-4-4
					C247.6,158.5,249.3,156.8,251.5,156.8z"/>
				<path class="st2" d="M251.5,176.8h23.2c2.2,0,4,1.8,4,4c0,2.2-1.8,4-4,4h-23.2c-2.2,0-4-1.8-4-4
					C247.6,178.6,249.3,176.8,251.5,176.8z"/>
				<path class="st2" d="M251.5,196.8h23.2c2.2,0,4,1.8,4,4c0,2.2-1.8,4-4,4h-23.2c-2.2,0-4-1.8-4-4
					C247.6,198.6,249.3,196.8,251.5,196.8z"/>
				<path class="st2" d="M278.7,222c0,2.2-1.8,4-4,4h-15.9v-6.3c0-0.6-0.1-1.1-0.4-1.6h16.3C276.9,218.1,278.7,219.8,278.7,222z"/>
				<path class="st2" d="M278.7,242.1c0,2.2-1.8,4-4,4h-15.9v-7.9h15.9C276.9,238.1,278.7,239.9,278.7,242.1z"/>
				<path class="st2" d="M278.7,262.1c0,2.2-1.8,4-4,4h-15.9v-7.9h15.9C276.9,258.1,278.7,259.9,278.7,262.1z"/>
				<path class="st2" d="M278.7,281.5c0,2.2-1.8,4-4,4h-15.9v-7.9h15.9C276.9,277.6,278.7,279.4,278.7,281.5z"/>
				<path class="st4" d="M227,146.1v12.3c-0.5,0.6-0.8,1.4-0.8,2.3s0.3,1.7,0.8,2.3v15.4c-0.5,0.6-0.8,1.4-0.8,2.3s0.3,1.7,0.8,2.3
					v15.4c-0.5,0.6-0.8,1.4-0.8,2.3s0.3,1.7,0.8,2.3V221l-12.2,2.2v-77.1c0-1.5,1.2-2.7,2.7-2.7h0h5.7h6.5
					C228.3,143.4,227,144.6,227,146.1z"/>
				<path class="st6" d="M37.2,112.1v158.6c2.7,3.3,5.4,6.4,8.3,9.5h11.2c2.2,0,4.1,1.8,4.1,4.1c0,2.2-1.8,4.1-4.1,4.1h-2.9
					c6.4,5.9,13.3,11.3,20.6,16.1V195v0c0-1.5,1.2-2.7,2.7-2.7h5.1v-80.1H37.2z M60.8,128.4c0,2.2-1.8,4.1-4.1,4.1H45.3
					c-2.2,0-4.1-1.8-4.1-4.1c0-2.2,1.8-4.1,4.1-4.1h11.4C58.9,124.3,60.8,126.1,60.8,128.4z M41.2,258.3c0-2.2,1.8-4.1,4.1-4.1h11.4
					c2.2,0,4.1,1.8,4.1,4.1c0,2.2-1.8,4.1-4.1,4.1H45.3C43.1,262.3,41.2,260.5,41.2,258.3z M41.2,232.3c0-2.2,1.8-4.1,4.1-4.1h11.4
					c2.2,0,4.1,1.8,4.1,4.1c0,2.2-1.8,4.1-4.1,4.1H45.3C43.1,236.3,41.2,234.5,41.2,232.3z M41.2,206.3c0-2.2,1.8-4.1,4.1-4.1h11.4
					c2.2,0,4.1,1.8,4.1,4.1c0,2.2-1.8,4.1-4.1,4.1H45.3C43.1,210.4,41.2,208.5,41.2,206.3z M41.2,180.3c0-2.2,1.8-4.1,4.1-4.1h11.4
					c2.2,0,4.1,1.8,4.1,4.1c0,2.2-1.8,4.1-4.1,4.1H45.3C43.1,184.4,41.2,182.6,41.2,180.3z M41.2,154.3c0-2.2,1.8-4.1,4.1-4.1h11.4
					c2.2,0,4.1,1.8,4.1,4.1c0,2.2-1.8,4.1-4.1,4.1H45.3C43.1,158.4,41.2,156.6,41.2,154.3z"/>
				<path class="st7" d="M29.6,112.1h7.6v158.6c-4.3-5.3-8.3-10.9-11.9-16.7V116.5C25.3,114.1,27.2,112.1,29.6,112.1z"/>
				<path class="st8" d="M77,192.2c-1.5,0-2.7,1.2-2.7,2.7v0C74.3,193.5,75.5,192.2,77,192.2l5.1,0v0H77z"/>
				<path class="st3" d="M93.9,192.2h47.3v-86.7v-8H93.9h0v19.2c0.7-1.1,1.9-1.7,3.3-1.7c2.2,0,4,1.8,4,4v6.7c0,2.2-1.8,4-4,4
					c-1.4,0-2.6-0.7-3.3-1.7v11.4c0.7-1.1,1.9-1.7,3.3-1.7c2.2,0,4,1.8,4,4v6.7c0,2.2-1.8,4-4,4c-1.4,0-2.6-0.7-3.3-1.7v11.5
					c0.7-1.1,1.9-1.7,3.3-1.7c2.2,0,4,1.8,4,4v6.7c0,2.2-1.8,4-4,4c-1.4,0-2.6-0.7-3.3-1.7V192.2z M125,164.1c0-2.2,1.8-4,4-4
					c2.2,0,4,1.8,4,4v6.7c0,2.2-1.8,4-4,4c-2.2,0-4-1.8-4-4V164.1z M125,141.6c0-2.2,1.8-4,4-4c2.2,0,4,1.8,4,4v6.7c0,2.2-1.8,4-4,4
					c-2.2,0-4-1.8-4-4V141.6z M125,119c0-2.2,1.8-4,4-4c2.2,0,4,1.8,4,4v6.7c0,2.2-1.8,4-4,4c-2.2,0-4-1.8-4-4V119z M109.1,164.1
					c0-2.2,1.8-4,4-4c2.2,0,4,1.8,4,4v6.7c0,2.2-1.8,4-4,4c-2.2,0-4-1.8-4-4V164.1z M109.1,141.6c0-2.2,1.8-4,4-4c2.2,0,4,1.8,4,4
					v6.7c0,2.2-1.8,4-4,4c-2.2,0-4-1.8-4-4V141.6z M109.1,119c0-2.2,1.8-4,4-4c2.2,0,4,1.8,4,4v6.7c0,2.2-1.8,4-4,4
					c-2.2,0-4-1.8-4-4V119z"/>
				<polygon class="st3" points="82.2,192.2 82.2,192.2 82.2,192.2 82.2,112.1 82.2,97.6 82.2,97.6 				"/>
				<path class="st9" d="M93.9,116.8c-0.4,0.6-0.7,1.4-0.7,2.2v6.7c0,0.8,0.2,1.6,0.7,2.2v11.4c-0.4,0.6-0.7,1.4-0.7,2.2v6.7
					c0,0.8,0.2,1.6,0.7,2.2v11.5c-0.4,0.6-0.7,1.4-0.7,2.2v6.7c0,0.8,0.2,1.6,0.7,2.2v19.2H82.2V97.6h0.2h11.4V116.8z"/>
				<path class="st4" d="M117.1,71.6l-23.2,26l-11.4,0h0l27.2-29.7c0.7-0.7,1.7-1,2.6-0.8c0.5,0.1,1,0.4,1.4,0.8L117.1,71.6z"/>
				<path class="st3" d="M56.7,132.4H45.3c-2.2,0-4.1-1.8-4.1-4.1c0-2.2,1.8-4.1,4.1-4.1h11.4c2.2,0,4.1,1.8,4.1,4.1
					C60.8,130.6,58.9,132.4,56.7,132.4z"/>
				<path class="st3" d="M45.3,150.3h11.4c2.2,0,4.1,1.8,4.1,4.1c0,2.2-1.8,4.1-4.1,4.1H45.3c-2.2,0-4.1-1.8-4.1-4.1
					C41.2,152.1,43.1,150.3,45.3,150.3z"/>
				<path class="st3" d="M45.3,176.3h11.4c2.2,0,4.1,1.8,4.1,4.1c0,2.2-1.8,4.1-4.1,4.1H45.3c-2.2,0-4.1-1.8-4.1-4.1
					C41.2,178.1,43.1,176.3,45.3,176.3z"/>
				<path class="st3" d="M45.3,202.2h11.4c2.2,0,4.1,1.8,4.1,4.1c0,2.2-1.8,4.1-4.1,4.1H45.3c-2.2,0-4.1-1.8-4.1-4.1
					C41.2,204.1,43.1,202.2,45.3,202.2z"/>
				<path class="st3" d="M45.3,228.2h11.4c2.2,0,4.1,1.8,4.1,4.1c0,2.2-1.8,4.1-4.1,4.1H45.3c-2.2,0-4.1-1.8-4.1-4.1
					C41.2,230,43.1,228.2,45.3,228.2z"/>
				<path class="st3" d="M45.3,254.2h11.4c2.2,0,4.1,1.8,4.1,4.1c0,2.2-1.8,4.1-4.1,4.1H45.3c-2.2,0-4.1-1.8-4.1-4.1
					C41.2,256,43.1,254.2,45.3,254.2z"/>
				<path class="st3" d="M60.8,284.2c0,2.2-1.8,4.1-4.1,4.1h-2.9c-2.8-2.6-5.6-5.3-8.3-8.1h11.2C58.9,280.2,60.8,282,60.8,284.2z"/>
				<path class="st6" d="M179.8,231.7v99.7c4.8-0.4,9.5-1,14.1-1.8v-34.3c0-9.1,6-16.7,14.3-19.1c1.8-0.5,3.7-0.8,5.6-0.8h0h2
					c0.6,0,1.2,0,1.8,0.1c0.2,0,0.4,0,0.5,0.1c0.2,0,0.5,0,0.7,0.1c0,0,0,0-0.1,0c9.6,1.4,17,9.7,17,19.7v21.3c8-3.7,15.7-8.1,23-13
					v-18.2v-7.9v-11.5v-7.9V246v-7.9V226v-6.3c0-0.6-0.1-1.1-0.4-1.6c-0.7-1.4-2.3-2.3-4-2L227,221l-12.2,2.2l-41,7.4
					c-1.7,0.3-3,1.8-3,3.6v0c0-1.8,1.3-3.3,3-3.6l6.7-1.2C180.1,230,179.8,230.8,179.8,231.7z M227.8,257.6c0-2.2,1.8-4,4-4
					c2.2,0,4,1.8,4,4v5.6c0,2.2-1.8,4-4,4c-2.2,0-4-1.8-4-4V257.6z M227.8,236.2c0-2.2,1.8-4,4-4c2.2,0,4,1.8,4,4v5.6
					c0,2.2-1.8,4-4,4c-2.2,0-4-1.8-4-4V236.2z M209.3,257.6c0-2.2,1.8-4,4-4c2.2,0,4,1.8,4,4v5.6c0,2.2-1.8,4-4,4c-2.2,0-4-1.8-4-4
					V257.6z M209.3,236.2c0-2.2,1.8-4,4-4c2.2,0,4,1.8,4,4v5.6c0,2.2-1.8,4-4,4c-2.2,0-4-1.8-4-4V236.2z M190.8,257.6
					c0-2.2,1.8-4,4-4c2.2,0,4,1.8,4,4v5.6c0,2.2-1.8,4-4,4c-2.2,0-4-1.8-4-4V257.6z M190.8,236.2c0-2.2,1.8-4,4-4c2.2,0,4,1.8,4,4
					v5.6c0,2.2-1.8,4-4,4c-2.2,0-4-1.8-4-4V236.2z"/>
				<path class="st7" d="M173.9,230.6l6.7-1.2c-0.5,0.6-0.8,1.4-0.8,2.3v99.7c-3,0.2-5.9,0.4-8.9,0.5v-97.7
					C170.8,232.4,172.1,230.9,173.9,230.6z"/>
				<path class="st10" d="M208.2,276.2c-8.3,2.4-14.3,10.1-14.3,19.1v34.3c0,0,0,0,0,0v-34.3C193.9,286.3,199.9,278.7,208.2,276.2z"
					/>
				<path class="st10" d="M218.8,275.7c9.6,1.4,17,9.7,17,19.7v21.3c-10.7,5-22,8.8-33.8,11.4v-32.7
					C202,285.4,209.3,277.2,218.8,275.7z"/>
				<path class="st10" d="M218.2,275.6c-0.2,0-0.4,0-0.5-0.1C217.8,275.5,218,275.6,218.2,275.6z"/>
				<path class="st2" d="M208.2,276.2c1.8-0.5,3.7-0.8,5.6-0.8h0h2c0.6,0,1.2,0,1.8,0.1c0.2,0,0.4,0,0.5,0.1c0.2,0,0.5,0,0.7,0.1
					c0,0,0,0-0.1,0c-9.5,1.5-16.8,9.7-16.8,19.7v32.7c-2.7,0.6-5.4,1.1-8.1,1.6v-34.3C193.9,286.3,199.9,278.7,208.2,276.2z"/>
				<path class="st11" d="M203.1,72.5c-0.1-0.1-0.2-0.2-0.3-0.3C202.9,72.3,203,72.4,203.1,72.5z"/>
				<path class="st11" d="M173.7,100c-0.8,0-1.6-0.1-2.4-0.3c-0.1-0.5-0.2-1.1-0.2-1.6c0-3.5,2.3-6.8,5.7-7.9c1.8-0.6,3.2,0,4.3-1.7
					c0.8-1.2,0.6-3,1.1-4.3c0.8-2,2-3.8,3.5-5.4c3-3.1,7.2-4.8,11.5-4.8c3.2,0,6.1,0.9,8.6,2.5c1.1,2.2,1.8,4.7,1.8,7.4
					c0,1-0.1,2-0.3,3c1.5-2.1,3.9-3.4,6.7-3.4c4.6,0,8.3,3.7,8.3,8.3c0,4.6-3.7,8.3-8.3,8.3L173.7,100L173.7,100z"/>
				<path class="st11" d="M205.8,76.3c-0.1-0.2-0.2-0.4-0.3-0.6C205.6,75.9,205.7,76.1,205.8,76.3z"/>
				<path class="st11" d="M205.1,75.1c-0.1-0.2-0.2-0.3-0.3-0.5C204.9,74.8,205,74.9,205.1,75.1z"/>
				<path class="st11" d="M204,73.6c-0.1-0.1-0.2-0.2-0.3-0.3C203.8,73.4,203.9,73.5,204,73.6z"/>
				<path class="st11" d="M199.3,69.6c-0.1,0-0.1-0.1-0.2-0.1C199.2,69.6,199.3,69.6,199.3,69.6z"/>
				<path class="st11" d="M200.7,70.5c-0.1-0.1-0.2-0.1-0.3-0.2C200.5,70.3,200.6,70.4,200.7,70.5z"/>
				<path class="st11" d="M194.8,67.9c-0.1,0-0.1,0-0.2,0C194.7,67.9,194.7,67.9,194.8,67.9z"/>
				<path class="st11" d="M170.2,99.2c0.1,0.1,0.2,0.1,0.3,0.1C170.5,99.3,170.4,99.3,170.2,99.2z"/>
				<path class="st11" d="M197.9,68.9c-0.1,0-0.2-0.1-0.3-0.1C197.7,68.8,197.8,68.9,197.9,68.9z"/>
				<path class="st11" d="M170.9,99.5c0.1,0,0.2,0.1,0.4,0.1C171.2,99.6,171,99.6,170.9,99.5z"/>
				<path class="st11" d="M196.5,68.4c-0.1,0-0.2-0.1-0.3-0.1C196.3,68.3,196.4,68.4,196.5,68.4z"/>
				<path class="st11" d="M174.9,83.5c0.1,0,0.3,0,0.4,0.1c0-2.3,0.6-4.6,1.5-6.6c-0.9,2-1.5,4.2-1.5,6.6
					C175.1,83.5,175,83.5,174.9,83.5z"/>
				<path class="st11" d="M201.8,71.3c0,0-0.1-0.1-0.1-0.1C201.7,71.3,201.7,71.3,201.8,71.3z"/>
				<path class="st11" d="M167.2,96.9c0.1,0.1,0.1,0.1,0.2,0.2C167.3,97,167.2,96.9,167.2,96.9z"/>
				<path class="st11" d="M167.7,97.4c0.1,0.1,0.1,0.1,0.2,0.2C167.8,97.5,167.7,97.5,167.7,97.4z"/>
				<path class="st11" d="M168.3,98c0,0,0.1,0.1,0.1,0.1C168.4,98.1,168.3,98,168.3,98z"/>
				<path class="st11" d="M166.4,95.6C166.4,95.7,166.4,95.7,166.4,95.6C166.4,95.7,166.4,95.7,166.4,95.6z"/>
				<path class="st11" d="M166.7,96.3c0,0.1,0.1,0.1,0.1,0.2C166.8,96.4,166.8,96.3,166.7,96.3z"/>
				<path class="st11" d="M193.3,67.7c-0.1,0-0.2,0-0.3,0C193.1,67.7,193.2,67.7,193.3,67.7z"/>
				<path class="st11" d="M166,94.8c0,0,0,0.1,0.1,0.1C166,94.9,166,94.8,166,94.8z"/>
				<path class="st11" d="M165.5,93.2c0,0.1,0,0.2,0.1,0.3C165.5,93.4,165.5,93.3,165.5,93.2z"/>
				<path class="st11" d="M165.4,92.5c0,0.1,0,0.2,0,0.2C165.4,92.6,165.4,92.5,165.4,92.5z"/>
				<path class="st11" d="M165.7,94c0,0.1,0,0.2,0.1,0.2C165.7,94.2,165.7,94.1,165.7,94z"/>
				<path class="st11" d="M165.4,91.7c0-0.9,0.2-1.8,0.4-2.6C165.5,89.9,165.4,90.8,165.4,91.7C165.4,91.7,165.4,91.7,165.4,91.7z"
					/>
				<path class="st11" d="M169.6,98.9c0.1,0.1,0.2,0.1,0.3,0.2C169.8,99,169.7,99,169.6,98.9z"/>
				<path class="st11" d="M169,98.5c0.1,0.1,0.2,0.1,0.2,0.2C169.1,98.6,169.1,98.6,169,98.5z"/>
				<path class="st12" d="M185.8,78.7c-1.5,1.5-2.7,3.4-3.5,5.4c-0.5,1.3-0.3,3.1-1.1,4.3c-1.1,1.7-2.5,1.1-4.3,1.7
					c-3.4,1.1-5.7,4.4-5.7,7.9c0,0.6,0.1,1.1,0.2,1.6c0,0,0,0,0,0c0,0,0,0,0,0c-0.1,0-0.2-0.1-0.4-0.1c-0.1,0-0.2-0.1-0.3-0.1
					c-0.1,0-0.2-0.1-0.3-0.1c-0.1-0.1-0.2-0.1-0.4-0.2c-0.1-0.1-0.2-0.1-0.3-0.2c-0.1-0.1-0.3-0.2-0.4-0.2c-0.1-0.1-0.2-0.1-0.2-0.2
					c-0.2-0.1-0.4-0.3-0.6-0.4c0,0-0.1-0.1-0.1-0.1c-0.2-0.1-0.3-0.3-0.4-0.4c-0.1-0.1-0.1-0.1-0.2-0.2c-0.1-0.1-0.2-0.2-0.3-0.4
					c-0.1-0.1-0.1-0.1-0.2-0.2c-0.1-0.1-0.2-0.3-0.3-0.4c0-0.1-0.1-0.1-0.1-0.2c-0.1-0.2-0.2-0.4-0.3-0.5c0,0,0-0.1-0.1-0.1
					c-0.1-0.2-0.2-0.5-0.3-0.7c0,0,0-0.1-0.1-0.1c-0.1-0.2-0.1-0.4-0.2-0.6c0-0.1,0-0.2-0.1-0.2c0-0.2-0.1-0.3-0.1-0.5
					c0-0.1,0-0.2-0.1-0.3c0-0.2-0.1-0.4-0.1-0.5c0-0.1,0-0.2,0-0.2c0-0.3,0-0.5,0-0.8c0,0,0,0,0,0c0-0.9,0.2-1.8,0.4-2.6
					c1.1-3.3,4.2-5.7,7.9-5.7c0.4,0,0.8,0,1.2,0.1c0.1,0,0.3,0,0.4,0.1c0-2.3,0.6-4.6,1.5-6.6c2.6-5.5,8.2-9.4,14.7-9.4
					c0.5,0,1,0,1.5,0.1c0.1,0,0.2,0,0.3,0c0.4,0,0.9,0.1,1.3,0.2c0.1,0,0.1,0,0.2,0c0.5,0.1,1,0.2,1.4,0.4c0.1,0,0.2,0.1,0.3,0.1
					c0.4,0.1,0.8,0.3,1.1,0.4c0.1,0,0.2,0.1,0.3,0.1c0.4,0.2,0.9,0.4,1.3,0.6c0.1,0,0.1,0.1,0.2,0.1c0.4,0.2,0.7,0.4,1,0.6
					c0.1,0.1,0.2,0.1,0.3,0.2c0.3,0.2,0.7,0.5,1,0.7c0,0,0.1,0.1,0.1,0.1c0.3,0.3,0.7,0.6,1,0.9c0.1,0.1,0.2,0.2,0.3,0.3
					c0.2,0.2,0.4,0.5,0.7,0.7c0.1,0.1,0.2,0.2,0.3,0.3c0.3,0.3,0.5,0.7,0.8,1c0.1,0.2,0.2,0.3,0.3,0.5c0.1,0.2,0.3,0.4,0.4,0.7
					c0.1,0.2,0.2,0.4,0.3,0.6c0,0,0,0.1,0.1,0.1c0,0,0,0,0,0c-2.5-1.6-5.4-2.5-8.6-2.5C193,73.9,188.8,75.7,185.8,78.7z"/>
				<path class="st11" d="M166.7,171.5c-0.2,0-0.3-0.1-0.5-0.1C166.4,171.4,166.5,171.4,166.7,171.5z"/>
				<path class="st11" d="M167.4,171.7c-0.1-0.1-0.3-0.1-0.5-0.2C167.1,171.6,167.3,171.7,167.4,171.7z"/>
				<path class="st11" d="M190.7,165.3c0-0.1-0.1-0.1-0.1-0.2C190.6,165.1,190.7,165.2,190.7,165.3z"/>
				<path class="st11" d="M191.4,166.4c-0.1-0.1-0.1-0.3-0.2-0.4C191.2,166.1,191.3,166.3,191.4,166.4z"/>
				<path class="st11" d="M189.2,163.4c-0.1-0.1-0.1-0.1-0.2-0.1C189.1,163.3,189.1,163.4,189.2,163.4z"/>
				<path class="st11" d="M169.9,173.7c-0.1-0.2-0.3-0.4-0.5-0.6C169.6,173.3,169.8,173.5,169.9,173.7z"/>
				<path class="st11" d="M169.8,170.2c0,0.1,0,0.3,0,0.4C169.8,170.5,169.8,170.3,169.8,170.2z"/>
				<path class="st11" d="M169.7,172.4c0,0.1,0,0.2,0,0.3C169.8,172.6,169.8,172.5,169.7,172.4z"/>
				<path class="st11" d="M169.7,171.6c0-0.1,0-0.2,0-0.3c0,0.2,0,0.4,0,0.6C169.7,171.7,169.7,171.7,169.7,171.6z"/>
				<path class="st11" d="M179,160.3c-0.1,0-0.1,0-0.2,0C178.8,160.4,178.9,160.4,179,160.3z"/>
				<path class="st11" d="M170,169.2c0,0.1,0,0.2-0.1,0.3C169.9,169.3,170,169.3,170,169.2z"/>
				<path class="st11" d="M168.7,172.5c-0.1-0.1-0.3-0.2-0.4-0.3C168.4,172.3,168.6,172.4,168.7,172.5z"/>
				<path class="st11" d="M188.4,162.7c-0.1-0.1-0.2-0.1-0.3-0.2C188.2,162.6,188.3,162.7,188.4,162.7z"/>
				<path class="st11" d="M166,171.3c-0.2,0-0.5,0-0.7-0.1C165.5,171.3,165.7,171.3,166,171.3z"/>
				<path class="st11" d="M169.3,173c-0.1-0.1-0.3-0.2-0.4-0.4C169,172.7,169.2,172.9,169.3,173z"/>
				<path class="st11" d="M186.6,161.5c-0.1-0.1-0.2-0.1-0.4-0.2C186.4,161.4,186.5,161.5,186.6,161.5z"/>
				<path class="st11" d="M184.7,160.7c-0.1,0-0.3-0.1-0.4-0.1C184.4,160.6,184.5,160.6,184.7,160.7z"/>
				<path class="st11" d="M185.7,161.1c-0.1-0.1-0.3-0.1-0.4-0.2C185.4,161,185.5,161,185.7,161.1z"/>
				<path class="st11" d="M180.2,160.2c-0.2,0-0.3,0-0.5,0C179.9,160.2,180.1,160.2,180.2,160.2z"/>
				<path class="st11" d="M187.6,162.1c-0.1-0.1-0.2-0.1-0.3-0.2C187.3,162,187.5,162,187.6,162.1z"/>
				<path class="st11" d="M162.5,171.9c-0.3,0.1-0.5,0.3-0.8,0.5C162,172.2,162.2,172.1,162.5,171.9z"/>
				<path class="st11" d="M181.2,160.1c0.1,0,0.2,0,0.2,0c-0.2,0-0.3,0-0.5,0C181,160.1,181.1,160.1,181.2,160.1z"/>
				<path class="st11" d="M182.5,160.2c-0.2,0-0.3,0-0.5,0C182.2,160.2,182.4,160.2,182.5,160.2z"/>
				<path class="st11" d="M183.6,160.4c-0.2,0-0.3-0.1-0.5-0.1C183.3,160.3,183.5,160.4,183.6,160.4z"/>
				<path class="st11" d="M159.3,177.4c0,0.2,0,0.5,0.1,0.7C159.4,177.9,159.3,177.7,159.3,177.4z"/>
				<path class="st11" d="M160.8,181.1c-0.7-0.8-1.2-1.8-1.4-2.9C159.6,179.2,160.1,180.2,160.8,181.1z"/>
				<path class="st11" d="M159.9,174.7c-0.1,0.3-0.2,0.5-0.3,0.8C159.6,175.2,159.7,174.9,159.9,174.7z"/>
				<path class="st11" d="M159.5,175.6c-0.1,0.3-0.1,0.5-0.2,0.8C159.4,176.2,159.4,175.9,159.5,175.6z"/>
				<path class="st11" d="M159.9,174.6c0.4-0.8,1-1.6,1.8-2.1C160.9,173,160.3,173.7,159.9,174.6z"/>
				<path class="st11" d="M159.3,177.2c0-0.2,0-0.4,0-0.6c0,0.3,0,0.5,0,0.7C159.3,177.2,159.3,177.2,159.3,177.2z"/>
				<path class="st11" d="M162.8,179.7c0.5-0.7,1.3-1.2,2-1.6c1.3-0.6,2.5-0.5,3.9-0.2c0.8,0.2,1.6,0.3,2.4,0.2
					c1.3-0.1,2.6-0.7,3.3-1.8c1.4-2.2,0.1-5.2,1.6-7.5c1.3-1.9,3.9-3.1,6.1-3.5c4-0.6,7.6,0.8,10.1,3.4c0.2,0.8,0.3,1.6,0.3,2.5
					c0.4-0.1,0.7-0.1,1.1-0.1c3.2,0,5.9,2.6,5.9,5.9c0,3.2-2.6,5.9-5.9,5.9h-28.6c-1.2,0-2.2-0.3-3.1-0.9
					C161.6,181.8,162.6,180,162.8,179.7z"/>
				<path class="st11" d="M160.8,181.1c0.2,0.2,0.4,0.4,0.6,0.6C161.2,181.5,161,181.3,160.8,181.1z"/>
				<path class="st11" d="M165.2,171.3C165.2,171.3,165.2,171.3,165.2,171.3c-0.2,0-0.5,0-0.7,0.1
					C164.7,171.3,164.9,171.3,165.2,171.3z"/>
				<path class="st11" d="M191.8,167.5c-0.1-0.2-0.1-0.4-0.2-0.6C191.7,167.1,191.8,167.3,191.8,167.5z"/>
				<path class="st11" d="M164.3,171.4c-0.3,0-0.6,0.1-0.9,0.2C163.7,171.5,164,171.4,164.3,171.4z"/>
				<path class="st11" d="M192.2,168.6c-0.1-0.2-0.1-0.4-0.2-0.7C192.1,168.1,192.1,168.4,192.2,168.6z"/>
				<path class="st11" d="M161.4,181.6c0.2,0.2,0.4,0.3,0.6,0.4C161.8,182,161.6,181.8,161.4,181.6z"/>
				<path class="st11" d="M163.4,171.6c-0.3,0.1-0.5,0.2-0.8,0.3C162.8,171.8,163.1,171.7,163.4,171.6z"/>
				<path class="st11" d="M168.1,172.1c-0.1-0.1-0.3-0.2-0.4-0.2C167.8,171.9,167.9,172,168.1,172.1z"/>
				<path class="st12" d="M159.4,178.1c0-0.2-0.1-0.5-0.1-0.7c0,0,0-0.1,0-0.1c0-0.2,0-0.5,0-0.7c0,0,0,0,0,0c0,0,0-0.1,0-0.1
					c0-0.3,0.1-0.5,0.2-0.8c0,0,0-0.1,0-0.1c0.1-0.3,0.2-0.5,0.3-0.8c0,0,0-0.1,0-0.1c0.4-0.8,1-1.6,1.8-2.1c0,0,0,0,0,0
					c0.2-0.2,0.5-0.3,0.8-0.5c0,0,0.1,0,0.1,0c0.3-0.1,0.5-0.2,0.8-0.3c0,0,0,0,0,0c0.3-0.1,0.6-0.1,0.9-0.2c0,0,0.1,0,0.1,0
					c0,0,0,0,0.1,0c0.3,0,0.5-0.1,0.8,0c0,0,0,0,0.1,0c0.2,0,0.5,0,0.7,0.1c0.1,0,0.2,0,0.2,0c0.2,0,0.3,0.1,0.5,0.1
					c0.1,0,0.2,0.1,0.3,0.1c0.2,0,0.3,0.1,0.5,0.2c0.1,0,0.2,0.1,0.2,0.1c0.1,0.1,0.3,0.1,0.4,0.2c0.1,0,0.2,0.1,0.2,0.1
					c0.1,0.1,0.3,0.2,0.4,0.3c0.1,0,0.1,0.1,0.2,0.1c0.1,0.1,0.3,0.2,0.4,0.4c0,0,0.1,0.1,0.1,0.1c0.2,0.2,0.3,0.4,0.5,0.6
					c-0.1-0.3-0.1-0.6-0.1-0.9c0-0.1,0-0.2,0-0.3c0-0.1,0-0.3,0-0.4c0-0.1,0-0.1,0-0.2c0-0.2,0-0.4,0-0.6c0-0.2,0-0.4,0-0.6
					c0-0.2,0-0.3,0-0.4c0-0.3,0.1-0.5,0.1-0.7c0-0.1,0-0.2,0.1-0.3c0.9-4.4,4.3-7.8,8.8-8.8c0.1,0,0.1,0,0.2,0
					c0.1,0,0.3-0.1,0.4-0.1c0.1,0,0.2,0,0.4,0c0.2,0,0.3,0,0.5,0c0.2,0,0.4,0,0.7,0c0.2,0,0.3,0,0.5,0c0.2,0,0.4,0,0.6,0
					c0.2,0,0.3,0,0.5,0c0.2,0,0.4,0.1,0.6,0.1c0.2,0,0.3,0.1,0.5,0.1c0.2,0,0.4,0.1,0.6,0.2c0.1,0,0.3,0.1,0.4,0.1
					c0.2,0.1,0.4,0.1,0.6,0.2c0.1,0.1,0.3,0.1,0.4,0.2c0.2,0.1,0.4,0.2,0.6,0.3c0.1,0.1,0.2,0.1,0.4,0.2c0.2,0.1,0.4,0.2,0.6,0.4
					c0.1,0.1,0.2,0.1,0.3,0.2c0.2,0.1,0.4,0.3,0.6,0.4c0.1,0.1,0.2,0.1,0.3,0.2c0.2,0.2,0.4,0.4,0.6,0.6c0.1,0.1,0.1,0.1,0.2,0.1
					c0.5,0.5,1,1.1,1.4,1.6c0,0.1,0.1,0.1,0.1,0.2c0.2,0.2,0.3,0.5,0.4,0.7c0.1,0.1,0.1,0.3,0.2,0.4c0.1,0.2,0.2,0.3,0.3,0.5
					c0.1,0.2,0.1,0.4,0.2,0.6c0.1,0.1,0.1,0.3,0.2,0.4c0.1,0.2,0.1,0.4,0.2,0.7c0,0.1,0.1,0.2,0.1,0.3c0,0,0,0,0,0
					c-2.5-2.6-6.1-4-10.1-3.4c-2.2,0.3-4.8,1.5-6.1,3.5c-1.5,2.2-0.2,5.2-1.6,7.5c-0.7,1.1-2,1.7-3.3,1.8c-0.8,0.1-1.6-0.1-2.4-0.2
					c-1.4-0.3-2.6-0.4-3.9,0.2c-0.8,0.4-1.5,0.9-2,1.6c-0.2,0.3-1.2,2.1-0.7,2.4c0,0,0,0,0,0c0,0,0,0-0.1,0
					c-0.2-0.1-0.4-0.3-0.6-0.4c0,0,0,0,0,0c-0.2-0.2-0.4-0.4-0.6-0.6c0,0,0,0,0,0C160.1,180.2,159.6,179.2,159.4,178.1
					C159.4,178.2,159.4,178.1,159.4,178.1z"/>
				<path class="st4" d="M74.3,195v109.4c7.1,4.7,14.6,8.9,22.4,12.5V307c0-1.5,1.2-2.7,2.7-2.7h0h9.7h12.2c1.5,0,2.7,1.2,2.7,2.7
					v19.7c8.1,2.1,16.4,3.6,24.9,4.5V195c0-1.5-1.2-2.7-2.7-2.7h-5.1H93.9H82.2h0H77C75.6,192.2,74.3,193.5,74.3,195z M124.9,279.3
					c0-2.2,1.8-4,4-4c2.2,0,4,1.8,4,4v8.9c0,2.2-1.8,4-4,4c-2.2,0-4-1.8-4-4V279.3z M124.9,254.7c0-2.2,1.8-4,4-4c2.2,0,4,1.8,4,4
					v8.9c0,2.2-1.8,4-4,4c-2.2,0-4-1.8-4-4V254.7z M124.9,230.5c0-2.2,1.8-4,4-4c2.2,0,4,1.8,4,4v8.9c0,2.2-1.8,4-4,4
					c-2.2,0-4-1.8-4-4V230.5z M124.9,205.7c0-2.2,1.8-4,4-4c2.2,0,4,1.8,4,4v8.9c0,2.2-1.8,4-4,4c-2.2,0-4-1.8-4-4V205.7z
					 M109.2,279.3c0-2.2,1.8-4,4-4c2.2,0,4,1.8,4,4v8.9c0,2.2-1.8,4-4,4c-2.2,0-4-1.8-4-4V279.3z M109.2,254.7c0-2.2,1.8-4,4-4
					c2.2,0,4,1.8,4,4v8.9c0,2.2-1.8,4-4,4c-2.2,0-4-1.8-4-4V254.7z M109.2,230.5c0-2.2,1.8-4,4-4c2.2,0,4,1.8,4,4v8.9
					c0,2.2-1.8,4-4,4c-2.2,0-4-1.8-4-4V230.5z M109.2,205.7c0-2.2,1.8-4,4-4c2.2,0,4,1.8,4,4v8.9c0,2.2-1.8,4-4,4c-2.2,0-4-1.8-4-4
					V205.7z M93.3,279.3c0-2.2,1.8-4,4-4s4,1.8,4,4v8.9c0,2.2-1.8,4-4,4s-4-1.8-4-4V279.3z M93.3,254.7c0-2.2,1.8-4,4-4s4,1.8,4,4
					v8.9c0,2.2-1.8,4-4,4s-4-1.8-4-4V254.7z M93.3,230.5c0-2.2,1.8-4,4-4s4,1.8,4,4v8.9c0,2.2-1.8,4-4,4s-4-1.8-4-4V230.5z
					 M93.3,205.7c0-2.2,1.8-4,4-4s4,1.8,4,4v8.9c0,2.2-1.8,4-4,4s-4-1.8-4-4V205.7z"/>
				<path class="st13" d="M109.1,304.3h12.2c1.5,0,2.7,1.2,2.7,2.7v19.7c-6-1.6-11.9-3.5-17.6-5.7v-14
					C106.4,305.5,107.6,304.3,109.1,304.3z"/>
				<path class="st14" d="M99.4,304.3L99.4,304.3h9.7c-1.5,0-2.7,1.2-2.7,2.7v14c-3.3-1.3-6.5-2.6-9.7-4.1V307
					C96.7,305.5,97.9,304.3,99.4,304.3z"/>
				<path class="st4" d="M93.2,119c0-0.8,0.2-1.6,0.7-2.2c0.7-1.1,1.9-1.7,3.3-1.7c2.2,0,4,1.8,4,4v6.7c0,2.2-1.8,4-4,4
					c-1.4,0-2.6-0.7-3.3-1.7c-0.4-0.6-0.7-1.4-0.7-2.2V119z"/>
				<path class="st4" d="M93.2,141.6c0-0.8,0.2-1.6,0.7-2.2c0.7-1.1,1.9-1.7,3.3-1.7c2.2,0,4,1.8,4,4v6.7c0,2.2-1.8,4-4,4
					c-1.4,0-2.6-0.7-3.3-1.7c-0.4-0.6-0.7-1.4-0.7-2.2V141.6z"/>
				<path class="st4" d="M93.2,164.1c0-0.8,0.2-1.6,0.7-2.2c0.7-1.1,1.9-1.7,3.3-1.7c2.2,0,4,1.8,4,4v6.7c0,2.2-1.8,4-4,4
					c-1.4,0-2.6-0.7-3.3-1.7c-0.4-0.6-0.7-1.4-0.7-2.2V164.1z"/>
				<path class="st4" d="M113,115c2.2,0,4,1.8,4,4v6.7c0,2.2-1.8,4-4,4c-2.2,0-4-1.8-4-4V119C109.1,116.8,110.8,115,113,115z"/>
				<path class="st4" d="M113,137.6c2.2,0,4,1.8,4,4v6.7c0,2.2-1.8,4-4,4c-2.2,0-4-1.8-4-4v-6.7C109.1,139.4,110.8,137.6,113,137.6z
					"/>
				<path class="st4" d="M113,160.2c2.2,0,4,1.8,4,4v6.7c0,2.2-1.8,4-4,4c-2.2,0-4-1.8-4-4v-6.7C109.1,161.9,110.8,160.2,113,160.2z
					"/>
				<path class="st4" d="M128.9,115c2.2,0,4,1.8,4,4v6.7c0,2.2-1.8,4-4,4c-2.2,0-4-1.8-4-4V119C125,116.8,126.7,115,128.9,115z"/>
				<path class="st4" d="M128.9,137.6c2.2,0,4,1.8,4,4v6.7c0,2.2-1.8,4-4,4c-2.2,0-4-1.8-4-4v-6.7
					C125,139.4,126.7,137.6,128.9,137.6z"/>
				<path class="st4" d="M128.9,160.2c2.2,0,4,1.8,4,4v6.7c0,2.2-1.8,4-4,4c-2.2,0-4-1.8-4-4v-6.7
					C125,161.9,126.7,160.2,128.9,160.2z"/>
				<path class="st3" d="M97.2,201.8c2.2,0,4,1.8,4,4v8.9c0,2.2-1.8,4-4,4s-4-1.8-4-4v-8.9C93.3,203.6,95,201.8,97.2,201.8z"/>
				<path class="st3" d="M97.2,226.5c2.2,0,4,1.8,4,4v8.9c0,2.2-1.8,4-4,4s-4-1.8-4-4v-8.9C93.3,228.3,95,226.5,97.2,226.5z"/>
				<path class="st3" d="M97.2,250.7c2.2,0,4,1.8,4,4v8.9c0,2.2-1.8,4-4,4s-4-1.8-4-4v-8.9C93.3,252.5,95,250.7,97.2,250.7z"/>
				<path class="st3" d="M97.2,275.3c2.2,0,4,1.8,4,4v8.9c0,2.2-1.8,4-4,4s-4-1.8-4-4v-8.9C93.3,277.1,95,275.3,97.2,275.3z"/>
				<path class="st3" d="M113.1,201.8c2.2,0,4,1.8,4,4v8.9c0,2.2-1.8,4-4,4c-2.2,0-4-1.8-4-4v-8.9
					C109.2,203.6,110.9,201.8,113.1,201.8z"/>
				<path class="st3" d="M113.1,226.5c2.2,0,4,1.8,4,4v8.9c0,2.2-1.8,4-4,4c-2.2,0-4-1.8-4-4v-8.9
					C109.2,228.3,110.9,226.5,113.1,226.5z"/>
				<path class="st3" d="M113.1,250.7c2.2,0,4,1.8,4,4v8.9c0,2.2-1.8,4-4,4c-2.2,0-4-1.8-4-4v-8.9
					C109.2,252.5,110.9,250.7,113.1,250.7z"/>
				<path class="st3" d="M113.1,275.3c2.2,0,4,1.8,4,4v8.9c0,2.2-1.8,4-4,4c-2.2,0-4-1.8-4-4v-8.9
					C109.2,277.1,110.9,275.3,113.1,275.3z"/>
				<path class="st3" d="M128.8,201.8c2.2,0,4,1.8,4,4v8.9c0,2.2-1.8,4-4,4c-2.2,0-4-1.8-4-4v-8.9
					C124.9,203.6,126.7,201.8,128.8,201.8z"/>
				<path class="st3" d="M128.8,226.5c2.2,0,4,1.8,4,4v8.9c0,2.2-1.8,4-4,4c-2.2,0-4-1.8-4-4v-8.9
					C124.9,228.3,126.7,226.5,128.8,226.5z"/>
				<path class="st3" d="M128.8,250.7c2.2,0,4,1.8,4,4v8.9c0,2.2-1.8,4-4,4c-2.2,0-4-1.8-4-4v-8.9
					C124.9,252.5,126.7,250.7,128.8,250.7z"/>
				<path class="st3" d="M128.8,275.3c2.2,0,4,1.8,4,4v8.9c0,2.2-1.8,4-4,4c-2.2,0-4-1.8-4-4v-8.9
					C124.9,277.1,126.7,275.3,128.8,275.3z"/>
				<path class="st2" d="M231.8,232.3c2.2,0,4,1.8,4,4v5.6c0,2.2-1.8,4-4,4c-2.2,0-4-1.8-4-4v-5.6
					C227.8,234,229.6,232.3,231.8,232.3z"/>
				<path class="st2" d="M213.3,232.3c2.2,0,4,1.8,4,4v5.6c0,2.2-1.8,4-4,4c-2.2,0-4-1.8-4-4v-5.6
					C209.3,234,211.1,232.3,213.3,232.3z"/>
				<path class="st2" d="M194.8,232.3c2.2,0,4,1.8,4,4v5.6c0,2.2-1.8,4-4,4c-2.2,0-4-1.8-4-4v-5.6
					C190.8,234,192.6,232.3,194.8,232.3z"/>
				<path class="st2" d="M231.8,253.6c2.2,0,4,1.8,4,4v5.6c0,2.2-1.8,4-4,4c-2.2,0-4-1.8-4-4v-5.6
					C227.8,255.4,229.6,253.6,231.8,253.6z"/>
				<path class="st2" d="M213.3,253.6c2.2,0,4,1.8,4,4v5.6c0,2.2-1.8,4-4,4c-2.2,0-4-1.8-4-4v-5.6
					C209.3,255.4,211.1,253.6,213.3,253.6z"/>
				<path class="st2" d="M194.8,253.6c2.2,0,4,1.8,4,4v5.6c0,2.2-1.8,4-4,4c-2.2,0-4-1.8-4-4v-5.6
					C190.8,255.4,192.6,253.6,194.8,253.6z"/>
				<path class="st2" d="M227,158.4c0.7-1,1.9-1.6,3.2-1.6h6c2.2,0,4,1.8,4,4c0,2.2-1.8,4-4,4h-6c-1.3,0-2.5-0.7-3.2-1.6
					c-0.5-0.6-0.8-1.4-0.8-2.3S226.6,159.1,227,158.4z"/>
				<path class="st2" d="M227,178.5c0.7-1,1.9-1.6,3.2-1.6h6c2.2,0,4,1.8,4,4c0,2.2-1.8,4-4,4h-6c-1.3,0-2.5-0.7-3.2-1.6
					c-0.5-0.6-0.8-1.4-0.8-2.3S226.6,179.1,227,178.5z"/>
				<path class="st2" d="M227,198.5c0.7-1,1.9-1.6,3.2-1.6h6c2.2,0,4,1.8,4,4c0,2.2-1.8,4-4,4h-6c-1.3,0-2.5-0.7-3.2-1.6
					c-0.5-0.6-0.8-1.4-0.8-2.3S226.6,199.1,227,198.5z"/>
			</g>
		</g>
	</g>
	<g>
		<path class="st15" d="M166,0C74.3,0,0,74.3,0,166c0,72,45.8,133.2,109.9,156.3c-0.1-0.5-0.1-1-0.2-1.6c-1.2-6.9-3.1-17.4-3.1-24.9
			c0-4.2,0.8-19,1.5-31.3c-1,0.3-2,0.6-2.7,0.8c-4.4,1.2-10,6.2-15.6,3.1c-5-3.1-11.2-19.3-11.2-25.5c0-6.2,0.6-6.9,2.5-13.1
			c1.2-5,3.1-13.7,3.7-19.9h0.5c0.3-2.1,0.5-4,0.7-5.6c0.6-6.2,6.2-34.9,8.1-40.5c1.9-5.6,6.9-18.7,12.5-19.9c0.4-0.1,0.9,0,1.3,0.1
			c2.9-1,11.6-3,33-3.2c-1.2-0.4-2-0.6-2-0.6c11.2-0.6,13.7-6.9,15.6-14.9c1.9-8.1,0.6-26.8,2.5-34.9c1.9-8.1,11.2-28.7,21.2-34.9
			c10-5.6,19.9-2.5,19.9-2.5c9.3-1.9,23.7,14.9,26.2,23c2.5,8.1,9.3,44.2,10.6,52.9c1.9,8.7,9.3,33.6,10,58.5
			c0.2,6.9-0.1,12.6-0.6,17.3c0.1,1.3,0.1,2.4,0,3.2c-0.6,6.9-1.9,19.9-1.2,24.9c0.6,5-0.6,9.3-0.6,9.3s3.1,10,1.2,13.1
			c-1.9,3.1,0,5,0,13.7s-9.3,13.1-13.1,16.8c-1.5,1-3.3,1.2-5.2,0.9c1.3,2.1,2.8,4.5,4.5,7.2c5.7,8.8,2.3,20.3,1,24.9
			C290.3,293.6,332,234.6,332,166C332,74.3,257.7,0,166,0z"/>
		<path class="st15" d="M215.2,208c-0.2-0.7-0.4-1.4-0.6-2.2c0.1,0.6,0.1,1.3,0.2,2.2H215.2z"/>
		<path class="st16" d="M195,135.1c0,0-3.7,7.5,0,11.8c1.6,1.9,3.7,3.1,5.7,4c0-0.1-0.1-0.2-0.1-0.3l1.9,0.5
			c0.7-11.1,6.2-20.4,7.5-30.4c0.2-1.8,0.5-3.7,0.7-5.8C206.9,122,200.8,132,195,135.1z"/>
		<path class="st17" d="M108.4,231c0,0,0.2-0.1,0.5-0.2c0-7.5,0.2-16,0.8-21c1.2-10.6,2.5-16.8,2.5-16.8s-2.5-26.8-1.2-35.5
			c1.2-8.7-4.4-13.1-4.4-13.1s0.4-0.2,1.3-0.5c-0.4-0.1-0.9-0.2-1.3-0.1c-5.6,1.2-10.6,14.3-12.5,19.9c-1.9,5.6-7.5,34.3-8.1,40.5
			c-0.2,1.6-0.4,3.5-0.7,5.6H109L108.4,231z"/>
		<path class="st17" d="M241.7,196.1c-0.6-13.1-9.3-29.9-9.3-29.9s0,0-0.6,8.1c0,0,0,0,0,0c0,0.6,0,0.6,0,1.2c0,0.6,0,0.6,0,1.2
			c0,0.7,0,1.6,0,2.5c0.1,1.3,0.2,2.8,0.3,4.2c0.2,0.8,0.3,1.6,0.3,2.6c0,1.9,0.6,3.1,1.2,4.4c0.6,1.2,0.6,3.1,1.2,4.4
			c0.6,1.2,1.2,3.1,1.2,4.4c0.6,1.2,0.6,2.5,1.2,3.7v0.6v0.6c0,0.6,0,1.2,0,1.9c0,0.6,0,1.2,0,1.2c0,0.6,0,0.6,0,1.2
			c0,0.6,0,0.6,0,1.2v0.6c0,0.6,0,0.6,0,0.6s0,0,0-0.6v-0.6c0-0.6,0-0.6,0-1.2c0-0.6,0-0.6,0-1.2c0,0,0-0.6,0-1.2s0-1.2-0.6-1.2
			v-0.6v-0.6c-0.6-1.2-0.6-2.5-1.2-3.7c-0.6-1.2-1.2-2.5-1.9-4.4c-0.1-0.2-0.2-0.4-0.3-0.6c0.8,5.6,1.5,9.9,1.5,9.9
			c-3.1-1.9-10.6-12.5-12.5-18.7c-1.5-5-3-6-6-10.3c0,0.2-0.1,0.4-0.1,0.6c0.2,0.3,0.4,0.7,0.5,1c0.6,1.2,1.2,2.5,1.9,3.7
			s1.2,2.5,1.2,3.1c0.6,1.2,0.6,1.9,0.6,3.1c0,0.6,0,0.6,0,1.2c0,0.6,0,0.6,0,1.2v0.6c0,0,0,0,0,0.6v0.6c0,0.6,0,0.6,0,0.6
			s0,0,0-0.6v-0.6c0-0.6,0-0.6,0-0.6v-0.6c0-0.6,0-0.6,0-1.2c0-0.6,0-0.6,0-1.2s-0.6-1.9-0.6-3.1c-0.6-1.2-0.6-1.9-1.2-3.1
			c-0.6-1.2-1.2-2.5-1.9-3.1c-0.2-0.4-0.4-0.7-0.6-1.1c-2.1,12-1.9,25.4-1.9,25.4s0,0,0.3,3.4c0.2,0.7,0.4,1.5,0.6,2.2h4.1
			c1.9,3.7,3.7,7.5,6.2,10.6c3.1,4.4,6.9,8.1,10.6,11.8c2.5,2.5,4.4,4.4,6.9,6.2c0,3.1-1.2,4.4-1.2,4.4s3.1,10,1.2,13.1
			c-0.7,1.2-0.9,2.2-0.8,3.5c0.1,0.1,0.1,0.1,0.2,0.2l-0.2-0.2c0.1,2.1,0.8,4.8,0.8,10.2c0,8.7-9.3,13.1-13.1,16.8
			c-1.5,1.1-3.4,1.2-5.3,0.9c0.3,0.4,0.5,0.8,0.8,1.3c1.9,0.3,3.7,0.1,5.2-0.9c3.7-3.7,13.1-8.1,13.1-16.8s-1.9-10.6,0-13.7
			c1.9-3.1-1.2-13.1-1.2-13.1s1.2-4.4,0.6-9.3c-0.6-5,0.6-18.1,1.2-24.9c0.1-0.8,0.1-1.9,0-3.2c-1.4,12.8-4.4,18.2-4.4,18.2
			C242.3,217.9,242.3,209.2,241.7,196.1z"/>
		<path class="st18" d="M162,123.9c0,0.6,0.6,1.9,1.2,3.7c0.5,1,0.6,2.4,0.6,3.9c1.6,3.4,3.9,6.9,6.9,8.6c3.1,1.9,12.5,7.5,23.7-5
			c0,0-5.6,10.6-20.6,14.3c-12.5,3.1-10.6,6.2-6.2,8.1c3.7,1.1-7.8,10.6-25,10.8c1,3.3,2.8,6.5,5.7,9.1c13.7,11.8,34.9,5.6,39.9,3.1
			c4.9-2.5,14.7-23.1,12.5-29.6c-2-0.9-4.1-2.2-5.7-4c-3.7-4.4,0-11.8,0-11.8c5.9-3.1,12-13.1,15.7-20.1c1.2-9.3,2.3-20.6-0.7-27.2
			c-3.7-8.1-23-11.8-23-11.8c-18.1,0-21.8,16.8-24.9,28c-2.2,6.3-1.6,13.2-0.7,18.8l0.1-0.2C161.3,123.2,162,123.2,162,123.9z"/>
		<path class="st18" d="M162.6,128.2c-0.4-0.9-0.6-1.7-0.8-2.4c0.1,0.3,0.1,0.6,0.2,0.9c0.2,0.6,0.4,1.2,0.7,1.9
			C162.6,128.5,162.6,128.4,162.6,128.2z"/>
		<path class="st19" d="M154.8,147.5c0.1,0,0.2,0,0.3,0c0.6,0,1.2-0.6,1.9-0.6c0.6-0.6,1.2-0.6,1.9-1.2c0.6-0.6,1.2-1.2,1.9-1.9
			c0-0.6,0.6-1.9,1.2-2.5c0.2-0.3,0.3-0.6,0.4-0.8c0.2-0.6,0.2-1.3,0.2-1.7c0-1.2,0.6-1.9,0.6-3.1c0-0.6,0-1.2,0-1.2v-0.6v-0.6
			c0-1.7-0.5-3.3-0.6-4.6c-0.3-0.7-0.5-1.3-0.7-1.9c0.4,2.1,0.7,3.9,0.7,5.2c0,3.3-2.2,7.1-4.7,9.5c-0.3,0.7-0.6,1.4-0.9,2.3
			C156.5,144.9,155.5,146.4,154.8,147.5z"/>
		<path class="st19" d="M142.6,168.3c17.2-0.3,28.7-9.8,25-10.8c-4.4-1.9-6.2-5,6.2-8.1c14.9-3.7,20.6-14.3,20.6-14.3
			c-11.2,12.5-20.6,6.9-23.7,5c-3-1.6-5.2-5.1-6.9-8.6c0,0.4,0,0.7,0,1.1v0.6v0.6c0,0.6,0,1.2,0,1.2c0,1.2,0,1.9-0.6,3.1
			c0,0.9-0.4,1.5-0.8,2.3c-0.1,0.3-0.2,0.6-0.4,0.8c0,0.6-0.6,1.9-1.2,2.5s-1.2,1.2-1.9,1.9c-0.6,0.6-1.2,1.2-1.9,1.2
			c-0.6,0.6-1.2,0.6-1.9,0.6c0,0.4-0.3,0.5-0.6,0.6c0,0,0,0,0,0c-0.6,0.6-1.2,1.2-1.2,1.9c-0.6,0.6-1.2,1.2-1.2,1.2
			c-0.6,0.6-1.2,0.6-1.2,1.2c-0.6,0-0.6,0.6-1.2,0.6c-0.6,0-0.6,0-0.6,0s0.6,0,0.6-0.6c0.6,0,0.6-0.6,1.2-0.6c0.6,0,0.6-0.6,1.2-1.2
			c0.6-0.6,1.2-0.6,1.2-1.2c0.4-0.4,0.6-0.8,0.8-1.2c-0.1,0-0.1,0-0.2,0c-0.6,0-0.6,0-1.2,0H152h0.6c0.6,0,0.6,0,1.2,0
			c0-0.4,0.3-0.5,0.6-0.6c0,0,0,0,0,0c0.6-1.2,1.2-3.1,1.9-4.4c0.1-0.2,0.1-0.4,0.2-0.6c-0.9,0.7-1.8,1.1-2.7,1.3
			c-1.8,0-5.4-0.9-8.6-1.8C143.6,145.9,139.5,158,142.6,168.3z"/>
		<path class="st20" d="M152,225.4c0,0,0,0,0.1,0l0,0C152.1,225.4,152,225.4,152,225.4z"/>
		<path class="st20" d="M189.4,213.6c-0.2-0.7-0.5-1.5-0.7-2.2l-0.3,2.1C188.7,213.5,189,213.5,189.4,213.6z"/>
		<path class="st20" d="M196.8,260.9c-0.3-2.1-0.7-4.4-1.1-6.9c-1.7-4.6-2.6-8.1-2.6-8.1v-3.9c-0.6-0.1-1.2-0.5-1.9-1.1
			c-1.9-1.2-3.1-1.2-6.2-1.2s-6.9-1.2-10.6-1.2c-4.4,0-5-1.9-5-3.1c0.1-0.1,0.1-0.2,0.2-0.3l-0.6,0c-0.7,0.5-1.9,0.9-3.9,0.9
			c-3.7,0-7.5,1.2-10.6,1.2s-4.4,0-6.2,1.2c-1.2,1.2-2.5,1.2-3.1,1.2c-0.4,0-3.3,0.7-5.3,1.3c1.6,1.5,2.8,2.4,2.8,2.4l-5,3.1
			c0,0,0,0-1.9,3.1c-0.5,0.9-1.5,1.8-2.7,2.7c-0.7,6.6-1.6,12.8-2.3,17.2c-1.3,7.6-4.3,38.4-6.1,57.2c13.2,3.4,27,5.2,41.2,5.2
			c14.2,0,27.9-1.8,41.1-5.1c-0.6-5.5-0.9-12.1-0.9-18C206.2,300.1,198.1,269.6,196.8,260.9z"/>
		<path class="st20" d="M187.5,227.9c-0.3,0-0.7,0-1.1-0.1l0,0.1C187.1,227.9,187.5,227.9,187.5,227.9z"/>
		<path class="st20" d="M150.8,231.6c0,0,0.2,0,0.5,0c0,0,0,0,0,0C150.9,231.6,150.8,231.6,150.8,231.6z"/>
		<path class="st20" d="M185.1,234.3c2.1-0.1,3.6-0.1,3.6-0.1s-1.6,0-3.5,0C185.2,234.2,185.2,234.2,185.1,234.3z"/>
		<path class="st20" d="M134.5,222.6l3.8-4.7c0,0,0.6-3.1,1.9-4.4c0.9-0.9,1.2-1.9,3.1-2.3v-0.2c0,0,6.1-1.5,10.8-1.3l1.6-12.4
			c0-1.2,1.2-2.5,3.1-2.5l24.2,1.6c-1.8-4.3-3.1-7.2-3.1-7.2c12.9-3.1,21-13.8,23.5-28.3c-0.8-2.6-1.3-5.8-1.1-9.7
			c0-0.1,0-0.1,0-0.2l-1.9-0.5c0,0.1,0.1,0.2,0.1,0.3c2.1,6.5-7.6,27.2-12.5,29.6c-5,2.5-26.2,8.7-39.9-3.1
			c-2.9-2.6-4.6-5.8-5.7-9.1c-3.1-10.3,1.1-22.4,2.6-26.4c-0.6-0.2-1.2-0.3-1.7-0.5c-2.5,4.8-13.8,29.9,9.8,43.4
			c0,0-3.1,4.4-6.9,6.2c-3.3,1.7-10.7,16.3-11.7,28.3l2.4-0.9c-1,1-1.9,2-2.5,3C134.5,221.9,134.5,222.3,134.5,222.6z"/>
		<path class="st19" d="M143.3,211.1v0.2c0.6-0.1,1.4-0.2,2.5-0.2c0,0,1.2,0.6,1.9,1.2c0.6,0.6,3.1,0.6,3.7,1.2c0,0,1-0.1,2.3-0.1
			l0.5-3.7C149.4,209.5,143.3,211.1,143.3,211.1z"/>
		<path class="st21" d="M110.9,157.5c-1.2,8.7,1.2,35.5,1.2,35.5s-1.2,6.2-2.5,16.8c-0.6,5-0.8,13.4-0.8,21c1-0.4,3.4-1.6,5.8-3.5
			c3.1-2.5,9.3-3.7,9.3-3.7l10.7-4.1c1.1-12,8.4-26.6,11.7-28.3c3.7-1.9,6.9-6.2,6.9-6.2c-23.6-13.5-12.2-38.6-9.8-43.4
			c-1-0.3-1.9-0.6-2.6-0.8c-21.5,0.2-30.1,2.2-33,3.2c-1,0.3-1.3,0.5-1.3,0.5S112.1,148.8,110.9,157.5z"/>
		<path class="st21" d="M133.1,252.4c-2.9,2.2-7.1,4.3-9.8,6c-3.1,2.1-10.4,4.5-15.4,6c-0.7,12.3-1.5,27.2-1.5,31.3
			c0,7.5,1.9,18.1,3.1,24.9c0.1,0.5,0.2,1,0.2,1.6c4.9,1.7,9.8,3.3,14.9,4.6c1.8-18.8,4.8-49.6,6.1-57.2
			C131.6,265.1,132.4,259,133.1,252.4z"/>
		<path class="st21" d="M134.5,221.6c-0.6,0.9-1,1.8-1.3,2.7l1.3-1.6C134.5,222.3,134.5,221.9,134.5,221.6z"/>
		<path class="st21" d="M229.9,293.9c-1.7-2.6-3.2-5-4.5-7.2c-0.3-0.4-0.5-0.9-0.8-1.3c-3.6-0.7-7.4-3.2-9-5.3
			c-3.1-3.1-13.1-11.8-16.8-19.3c-1.2-2.4-2.2-4.8-3-6.9c0.4,2.5,0.8,4.8,1.1,6.9c1.2,8.7,9.3,39.2,9.3,48c0,6,0.3,12.5,0.9,18
			c8.2-2.1,16.2-4.8,23.8-8C232.2,314.2,235.6,302.8,229.9,293.9z"/>
		<path class="st21" d="M210.5,166.2c0.6,1.2,1.2,2.5,1.9,3.7c1.1,2.2,2.6,4.3,3.8,6.5c0-0.2,0.1-0.4,0.1-0.6
			c-0.8-1.1-1.7-2.4-2.7-4.1c-1.9-3.1-3.4-6.8-4.4-10.1c0,0.2,0.1,0.5,0.1,0.7C209.9,163.7,209.9,165,210.5,166.2z"/>
		<path class="st21" d="M180,189.3c0,0,1.3,2.9,3.1,7.2l4.4,0.3c1.9,0,3.1,1.2,2.5,3.1l-0.2,1.5c0.1,0.3,0.2,0.7,0.2,1l-1.3,9
			c0.2,0.7,0.5,1.5,0.7,2.2c0.8,0.1,1.8,0.4,3,0.8c0.6-0.4,1.3-0.8,1.3-0.8c4.4,0,5,1.2,6.2,2.5c0.9,0.9,1.5,2.9,1.8,3.9
			c0.2,0.1,0.4,0.3,0.6,0.4c-0.2-0.2-0.4-0.4-0.5-0.5c0.2,0.2,0.5,0.5,0.8,0.7c3.8,2.2,8.7,4.2,10,4.8l-0.2-0.5c0.6,0,0-0.6,0-1.2
			c0.3,0.3,0.5,0.7,0.7,1l1.2-16.6h0.5c-0.1-0.8-0.1-1.6-0.2-2.2c-0.3-3.4-0.3-3.4-0.3-3.4s-0.2-13.4,1.9-25.4
			c-1.2-2-2.8-3.7-4.4-6.4c-0.6-1.2-1.2-2.5-1.9-3.7c-0.6-1.2-1.2-2.5-1.2-3.7c-0.6-1.2-0.6-2.5-1.2-3.7c0-0.6,0-1.2-0.6-1.9v-0.6
			v-0.6c0-1.2,0-1.9,0-3.1c0-0.3,0-0.8,0-1.2c0,0,0,0,0,0c-1.9,5,0.6,16.8,0.6,16.8s-2.4-2.7-3.9-7.8
			C201.1,175.5,192.9,186.2,180,189.3z"/>
		<path class="st19" d="M188.4,213.5L188,216c0.1,0,0.1,0,0.1,0c0.6-0.6,3.1-0.6,3.7-1.2c0.2-0.2,0.4-0.3,0.6-0.5
			c-1.2-0.4-2.2-0.7-3-0.8C189,213.5,188.7,213.5,188.4,213.5z"/>
		<path class="st16" d="M152.1,225.4L152.1,225.4c0.3,0,1,0,2,0l0-0.2C153.3,225.3,152.6,225.4,152.1,225.4z"/>
		<path class="st16" d="M153.2,231.6c-0.9,0-1.6,0-2,0c0,0,0,0,0,0c0.4,0,1.1,0,2,0.1C153.2,231.7,153.2,231.7,153.2,231.6
			L153.2,231.6z"/>
		<path class="st16" d="M157.6,199.9c0-1.2,1.2-2.5,3.1-2.5l27.4,1.9c0.5,0,1.3,1.1,1.7,2.1l0.2-1.5c0.6-1.9-0.6-3.1-2.5-3.1
			l-4.4-0.3l-24.2-1.6c-1.9,0-3.1,1.2-3.1,2.5l-1.6,12.4l-0.5,3.7c0.6,0,1.4,0,2.1,0L157.6,199.9z"/>
		<path class="st22" d="M178.8,234.1c-1.7,0-4.2,0-6.6-0.2c0.3,0,0.6,0.1,1,0.2c1.6,0.4,7.9,0.3,12,0.1c0,0,0.1-0.1,0.1-0.1
			C182.9,234.1,180.1,234.1,178.8,234.1z"/>
		<path class="st22" d="M171.6,233.9c-0.6-0.1-1.1-0.1-1.6-0.2c-0.1,0.5-0.4,1-0.9,1.4l0.6,0C170,234.3,170.5,233.9,171.6,233.9z"/>
		<path class="st22" d="M188.7,211.4l1.3-9c0-0.3-0.1-0.7-0.2-1c-0.4-1.1-1.2-2.1-1.7-2.1l-27.4-1.9c-1.9,0-3.1,1.2-3.1,2.5
			l-1.9,13.6c1.6,0,3.2,0.2,3.7,0.8c1.9,1.2,2.5,2.5,1.2,4.4c0,0,7.5-0.6,8.7-0.6c1.1,0,2.1,1.3,2.4,2.5c0,0,0.1,0,0.1,0v0.1
			c2.6,0.2,6.9,0.5,6.9,0.5c-1.2-1.9-0.6-3.1,1.2-4.4c1.2-1.2,7.2-0.7,8-0.6l0.4-2.6L188.7,211.4z M175,210.4c0,0-0.6,0.6-1.2,0.6
			h-3.7c-0.6,0-1.2-0.6-1.2-1.2l0.6-7.5c0-0.6,0.6-1.2,1.2-1.2l3.7,0.6c0.6,0,1.2,0.6,1.2,1.2L175,210.4z"/>
		<path class="st22" d="M154.1,225.2l0,0.2c1.1,0,2.6,0,4.1,0c2.1,0,7.9,0.3,11.9,0.5c-0.7-0.3-1.8-0.9-2.3-1.6
			c-0.1,0.1-0.2,0.3-0.2,0.5v-0.6c0-0.1,0-0.3,0-0.4c0,0,0-0.1,0-0.1c-2.2,0.3-6.8,1.1-8.7,1.1C157.3,224.8,155.6,225,154.1,225.2z"
			/>
		<path class="st22" d="M174.7,228.1c2.7-0.1,5.3-0.2,6.5-0.2c1.9,0,3.9,0,5.1,0l0-0.1c-1.5-0.2-3.8-0.5-5.7-0.5
			c-1.4,0-3.9-0.4-6.1-0.7C174.8,226.9,174.9,227.5,174.7,228.1z"/>
		<path class="st22" d="M165.1,231.6C165.1,231.6,165,231.6,165.1,231.6c-1.7,0-3.2,0-4.4,0c-1.6,0-5.1,0-7.5,0l0,0c0,0,0,0.1,0,0.1
			c3.4,0.1,9.2,0.3,12,0.1C165.2,231.7,165.1,231.7,165.1,231.6L165.1,231.6z"/>
		<path class="st17" d="M174.4,201.7l-3.7-0.6c-0.6,0-1.2,0.6-1.2,1.2l-0.6,7.5c0,0.6,0.6,1.2,1.2,1.2h3.7c0.6,0,1.2-0.6,1.2-0.6
			l0.6-7.5C175.7,202.4,175,201.7,174.4,201.7z M174.4,204.8c0-0.6,0,0-0.6,0h-2.5c-0.6,0-0.6-0.6-0.6-0.6V203
			c0-0.6,0.6-0.6,0.6-0.6h2.5c0.6,0,0.6,0.6,0.6,1.2V204.8z"/>
		<path class="st22" d="M173.8,202.4h-2.5c0,0-0.6,0-0.6,0.6v1.2c0,0,0,0.6,0.6,0.6h2.5c0.6,0,0.6-0.6,0.6,0v-1.2
			C174.4,203,174.4,202.4,173.8,202.4z"/>
		<path class="st18" d="M170,233.7c-1.2-0.2-2.3-0.4-3-0.8c0,0,0,0,0,0c-1.1,0-1.2-0.5-1.7-1.1c-2.8,0.2-8.6,0.1-12-0.1
			c-0.9,0-1.6-0.1-2-0.1c-0.3,0-0.5,0-0.5,0s0.2,0,0.5,0c0.4,0,1.1,0,2,0c2.4,0,5.9,0,7.5,0c1.1,0,2.7,0,4.3-0.1
			c-0.6-0.6-0.6-1.2-0.6-1.8c0-0.6,0.6-1.2,1.2-1.2c0,0,0,0,0,0c0.7,0,5-0.2,9-0.4c0.1-0.6,0.1-1.2-0.2-1.6
			c-1.8-0.3-3.3-0.5-3.9-0.5c-0.1,0-0.3-0.1-0.6-0.2c-3.9-0.2-9.8-0.5-11.9-0.5c-1.5,0-3,0-4.1,0c-1,0-1.7,0-2,0c-0.1,0-0.1,0-0.1,0
			c0,0,0.1,0,0.1,0c0.5,0,1.2-0.1,2-0.2c1.4-0.2,3.2-0.4,4.7-0.4c1.9,0,6.5-0.8,8.7-1.1c0-0.1,0-0.1,0-0.2c0-1.2,1.2-3.1,2.5-3.1
			c0,0,0,0,0,0c0,0,0,0,0,0c0.6,0,1.2,0,1.8,0c-0.3-1.2-1.3-2.5-2.4-2.5c-1.2,0-8.7,0.6-8.7,0.6c1.2-1.9,0.6-3.1-1.2-4.4
			c-0.5-0.5-2.1-0.7-3.7-0.8c-0.7,0-1.4,0-2.1,0c-1.3,0-2.3,0.1-2.3,0.1c-0.6-0.6-3.1-0.6-3.7-1.2c-0.6-0.6-1.9-1.2-1.9-1.2
			c-1.1,0-1.9,0.1-2.5,0.2c-1.9,0.4-2.2,1.3-3.1,2.3c-1.2,1.2-1.9,4.4-1.9,4.4l-3.8,4.7l-1.3,1.6c-2.3,6.9,3,13.4,6.6,16.8
			c2.1-0.5,4.9-1.3,5.3-1.3c0.6,0,1.9,0,3.1-1.2c1.9-1.2,3.1-1.2,6.2-1.2s6.9-1.2,10.6-1.2c2,0,3.2-0.4,3.9-0.9
			C169.6,234.6,169.8,234.2,170,233.7z M172.6,226.6c0,0,0.6,0,1.2,0s0.6,0,0.6,0.6c-1.9,0-3.1-0.6-3.1,0c-0.6,0-1.2,0-1.9-0.6
			C170.7,226.6,171.9,226.6,172.6,226.6z M149.5,219.8h-0.6c-0.6,0-1.2,0-1.9,0c-0.6,0-0.6,0-1.2,0c-0.6-0.6-0.6-0.6-1.2-0.6
			c0,0,0,0-0.6,0c0.6,0,0.6,0,0.6,0c0.6,0,0.6,0,1.2,0c0.6,0,0.6,0,1.2,0c0,0,0.6,0,1.2,0c0.6,0,1.2,0,1.9,0c0.6,0,1.2,0,1.9,0
			c0.6,0,1.2,0,1.9,0c0.6,0,1.2,0,1.9,0c0,0,0.6,0,1.2,0c0.6,0,0.6,0,1.2,0c0.6-0.6,1.2-0.6,1.9-0.6s0.6,0,0.6,0s0,0.6-0.6,0.6
			c-0.6,0-1.2,0.6-1.9,0.6c0,0-0.6,0-1.2,0c0,0-0.6,0-1.2,0s-1.2,0-1.9,0s-1.2,0-1.9,0s-1.2,0-1.9,0H149.5z"/>
		<path class="st19" d="M165.1,231.6c0.1,0.1,0.1,0.1,0.1,0.2c0.5,0.6,0.6,1.1,1.7,1.1c-0.8-0.3-1.3-0.8-1.7-1.2H165.1L165.1,231.6z
			"/>
		<path class="st19" d="M167.6,224.8c0-0.3,0.1-0.4,0.2-0.5c-0.1-0.2-0.2-0.3-0.2-0.5c0,0.1,0,0.3,0,0.4V224.8z"/>
		<path class="st19" d="M171.8,220.4c-0.6,0-1.2,0-1.8,0C170.4,220.4,171.1,220.5,171.8,220.4L171.8,220.4
			C171.9,220.4,171.9,220.4,171.8,220.4z"/>
		<path class="st19" d="M170,220.4C170,220.4,170,220.4,170,220.4C170.1,220.4,170.1,220.4,170,220.4C170,220.4,170,220.4,170,220.4
			z"/>
		<path class="st19" d="M174.4,227.3c0-0.6,0-0.6-0.6-0.6s-1.2,0-1.2,0c-0.6,0-1.9,0-3.1,0c0.6,0.6,1.2,0.6,1.9,0.6
			C171.3,226.6,172.6,227.3,174.4,227.3z"/>
		<path class="st19" d="M164.5,229.8c0,0.6,0,1.2,0.6,1.8c0,0,0,0,0.1,0.1h0.2c-1-1.4-0.5-3.1,0.5-3.1
			C165.1,228.5,164.5,229.1,164.5,229.8z"/>
		<path class="st23" d="M144.5,219.2c0,0,0,0-0.6,0"/>
		<path class="st19" d="M153.9,219.8c0.6,0,1.2,0,1.9,0s1.2,0,1.2,0c0.6,0,1.2,0,1.2,0c0.6,0,1.2-0.6,1.9-0.6c0.6,0,0.6-0.6,0.6-0.6
			s0,0-0.6,0s-1.2,0-1.9,0.6c-0.6,0-0.6,0-1.2,0c-0.6,0-1.2,0-1.2,0c-0.6,0-1.2,0-1.9,0c-0.6,0-1.2,0-1.9,0c-0.6,0-1.2,0-1.9,0
			c-0.6,0-1.2,0-1.9,0c-0.6,0-1.2,0-1.2,0c-0.6,0-0.6,0-1.2,0c-0.6,0-0.6,0-1.2,0c0.6,0,0.6,0,1.2,0.6c0.6,0,0.6,0,1.2,0
			c0.6,0,1.2,0,1.9,0h0.6h0.6c0.6,0,1.2,0,1.9,0S153.2,219.8,153.9,219.8z"/>
		<path class="st18" d="M203.7,230.4c1.9-6.2-1.9-10-3.1-11.2c0.4,0.3,0.7,0.5,1.1,0.8c-0.2-0.9-0.8-2.9-1.8-3.9
			c-1.2-1.2-1.9-2.5-6.2-2.5c0,0-0.7,0.3-1.3,0.8c-0.2,0.1-0.4,0.3-0.6,0.5c-0.6,0.6-3.1,0.6-3.7,1.2c0,0,0,0-0.1,0
			c-0.8-0.1-6.8-0.5-8,0.6c-1.9,1.2-2.5,2.5-1.2,4.4c0,0,0,0,0.6,0s1.2,0,1.9,0.6c0.6,0,0.6,0,1.2,0s1.2,0,1.2,0c0.6,0,1.2,0,1.9,0
			s1.2,0,1.9,0s1.2,0,1.9,0s1.2,0,1.9,0c0.6,0,1.2,0,1.2,0c0.6,0,1.2,0,1.2,0c0.6,0,0.6,0,1.2,0c0,0,0,0,0.6,0c-0.6,0-0.6,0-0.6,0
			c-0.6,0-0.6,0-1.2,0.6c-0.6,0-0.6,0-1.2,0s-1.2,0-1.9,0H190h-0.6c-0.6,0-1.2,0-1.9,0s-1.2,0-1.9,0s-1.2,0-1.9,0
			c-0.6,0-1.2,0-1.2,0c-0.6,0-1.2,0-1.2,0c-0.6,0-1.2-0.6-1.9-0.6c-0.6-0.6-0.6-0.6-0.6-0.6s-4.2-0.4-6.9-0.5
			c-0.9-0.1-1.6-0.1-1.9-0.1c0,0,0,0,0,0c-1.2,0-2.5,1.9-2.5,3.1c0,0.1,0,0.1,0,0.2c0,0,0,0.1,0,0.1c0,0.2,0.1,0.3,0.2,0.5
			c0.5,0.7,1.6,1.4,2.3,1.6c0.3,0.1,0.5,0.2,0.6,0.2c0.6,0,2.1,0.3,3.9,0.5c2.2,0.3,4.7,0.7,6.1,0.7c1.9,0,4.2,0.4,5.7,0.5
			c0.5,0.1,0.9,0.1,1.1,0.1c0,0-0.4,0-1.2,0c-1.2,0-3.1,0-5.1,0c-1.3,0-3.8,0.1-6.5,0.2c-4,0.2-8.3,0.4-9,0.4c0,0,0,0,0,0
			c-0.9,0-1.5,1.7-0.5,3.1c0.4,0.5,0.9,0.9,1.7,1.2c0,0,0,0,0,0c0.7,0.4,1.8,0.6,3,0.8c0.5,0.1,1.1,0.1,1.6,0.2
			c-1.1,0-1.6,0.4-2,1.2c-0.1,0.1-0.1,0.2-0.2,0.3c0,1.2,0.6,3.1,5,3.1c3.7,0,7.5,1.2,10.6,1.2s4.4,0,6.2,1.2c0.7,0.7,1.3,1,1.9,1.1
			V241C197.5,242.2,201.2,238.5,203.7,230.4z M185.1,234.3c-4.1,0.1-10.3,0.3-12-0.1c-0.4-0.1-0.7-0.2-1-0.2c2.4,0.2,5,0.2,6.6,0.2
			c1.3,0,4.2,0,6.4,0c1.9,0,3.5,0,3.5,0S187.2,234.2,185.1,234.3z"/>
		<path class="st23" d="M195.6,221.7c-0.6,0-0.6,0-0.6,0"/>
		<path class="st19" d="M181.3,222.3c0,0,0.6,0,1.2,0c0,0,0.6,0,1.2,0c0.6,0,1.2,0,1.9,0s1.2,0,1.9,0s1.2,0,1.9,0h0.6h0.6
			c0.6,0,1.2,0,1.9,0s0.6,0,1.2,0c0.6-0.6,0.6-0.6,1.2-0.6c-0.6,0-0.6,0-1.2,0c0,0-0.6,0-1.2,0c0,0-0.6,0-1.2,0c-0.6,0-1.2,0-1.9,0
			s-1.2,0-1.9,0s-1.2,0-1.9,0s-1.2,0-1.9,0c0,0-0.6,0-1.2,0s-0.6,0-1.2,0c-0.6-0.6-1.2-0.6-1.9-0.6s-0.6,0-0.6,0s0,0,0.6,0.6
			C180,221.7,180.6,222.3,181.3,222.3z"/>
		<path class="st17" d="M202.3,220.3c0.1,0.1,0.2,0.1,0.3,0.2c-0.3-0.2-0.5-0.4-0.8-0.7C202,219.9,202.1,220.1,202.3,220.3z"/>
		<path class="st24" d="M232,183.6c-0.1-1.5-0.2-2.9-0.3-4.2c0,0.7,0,1.3,0,1.9C231.7,182.1,231.9,182.8,232,183.6z"/>
		<path class="st16" d="M143.5,141.5c0.6,0.2,1.1,0.3,1.7,0.5c3.2,0.9,6.8,1.8,8.6,1.8c0.9-0.1,1.8-0.6,2.7-1.3
			c0.5-1.5,1.1-2.6,1.6-3.7c0-0.6,0.6-1.2,0.6-1.9c0-0.6,0-1.2,0-1.9c0-1.2,0-1.9-0.6-3.1c0,0,0,0,0-0.6c0,0,0,0,0-0.6l1.2-0.6
			c0,0,0,0.2,0,0.3c0,0.3,0,0.3,0,0.3v0.6c0,0.6,0.6,1.9,0,3.1c0,0.6,0,1.2,0,1.9c0,0.6-0.6,1.2-0.6,2.5c-0.3,1-0.7,1.8-1,2.7
			c2.6-2.4,4.7-6.2,4.7-9.5c0-1.3-0.3-3.1-0.7-5.2c-0.1-0.3-0.1-0.6-0.2-0.9c-0.1-0.3-0.2-0.5-0.4-0.7c0-0.6,0-0.6-0.6-0.6v-0.6
			l0.5-1.1c-0.9-5.6-1.5-12.6,0.7-18.8c3.1-11.2,6.9-28,24.9-28c0,0,19.3,3.7,23,11.8c3.1,6.6,1.9,17.9,0.7,27.2
			c-0.3,2-0.5,4-0.7,5.8c-1.2,9.9-6.8,19.2-7.5,30.4c0,0.1,0,0.1,0,0.2c-0.2,3.8,0.3,7.1,1.1,9.7c1.5,5,3.9,7.8,3.9,7.8
			s-2.5-11.8-0.6-16.8c0,0,0,0,0,0c0-0.5,0-0.9,0-1.3c0-0.6,0-1.2,0-1.2c0-0.6,0-0.6,0-0.6l1.9-0.6c0,0,0,0.2,0,0.3
			c0,0.5,0,1.1,0,1.6c0,0.6,0,1.2,0,2.5c0,0.6,0,1.9,0,3.1v0.6v0.6c0,0.6,0,1.2,0,1.9c0,1,0.4,2,0.6,3c1.1,3.3,2.5,7,4.4,10.1
			c1,1.7,1.9,3,2.7,4.1c3.1,4.3,4.5,5.3,6,10.3c1.9,6.2,9.3,16.8,12.5,18.7c0,0-0.7-4.3-1.5-9.9c-0.5-1.2-1.1-2.7-1.6-3.8
			c-0.6-1.2-1.2-2.5-1.2-4.4c-0.6-1.9-0.6-3.1-1.2-5c0-1.9-0.6-3.1-0.6-5c0-0.6,0-0.6,0-1.2c0-0.6,0-0.6,0-1.2c0-0.6,0-1.2,0-2.5
			c0-0.6,0-0.6,0-1.2c0-0.6,0-0.6,0-1.2c0-0.6,0-1.2,0-1.9s0-0.6,0-0.6v-0.6c0-0.6,0-1.2,0-1.9c0-1.2,0-1.9,0.6-2.5
			c0-0.6,0-0.6,0-1.2V160c0-0.6,0-0.6,0-0.6l3.7,1.9c0,0.6,0,1.2-0.6,1.2v0.6c0,0.6-0.6,1.2-0.6,2.5c0,0.6,0,1.2,0,1.2v0.6v0.6
			c0,0.6,0,1.2,0,1.9c0,0.6,0,0.6,0,1.2c0,0.6,0,0.6,0,1.2c0,0.6,0,1.2,0,1.9c0.6-8.1,0.6-8.1,0.6-8.1s8.7,16.8,9.3,29.9
			s0.6,21.8-1.9,26.8c0,0,3-5.3,4.4-18.2c0.5-4.7,0.8-10.5,0.6-17.3c-0.6-24.9-8.1-49.8-10-58.5c-1.2-8.7-8.1-44.8-10.6-52.9
			c-2.5-8.1-16.8-24.9-26.2-23c0,0-10-3.1-19.9,2.5c-10,6.2-19.3,26.8-21.2,34.9c-1.9,8.1-0.6,26.8-2.5,34.9
			c-1.9,8.1-4.4,14.3-15.6,14.9c0,0,0.8,0.3,2,0.6C141.6,140.9,142.5,141.2,143.5,141.5z"/>
		<path class="st17" d="M229.9,284.6c3.7-3.7,13.1-8.1,13.1-16.8c0-5.3-0.7-8.1-0.8-10.2l-0.4-0.4l-0.6-0.6
			c-0.6-0.6-0.6-0.6-1.2-1.2c-0.6-0.6-0.6-0.6-1.2-1.2l-0.6-0.6l-0.6-0.6c-1.2-0.6-1.9-1.2-3.1-1.9c-0.6-0.6-1.2-0.6-1.2-1.2
			l-1.9-1.2l-3.1-1.9l-3.1-1.9c-1.2-0.6-1.9-1.2-3.1-1.9l-3.1-1.9c0-0.6-0.6-1.2-0.6-1.9c0-0.6-0.6-1.2-0.6-1.9
			c-0.6-1.2-1.2-2.5-1.2-3.7l-0.6-1.9l-1.9-4.4c0-0.6,0-0.6-0.6-1.2l-0.4-0.8c-1.4-0.6-6.3-2.5-10-4.8c-0.1-0.1-0.2-0.1-0.3-0.2
			c-0.2-0.1-0.4-0.3-0.6-0.4c-0.4-0.3-0.8-0.5-1.1-0.8c1.2,1.2,5,5,3.1,11.2c-2.5,8.1-6.2,11.8-10.6,10.6v1.1v3.9
			c0,0,0.9,3.5,2.6,8.1c0.8,2.1,1.8,4.5,3,6.9c3.7,7.5,13.7,16.2,16.8,19.3c1.6,2,5.4,4.6,9,5.3
			C226.5,285.8,228.3,285.6,229.9,284.6z"/>
		<path class="st17" d="M214.3,208l-1.2,16.6c0.1,0.3,0.3,0.5,0.6,0.8l0.6,0.6l0.6,0.6l1.2,1.9l0.6,1.9c0.6,1.2,1.2,2.5,1.9,3.7
			c0,0.6,0.6,1.2,0.6,1.9c0,0.5,0.3,0.9,0.5,1.4c0.5,0.2,0.9,0.5,1.4,0.5l1.9,1.2c0.6,0.6,1.2,0.6,1.9,1.2c0.6,0.6,1.2,0.6,1.9,1.2
			c0.5,0,1,0,1.9,0c1.2,0,1.9,0,3.1,0.6h0.6h0.6c0.6,0,1.2,0,1.9,0.6c0.6,0,1.2,0.6,1.9,0.6c0.6,0,1.2,0.6,1.9,0.6
			c0.6,0,1.2,0.6,1.2,1.2c0,0,0,0,0.6,0l0.6,0.6c0,0.6,0.6,0.6,0.6,1.2c0,0.1,0,0.1,0,0.2c0.4,0.2,0.6,0.6,0.6,1v0.6v-0.6
			c-0.5-0.5-0.6-0.6-0.6-1c-0.2-0.1-0.4-0.2-0.6-0.2c0,0-0.6,0-0.6-0.6c0,0,0,0-0.6,0c-0.6,0-0.6-0.6-1.2-0.6H238h-0.6
			c-0.6,0-1.2-0.6-1.9-0.6c-0.6,0-1.2-0.6-1.9-0.6c-0.6,0-1.2-0.6-1.9-0.6c-1.2-0.6-1.9-0.6-3.1-1.2c0,0,0,0,0,0l0,0l1.9,1.2
			c0.6,0.6,1.2,0.6,1.2,1.2c0.6,0.6,1.2,0.6,1.2,1.2l1.2,1.2c0.6,0.6,1.2,0.6,1.2,1.2c0.6,0.6,1.2,0.6,1.2,1.2
			c0.6,0.6,1.2,0.6,1.2,1.2c0.6,0.6,0.6,0.6,1.2,1.2c0.6,0.6,0.6,0.6,1.2,1.2c0,0,0,0,0,0.6v0.6l0.6,0.6c0.6,0.6,0.6,1.1,1.1,1.7
			c-0.1-1.3,0.1-2.3,0.8-3.5c1.9-3.1-1.2-13.1-1.2-13.1s1.2-1.2,1.2-4.4c-2.5-1.9-4.4-3.7-6.9-6.2c-3.7-3.7-7.5-7.5-10.6-11.8
			c-2.5-3.1-4.4-6.9-6.2-10.6h-4.1h-0.4H214.3z"/>
		<path class="st21" d="M240.4,255.3v-0.6c0-0.6,0-0.6,0-0.6c-0.6-0.6-0.6-0.6-1.2-1.2c-0.6-0.6-0.6-0.6-1.2-1.2
			c0-0.6-0.6-0.6-1.2-1.2c0-0.6-0.6-0.6-1.2-1.2c0-0.6-0.6-0.6-1.2-1.2l-1.2-1.2c0-0.6-0.6-0.6-1.2-1.2c0-0.6-0.6-0.6-1.2-1.2
			l-1.9-1.2l0,0c-0.6,0-1.9-0.6-1.9-0.6c-0.6-0.6-1.2-0.6-1.2-0.6c0.6,0,0.6,0,0.6,0c0.2,0,0.4,0,0.6,0c-0.6-0.6-1.2-0.6-1.9-1.2
			c-0.6-0.6-1.2-0.6-1.9-1.2l-1.9-1.2c-0.5,0-0.9-0.3-1.4-0.5c-0.2-0.5-0.5-0.9-0.5-1.4c0-0.6-0.6-1.2-0.6-1.9
			c-0.6-1.2-1.2-2.5-1.9-3.7l-0.6-1.9l-1.2-1.9l-0.6-0.6l-0.6-0.6c-0.3-0.3-0.4-0.5-0.6-0.8c-0.2-0.3-0.3-0.7-0.7-1
			c0,0.6,0.6,1.2,0,1.2l0.2,0.5l0.4,0.8c0.6,0.6,0.6,0.6,0.6,1.2l1.9,4.4l0.6,1.9c0,1.2,0.6,2.5,1.2,3.7c0,0.6,0.6,1.2,0.6,1.9
			c0,0.6,0.6,1.2,0.6,1.9l3.1,1.9c1.2,0.6,1.9,1.2,3.1,1.9l3.1,1.9l3.1,1.9l1.9,1.2c0,0.6,0.6,0.6,1.2,1.2c1.2,0.6,1.9,1.2,3.1,1.9
			l0.6,0.6l0.6,0.6c0.6,0.6,0.6,0.6,1.2,1.2c0.6,0.6,0.6,0.6,1.2,1.2l0.6,0.6l0.4,0.4l0.2,0.2c-0.1-0.1-0.1-0.1-0.2-0.2
			c-0.4-0.6-0.5-1.1-1.1-1.7L240.4,255.3z"/>
		<line class="st25" x1="242.3" y1="248.4" x2="242.3" y2="249.1"/>
		<path class="st21" d="M241.7,247.4c0,0.4,0.1,0.5,0.6,1C242.3,248,242,247.6,241.7,247.4z"/>
		<path class="st21" d="M225.5,241.6c0,0,0.6,0,1.2,0.6c0,0,1.2,0.6,1.9,0.6c0,0,0,0,0,0c1.2,0.6,1.9,0.6,3.1,1.2
			c0.6,0,1.2,0.6,1.9,0.6c0.6,0,1.2,0.6,1.9,0.6c0.6,0,1.2,0.6,1.9,0.6h0.6h0.6c0.6,0,0.6,0.6,1.2,0.6c0.6,0,0.6,0,0.6,0
			c0,0.6,0.6,0.6,0.6,0.6c0.2,0,0.4,0.1,0.6,0.2c0-0.1,0-0.1,0-0.2c0-0.6-0.6-0.6-0.6-1.2l-0.6-0.6c-0.6,0-0.6,0-0.6,0
			c0-0.6-0.6-1.2-1.2-1.2c-0.6,0-1.2-0.6-1.9-0.6c-0.6,0-1.2-0.6-1.9-0.6c-0.6-0.6-1.2-0.6-1.9-0.6h-0.6h-0.6
			c-1.2-0.6-1.9-0.6-3.1-0.6c-0.8,0-1.4,0-1.9,0c-0.2,0-0.4,0-0.6,0C226.1,241.6,226.1,241.6,225.5,241.6z"/>
		<path class="st17" d="M123.3,258.4c2.7-1.8,6.9-3.9,9.8-6c1.2-0.9,2.1-1.8,2.7-2.7c1.9-3.1,1.9-3.1,1.9-3.1l5-3.1
			c0,0-1.2-0.9-2.8-2.4c-3.5-3.4-8.9-9.9-6.6-16.8c0.3-0.9,0.7-1.8,1.3-2.7c0.6-1,1.5-2,2.5-3l-2.4,0.9l-10.7,4.1
			c0,0-6.2,1.2-9.3,3.7c-2.4,1.9-4.8,3.1-5.8,3.5c-0.3,0.1-0.5,0.2-0.5,0.2l0.6-21.2H85.3h-0.5c-0.6,6.2-2.5,14.9-3.7,19.9
			c-1.9,6.2-2.5,6.9-2.5,13.1c0,6.2,6.2,22.4,11.2,25.5c5.6,3.1,11.2-1.9,15.6-3.1c0.8-0.2,1.7-0.5,2.7-0.8
			C112.9,263,120.3,260.5,123.3,258.4z"/>
		<path class="st26" d="M158.8,145.7c0.6-0.6,1.2-1.2,1.9-1.9"/>
		<path class="st26" d="M152,148.2h0.6c0.6,0,0.6,0,1.2,0"/>
		<path class="st16" d="M162.6,128.6c0.1,1.2,0.6,2.9,0.6,4.6v0.6v0.6c0,0,0,0.6,0,1.2c0,1.2-0.6,1.9-0.6,3.1c0,0.4,0,1.1-0.2,1.7
			c0.4-0.8,0.8-1.4,0.8-2.3c0.6-1.2,0.6-1.9,0.6-3.1c0,0,0-0.6,0-1.2v-0.6v-0.6c0-0.4,0-0.7,0-1.1c0-1.5-0.1-2.9-0.6-3.9
			c-0.6-1.9-1.2-3.1-1.2-3.7c0-0.6-0.6-0.6-0.6-1.2l-0.1,0.2l-0.5,1.1v0.6c0.6,0,0.6,0,0.6,0.6c0.2,0.2,0.3,0.4,0.4,0.7
			c0.3,0.7,0.4,1.5,0.8,2.4C162.6,128.4,162.6,128.5,162.6,128.6z"/>
		<path class="st16" d="M162,141.3c-0.6,0.6-1.2,1.9-1.2,2.5C161.3,143.2,162,141.9,162,141.3z"/>
		<path class="st16" d="M157,146.9c-0.6,0-1.2,0.6-1.9,0.6C155.7,147.5,156.4,147.5,157,146.9z"/>
		<path class="st16" d="M158.8,145.7c-0.6,0.6-1.2,0.6-1.9,1.2C157.6,146.9,158.2,146.3,158.8,145.7z"/>
		<path class="st16" d="M154.5,148.1c0.3-0.1,0.6-0.2,0.6-0.6c-0.1,0-0.2,0-0.3,0C154.7,147.7,154.6,147.9,154.5,148.1z"/>
		<path class="st24" d="M162.4,140.5c-0.1,0.2-0.3,0.5-0.4,0.8C162.2,141.1,162.3,140.8,162.4,140.5z"/>
		<path class="st16" d="M153.9,148.2c0.1,0,0.1,0,0.2,0c0.1-0.2,0.2-0.4,0.4-0.6C154.1,147.6,153.9,147.8,153.9,148.2z"/>
		<path class="st16" d="M154.5,147.5C154.5,147.5,154.5,147.6,154.5,147.5c-0.2,0.2-0.3,0.4-0.5,0.6c-0.2,0.4-0.4,0.8-0.8,1.2
			c0,0.6-0.6,0.6-1.2,1.2c-0.6,0.6-0.6,1.2-1.2,1.2c-0.6,0-0.6,0.6-1.2,0.6c0,0.6-0.6,0.6-0.6,0.6s0,0,0.6,0c0.6,0,0.6-0.6,1.2-0.6
			c0-0.6,0.6-0.6,1.2-1.2c0,0,0.6-0.6,1.2-1.2c0-0.6,0.6-1.2,1.2-1.9c0,0,0,0,0,0c0.1-0.2,0.2-0.4,0.3-0.6c0.7-1.2,1.6-2.7,2.2-3.7
			c0.3-0.9,0.6-1.6,0.9-2.3c0.3-0.8,0.7-1.7,1-2.7c0-1.2,0.6-1.9,0.6-2.5c0-0.6,0-1.2,0-1.9c0.6-1.2,0-2.5,0-3.1v-0.6c0,0,0,0,0-0.3
			c0,0,0-0.3,0-0.3l-1.2,0.6c0,0.6,0,0.6,0,0.6c0,0.6,0,0.6,0,0.6c0.6,1.2,0.6,1.9,0.6,3.1c0,0.6,0,1.2,0,1.9c0,0.6-0.6,1.2-0.6,1.9
			c-0.5,1.1-1.1,2.2-1.6,3.7c-0.1,0.2-0.1,0.4-0.2,0.6C155.7,144.4,155.1,146.3,154.5,147.5z"/>
		<path class="st26" d="M220.5,192.4c0,0,0,0,0-0.6v-0.6c0-0.6,0-0.6,0-0.6v-0.6c0-0.6,0-0.6,0-1.2c0-0.6,0-0.6,0-1.2"/>
		<path class="st24" d="M219.9,184.3c0,1.2,0.6,2.5,0.6,3.1C220.5,186.2,220.5,185.5,219.9,184.3z"/>
		<path class="st24" d="M218.6,181.2c0.6,1.2,0.6,1.9,1.2,3.1C219.9,183.7,219.3,182.4,218.6,181.2z"/>
		<path class="st16" d="M206.8,153.1c0,1.2,0,1.9,0,3.1v0.6v0.6c0.6,0.6,0.6,1.2,0.6,1.9c0.6,1.2,0.6,2.5,1.2,3.7
			c0,1.2,0.6,2.5,1.2,3.7c0.6,1.2,1.2,2.5,1.9,3.7c1.6,2.6,3.2,4.4,4.4,6.4c0.2,0.4,0.4,0.7,0.6,1.1c0.6,0.6,1.2,1.9,1.9,3.1
			c-0.6-1.2-1.2-2.5-1.9-3.7c-0.2-0.3-0.3-0.7-0.5-1c-1.2-2.2-2.8-4.3-3.8-6.5c-0.6-1.2-1.2-2.5-1.9-3.7c-0.6-1.2-0.6-2.5-1.2-3.7
			c0-0.2,0-0.5-0.1-0.7c-0.2-1-0.6-2-0.6-3c0-0.6,0-1.2,0-1.9v-0.6v-0.6c0-1.2,0-2.5,0-3.1c0-1.2,0-1.9,0-2.5c0-0.5,0-1.1,0-1.6
			c0,0,0-0.3,0-0.3l-1.9,0.6c0,0,0,0,0,0.6c0,0,0,0.6,0,1.2c0,0.3,0,0.8,0,1.3C206.8,152.4,206.8,152.8,206.8,153.1z"/>
		<path class="st26" d="M237.3,206.1c0,0.6,0,1.2,0,1.2c0,0.6,0,0.6,0,1.2c0,0.6,0,0.6,0,1.2v0.6c0,0.6,0,0.6,0,0.6"/>
		<path class="st16" d="M235.5,199.9c0.6,1.2,0.6,2.5,1.2,3.7v0.6v0.6c0.6,0,0.6,0.6,0.6,1.2c0-0.6,0-1.2,0-1.9v-0.6V203
			c-0.6-1.2-0.6-2.5-1.2-3.7c0-1.2-0.6-3.1-1.2-4.4c-0.6-1.2-0.6-3.1-1.2-4.4c-0.6-1.2-1.2-2.5-1.2-4.4c0-1-0.2-1.8-0.3-2.6
			c-0.1-0.7-0.3-1.5-0.3-2.4c0-0.5,0-1.2,0-1.9c0-0.9,0-1.8,0-2.5c0-0.6,0-0.6,0-1.2c0-0.6,0-0.6,0-1.2c0,0,0,0,0,0
			c0-0.6,0-1.2,0-1.9c0-0.6,0-0.6,0-1.2c0-0.6,0-0.6,0-1.2c0-0.6,0-1.2,0-1.9v-0.6v-0.6c0,0,0-0.6,0-1.2c0-1.2,0.6-1.9,0.6-2.5v-0.6
			c0.6,0,0.6-0.6,0.6-1.2l-3.7-1.9c0,0,0,0,0,0.6v0.6c0,0.6,0,0.6,0,1.2c-0.6,0.6-0.6,1.2-0.6,2.5c0,0.6,0,1.2,0,1.9v0.6
			c0,0,0,0,0,0.6s0,1.2,0,1.9c0,0.6,0,0.6,0,1.2c0,0.6,0,0.6,0,1.2c0,1.2,0,1.9,0,2.5c0,0.6,0,0.6,0,1.2c0,0.6,0,0.6,0,1.2
			c0,1.9,0.6,3.1,0.6,5c0.6,1.9,0.6,3.1,1.2,5c0,1.9,0.6,3.1,1.2,4.4c0.5,1.1,1.1,2.6,1.6,3.8c0.1,0.2,0.2,0.4,0.3,0.6
			C234.2,197.4,234.8,198.6,235.5,199.9z"/>
	</g>
	<g>
		<path class="st27" d="M232.2,185.2l-8-4.9l1-9.5l-7.3,6.2l-8.5-3.8l3.5,8.8l-6.4,7.1l9.5-0.7l4.7,8.3l2.2-9.3L232.2,185.2z"/>
		<polygon class="st28" points="223,187.2 220.7,196.5 216,188.2 225.2,170.8 224.2,180.3 232.2,185.2 		"/>
	</g>
	<g>
		<path class="st27" d="M232.5,144.8l-5.4,0.4l-2.7-4.8l-1.3,5.3l-5.3,1.1l4.6,2.9l-0.6,5.5l4.2-3.5l5,2.3l-2.1-5.1L232.5,144.8z"/>
		<polygon class="st28" points="228.9,148.8 230.9,153.9 225.9,151.6 224.4,140.3 227.1,145.1 232.5,144.8 		"/>
	</g>
	<g>
		<path class="st27" d="M271.5,130.6l-12.5-1.8l-3.8-12.3l-5.7,11.5l-12.6-0.2l8.9,8.9l-4.2,12.1l11.4-6l10.2,7.7l-2.2-12.6
			L271.5,130.6z"/>
		<polygon class="st28" points="261.2,138 263.4,150.6 253.1,142.9 255.2,116.5 259,128.8 271.5,130.6 		"/>
	</g>
</g>
</svg>
